<svg id="Layer_1" data-name="Layer 1" xmlns="http://www.w3.org/2000/svg" viewBox="0 0 69.31 65.18"><defs><style>.cls-1{fill:#fff;}</style></defs><title>carrito</title><g id="Hoxj5J"><path class="cls-1" d="M45.52,54.17H31.82l.23.51A8.54,8.54,0,0,1,32.87,60a6.07,6.07,0,0,1-4.71,5A6.66,6.66,0,0,1,20.22,61a6.29,6.29,0,0,1,0-4.46c.26-.8.61-1.58.93-2.42-.56-.06-1.1-.11-1.64-.18-1.28-.17-1.81-.78-1.45-2,.9-3.08,1.61-6.24,3.24-9.06A4.51,4.51,0,0,0,21.71,39q-2.07-6.06-4.16-12.11c-2-5.78-4-11.56-6-17.35A3.31,3.31,0,0,0,9.46,7.38c-2.55-1-5.07-2-7.61-3l-.4-.2C-.43,3.18-.4,1.72,1.08.39A1.65,1.65,0,0,1,2.78.12q2.81,1,5.58,2.07c1.41.54,2.79,1.17,4.21,1.71A4.32,4.32,0,0,1,15.2,6.69c.42,1.21.8,2.43,1.19,3.64a1.29,1.29,0,0,0,1.35,1.05c.57,0,1.15.1,1.72.11H65.77a10.81,10.81,0,0,1,2.4.31,1.41,1.41,0,0,1,1.12,1.65,19.14,19.14,0,0,1-.72,3.17q-4.11,12.95-8.29,25.88a2.77,2.77,0,0,1-3.09,2.3l-28.74,0h-3a1.31,1.31,0,0,0-1.33.83c-.58,1.55-1.09,3.12-1.64,4.74H57.1a5.41,5.41,0,0,1,1.21.13,1.73,1.73,0,0,1,1.42,1.86A1.68,1.68,0,0,1,58,54.05c-.58,0-1.16,0-1.75,0,.32.79.67,1.54.92,2.32a6.59,6.59,0,1,1-12.6.59C44.76,56,45.17,55.13,45.52,54.17ZM31.94,21V16H18.45l1.49,4.26A1,1,0,0,0,21,21h10.9Zm32.19-5H51.41v5c1.6,0,3.16,0,4.72,0s3.29-.05,4.93-.13a2.17,2.17,0,0,0,2.08-1.62C63.48,18.21,63.79,17.15,64.13,16ZM46.61,31.13V25.56H36.55v5.57Zm-24.9-5.67c.62,1.76,1.19,3.43,1.8,5.08a1,1,0,0,0,1,.64c2,0,3.94,0,5.91,0h1.52V25.46ZM36.64,16v4.92h10V16ZM51.35,31.17c2.41,0,4.76,0,7.11,0a1.32,1.32,0,0,0,1-.68c.6-1.61,1.1-3.26,1.65-4.95H51.35Zm-4.72,4.54H36.51c0,1.39,0,2.73,0,4.08,0,.48.14.61.62.61,2.6,0,5.2,0,7.81,0h1.7Zm-21.36,0c.49,1.4.92,2.76,1.44,4.09a1.15,1.15,0,0,0,.81.62c1.47.06,2.94,0,4.43,0V35.68Zm32.55,0H51.36v4.71c1.42,0,2.79,0,4.16,0a1.19,1.19,0,0,0,.9-.56C56.94,38.49,57.36,37.11,57.82,35.72Zm-4,22.87a3,3,0,0,0-3-3,2.95,2.95,0,1,0,0,5.89A2.94,2.94,0,0,0,53.84,58.59Zm-27.38-3a3,3,0,0,0-3,2.89,3,3,0,1,0,5.9.07A2.94,2.94,0,0,0,26.46,55.6Z"/></g></svg>