<svg id="Layer_1" data-name="Layer 1" xmlns="http://www.w3.org/2000/svg" viewBox="0 0 271.57 1036.15"><defs><style>.cls-1{fill:red;}</style></defs><title>demoler</title><path class="cls-1" d="M39.64,973.51c.82.82,0-2-2.46-8.61s-4.1-14.76-4.92-24.6q-.93-14.44,9.07-24.14A98.24,98.24,0,0,1,65.16,899.4q14.15-6.45,50.89-6.61t55.2,5.08a76.74,76.74,0,0,1,33.05,20.45q14.61,14.91,25.68,18.91,20.91,8,17.22,18.14-1.84,6.76,8,12.61,8.3,5.24-.62,13.22c-3.07,3.08-4,4.92-2.92,5.54s3,3.07,5.69,7.38q4.31,8.29,3.38,12.91a22.86,22.86,0,0,1-3.23,6,12.65,12.65,0,0,0-2.3,7.53,14.34,14.34,0,0,0,1.53,7.23,8.13,8.13,0,0,1,.62,6.3q-.93,3.69-19.68-2.61t-27.06-9.38q-8-2.77-42.74-12.76T120.51,996q-12.3-3.08-34.29-.92t-28.44-.62q-6.47-2.14-12.76-12T39.64,973.51ZM82.69,936a10.4,10.4,0,0,0,2.15,8c3.49,4.51,4.41,7.8,2.77,9.84-1.23,1.85-.62,3.69,1.84,5.54a24.2,24.2,0,0,0,6.46,3.69q2.76.91,28.14,4.61t30.28,6.15Q159.57,976.59,178,984t19.38,5.23q.92-1.85-3.39-18.3t-11.37-22q-4.62-3.69-18-11.22t-31.83-11.23a115.89,115.89,0,0,0-37-.76Q77.76,928.31,82.69,936Z"/><path class="cls-1" d="M58.39,764.41q6.78-1.85,11.53,1.08c3.19,2,4.36,3.84,3.54,5.68q-2.14,5.54,5.23,9.54,4,2.46,0,12.6c-.62,2.06-.1,3.54,1.54,4.46s3.28,2.92,4.92,6c1.84,3.07,1.13,5.69-2.16,7.84s-5.22,5.69-5.84,10.61q-.91,7.69,21.53,6.61T125.74,825q13.83-8.61,9.22-18.76-2.76-6.15-5.69-8.46a12.66,12.66,0,0,1-4.15-5.68q-.91-3.08,12.61-4.62a141.93,141.93,0,0,1,20.3-1.23q7.07.93,4.3,8t-.92,11.68q2.76,6.47-2.46,13.84-4,5.85,1.84,11.07,4.92,4.62,27.83,5.23t24.76-6.15a62.48,62.48,0,0,0,2.3-11.84q.47-5.39-9.07-11.23-13.53-8.3-4.92-27.06,4-8.6,18.76-2.3t22.14,9.07q9.54,3.69,7.07,16.91-2.46,13.85,1.85,14.15,2.76,0,2.3,8.61t-6,10.76q-7.08,3.69,3.38,9.84T247.82,857q-7.38,2.76-3.08,7.38a35.64,35.64,0,0,1,5.84,7.69c1.23,2.25,1.65,5.74,1.23,10.45s-4.81,6.15-13.22,4.31q-12.3-2.16-39.05-6.15T160.18,870.5q-12-6.15-55.81-3.54t-52.43.77q-8.31-1.53-9.38-9.53a45.76,45.76,0,0,1,1.07-16.91,147.87,147.87,0,0,0,5.23-32q.93-8.91-1.08-11.37T39,787.47q-6.45-7.68,8-16.91A32,32,0,0,1,58.39,764.41Z"/><path class="cls-1" d="M30.1,658q1.54-2.14,23.53-5.84t37.67-1.84A94.18,94.18,0,0,0,124.35,648q17.39-4.15,8.15-6.61Q123.59,639.27,89,630T46.09,619q-8-1.85-14.91-9.23t-3.54-14.45q3.69-7.06-.46-13.07a16,16,0,0,1-2.92-12.45q.93-3.69,31.06-7.69a21.16,21.16,0,0,0,9.68-4,21.38,21.38,0,0,1,9.69-4c2.46-.21,6.36.26,11.69,1.38a40.13,40.13,0,0,0,14.14.77q6.47-.62,10-4t6.61-3.38q10.77-.61,14.45,3.07a12.72,12.72,0,0,0,8.3,4q15.69,1.55,49.66-4.76t45.36-7.23q12-.93,13.22,4.15t8,6.92q6.76,2.16,4.61,7.38-7.38,16.3-.61,20.29,6.45,4-3.08,10.31t-26.14,4.15q-16.6-1.85-23.21-2.62t-22.91-1.69q-15.69-.62-81.8-.61,17.83,8.61,15.07,12a7.83,7.83,0,0,1-6.77,3.54q-4-.16,2.77,2.61a53,53,0,0,0,15.68,3.23q8.31.46,17.53,1.07,14.76.93,25.22,6.46,6.15,3.39,23.06,5.54T222,632.49q9.84,3.69,10.61,8.3a13.67,13.67,0,0,0,4.45,8,8.22,8.22,0,0,1,2.62,8.76q-1.38,5.07-8.15,6a71.81,71.81,0,0,1-16.91-.16q-10.16-1.07-19.38-2a66.67,66.67,0,0,0-18.45,2,58.66,58.66,0,0,1-16.6,2,67.28,67.28,0,0,0-15.38,1.23q-8,1.54-8.92,6.15-.91,5.24-10.14,3.08t-14.46-.92q-11.07,2.76,18.76,12.91Q147,694,190.47,703.37t51.2,13.07q12.62,5.23,7.07,13.84-2.78,4.61.77,13.37t6.92,15.23q3.39,6.45-11.69,1.07t-25.83-9.07q-6.15-2.14-32.44-5.23T142,730.28q-21.22-14.46-49.21-11.38Q79.32,720.75,59.62,716T27,709.37q-12.91-1.54-5.54-25.22T30.1,658Z"/><path class="cls-1" d="M21.49,407.4q4.62-8.92,19.68-13.23t24-6.15q9.23-1.84,19.37,3.08t25.83,7.69a202.64,202.64,0,0,0,34.44,2.76q18.45,0,28.6,2.77a137.14,137.14,0,0,0,18.6,3.85q8.48,1.08,20.76,9.37,12.62,8.63,14.76,8.15t12.3,6.61q10.16,7.38,8,12.15t-2.16,13.68q0,12.31,15.07,21.53,5.53,3.69-.15,9.22a69,69,0,0,0-10.3,12.92q-4.31,8,2.76,6.3t8.92,4.77q2.15,7.08-8.3,9.53a164.48,164.48,0,0,0-22.76,7.38q-24.9,10.15-68-1.23-19.06-4.9-48.13-2.46t-40.44.62a30.91,30.91,0,0,1-19.22-10.15A239.35,239.35,0,0,0,38.1,499.65c-6-5.54-9.27-9.28-10-11.23s-1.89-7.94-3.53-18Q22.43,456,20,432.92,17.18,416.32,21.49,407.4Zm47.36,50.73Q55.94,475.67,71.92,476q8,.61,29.52,6.46,35.06,8.29,50.44,7.07,15.68-1.23,27.82-1.08t12.15-7.84q0-7.38,4-19.06t-8.3-14.15A96.14,96.14,0,0,1,164.18,440a203.22,203.22,0,0,0-27.07-9.84q-15.36-4.31-23.83-6.15t-20.75.62Q75.92,428,75.46,439.22T68.85,458.13Z"/><path class="cls-1" d="M34.72,299.46c.61,0,.82-.77.61-2.3s2.15-2.1,7.07-1.7q8,.93,12.76,4.92t19.22,7.69q14.46,4.32,57.51,14t53.2,11.84a65.83,65.83,0,0,0,20.6,1.08q10.45-1.08,7.69-14.3-2.46-12.92,3.84-20.76T213.38,285q-10.15-7.06-9.69-17.68t8.76-12.46q8.31-1.85,19.07,4.16a60.72,60.72,0,0,1,18.14,15.22c2.88,3.48,3.38,6.71,1.54,9.68s-1.43,4.77,1.23,5.38q32.6,10.15.61,14.46-6.45.92-2,6.76t.76,8q-1.53,1.23,5.85,8.61,7.38,8.92-1.23,13.53-8.93,5.24-5.23,8.92,7.08,7.68,5.23,12-1.85,6.76,3.69,13.84a65.71,65.71,0,0,1,8.3,13.22q2.46,6.15-16.91.61T224.14,381q-7.38-2.76-37.67-7.23t-38-6.3Q141.11,365.58,137,365c-2.77-.41-6.5-2.66-11.22-6.76q-6.46-6.15-26.76-7.38t-29.82.61Q51,355.74,32.87,336.67q-8.29-8.91-3.69-23.06T34.72,299.46Z"/><path class="cls-1" d="M58.39,124.8q6.78-1.85,11.53,1.08c3.19,2,4.36,3.84,3.54,5.68q-2.14,5.53,5.23,9.54,4,2.46,0,12.6c-.62,2.06-.1,3.54,1.54,4.46s3.28,2.92,4.92,6C87,167.23,86.28,169.85,83,172s-5.22,5.69-5.84,10.61q-.91,7.69,21.53,6.61t27.06-3.84q13.83-8.61,9.22-18.76-2.76-6.15-5.69-8.46a12.63,12.63,0,0,1-4.15-5.69q-.91-3.06,12.61-4.61a141.93,141.93,0,0,1,20.3-1.23q7.07.93,4.3,8t-.92,11.68q2.76,6.47-2.46,13.84-4,5.85,1.84,11.07,4.92,4.62,27.83,5.23t24.76-6.15a62.48,62.48,0,0,0,2.3-11.84q.47-5.39-9.07-11.23-13.53-8.29-4.92-27.06,4-8.59,18.76-2.3t22.14,9.07q9.54,3.69,7.07,16.91Q247.2,177.7,251.51,178q2.76,0,2.3,8.61t-6,10.76q-7.08,3.69,3.38,9.84t-3.38,10.15q-7.38,2.76-3.08,7.38a35.64,35.64,0,0,1,5.84,7.69c1.23,2.25,1.65,5.74,1.23,10.45S247,249,238.59,247.19Q226.29,245,199.54,241t-39.36-10.15q-12-6.15-55.81-3.54t-52.43.77q-8.31-1.53-9.38-9.53a45.83,45.83,0,0,1,1.07-16.92,147.69,147.69,0,0,0,5.23-32q.93-8.91-1.08-11.37T39,147.86q-6.45-7.68,8-16.91A32,32,0,0,1,58.39,124.8Z"/><path class="cls-1" d="M15,33.16q2.14-20,20.6-25.83c4.51-1.23,7.22-1.94,8.15-2.15S48.35,3.75,54.7,1.49Q64.56-1.88,81.3,0t24.14,3.69q7.69,2.16,9.23,3.54c1,.92,3.38,1.9,7.07,2.92,3.69,1.23,5.49,1.74,5.38,1.54s1.28.61,4.15,2.46A24.54,24.54,0,0,0,144.5,19c3.48.41,5.17,2.3,5.07,5.69a65,65,0,0,0,.46,10q1.23,5.53,11.38,4.61,5.53-.3,30.13-7.84t30.14-6.61c3.69.61,5.59,1.34,5.69,2.15a14,14,0,0,0,2,4.31q2.15,3.69,4.46,2.15c1.53-1,3.64-.92,6.3.31q7.08,2.76,7.69,8.3.92,4,5.53,8.92,3.08,2.76.62,9.53-.93,4.3-7.38,2.31a34.21,34.21,0,0,0-12-1.69q-5.53.62-16.14,2.76T203.23,67.3q-12,3.08-10.15,6.15,2.16,3.38,18,5.53t19.53,4c2.46,1.23,4.05,3.49,4.76,6.76a19.17,19.17,0,0,0,3.54,8c1.84,2.46,3.13,3.59,3.84,3.38s1.29,1.54,1.69,5.23q1.24,6.77,4,6.76c4.11,0,6.15,3,6.15,8.92q0,3.69-18.45,3.69a160,160,0,0,1-16.91-.92q-8.61-.93-15.38-1.85-6.45-.6-26-6.45t-25.37-6.77q-5.84-.92-9.53,1.69T130,108.5q-21.21-12.6-31.36-6.15-5.54,4-20-7.38Q73.16,91,65,91.28t-15.22.92a19.93,19.93,0,0,1-12.45-2Q32,87.29,24.57,83q-7.08-4.31-8.92-27.06Q14.12,42.08,15,33.16Zm49.5,8.92Q63,43.63,61.93,49.31t3.23,5.07q4.61-.3,25.21,2.77T109.75,59c-.62-.61-1.85-2-3.69-4.15a25.52,25.52,0,0,0-7.38-5.69q-4.62-1.84-18.45-5.07T64.54,42.08Z"/><path d="M22.25,973.51c.83.82,0-2-2.46-8.61s-4.1-14.76-4.92-24.6q-.91-14.44,9.07-24.14A98.5,98.5,0,0,1,47.78,899.4q14.14-6.45,50.89-6.61t55.2,5.08a76.74,76.74,0,0,1,33,20.45q14.61,14.91,25.68,18.91,20.91,8,17.22,18.14-1.84,6.76,8,12.61,8.31,5.24-.61,13.22c-3.08,3.08-4,4.92-2.92,5.54s3,3.07,5.69,7.38q4.31,8.29,3.38,12.91a23.16,23.16,0,0,1-3.23,6,12.59,12.59,0,0,0-2.31,7.53,14.33,14.33,0,0,0,1.54,7.23,8.13,8.13,0,0,1,.62,6.3q-.93,3.69-19.68-2.61t-27.06-9.38q-8-2.77-42.75-12.76T103.13,996q-12.3-3.08-34.29-.92t-28.44-.62q-6.46-2.14-12.77-12T22.25,973.51ZM65.3,936a10.44,10.44,0,0,0,2.16,8c3.48,4.51,4.41,7.8,2.76,9.84-1.23,1.85-.61,3.69,1.85,5.54a24.2,24.2,0,0,0,6.46,3.69q2.76.91,28.13,4.61T137,973.82q5.24,2.77,23.68,10.15T180,989.2q.93-1.85-3.38-18.3t-11.38-22q-4.61-3.69-18-11.22t-31.82-11.23a116,116,0,0,0-37.06-.76Q60.38,928.31,65.3,936Z"/><path d="M41,764.41q6.77-1.85,11.53,1.08t3.54,5.68q-2.14,5.54,5.23,9.54,4,2.46,0,12.6c-.62,2.06-.1,3.54,1.53,4.46s3.29,2.92,4.92,6q2.77,4.61-2.15,7.84t-5.84,10.61q-.93,7.69,21.52,6.61T108.36,825q13.83-8.61,9.22-18.76-2.77-6.15-5.69-8.46a12.66,12.66,0,0,1-4.15-5.68q-.92-3.08,12.61-4.62a141.87,141.87,0,0,1,20.29-1.23q7.08.93,4.31,8T144,805.92q2.76,6.47-2.46,13.84-4,5.85,1.84,11.07,4.92,4.62,27.83,5.23T196,829.91a63.35,63.35,0,0,0,2.31-11.84q.47-5.39-9.07-11.23-13.53-8.3-4.92-27.06,4-8.6,18.76-2.3t22.14,9.07q9.53,3.69,7.07,16.91-2.46,13.85,1.84,14.15,2.77,0,2.31,8.61t-6,10.76q-7.06,3.69,3.39,9.84T230.43,857q-7.38,2.76-3.07,7.38A35.64,35.64,0,0,1,233.2,872c1.23,2.25,1.65,5.74,1.23,10.45s-4.81,6.15-13.22,4.31q-12.3-2.16-39.05-6.15T142.8,870.5Q130.8,864.35,87,867t-52.43.77q-8.29-1.53-9.38-9.53a46,46,0,0,1,1.08-16.91,147.87,147.87,0,0,0,5.23-32c.61-5.94.26-9.73-1.08-11.37s-4.25-5.12-8.76-10.46q-6.47-7.68,8-16.91A32.09,32.09,0,0,1,41,764.41Z"/><path d="M12.72,658q1.55-2.14,23.53-5.84t37.66-1.84A94.22,94.22,0,0,0,107,648q17.39-4.15,8.15-6.61-8.91-2.14-43.51-11.38T28.71,619q-8-1.85-14.91-9.23t-3.54-14.45q3.69-7.06-.46-13.07a16,16,0,0,1-2.92-12.45q.92-3.69,31.06-7.69a21.16,21.16,0,0,0,9.68-4,21.33,21.33,0,0,1,9.69-4c2.46-.21,6.36.26,11.68,1.38a40.2,40.2,0,0,0,14.15.77c4.3-.41,7.64-1.74,10-4s4.57-3.38,6.61-3.38q10.77-.61,14.46,3.07a12.72,12.72,0,0,0,8.3,4q15.69,1.55,49.66-4.76t45.36-7.23c8-.62,12.41.77,13.22,4.15s3.49,5.69,8,6.92q6.76,2.16,4.61,7.38-7.38,16.3-.62,20.29,6.47,4-3.07,10.31t-26.14,4.15q-16.61-1.85-23.21-2.62t-22.91-1.69q-15.69-.62-81.8-.61,17.84,8.61,15.07,12a7.83,7.83,0,0,1-6.77,3.54q-4-.16,2.77,2.61a53,53,0,0,0,15.68,3.23q8.31.46,17.53,1.07,14.76.93,25.22,6.46,6.15,3.39,23.06,5.54t26.44,5.84q9.85,3.69,10.61,8.3a13.74,13.74,0,0,0,4.46,8,8.22,8.22,0,0,1,2.62,8.76q-1.39,5.07-8.15,6a71.9,71.9,0,0,1-16.92-.16q-10.14-1.07-19.37-2a66.67,66.67,0,0,0-18.45,2,58.66,58.66,0,0,1-16.6,2,67.23,67.23,0,0,0-15.38,1.23q-8,1.54-8.92,6.15c-.61,3.49-4,4.52-10.14,3.08s-11-1.74-14.46-.92q-11.07,2.76,18.76,12.91,16.92,6.15,60.42,15.53t51.2,13.07q12.61,5.23,7.08,13.84-2.78,4.61.77,13.37T239,758.88q3.39,6.45-11.68,1.07t-25.83-9.07q-6.15-2.14-32.44-5.23t-44.44-15.37q-21.21-14.46-49.2-11.38Q61.92,720.75,42.24,716T9.65,709.37q-12.91-1.54-5.54-25.22T12.72,658Z"/><path d="M4.11,407.4q4.62-8.92,19.68-13.23t24-6.15q9.22-1.84,19.37,3.08T93,398.79a202.64,202.64,0,0,0,34.44,2.76q18.45,0,28.6,2.77a136.83,136.83,0,0,0,18.6,3.85q8.46,1.08,20.76,9.37,12.62,8.63,14.76,8.15t12.3,6.61q10.14,7.38,8,12.15t-2.15,13.68q0,12.31,15.07,21.53,5.53,3.69-.15,9.22a69,69,0,0,0-10.31,12.92q-4.29,8,2.77,6.3t8.92,4.77q2.14,7.08-8.3,9.53a164,164,0,0,0-22.76,7.38q-24.9,10.15-68-1.23-19.07-4.9-48.12-2.46T57,526.71a30.91,30.91,0,0,1-19.22-10.15Q29.93,508,20.72,499.65q-8.92-8.31-10-11.23t-3.53-18Q5,456,2.57,432.92-.19,416.32,4.11,407.4Zm47.36,50.73Q38.56,475.67,54.54,476q8,.61,29.52,6.46,35.06,8.29,50.43,7.07,15.69-1.23,27.83-1.08t12.15-7.84q0-7.38,4-19.06t-8.31-14.15A96.42,96.42,0,0,1,146.79,440a202.53,202.53,0,0,0-27.06-9.84Q104.36,425.85,95.9,424t-20.76.62Q58.53,428,58.08,439.22T51.47,458.13Z"/><path d="M17.33,299.46c.62,0,.82-.77.62-2.3s2.15-2.1,7.07-1.7q8,.93,12.76,4.92T57,308.07q14.46,4.32,57.5,14t53.2,11.84A65.91,65.91,0,0,0,188.31,335q10.45-1.08,7.68-14.3-2.44-12.92,3.85-20.76T196,285q-10.14-7.06-9.68-17.68t8.76-12.46q8.31-1.85,19.07,4.16a60.85,60.85,0,0,1,18.14,15.22q4.31,5.22,1.54,9.68c-1.85,3-1.43,4.77,1.23,5.38q32.58,10.15.61,14.46-6.45.92-2,6.76t.77,8q-1.53,1.23,5.84,8.61,7.38,8.92-1.23,13.53-8.91,5.24-5.22,8.92,7.08,7.68,5.22,12-1.84,6.76,3.69,13.84A65.8,65.8,0,0,1,251,388.64q2.46,6.15-16.92.61T206.76,381q-7.38-2.76-37.67-7.23t-38-6.3q-7.38-1.85-11.53-2.46t-11.22-6.76q-6.47-6.15-26.76-7.38t-29.83.61q-18.14,4.31-36.28-14.76-8.31-8.91-3.69-23.06T17.33,299.46Z"/><path d="M41,124.8q6.77-1.85,11.53,1.08t3.54,5.68q-2.14,5.53,5.23,9.54,4,2.46,0,12.6c-.62,2.06-.1,3.54,1.53,4.46s3.29,2.92,4.92,6q2.77,4.6-2.15,7.84t-5.84,10.61q-.93,7.69,21.52,6.61t27.07-3.84q13.83-8.61,9.22-18.76-2.77-6.15-5.69-8.46a12.63,12.63,0,0,1-4.15-5.69q-.92-3.06,12.61-4.61a141.87,141.87,0,0,1,20.29-1.23q7.08.93,4.31,8T144,166.31q2.76,6.47-2.46,13.84-4,5.85,1.84,11.07,4.92,4.62,27.83,5.23T196,190.3a63.35,63.35,0,0,0,2.31-11.84q.47-5.39-9.07-11.23-13.53-8.29-4.92-27.06,4-8.59,18.76-2.3t22.14,9.07q9.53,3.69,7.07,16.91-2.46,13.85,1.84,14.15,2.77,0,2.31,8.61t-6,10.76q-7.06,3.69,3.39,9.84t-3.39,10.15q-7.38,2.76-3.07,7.38a35.64,35.64,0,0,1,5.84,7.69c1.23,2.25,1.65,5.74,1.23,10.45s-4.81,6.15-13.22,4.31Q208.91,245,182.16,241T142.8,230.89q-12-6.15-55.82-3.54t-52.43.77q-8.29-1.53-9.38-9.53a46.05,46.05,0,0,1,1.08-16.92,147.69,147.69,0,0,0,5.23-32c.61-5.94.26-9.73-1.08-11.37s-4.25-5.13-8.76-10.46q-6.47-7.68,8-16.91A32.09,32.09,0,0,1,41,124.8Z"/><path d="M-2.35,33.16q2.16-20,20.61-25.83c4.51-1.23,7.22-1.94,8.14-2.15S31,3.75,37.32,1.49Q47.16-1.88,63.92,0T88.06,3.64q7.69,2.16,9.22,3.54c1,.92,3.39,1.9,7.08,2.92q5.53,1.85,5.38,1.54c-.1-.2,1.28.61,4.15,2.46A24.51,24.51,0,0,0,127.11,19c3.49.41,5.18,2.3,5.08,5.69a65,65,0,0,0,.46,10q1.23,5.53,11.38,4.61,5.53-.3,30.13-7.84t30.14-6.61c3.69.61,5.58,1.34,5.69,2.15a13.9,13.9,0,0,0,2,4.31q2.16,3.69,4.46,2.15t6.31.31c4.71,1.84,7.28,4.61,7.68,8.3q.93,4,5.54,8.92,3.08,2.76.61,9.53-.92,4.3-7.38,2.31a34.13,34.13,0,0,0-12-1.69q-5.53.62-16.14,2.76T185.85,67.3q-12,3.08-10.15,6.15,2.16,3.38,18,5.53t19.52,4c2.46,1.23,4,3.49,4.77,6.76a19.17,19.17,0,0,0,3.54,8q2.76,3.69,3.84,3.38t1.69,5.23q1.23,6.77,4,6.76,6.15,0,6.15,8.92,0,3.69-18.45,3.69a159.9,159.9,0,0,1-16.91-.92q-8.61-.93-15.38-1.85-6.45-.6-26-6.45t-25.37-6.77q-5.84-.92-9.53,1.69t-12.92-2.92q-21.22-12.6-31.37-6.15-5.54,4-20-7.38-5.54-4-13.69-3.69T32.4,92.2A19.93,19.93,0,0,1,20,90.2Q14.57,87.29,7.19,83,.11,78.68-1.73,55.92-3.27,42.08-2.35,33.16Zm49.51,8.92q-1.53,1.55-2.61,7.23t3.23,5.07q4.61-.3,25.21,2.77T92.36,59c-.61-.61-1.84-2-3.69-4.15a25.25,25.25,0,0,0-7.38-5.69q-4.61-1.84-18.45-5.07T47.16,42.08Z"/></svg>