<?xml version="1.0" encoding="utf-8"?>
<!-- Generator: Adobe Illustrator 22.0.1, SVG Export Plug-In . SVG Version: 6.00 Build 0)  -->
<svg version="1.1" id="Layer_1" xmlns="http://www.w3.org/2000/svg" xmlns:xlink="http://www.w3.org/1999/xlink" x="0px" y="0px"
	 viewBox="0 0 271.6 1036.2" style="enable-background:new 0 0 271.6 1036.2;" xml:space="preserve">
<style type="text/css">
	.st0{fill:#606060;}
	.st1{fill:#FF0000;}
</style>
<title>demoler</title>
<g>
	<path class="st0" d="M39.6,973.5c0.8,0.8,0-2-2.5-8.6s-4.1-14.8-4.9-24.6c-0.6-9.6,2.4-17.7,9.1-24.1c7.1-6.7,15.1-12.4,23.8-16.8
		c9.4-4.3,26.4-6.5,50.9-6.6s42.9,1.6,55.2,5.1c12.6,3.9,24,10.9,33.1,20.5c9.7,9.9,18.3,16.2,25.7,18.9
		c13.9,5.3,19.7,11.4,17.2,18.1c-1.2,4.5,1.4,8.7,8,12.6c5.5,3.5,5.3,7.9-0.6,13.2c-3.1,3.1-4,4.9-2.9,5.5s3,3.1,5.7,7.4
		c2.9,5.5,4,9.8,3.4,12.9c-0.8,2.2-1.9,4.2-3.2,6c-1.5,2.2-2.4,4.8-2.3,7.5c-0.1,2.5,0.4,5,1.5,7.2c1,1.9,1.3,4.2,0.6,6.3
		c-0.6,2.5-7.2,1.6-19.7-2.6c-12.5-4.2-21.5-7.3-27.1-9.4c-5.3-1.8-19.6-6.1-42.7-12.8s-38.9-11.1-47.4-13.3
		c-8.2-2.1-19.6-2.4-34.3-0.9c-14.7,1.4-24.1,1.2-28.4-0.6c-4.3-1.4-8.6-5.4-12.8-12C40.8,975.9,39,972.9,39.6,973.5z M82.7,936
		c-0.4,2.8,0.4,5.7,2.2,8c3.5,4.5,4.4,7.8,2.8,9.8c-1.2,1.8-0.6,3.7,1.8,5.5c2,1.6,4.1,2.8,6.5,3.7c1.8,0.6,11.2,2.1,28.1,4.6
		s27,4.5,30.3,6.2c3.5,1.8,11.4,5.2,23.7,10.2s18.7,6.7,19.4,5.2c0.6-1.2-0.5-7.3-3.4-18.3c-2.9-11-6.7-18.3-11.4-22
		c-3.1-2.5-9.1-6.2-18-11.2c-8.9-5-19.5-8.8-31.8-11.2c-12.2-2.2-24.7-2.5-37-0.8C83.8,927.4,79.4,930.9,82.7,936z"/>
	<path class="st0" d="M58.4,764.4c4.5-1.2,8.4-0.9,11.5,1.1c3.2,2,4.4,3.8,3.5,5.7c-1.4,3.7,0.3,6.9,5.2,9.5c2.7,1.6,2.7,5.8,0,12.6
		c-0.6,2.1-0.1,3.5,1.5,4.5s3.3,2.9,4.9,6c1.8,3.1,1.1,5.7-2.2,7.8s-5.2,5.7-5.8,10.6c-0.6,5.1,6.6,7.3,21.5,6.6s24-2,27.1-3.8
		c9.2-5.7,12.3-12,9.2-18.8c-1.8-4.1-3.7-6.9-5.7-8.5c-1.9-1.5-3.3-3.4-4.2-5.7c-0.6-2.1,3.6-3.6,12.6-4.6
		c6.7-0.9,13.5-1.3,20.3-1.2c4.7,0.6,6.1,3.3,4.3,8s-2.2,8.6-0.9,11.7c1.8,4.3,1,8.9-2.5,13.8c-2.7,3.9-2.1,7.6,1.8,11.1
		c3.3,3.1,12.6,4.8,27.8,5.2c15.3,0.4,23.5-1.6,24.8-6.2c1.1-3.9,1.9-7.8,2.3-11.8c0.3-3.6-2.7-7.3-9.1-11.2
		c-9-5.5-10.7-14.6-4.9-27.1c2.7-5.7,8.9-6.5,18.8-2.3s17.2,7.2,22.1,9.1c6.4,2.5,8.7,8.1,7.1,16.9c-1.6,9.2-1,13.9,1.9,14.2
		c1.8,0,2.6,2.9,2.3,8.6s-2.3,9.3-6,10.8c-4.7,2.5-3.6,5.7,3.4,9.8c7,4.1,5.9,7.5-3.4,10.2c-4.9,1.8-5.9,4.3-3.1,7.4
		c2.3,2.3,4.3,4.9,5.8,7.7c1.2,2.2,1.6,5.7,1.2,10.5s-4.8,6.2-13.2,4.3c-8.2-1.4-21.2-3.5-39.1-6.2s-31-6.1-39.4-10.2
		c-8-4.1-26.6-5.3-55.8-3.5c-29.2,1.7-46.7,2-52.4,0.8c-5.5-1-8.7-4.2-9.4-9.5c-0.7-5.7-0.3-11.4,1.1-16.9c2.9-10.4,4.7-21.2,5.2-32
		c0.6-5.9,0.3-9.7-1.1-11.4c-1.3-1.6-4.3-5.1-8.8-10.5c-4.3-5.1-1.6-10.8,8-16.9C50.3,767.8,54.2,765.7,58.4,764.4z"/>
	<path class="st0" d="M30.1,658c1-1.4,8.9-3.4,23.5-5.8s27.2-3.1,37.7-1.8c11.1,1.2,22.3,0.4,33-2.3c11.6-2.8,14.3-5,8.2-6.6
		c-5.9-1.4-20.4-5.2-43.5-11.4s-37.4-9.8-42.9-11c-5.3-1.2-10.3-4.3-14.9-9.2s-5.8-9.7-3.5-14.5c2.5-4.7,2.3-9.1-0.5-13.1
		c-2.7-3.6-3.7-8.1-2.9-12.5c0.6-2.5,11-5,31.1-7.7c3.5-0.5,6.8-1.9,9.7-4c2.8-2.1,6.2-3.5,9.7-4c2.5-0.2,6.4,0.3,11.7,1.4
		c4.6,1.1,9.4,1.4,14.1,0.8c4.3-0.4,7.6-1.7,10-4c2.4-2.3,4.6-3.4,6.6-3.4c7.2-0.4,12,0.6,14.4,3.1c2.2,2.3,5.1,3.8,8.3,4
		c10.5,1,27-0.6,49.7-4.8s37.8-6.6,45.4-7.2c8-0.6,12.4,0.8,13.2,4.2c0.8,3.4,3.5,5.7,8,6.9c4.5,1.4,6,3.9,4.6,7.4
		c-4.9,10.9-5.1,17.6-0.6,20.3c4.3,2.7,3.3,6.1-3.1,10.3c-6.4,4.2-15.1,5.6-26.1,4.2c-11.1-1.2-18.8-2.1-23.2-2.6s-12-1.1-22.9-1.7
		c-10.5-0.4-37.7-0.6-81.8-0.6c11.9,5.7,16.9,9.7,15.1,12c-1.5,2.3-4.1,3.6-6.8,3.5c-2.7-0.1-1.7,0.8,2.8,2.6c5,1.9,10.3,3,15.7,3.2
		c5.5,0.3,11.4,0.7,17.5,1.1c9.8,0.6,18.2,2.8,25.2,6.5c4.1,2.3,11.8,4.1,23.1,5.5c11.3,1.4,20.1,3.4,26.5,5.8
		c6.6,2.5,10.1,5.2,10.6,8.3c0.5,3.1,2.1,5.9,4.4,8c2.6,2.1,3.6,5.6,2.6,8.8c-0.9,3.4-3.6,5.4-8.1,6c-5.6,0.6-11.3,0.6-16.9-0.2
		c-6.8-0.7-13.2-1.4-19.4-2c-6.2-0.2-12.4,0.5-18.4,2c-5.4,1.5-11,2.1-16.6,2c-5.2-0.2-10.3,0.2-15.4,1.2c-5.3,1-8.3,3.1-8.9,6.2
		c-0.6,3.5-4,4.5-10.1,3.1c-6.2-1.4-11-1.7-14.5-0.9c-7.4,1.8-1.1,6.1,18.8,12.9c11.3,4.1,31.4,9.3,60.4,15.5
		c29,6.2,46,10.6,51.2,13.1c8.4,3.5,10.8,8.1,7.1,13.8c-1.9,3.1-1.6,7.5,0.8,13.4c2.4,5.8,4.7,10.9,6.9,15.2
		c2.3,4.3-1.6,4.7-11.7,1.1c-10.1-3.6-18.7-6.6-25.8-9.1c-4.1-1.4-14.9-3.2-32.4-5.2c-17.5-2.1-32.4-7.2-44.5-15.4
		c-14.1-9.6-30.5-13.4-49.2-11.4c-9,1.2-20,0.3-33.2-2.9s-24-5.4-32.6-6.6c-8.6-1-10.5-9.4-5.5-25.2S29.3,659.6,30.1,658z"/>
	<path class="st0" d="M21.5,407.4c3.1-5.9,9.6-10.4,19.7-13.2c10-2.9,18-4.9,24-6.1c6.2-1.2,12.6-0.2,19.4,3.1
		c6.8,3.3,15.4,5.8,25.8,7.7c11.4,1.9,22.9,2.8,34.4,2.8c12.3,0,21.8,0.9,28.6,2.8c6.1,1.7,12.3,3,18.6,3.9
		c5.7,0.7,12.6,3.8,20.8,9.4c8.4,5.8,13.3,8.5,14.8,8.1s5.5,1.9,12.3,6.6c6.8,4.9,9.4,9,8,12.1s-2.2,7.7-2.2,13.7
		c0,8.2,5,15.4,15.1,21.5c3.7,2.5,3.6,5.5-0.1,9.2c-3.9,3.9-7.4,8.2-10.3,12.9c-2.9,5.3-2,7.4,2.8,6.3c4.7-1.1,7.7,0.5,8.9,4.8
		c1.4,4.7-1.3,7.9-8.3,9.5c-7.8,1.9-15.4,4.4-22.8,7.4c-16.6,6.8-39.3,6.4-68-1.2c-12.7-3.3-28.8-4.1-48.1-2.5s-32.9,1.8-40.4,0.6
		c-7.4-0.9-14.3-4.6-19.2-10.2c-5.4-5.9-11.1-11.6-17-16.9c-6-5.5-9.3-9.3-10-11.2s-1.9-7.9-3.5-18c-1.4-9.6-2.9-22.1-4.6-37.5
		C18.1,421.9,18.6,413.3,21.5,407.4z M68.8,458.1c-8.6,11.7-7.6,17.7,3.1,17.9c5.3,0.4,15.2,2.6,29.5,6.5
		c23.4,5.5,40.2,7.9,50.4,7.1c10.5-0.8,19.7-1.2,27.8-1.1c8.1,0.1,12.1-2.5,12.1-7.8c0-4.9,1.3-11.3,4-19.1
		c2.7-7.8-0.1-12.5-8.3-14.1c-8.1-1.5-15.9-3.9-23.4-7.4c-8.8-3.9-17.8-7.2-27.1-9.8c-10.2-2.9-18.2-4.9-23.8-6.1
		c-5.6-1.2-12.6-1-20.8,0.6c-11.1,2.2-16.8,7.1-17.1,14.6C75.2,446.7,73,453,68.8,458.1z"/>
	<path class="st0" d="M34.7,299.5c0.6,0,0.8-0.8,0.6-2.3s2.2-2.1,7.1-1.7c5.3,0.6,9.6,2.3,12.8,4.9s9.6,5.2,19.2,7.7
		c9.6,2.9,28.8,7.5,57.5,14s46.4,10.4,53.2,11.8c6.8,1.4,13.7,1.8,20.6,1.1c7-0.7,9.5-5.5,7.7-14.3c-1.6-8.6-0.4-15.5,3.8-20.8
		s2.9-10.2-3.8-14.9c-6.8-4.7-10-10.6-9.7-17.7s3.2-11.2,8.8-12.5c5.5-1.2,11.9,0.2,19.1,4.2c7,3.8,13.2,9,18.1,15.2
		c2.9,3.5,3.4,6.7,1.5,9.7s-1.4,4.8,1.2,5.4c21.7,6.8,21.9,11.6,0.6,14.5c-4.3,0.6-5,2.9-2,6.8c3,3.9,3.2,6.6,0.8,8
		c-1,0.8,0.9,3.7,5.8,8.6c4.9,5.9,4.5,10.5-1.2,13.5c-6,3.5-7.7,6.5-5.2,8.9c4.7,5.1,6.5,9.1,5.2,12c-1.2,4.5,0,9.1,3.7,13.8
		c3.3,4.1,6.1,8.5,8.3,13.2c1.6,4.1-4,4.3-16.9,0.6c-12.9-3.7-22-6.4-27.4-8.2c-4.9-1.8-17.5-4.2-37.7-7.2c-20.2-3-32.9-5.1-38-6.3
		c-4.9-1.3-8.7-2.1-11.5-2.5c-2.8-0.4-6.5-2.7-11.2-6.8c-4.3-4.1-13.2-6.6-26.8-7.4s-23.5-0.6-29.8,0.6
		c-12.1,2.8-24.2-2.1-36.3-14.8c-5.5-5.9-6.8-13.6-3.7-23.1C32.2,304.2,34.1,299.5,34.7,299.5z"/>
	<path class="st0" d="M58.4,124.8c4.5-1.2,8.4-0.9,11.5,1.1c3.2,2,4.4,3.8,3.5,5.7c-1.4,3.7,0.3,6.9,5.2,9.5c2.7,1.6,2.7,5.8,0,12.6
		c-0.6,2.1-0.1,3.5,1.5,4.5s3.3,2.9,4.9,6c1.8,3.1,1.1,5.7-2.2,7.8s-5.2,5.7-5.8,10.6c-0.6,5.1,6.6,7.3,21.5,6.6s24-2,27.1-3.8
		c9.2-5.7,12.3-12,9.2-18.8c-1.8-4.1-3.7-6.9-5.7-8.5c-1.9-1.5-3.3-3.4-4.2-5.7c-0.6-2,3.6-3.6,12.6-4.6c6.7-0.9,13.5-1.3,20.3-1.2
		c4.7,0.6,6.1,3.3,4.3,8s-2.2,8.6-0.9,11.7c1.8,4.3,1,8.9-2.5,13.8c-2.7,3.9-2.1,7.6,1.8,11.1c3.3,3.1,12.6,4.8,27.8,5.2
		c15.3,0.4,23.5-1.6,24.8-6.1c1.1-3.9,1.9-7.8,2.3-11.8c0.3-3.6-2.7-7.3-9.1-11.2c-9-5.5-10.7-14.5-4.9-27.1
		c2.7-5.7,8.9-6.5,18.8-2.3s17.2,7.2,22.1,9.1c6.4,2.5,8.7,8.1,7.1,16.9c-1.6,9.2-1,13.9,1.8,14.1c1.8,0,2.6,2.9,2.3,8.6
		c-0.3,5.7-2.3,9.3-6,10.8c-4.7,2.5-3.6,5.7,3.4,9.8c7,4.1,5.8,7.5-3.4,10.1c-4.9,1.8-5.9,4.3-3.1,7.4c2.3,2.3,4.3,4.9,5.8,7.7
		c1.2,2.2,1.6,5.7,1.2,10.4s-4.8,6.1-13.2,4.3c-8.2-1.5-21.2-3.5-39.1-6.2s-31-6.1-39.4-10.1c-8-4.1-26.6-5.3-55.8-3.5
		c-29.2,1.7-46.7,2-52.4,0.8c-5.5-1-8.7-4.2-9.4-9.5c-0.7-5.7-0.3-11.4,1.1-16.9c2.9-10.4,4.7-21.2,5.2-32c0.6-5.9,0.3-9.7-1.1-11.4
		c-1.3-1.6-4.3-5.1-8.8-10.4c-4.3-5.1-1.6-10.8,8-16.9C50.3,128.1,54.2,126.1,58.4,124.8z"/>
	<path class="st0" d="M15,33.2c1.4-13.3,8.3-21.9,20.6-25.8c4.5-1.2,7.2-1.9,8.2-2.2s4.6-1.4,11-3.7C61.3-0.8,70.1-1.3,81.3,0
		s19.2,2.5,24.1,3.7c5.1,1.4,8.2,2.6,9.2,3.5c1,0.9,3.4,1.9,7.1,2.9c3.7,1.2,5.5,1.7,5.4,1.5s1.3,0.6,4.1,2.5
		c3.8,2.9,8.4,4.6,13.2,4.9c3.5,0.4,5.2,2.3,5.1,5.7c-0.1,3.3,0,6.7,0.5,10c0.8,3.7,4.6,5.2,11.4,4.6c3.7-0.2,13.7-2.8,30.1-7.8
		s26.4-7.2,30.1-6.6c3.7,0.6,5.6,1.3,5.7,2.1c0.4,1.5,1.1,3,2,4.3c1.4,2.5,2.9,3.2,4.5,2.2c1.5-1,3.6-0.9,6.3,0.3
		c4.7,1.8,7.3,4.6,7.7,8.3c0.6,2.7,2.5,5.6,5.5,8.9c2.1,1.8,2.3,5,0.6,9.5c-0.6,2.9-3.1,3.6-7.4,2.3c-3.9-1.3-7.9-1.8-12-1.7
		c-3.7,0.4-9.1,1.3-16.1,2.8c-7.1,1.4-12.1,2.6-15.2,3.4c-8,2.1-11.4,4.1-10.1,6.2c1.4,2.3,7.4,4.1,18,5.5s17.1,2.8,19.5,4
		c2.5,1.2,4.1,3.5,4.8,6.8c0.5,2.9,1.8,5.6,3.5,8c1.8,2.5,3.1,3.6,3.8,3.4s1.3,1.5,1.7,5.2c0.8,4.5,2.2,6.8,4,6.8
		c4.1,0,6.1,3,6.1,8.9c0,2.5-6.1,3.7-18.4,3.7c-5.6,0-11.3-0.3-16.9-0.9c-5.7-0.6-10.9-1.2-15.4-1.8c-4.3-0.4-13-2.5-26-6.4
		c-13-3.9-21.5-6.2-25.4-6.8c-3.9-0.6-7.1,0-9.5,1.7c-2.5,1.7-6.8,0.8-12.9-2.9c-14.1-8.4-24.6-10.5-31.4-6.2
		c-3.7,2.7-10.4,0.2-20-7.4c-3.7-2.6-8.2-3.9-13.6-3.7s-10.5,0.5-15.2,0.9c-4.3,0.7-8.6,0-12.5-2c-3.6-1.9-7.8-4.3-12.8-7.2
		c-4.7-2.9-7.7-11.9-8.9-27.1C14.6,46.7,14.4,39.1,15,33.2z M64.5,42.1c-1,1-1.9,3.4-2.6,7.2c-0.7,3.8,0.4,5.5,3.2,5.1
		c3.1-0.2,11.5,0.7,25.2,2.8c13.7,2,20.2,2.7,19.4,1.8c-0.6-0.6-1.8-2-3.7-4.2c-2.1-2.3-4.6-4.3-7.4-5.7c-3.1-1.2-9.2-2.9-18.5-5.1
		C71,41.9,65.8,41.3,64.5,42.1L64.5,42.1z"/>
</g>
<path class="st1" d="M22.2,973.5c0.8,0.8,0-2-2.5-8.6s-4.1-14.8-4.9-24.6c-0.6-9.6,2.4-17.7,9.1-24.1c7.1-6.7,15.1-12.4,23.8-16.8
	c9.4-4.3,26.4-6.5,50.9-6.6s42.9,1.6,55.2,5.1c12.6,3.9,23.9,10.9,33,20.5c9.7,9.9,18.3,16.2,25.7,18.9
	c13.9,5.3,19.7,11.4,17.2,18.1c-1.2,4.5,1.4,8.7,8,12.6c5.5,3.5,5.3,7.9-0.6,13.2c-3.1,3.1-4,4.9-2.9,5.5s3,3.1,5.7,7.4
	c2.9,5.5,4,9.8,3.4,12.9c-0.8,2.1-1.9,4.2-3.2,6c-1.6,2.2-2.4,4.8-2.3,7.5c-0.1,2.5,0.4,5,1.5,7.2c1,1.9,1.3,4.2,0.6,6.3
	c-0.6,2.5-7.2,1.6-19.7-2.6s-21.5-7.3-27.1-9.4c-5.3-1.8-19.6-6.1-42.8-12.8s-38.9-11.1-47.3-13.3c-8.2-2.1-19.6-2.4-34.3-0.9
	c-14.7,1.4-24.1,1.2-28.4-0.6c-4.3-1.4-8.6-5.4-12.8-12C23.4,975.9,21.6,972.9,22.2,973.5z M65.3,936c-0.4,2.9,0.4,5.7,2.2,8
	c3.5,4.5,4.4,7.8,2.8,9.8c-1.2,1.8-0.6,3.7,1.8,5.5c2,1.6,4.1,2.8,6.5,3.7c1.8,0.6,11.2,2.1,28.1,4.6s27,4.5,30.3,6.1
	c3.5,1.8,11.4,5.2,23.7,10.2c12.3,4.9,18.7,6.7,19.3,5.2c0.6-1.2-0.5-7.3-3.4-18.3s-6.7-18.3-11.4-22c-3.1-2.5-9.1-6.2-18-11.2
	s-19.5-8.8-31.8-11.2c-12.2-2.2-24.7-2.5-37.1-0.8C66.4,927.4,62,930.9,65.3,936z"/>
<path class="st1" d="M41,764.4c4.5-1.2,8.4-0.9,11.5,1.1s4.4,3.8,3.5,5.7c-1.4,3.7,0.3,6.9,5.2,9.5c2.7,1.6,2.7,5.8,0,12.6
	c-0.6,2.1-0.1,3.5,1.5,4.5c1.6,0.9,3.3,2.9,4.9,6c1.8,3.1,1.1,5.7-2.2,7.8c-3.3,2.2-5.2,5.7-5.8,10.6c-0.6,5.1,6.6,7.3,21.5,6.6
	s24-2,27.1-3.8c9.2-5.7,12.3-12,9.2-18.8c-1.8-4.1-3.7-6.9-5.7-8.5c-1.9-1.5-3.3-3.4-4.2-5.7c-0.6-2.1,3.6-3.6,12.6-4.6
	c6.7-0.9,13.5-1.3,20.3-1.2c4.7,0.6,6.2,3.3,4.3,8c-1.8,4.7-2.2,8.6-0.9,11.7c1.8,4.3,1,8.9-2.5,13.8c-2.7,3.9-2.1,7.6,1.8,11.1
	c3.3,3.1,12.6,4.8,27.8,5.2c15.3,0.4,23.5-1.6,24.8-6.2c1.1-3.9,1.9-7.8,2.3-11.8c0.3-3.6-2.7-7.3-9.1-11.2
	c-9-5.5-10.7-14.6-4.9-27.1c2.7-5.7,8.9-6.5,18.8-2.3s17.2,7.2,22.1,9.1c6.4,2.5,8.7,8.1,7.1,16.9c-1.6,9.2-1,14,1.8,14.2
	c1.8,0,2.6,2.9,2.3,8.6s-2.3,9.3-6,10.8c-4.7,2.5-3.6,5.7,3.4,9.8c7,4.1,5.8,7.5-3.4,10.2c-4.9,1.8-5.9,4.3-3.1,7.4
	c2.3,2.3,4.2,4.8,5.8,7.6c1.2,2.2,1.6,5.7,1.2,10.5s-4.8,6.2-13.2,4.3c-8.2-1.4-21.2-3.5-39.1-6.2s-31-6-39.4-10.1
	c-8-4.1-26.6-5.3-55.8-3.5s-46.7,2-52.4,0.8c-5.5-1-8.7-4.2-9.4-9.5c-0.7-5.7-0.3-11.4,1.1-16.9c2.9-10.4,4.7-21.2,5.2-32
	c0.6-5.9,0.3-9.7-1.1-11.4s-4.2-5.1-8.8-10.5c-4.3-5.1-1.6-10.8,8-16.9C33,767.8,36.8,765.7,41,764.4z"/>
<path class="st1" d="M12.7,658c1-1.4,8.9-3.4,23.5-5.8s27.2-3.1,37.7-1.8c11.1,1.2,22.3,0.4,33.1-2.3c11.6-2.8,14.3-5,8.2-6.6
	c-5.9-1.4-20.4-5.2-43.5-11.4s-37.4-9.8-42.9-11c-5.3-1.2-10.3-4.3-14.9-9.2S8,600,10.3,595.3c2.5-4.7,2.3-9.1-0.5-13.1
	c-2.7-3.6-3.7-8.1-2.9-12.5c0.6-2.5,11-5,31.1-7.7c3.5-0.5,6.8-1.9,9.7-4c2.8-2.1,6.2-3.5,9.7-4c2.5-0.2,6.4,0.3,11.7,1.4
	c4.6,1.1,9.4,1.4,14.2,0.8c4.3-0.4,7.6-1.7,10-4s4.6-3.4,6.6-3.4c7.2-0.4,12,0.6,14.5,3.1c2.2,2.3,5.1,3.8,8.3,4
	c10.5,1,27-0.6,49.7-4.8s37.8-6.6,45.4-7.2c8-0.6,12.4,0.8,13.2,4.2s3.5,5.7,8,6.9c4.5,1.4,6,3.9,4.6,7.4
	c-4.9,10.9-5.1,17.6-0.6,20.3c4.3,2.7,3.3,6.1-3.1,10.3c-6.4,4.2-15.1,5.6-26.1,4.2c-11.1-1.2-18.8-2.1-23.2-2.6s-12-1.1-22.9-1.7
	c-10.5-0.4-37.7-0.6-81.8-0.6c11.9,5.7,16.9,9.7,15.1,12c-1.5,2.3-4.1,3.6-6.8,3.5c-2.7-0.1-1.7,0.8,2.8,2.6c5,1.9,10.3,3,15.7,3.2
	c5.5,0.3,11.4,0.7,17.5,1.1c9.8,0.6,18.2,2.8,25.2,6.5c4.1,2.3,11.8,4.1,23.1,5.5c11.3,1.4,20.1,3.4,26.4,5.8
	c6.6,2.5,10.1,5.2,10.6,8.3c0.5,3.1,2.1,5.9,4.5,8c2.6,2.1,3.6,5.6,2.6,8.8c-0.9,3.4-3.6,5.4-8.1,6c-5.6,0.6-11.3,0.6-16.9-0.2
	c-6.8-0.7-13.2-1.4-19.4-2c-6.2-0.2-12.4,0.5-18.4,2c-5.4,1.5-11,2.1-16.6,2c-5.2-0.2-10.3,0.2-15.4,1.2c-5.3,1-8.3,3.1-8.9,6.2
	c-0.6,3.5-4,4.5-10.1,3.1s-11-1.7-14.5-0.9c-7.4,1.8-1.1,6.1,18.8,12.9c11.3,4.1,31.4,9.3,60.4,15.5c29,6.3,46.1,10.6,51.2,13.1
	c8.4,3.5,10.8,8.1,7.1,13.8c-1.9,3.1-1.6,7.5,0.8,13.4c2.4,5.8,4.7,10.9,6.9,15.2c2.3,4.3-1.6,4.7-11.7,1.1s-18.7-6.6-25.8-9.1
	c-4.1-1.4-14.9-3.2-32.4-5.2c-17.5-2.1-32.3-7.2-44.4-15.4c-14.1-9.6-30.5-13.4-49.2-11.4c-9,1.2-20.1,0.3-33.2-2.9
	s-24-5.4-32.6-6.6c-8.6-1-10.5-9.4-5.5-25.2S11.9,659.6,12.7,658z"/>
<path class="st1" d="M4.1,407.4c3.1-5.9,9.6-10.4,19.7-13.2c10-2.9,18-4.9,24-6.1c6.1-1.2,12.6-0.2,19.4,3.1s15.4,5.8,25.8,7.7
	c11.4,1.9,22.9,2.8,34.4,2.8c12.3,0,21.8,0.9,28.6,2.8c6.1,1.7,12.3,3,18.6,3.9c5.6,0.7,12.6,3.8,20.8,9.4
	c8.4,5.8,13.3,8.5,14.8,8.1s5.5,1.9,12.3,6.6c6.8,4.9,9.4,9,8,12.1s-2.1,7.7-2.1,13.7c0,8.2,5,15.4,15.1,21.5
	c3.7,2.5,3.6,5.5-0.1,9.2c-3.9,3.9-7.4,8.2-10.3,12.9c-2.9,5.3-1.9,7.4,2.8,6.3s7.7,0.5,8.9,4.8c1.4,4.7-1.3,7.9-8.3,9.5
	c-7.8,1.9-15.4,4.4-22.8,7.4c-16.6,6.8-39.3,6.4-68-1.2c-12.7-3.3-28.8-4.1-48.1-2.5c-19.4,1.6-32.8,1.8-40.4,0.6
	c-7.4-0.9-14.3-4.6-19.2-10.2c-5.2-5.7-10.9-11.3-17.1-16.9c-5.9-5.5-9.3-9.3-10-11.2s-1.9-7.9-3.5-18c-1.5-9.6-3-22.1-4.6-37.5
	C0.7,421.9,1.2,413.3,4.1,407.4z M51.5,458.1c-8.6,11.7-7.6,17.7,3.1,17.9c5.3,0.4,15.2,2.6,29.5,6.5c23.4,5.5,40.2,7.9,50.4,7.1
	c10.5-0.8,19.7-1.2,27.8-1.1c8.1,0.1,12.1-2.5,12.1-7.8c0-4.9,1.3-11.3,4-19.1c2.7-7.8-0.1-12.5-8.3-14.1
	c-8.1-1.5-15.9-3.9-23.4-7.4c-8.8-3.9-17.8-7.2-27.1-9.8c-10.2-2.9-18.2-4.9-23.8-6.2s-12.6-1-20.8,0.6
	c-11.1,2.3-16.8,7.1-17.1,14.6C57.8,446.7,55.6,453,51.5,458.1z"/>
<path class="st1" d="M17.3,299.5c0.6,0,0.8-0.8,0.6-2.3s2.1-2.1,7.1-1.7c5.3,0.6,9.6,2.3,12.8,4.9s9.6,5.2,19.2,7.7
	c9.6,2.9,28.8,7.5,57.5,14s46.4,10.4,53.2,11.8c6.8,1.4,13.7,1.8,20.6,1.1c7-0.7,9.5-5.5,7.7-14.3c-1.6-8.6-0.3-15.5,3.9-20.8
	c4.2-5.2,2.9-10.2-3.8-14.9c-6.8-4.7-10-10.6-9.7-17.7s3.2-11.2,8.8-12.5c5.5-1.2,11.9,0.2,19.1,4.2c7,3.8,13.1,9,18.1,15.2
	c2.9,3.5,3.4,6.7,1.5,9.7c-1.9,3-1.4,4.8,1.2,5.4c21.7,6.8,21.9,11.6,0.6,14.5c-4.3,0.6-5,2.9-2,6.8c3,3.9,3.2,6.6,0.8,8
	c-1,0.8,0.9,3.7,5.8,8.6c4.9,5.9,4.5,10.5-1.2,13.5c-5.9,3.5-7.7,6.5-5.2,8.9c4.7,5.1,6.5,9.1,5.2,12c-1.2,4.5,0,9.1,3.7,13.8
	c3.3,4.1,6,8.5,8.3,13.2c1.6,4.1-4,4.3-16.9,0.6c-12.9-3.7-22-6.4-27.3-8.2c-4.9-1.8-17.5-4.2-37.7-7.2c-20.2-3-32.9-5.1-38-6.3
	c-4.9-1.2-8.8-2.1-11.5-2.5s-6.5-2.7-11.2-6.8c-4.3-4.1-13.2-6.6-26.8-7.4s-23.5-0.6-29.8,0.6c-12.1,2.9-24.2-2-36.3-14.8
	c-5.5-5.9-6.8-13.6-3.7-23.1S16.7,299.5,17.3,299.5z"/>
<path class="st1" d="M41,124.8c4.5-1.2,8.4-0.9,11.5,1.1s4.4,3.8,3.5,5.7c-1.4,3.7,0.3,6.9,5.2,9.5c2.7,1.6,2.7,5.8,0,12.6
	c-0.6,2.1-0.1,3.5,1.5,4.5c1.6,0.9,3.3,2.9,4.9,6c1.8,3.1,1.1,5.7-2.2,7.8c-3.3,2.2-5.2,5.7-5.8,10.6c-0.6,5.1,6.6,7.3,21.5,6.6
	s24-2,27.1-3.8c9.2-5.7,12.3-12,9.2-18.8c-1.8-4.1-3.7-6.9-5.7-8.5c-1.9-1.5-3.3-3.4-4.2-5.7c-0.6-2,3.6-3.6,12.6-4.6
	c6.7-0.9,13.5-1.3,20.3-1.2c4.7,0.6,6.2,3.3,4.3,8s-2.2,8.6-0.9,11.7c1.8,4.3,1,8.9-2.5,13.8c-2.7,3.9-2.1,7.6,1.8,11.1
	c3.3,3.1,12.6,4.8,27.8,5.2c15.3,0.4,23.5-1.6,24.8-6.1c1.1-3.9,1.9-7.8,2.3-11.8c0.3-3.6-2.7-7.3-9.1-11.2
	c-9-5.5-10.7-14.5-4.9-27.1c2.7-5.7,8.9-6.5,18.8-2.3s17.2,7.2,22.1,9.1c6.4,2.5,8.7,8.1,7.1,16.9c-1.6,9.2-1,13.9,1.8,14.1
	c1.8,0,2.6,2.9,2.3,8.6c-0.3,5.7-2.3,9.3-6,10.8c-4.7,2.5-3.6,5.7,3.4,9.8c7,4.1,5.8,7.5-3.4,10.1c-4.9,1.8-5.9,4.3-3.1,7.4
	c2.3,2.3,4.3,4.9,5.8,7.7c1.2,2.2,1.6,5.7,1.2,10.4s-4.8,6.1-13.2,4.3c-8.2-1.5-21.2-3.5-39.1-6.2s-31-6-39.4-10.1
	c-8-4.1-26.6-5.3-55.8-3.5s-46.7,2-52.4,0.8c-5.5-1-8.7-4.2-9.4-9.5c-0.7-5.7-0.3-11.4,1.1-16.9c2.9-10.4,4.7-21.2,5.2-32
	c0.6-5.9,0.3-9.7-1.1-11.4s-4.2-5.1-8.8-10.5c-4.3-5.1-1.6-10.8,8-16.9C33,128.1,36.8,126.1,41,124.8z"/>
<path class="st1" d="M-2.3,33.2C-0.9,19.8,6,11.2,18.3,7.3c4.5-1.2,7.2-1.9,8.1-2.2S31,3.7,37.3,1.5C43.9-0.8,52.7-1.3,63.9,0
	s19.2,2.5,24.1,3.6c5.1,1.4,8.2,2.6,9.2,3.5c1,0.9,3.4,1.9,7.1,2.9c3.7,1.2,5.5,1.7,5.4,1.5c-0.1-0.2,1.3,0.6,4.2,2.5
	c3.8,2.9,8.4,4.6,13.2,4.9c3.5,0.4,5.2,2.3,5.1,5.7c-0.1,3.3,0,6.7,0.5,10c0.8,3.7,4.6,5.2,11.4,4.6c3.7-0.2,13.7-2.8,30.1-7.8
	s26.4-7.2,30.1-6.6c3.7,0.6,5.6,1.3,5.7,2.1c0.4,1.5,1.1,3,2,4.3c1.4,2.5,2.9,3.2,4.5,2.2c1.5-1,3.6-0.9,6.3,0.3
	c4.7,1.8,7.3,4.6,7.7,8.3c0.6,2.7,2.5,5.6,5.5,8.9c2.1,1.8,2.3,5,0.6,9.5c-0.6,2.9-3.1,3.6-7.4,2.3c-3.9-1.3-7.9-1.8-12-1.7
	c-3.7,0.4-9.1,1.3-16.1,2.8c-7.1,1.4-12.1,2.6-15.2,3.4c-8,2.1-11.4,4.1-10.1,6.2c1.4,2.3,7.4,4.1,18,5.5s17.1,2.8,19.5,4
	c2.5,1.2,4,3.5,4.8,6.8c0.5,2.9,1.8,5.6,3.5,8c1.8,2.5,3.1,3.6,3.8,3.4c0.7-0.2,1.3,1.5,1.7,5.2c0.8,4.5,2.2,6.8,4,6.8
	c4.1,0,6.1,3,6.1,8.9c0,2.5-6.1,3.7-18.4,3.7c-5.6,0-11.3-0.3-16.9-0.9c-5.7-0.6-10.9-1.2-15.4-1.8c-4.3-0.4-13-2.5-26-6.4
	s-21.5-6.2-25.4-6.8c-3.9-0.6-7.1,0-9.5,1.7c-2.5,1.7-6.8,0.8-12.9-2.9c-14.1-8.4-24.6-10.4-31.4-6.2c-3.7,2.7-10.4,0.2-20-7.4
	c-3.7-2.7-8.3-3.9-13.7-3.7s-10.5,0.5-15.2,0.9c-4.2,0.7-8.6,0-12.4-2c-3.6-1.9-7.9-4.3-12.8-7.2c-4.7-2.9-7.7-11.9-8.9-27.1
	C-2.8,46.7-3,39.1-2.3,33.2z M47.2,42.1c-1,1-1.9,3.4-2.6,7.2s0.4,5.5,3.2,5.1c3.1-0.2,11.5,0.7,25.2,2.8c13.7,2,20.2,2.7,19.4,1.8
	c-0.6-0.6-1.8-2-3.7-4.2c-2.1-2.3-4.6-4.3-7.4-5.7c-3.1-1.2-9.2-2.9-18.5-5.1C53.6,41.9,48.4,41.3,47.2,42.1z"/>
</svg>
