<svg id="Layer_1" data-name="Layer 1" xmlns="http://www.w3.org/2000/svg" viewBox="0 0 675.72 26.69"><defs><style>.cls-1{fill:#fff;}</style></defs><title>estrellitas</title><path class="cls-1" d="M34.19,13.06C41,11.67,44.45,7.12,46.41.59c2,7,7,10.16,13.55,12.31-5.66,3-11.42,5.52-11.76,13.16l-1.43-.26-2.84-6.37-9.48-5.15Z"/><path class="cls-1" d="M25.6,11.93c-6.52,2.6-10.68,6.73-11.6,14.74L6.48,15.51l-6-1.91L0,12.42C6.2,10.48,10.77,7.12,11.84,0,14.83,5.93,18.34,10.82,25.6,11.93Z"/><path class="cls-1" d="M94.31,13.59C87.51,15,84.06,19.54,82.09,26.06c-2-7-7-10.16-13.54-12.3C74.2,10.76,80,8.23,80.31.59l1.43.26,2.84,6.38,9.48,5.15Z"/><path class="cls-1" d="M149.53,26.21C148.14,19.4,143.58,16,137.06,14c7-2,10.16-7,12.3-13.55,3,5.66,5.53,11.42,13.17,11.76l-.26,1.43-6.38,2.85c-1.38,2.54-3.26,6-5.15,9.47Z"/><path class="cls-1" d="M102.91,14.72C109.42,12.13,113.59,8,114.51,0L122,11.15l6,1.91.4,1.17c-6.15,1.94-10.72,5.31-11.8,12.44C113.68,20.72,110.17,15.83,102.91,14.72Z"/><path class="cls-1" d="M205.27,13.06c6.81-1.39,10.25-5.94,12.22-12.47,2,7,7,10.16,13.54,12.31-5.65,3-11.41,5.52-11.75,13.16l-1.43-.26L215,19.43l-9.47-5.15Z"/><path class="cls-1" d="M196.68,11.93c-6.52,2.6-10.69,6.73-11.61,14.74l-7.52-11.16-6-1.91-.41-1.18c6.16-1.94,10.73-5.3,11.8-12.44C185.91,5.93,189.41,10.82,196.68,11.93Z"/><path class="cls-1" d="M265.39,13.59c-6.8,1.39-10.25,5.95-12.22,12.47-2-7-7-10.16-13.54-12.3,5.65-3,11.42-5.53,11.76-13.17l1.42.26,2.85,6.38,9.48,5.15Z"/><path class="cls-1" d="M320.61,26.21C319.22,19.4,314.66,16,308.14,14c7-2,10.15-7,12.3-13.55,3,5.66,5.53,11.42,13.17,11.76l-.26,1.43L327,16.48c-1.39,2.54-3.27,6-5.15,9.47Z"/><path class="cls-1" d="M274,14.72C280.5,12.13,284.67,8,285.59,0l7.52,11.17,6,1.91.4,1.17c-6.16,1.94-10.73,5.31-11.8,12.44C284.76,20.72,281.25,15.83,274,14.72Z"/><path class="cls-1" d="M376.35,13.06c6.8-1.39,10.25-5.94,12.22-12.47,2,7,7,10.16,13.54,12.31-5.65,3-11.41,5.52-11.76,13.16l-1.42-.26-2.85-6.37-9.47-5.15Z"/><path class="cls-1" d="M367.76,11.93c-6.52,2.6-10.69,6.73-11.61,14.74l-7.52-11.16-6-1.91-.4-1.18C348.36,10.48,352.93,7.12,354,0,357,5.93,360.49,10.82,367.76,11.93Z"/><path class="cls-1" d="M436.47,13.59c-6.8,1.39-10.25,5.95-12.22,12.47-2-7-7-10.16-13.54-12.3,5.65-3,11.41-5.53,11.76-13.17l1.42.26,2.85,6.38,9.47,5.15Z"/><path class="cls-1" d="M491.69,26.21C490.29,19.4,485.74,16,479.21,14c7-2,10.16-7,12.31-13.55,3,5.66,5.52,11.42,13.16,11.76l-.25,1.43-6.38,2.85c-1.39,2.54-3.27,6-5.15,9.47Z"/><path class="cls-1" d="M445.06,14.72C451.58,12.13,455.75,8,456.67,0l7.52,11.17,6,1.91.4,1.17c-6.16,1.94-10.73,5.31-11.8,12.44C455.83,20.72,452.33,15.83,445.06,14.72Z"/><path class="cls-1" d="M547.43,13.06c6.8-1.39,10.25-5.94,12.22-12.47,2,7,7,10.16,13.54,12.31-5.65,3-11.42,5.52-11.76,13.16L560,25.8l-2.85-6.37-9.48-5.15Z"/><path class="cls-1" d="M538.83,11.93c-6.51,2.6-10.68,6.73-11.6,14.74l-7.52-11.16-6-1.91-.4-1.18C519.44,10.48,524,7.12,525.08,0,528.06,5.93,531.57,10.82,538.83,11.93Z"/><path class="cls-1" d="M607.55,13.59c-6.81,1.39-10.25,5.95-12.22,12.47-2-7-7-10.16-13.55-12.3,5.66-3,11.42-5.53,11.76-13.17L595,.85l2.85,6.38,9.47,5.15Z"/><path class="cls-1" d="M662.76,26.21C661.37,19.4,656.82,16,650.29,14c7-2,10.16-7,12.31-13.55,3,5.66,5.52,11.42,13.16,11.76l-.26,1.43-6.37,2.85c-1.39,2.54-3.27,6-5.15,9.47Z"/><path class="cls-1" d="M616.14,14.72C622.66,12.13,626.83,8,627.75,0l7.51,11.17,6,1.91.41,1.17c-6.16,1.94-10.73,5.31-11.8,12.44C626.91,20.72,623.41,15.83,616.14,14.72Z"/></svg>