<?xml version="1.0" encoding="utf-8"?>
<!-- Generator: Adobe Illustrator 22.0.1, SVG Export Plug-In . SVG Version: 6.00 Build 0)  -->
<svg version="1.1" id="Layer_1" xmlns="http://www.w3.org/2000/svg" xmlns:xlink="http://www.w3.org/1999/xlink" x="0px" y="0px"
	 viewBox="0 0 71 59.7" style="enable-background:new 0 0 71 59.7;" xml:space="preserve">
<style type="text/css">
	.st0{fill:#FFFFFF;}
</style>
<g>
	<path class="st0" d="M60.5,34.9c-0.5,0.2-4.8,4.6-4.9,6.2c0,0-0.5,3.8,2.5,6.1c3,2.3,4.9,4,5.2,3.9c0.3,0,2-1.6,2.2-1.8
		s0.6-0.6,0.6,0c0,0.6-0.5,1.7-0.5,2c0.1,0.3,0.4,0.7,0.9,0.9s0.8,2.6,0.1,3.7s-0.9,1.2-1.3,1.2c-0.4,0-0.9,1.7-5.7,2.3
		s-7-0.7-7-0.7s-3.4-1.6-4.7-1.6c-1.3,0-3.7,0.2-5.1,0.6c-1.5,0.3-2.8,0.5-4.9-0.6s-2.3-1.3-4.5-1s-2.6,0.5-3.7,0.5
		c-1.1,0-1.8-0.5-1.9-0.7c-0.1-0.2-0.8-0.4-0.8-0.4s-1-0.3-1.3-0.5c-0.3-0.2-3.2-2-3.2-2.6c0-0.6-0.3-0.6-0.5-0.9
		c-0.2-0.3-0.9-2.2-2.2-3s-1.5-1-1.5-1.3c-0.1-0.3-1.4-1.2-1.5-1.7s-1.5-1.5-1.4-1.8c0.1-0.3-0.1-1-0.3-1.5s-2.1-5.2-1.7-5.8
		c0.5-0.6,0-1-0.3-2.9c-0.4-1.8-1.1-3.2-0.8-5.4s1.3-3.3,1.2-3.5c0-0.1-0.2-0.7-1.6-1.1s-2.7-3.8-3.3-4.4c-0.6-0.6-2-1.2-3.1-1.7
		s-1.7-1-2.1-1.3c-0.3-0.3-1.3-1.6-1.3-1.6s-0.8-1.2-0.7-1.5c0.1-0.3-0.1-0.2-0.1-0.2S1,12.4,1.5,12.3s0.9,0.3,0.9,0.3
		s0.5,0.3,1,0.1s0.8-0.3,0.4-0.4c-0.4-0.1-0.7-0.6-1-0.9S1,10.3,1,10.1c0-0.1,0.1-0.3,0-0.4S0.1,9.8,0,9.5c-0.1-0.3,1.4-1.4,1.4-1.4
		s3.8-1.4,6.4-1s5.5,1.3,7,2s4.8,2,4.8,2c0,0.1,0.7,0.6,0.8,0.6c0.2,0,2.7,0.9,3.2,1c0.5,0.2,2.8-0.7,1.6-4s-1.3-2.4-1.3-2.4
		S23.3,6.1,23,5.7s-1.8-0.9-2-1.3c-0.2-0.4-1-2.4,0.8-3.7c1.9-1.3,6-0.4,7.7,0.2s1.7,0.9,1.9,1c0.2,0.1,0.4,0.4,0.4,0.4
		S31.7,3,31.7,3.5c0,0.5-0.1,1,0.2,0.7s0.3-0.7,0.5-0.8c0.1-0.1,0.3-0.3,1.5,0.5c1.1,0.8,3.2,2.6,3.2,2.6s2.8,3.3,2.8,3.5
		c0.1,0.1,1.4,1.6,2,1.6c0.6,0,2.9,1.2,3.5,1.2c0.5,0,3.7,1.8,4.8,2.6c1.1,0.8,2,1.3,1.9,2.4c-0.1,1,0,1.8,0.9,2
		c0.9,0.2,2.1,0,3,0.3s3.3-0.4,3.6-0.3c0.3,0.2,1.3,0,3.6-1.3s5.3-2.1,6.3-0.8s1.7,5.4,1.5,6.3s-0.3,3.6-1.2,4.2
		c-0.9,0.6-1.1,0.9-0.7,1.3c0.5,0.3,0.8,1.1,0.9,1.3c0.1,0.3,0.5,1,0.2,1.5c-0.3,0.5-1,1.1-1,1.1l-0.6-1.2c0,0-0.2,1.2-0.4,1.4
		s-0.3,0.2-0.3,0.2s-0.4,0.9-0.9,1.4c-0.4,0.5-1.4,1.3-1.4,1.2s0.1-2.1-0.1-2.1c-0.2-0.1-0.4,0.5-0.6,0.6c-0.2,0-0.3,0.2-0.3-0.5
		c0-0.7,0.1-1.8-0.2-1.6c-0.2,0.2-1.3,0.3-1.3,0.7c0,0.4-0.9,3.3-1.3,3.7"/>
</g>
</svg>
