<svg id="Layer_1" data-name="Layer 1" xmlns="http://www.w3.org/2000/svg" viewBox="0 0 418.92 821.88"><defs><style>.cls-1{fill:#fff;}.cls-2{fill:red;}.cls-3{fill:#ff0;}</style></defs><title>Untitled-1</title><polygon class="cls-1" points="402.39 394.24 144.06 794.96 143.8 801.8 137.55 818.81 126.47 822.24 203.33 484.25 -0.54 409.59 234.2 3.79 245.28 0.36 233.29 21.09 218.13 308.85 402.39 394.24"/><polygon class="cls-2" points="245.29 0.36 10.54 406.16 214.41 480.82 137.56 818.82 413.48 390.81 229.21 305.43 245.29 0.36"/><path class="cls-2" d="M102.28,378.49c2.73.8,24.41,23.18,24.56,31.45,0,0,2.65,19.38-12.58,30.94S89.33,460.82,87.93,460.6s-10.33-8-11.27-9.07-3.22-2.86-3.16.25,2.73,8.8,2.4,10.3a6.89,6.89,0,0,1-4.41,4.39c-2.48.89-4,13.15-.75,18.43s4.32,6,6.38,5.94,4.53,8.51,29,11.69S141.4,499,141.4,499s17-8.12,23.83-8.18a134.2,134.2,0,0,1,25.93,3c7.34,1.71,14.37,2.41,25-3.07s11.66-6.43,22.56-5.28,13.05,2.67,18.59,2.72,8.95-2.51,9.51-3.47,3.87-1.84,3.87-1.84,5.27-1.46,6.68-2.42,16.23-10.29,16.18-13.34,1.31-3.16,2.37-4.46,4.52-11,11.36-15,7.38-5,7.79-6.43,7.18-5.88,7.68-8.35,7.49-7.53,6.84-9.19.5-5,1.71-7.34S342,390,339.62,386.9s-.25-5.28,1.66-14.43,5.43-16.17,3.82-27.51-6.43-16.79-6.18-17.48,1-3.3,7.84-5.62,13.87-19.24,16.89-22.29,10.1-6.25,15.78-8.72a34.45,34.45,0,0,0,10.5-6.73c1.76-1.66,6.63-7.94,6.63-7.94s3.94-6.28,3.67-7.69.61-1.21.61-1.21,1.65-2.41-.56-2.91-4.52,1.45-4.52,1.45a6.92,6.92,0,0,1-5.18.7c-2.81-.79-4.22-1.54-2.16-2.23s3.72-3,5.13-4.34,9.35-5.94,9.2-6.69-.44-1.46.25-1.81,4.27.25,4.72-1.15-6.93-7-6.93-7-19.35-6.84-32.42-5.13a135.33,135.33,0,0,0-35.13,10.11c-7.19,3.41-24,10-24,10.34s-3.31,3-4.12,2.87-13.57,4.49-15.93,5.26-14.13-3.64-7.94-20.3,6.53-12,6.53-12a48.7,48.7,0,0,0,4.08-3.51c2-1.91,9-4.68,10.15-6.69s5.12-12.26-4.22-18.84-30.11-1.88-39.05.91S250,211,249,211.45a5,5,0,0,0-1.85,2,58.15,58.15,0,0,1,.45,6.33c0,2.76.45,5.1-1.16,3.53s-1.76-3.51-2.46-3.93-1.56-1.36-7.34,2.66-16.18,13.12-16.18,13.12S206.48,252,206.08,252.71s-7,8.24-9.85,8-14.77,5.87-17.54,6-18.54,9.08-24.32,13.25-10.1,6.68-9.65,12,.1,9.23-4.67,10.19-10.41.06-15.08,1.32-16.89-2.18-18.4-1.32-6.58.21-18.14-6.32-26.89-10.48-31.71-4.07S48.27,319,49.18,323.53s1.75,18.19,6.23,21.25,5.73,4.78,3.32,6.48-4,5.38-4.38,6.74-2.3,5.12-1,7.61,5.08,5.62,5.08,5.62l3.06-6.08s.86,6.22,1.81,6.92a4.79,4.79,0,0,0,1.72.86,40.41,40.41,0,0,0,4.31,7.18c2.21,2.67,7,6.44,7.29,6.29s-.43-10.37.55-10.73,2,2.69,2.86,2.84,1.77,1.2,1.67-2.42-.3-8.94,1-7.94,6.32,1.76,6.42,3.57,4.73,16.89,6.69,18.55"/><path class="cls-1" d="M111.42,384.39c2.73.8,24.41,23.18,24.56,31.45,0,0,2.65,19.38-12.58,30.94S98.47,466.72,97.07,466.5s-10.33-8-11.27-9.07-3.22-2.86-3.16.25,2.73,8.8,2.4,10.3a6.89,6.89,0,0,1-4.41,4.39c-2.48.89-4,13.15-.75,18.43s4.32,5.95,6.38,5.94,4.53,8.51,29,11.69,35.28-3.51,35.28-3.51,17-8.12,23.83-8.18a134.2,134.2,0,0,1,25.93,3c7.34,1.71,14.37,2.41,25-3.07s11.66-6.43,22.56-5.28,13,2.67,18.59,2.72,8.95-2.51,9.51-3.47,3.87-1.84,3.87-1.84,5.27-1.46,6.68-2.42,16.24-10.29,16.18-13.35,1.31-3.15,2.37-4.45,4.52-11,11.36-15,7.38-5,7.79-6.43,7.18-5.88,7.68-8.35,7.49-7.53,6.84-9.19.5-5,1.71-7.34,10.7-26.34,8.34-29.45-.25-5.28,1.66-14.43,5.43-16.17,3.82-27.51-6.43-16.79-6.18-17.48,1-3.3,7.84-5.62,13.87-19.24,16.89-22.29,10.1-6.25,15.78-8.72a34.45,34.45,0,0,0,10.5-6.73c1.76-1.66,6.63-7.94,6.63-7.94s3.94-6.28,3.67-7.69.61-1.21.61-1.21,1.65-2.41-.56-2.91-4.52,1.45-4.52,1.45a6.92,6.92,0,0,1-5.18.7c-2.81-.8-4.22-1.54-2.16-2.23s3.72-3,5.13-4.34,9.35-5.94,9.2-6.69-.44-1.46.25-1.81,4.27.25,4.72-1.15-6.93-7-6.93-7-19.35-6.84-32.42-5.13a135.33,135.33,0,0,0-35.13,10.11c-7.19,3.41-24,10-24,10.34s-3.31,3-4.12,2.87-13.57,4.49-15.93,5.26-14.13-3.64-7.94-20.3,6.54-12,6.54-12A49.51,49.51,0,0,0,301,236.9c2-1.91,9-4.68,10.15-6.69s5.12-12.26-4.22-18.84-30.11-1.89-39,.91-8.71,4.62-9.76,5.07a5,5,0,0,0-1.85,2,58.15,58.15,0,0,1,.45,6.33c0,2.76.45,5.1-1.16,3.53s-1.76-3.51-2.46-3.93-1.56-1.36-7.34,2.66-16.18,13.12-16.18,13.12-13.93,16.83-14.33,17.54-7,8.24-9.85,8-14.77,5.87-17.54,6-18.54,9.08-24.32,13.25-10.1,6.68-9.65,12,.1,9.23-4.67,10.19-10.41.06-15.08,1.32-16.89-2.18-18.4-1.32-6.58.21-18.14-6.32-26.89-10.48-31.71-4.07-8.45,27.26-7.54,31.77,1.75,18.19,6.23,21.25,5.73,4.78,3.32,6.48-4,5.38-4.37,6.74-2.31,5.11-1,7.61,5.08,5.62,5.08,5.62l3.06-6.08s.86,6.22,1.81,6.92a4.79,4.79,0,0,0,1.72.86A40.41,40.41,0,0,0,78.52,386c2.21,2.67,7,6.44,7.29,6.29s-.43-10.37.55-10.73,2,2.69,2.86,2.84,1.77,1.2,1.67-2.42-.3-8.94,1-7.94,6.32,1.76,6.42,3.57S103,394.51,105,396.17"/><path class="cls-3" d="M191,326.33s4.1,3.68,5.48,4,10.5,2.34,14.18,2,8.74-1.86,8.87-3.63-11.73-10.78-16-10.56-10.09,1.9-10.67,3.24S191,326.33,191,326.33Z"/><path d="M334.72,330c-1.35.26-2.71.49-4.06.79a2,2,0,0,0-1.71,2.5l3.61-2.34c-.26,1.19-.45,2.1-.69,3.16.66-.53,1.31-1.07,2.09-1.72l.17,1.14c.58-.26,1.1-.55,1.66-.74s1-1.24,2.3-.53c.61.35,2.24-1,3.37-1.7.83-.49,1.59-1.11,2.37-1.67l.42.4-2.41,3c3.08-1.51,5.6-3.08,6.81-5.47a8,8,0,0,0,2.52-.06c.62-.25,1-1,1.59-1.44s.8-1.5,2-.89c.24.12,1-.58,1.42-1,1.44-1.59,2.83-3.23,4.39-5,.42,1.66-1,2.59-1.45,3.87,2.34-.37,7.57-6.88,8.36-10.53l-1,1.41-.21-.07,1.15-3.4-4,1.76.18.44,1.42-.49.19.39-4.8,2.3.1.34,1.41-.19.12.25L359,315.58l.13.42,2.19-.61.16.21c-1.2.94-2.35,1.95-3.6,2.82s-2.68,1.54-3.89,2.47c-2.22,1.72-4.76,2.26-7.45,2.85-3.27.72-6.36.06-9.52-.11-1.46-.07-2.88-.85-4.36-1.09a22.71,22.71,0,0,0-4-.14c-1.13,0-2.25.15-3.37.23l-.05-.46,6.08-.93-.08-.55-14.38,2.16.74-1.12-1.41-2.87-1.64,1c.47-2.29.86-4.23,1.28-6.26l-.94.21c.13-2.61,1.71-4.46,2.89-6.16l-4.88,2c.49-1.7.88-3.05,1.28-4.41l-.42-.29-2.08,1.52c-.71-2.21.43-3.92.91-5.71-1.82-.27-2.21-1.12-1.5-3.34.8-2.47,1.69-4.92,2.73-7.91l-3.44,4.4c-.8-2.81,1.91-3.78,3-5.65l-1,.32,1.44-3.82-1.85.94-.17-.26,13.36-9.59-.06-.12-5.32,2.64-.35-.55c1.44-1,2.89-2,4.32-3,1.21-.88,2.38-1.84,3.61-2.7a32.32,32.32,0,0,1,3.59-2.32c2.53-1.32,4.51-3.65,7.44-4.21,2-.37,3.78-1.28,5.71-1.8a26.52,26.52,0,0,0,6-2.47l-3,.6-.12-.37c1.77-.53,3.72-.76,5.28-1.66,3.29-1.92,7-1.7,10.5-2.63,1.06-.28,2.16-.13,3-1.31.32-.46,1.84-.07,2.91-.07L367,254.71l.12-.4a50.39,50.39,0,0,0,13.26-1v-.45h-4.8v-.56c4.37-.79,8.83-.57,13.32-1l-1-.74c.13-.09.21-.2.29-.2,3.8,0,7.61-.17,11.39.12,2.12.17,4.19,1.1,6.27,1.72a16.52,16.52,0,0,0,1.52.65c2.12.37,3.28,1.91,4.48,3.46a9.26,9.26,0,0,0,2.11,1.33l-1.44.23.39.46,2.57-.63.14.42c-6.94,3-12.32,8.11-18,13.14,2.73.85,5.23,1.49,7.83-.21a12,12,0,0,1,3.72-1.44c1.18-.29,2.42,1.37,2,2.52-.36.89-.83,1.74-1.46,3.06l1.8-1.54.34.18a5.53,5.53,0,0,1-.55,1.51c-3.79,5-7.63,9.92-11.43,14.89-2.35,3.07-5.81,4.59-9,6.45a44,44,0,0,1-7.2,3.43,24.47,24.47,0,0,0-11.84,9.05c-2.19,3.06-4,6.4-6,9.57a54.58,54.58,0,0,1-4.83,7c-1.6,1.79-3.44,3.53-6.09,4a14.39,14.39,0,0,0-3.09,1.34l.3.71,5.38-2.3.23.4-8.22,4.52,3,1.36.55,1.43h.42l1.5-3.87.44.16c-.39,1-.72,2.1-1.17,3.11a2,2,0,0,0,.66,2.65c.63.54,1.18,1.17,1.79,1.73,1.41,1.28,2.71,2.59,2.2,4.95a9.83,9.83,0,0,0-2.33-1.61,6.07,6.07,0,0,0-2.36.18l2.64,2.41-.45.59-1.76-.31,3,6.45-1,.51.89,1.88-1,.35c1.06,2,.9,3-.54,3.34.22.57.42,1.14.64,1.71s.43,1.12.75,1.95l-1.11-.73-.28.14,2.71,6.46-.21.24c-1.06-1.42-2.11-2.85-3.17-4.28l-.47.3c-.31,2.68,2,4,3.45,5.76l-.28.37-3.09-1.79c.58,1.89,1.12,3.65,1.65,5.41l-.66.31-2.55-3.24c1.75,3,1.64,6.26,1.49,9.34-.53.19-1.31.22-1.53.58a49.64,49.64,0,0,0-3.75,7.51l2.48-2.23c1.14.85.51,1.6.25,2.65-.53,2.14-2.21,3.93-1.85,6.37a7.54,7.54,0,0,1-.34,3c-1.31,4.85-2.62,9.71-4,14.52a72.92,72.92,0,0,1-2.77,7.8,22.74,22.74,0,0,1-2.45,3.72l-1.31,2,.42.31,3.94-4.54c.57,1.67-.18,3-.88,4.29-1.78,3.28-4.66,5.59-7.31,8.12-.42.4-.78.86-1.16,1.3l.34.4,2.89-2.31.19.15c-.3.42-.63.82-.9,1.26-.85,1.42-1.67,2.85-2.52,4.28a1.71,1.71,0,0,1-.41.51c-2,1.52-3.89,3.05-5.88,4.51-1,.74-2.11,1.36-3.16,2l.2.41,2.59-1a3.43,3.43,0,0,1-2.41,3.91c-2,.74-4,1.24-6,2a14.82,14.82,0,0,0-8,7.11c-2,3.66-4,7.29-6,10.93-.06.11-.23.15-.62.39l.69-1.5-.24-.24-1.82,1.59c1.3,1.36.21,2.3-.58,3.12-2.13,2.22-4.54,4.2-6.52,6.55-2.71,3.2-6.19,4.78-10.08,5.92a60.72,60.72,0,0,0-8.59,3.42l7.64-1.25,0-.41-.85-.12,5.71-2.11.13.32-3.65,1.66.2.47,5.32-2.16c-3.41,3.23-8.21,3-12.14,5.08l3.63-.47c-1,1.08-1,1.07-4.44,1.75-.72.14-1.55-.11-1.89,1.08-.13.44-1.45.67-2.25.76a42.27,42.27,0,0,1-16.79-1.33c-4.17-1.23-8.44-1.33-12.68-1.45A89.27,89.27,0,0,0,235,493a6.13,6.13,0,0,0-2.48.92c-2.26,1.39-4.45,2.87-7,4.56l1.4.08c-1.1,2.13-3.38.64-5,1.69H224l.08.47c-2.54.39-5.07.72-7.59,1.17-1.27.22-2.49.75-3.75.92a9.66,9.66,0,0,1-3.89.08c-8-2.41-16.25-3.56-24.5-4.68a63.82,63.82,0,0,0-8.35-.91,17.8,17.8,0,0,0-5.62,1.3c-5.28,1.85-10.44,4.09-15.79,5.67a58.17,58.17,0,0,0-8.34,3.06c-4.3,2-9,2.43-13.62,2.73a4.47,4.47,0,0,0-3,1.07c-1.9,1.68-4.26,1.36-6.51,1a21.43,21.43,0,0,1-5-1.25c-4.5-1.85-9.31-2.36-13.94-3.63-4.19-1.15-8.65-1.75-12.27-4.47-1.85-1.39-3.53-3-5.28-4.54-.29-.25-.54-.72-.84-.75-3.93-.35-5.79-3.25-7-6.32a65.69,65.69,0,0,1-2.78-10.41c-.7-3.25.91-6,2.74-8.43.73-1,2.28-1.36,3.5-1.93a3.66,3.66,0,0,0,1.71-4.24,69.93,69.93,0,0,1-1.78-7.54c-.25-1.49,0-3.4,1.67-3.72.82-.16,2.26,1.2,2.93,2.2,2.23,3.39,5.56,5.55,8.57,8.07A1.58,1.58,0,0,0,97,465c1.78-1.62,3.46-3.35,5.18-5,3.8-3.72,7.33-7.8,11.5-11.06A95.94,95.94,0,0,0,128,434.45a16.54,16.54,0,0,0,4-13.17c-.78-5.11-1.71-10.18-4.35-14.74a3.4,3.4,0,0,0-.42-.72c-.41-.4-.87-.74-1.36-1.14.39,1.16.76,2.31,1.14,3.46l-.37.16c-4.12-6.54-7.38-13.72-13.7-18.82L111,392.85l-.33-.12c.34-1.13.7-2.24,1-3.38s1.38-2.13-.22-3.53c-.66,2.8-1.28,5.34-1.85,7.9-.27,1.19-.4,2.41-.66,3.6-.41,1.8-1.64,2.14-3,.92a17.9,17.9,0,0,1-4.89-7.83c-1.28-3.65-2.11-7.45-3.08-11.21-.29-1.12-2.16-3.23-3.29-3.49a2,2,0,0,0-.32-.06c-1.73.05-1.73.05-3-1.15,0,2,0,4,0,6,0,.77.21,1.55.19,2.32s0,1.6-.42,2-1.32.38-2,.48c-.15,0-.38-.2-.5-.36a30.22,30.22,0,0,1-5.36-11.53,2.08,2.08,0,0,1,0-.66c0-.08.11-.16.26-.37,1.76,4.1,2.2,9,7.27,11.49a28.4,28.4,0,0,1-.23-3c.12-2.64.22-5.29.49-7.92.18-1.64.2-3.18-.91-4.51a1.41,1.41,0,0,0-2-.46,22.52,22.52,0,0,1-4.47,1c.91-1.66,2.13-3.21,3.75-3.26,1.14,0,2.44,1.35,3.45,2.32A12.83,12.83,0,0,1,92.42,371l1.92-4.2v2.3l3.54,2.44.8,3.83,2.11-1.3a10.73,10.73,0,0,1,11.06.52c1.08.81,2.11,1.3,3.57.42,3-1.79,6-.48,8.93.33.94.26,1.86.71,2.27-1.06-4.45-1.24-7.93-4.82-12.7-5.4l-.28.38c.39.49.78,1,1.18,1.47s.7.82,1,1.23l-.32.36c-2.37-1.5-4.7-3.07-7.13-4.46a16.3,16.3,0,0,0-3.43-1.16,53.1,53.1,0,0,1-15.3-7.12c-1.2-.84-2.89-.95-4.46-1.43-.09,1.05.1,2-.29,2.61a50.79,50.79,0,0,1-3.54,4.19c-.36-3.18,2.88-4.31,3-6.88-5.25-1.69-10.21-4-14.14-8.41-1.56,2.11.17,4-.4,5.79,1.25.18,2.14-1.42,3.56-.1-4.1,1.49-6.48,4.39-8.4,7.6,1.26,1.24,2.25,2.39,3.41,3.32a2.18,2.18,0,0,0,3.34-.17c1.08-1.17,3.67-.76,5.1.68.34.34.62.74,1.19,1.43l.7-1.46.32.23c0,.3,0,.68-.11.9-2.06,2.84-2.81,6.29-3.89,9.49-.5,1.49,1.08,3.69,1.72,5.57l.65-.2-.65-2.37.37-.18,4.53,8.34.19-.09c-1-2.65-2-5.29-3-7.94l.74-.32L82,384.75l.3-1.73,1.37,1.84.56-.61.29,1.63h.21l.72-3.12.49,0c.15,3.26.31,6.51.47,10-3.25-.68-5.08-2.84-7.06-4.81a21.4,21.4,0,0,1-5-7.56c-.08-.2-.17-.5-.33-.55-3-1.09-3.37-3.6-3.44-6.28,0-.09-.11-.18-.33-.51l-2.42,5.19a68.76,68.76,0,0,1-4.87-5.4c-1.46-2-1.36-4.21-.74-6.63.91-3.59,2-7,4.25-10a1.74,1.74,0,0,0-.25-1.62c-3.74-1.59-5.08-4.89-6.2-8.37s-2.27-7.14-3.46-10.7a22.23,22.23,0,0,1-1-8c.15-4.15-.08-8.31.1-12.46a36.59,36.59,0,0,1,1.27-5.87L58.12,313c1.05-3.26,1.85-6.13,2.92-8.91s3.3-4.81,4.4-8.49c1.43-1.66,4.2-2.46,7.13-2.6a38.27,38.27,0,0,1,15.17,2.24c2.9,1.08,5.83,2.08,8.52,3H94l-.15.59c6.51.7,11.58,5,17.81,6.63l-1.51.21c1.37,1.67,2.66,1.88,4.32,1a9.8,9.8,0,0,1,2.82-.91,43.55,43.55,0,0,1,5.08-.65c.5,0,1,.44,1.54.71.31.16.58.51.9.54,2.15.2,4.31.33,6.47.48.07-.31.05-.18,0-.05a4.52,4.52,0,0,1-.18.48,35.61,35.61,0,0,1,4.15-.33,22.45,22.45,0,0,1,6,.68,7.05,7.05,0,0,0,4.49.06,41.4,41.4,0,0,0,4.35-1.65c2.67-1.18,2.82-1.68,2.74-4.48-.09-3.4,0-6.92,2.17-9.71,3.11-3.91,6.51-7.58,9.78-11.35l.49.27v1.83l11.94-8.8c.85,1.83-.57,2-1.18,2.56s-1.44,1.2-2.16,1.79l.19.36a8.08,8.08,0,0,0,1.62-.78c2.63-2,5.17-4.19,7.86-6.14,1-.7,2.34-.84,3.42-1.42,1.68-.89,3.28-1.94,4.91-2.92l.32.41-3.31,2.71.21.32L199.84,265l.19.29-3.94,2.58.16.33c2.49-1,5-1.93,7.47-3,.79-.33,1.4-.57,2.21,0s1.65.23,2.47-.6c2.87-2.88,4.54-6.47,6.39-10,.29-.56,1-.91,1.71-1.53l-.19,1.66.36.24c3.2-7.05,7.87-12.8,14.72-16.63L231,238l-1.49.5c2.26-2.7,13.58-10.14,19.71-12.66l-19,15.55.49.71-.4-.3-14,16.71.56.59,2-1.51c.5.11,1.11.47,1.45.29a37.61,37.61,0,0,0,4.59-2.78c.46-.33.48-1.22.83-1.78a24.54,24.54,0,0,1,2.57-3.82,62.24,62.24,0,0,1,14.31-11.75A7.69,7.69,0,0,0,244,236.4c1.61-1.63,3.12-3.35,4.84-4.85,1.48-1.29,3.19-2.33,4.79-3.48l-3.16,7.62-.49-.21.69-2.58a22.53,22.53,0,0,0-2.77,3.25c-.84,1-1.08,2.73-2.93,2.79l.67-1.82-.35-.21-5.79,7.22-.27-.17,1.63-3.34-.61-.33c-1.9,3.21-3.8,6.41-5.65,9.64,0,.08.36.42.6.69l-1,1,.18.23,1.5-.61c-.44.48-.87,1-1.34,1.43a2.31,2.31,0,0,1-.86.64,10.22,10.22,0,0,0-4.94,3.21c2.48-.82,5.23-1.13,6.86-3.73l.47.14,2-2.68-2,.74,6.65-5.14a9.11,9.11,0,0,1,1.14-.95c1.36-.73,2.75-1.41,4.14-2.09s3.33-.22,4.4-1.85c.16-.26.66-.34,1-.43,1.19-.32,2.39-.61,3.76-1,.66.68,1.56.37,2.65-1.33-.26-.17-.52-.47-.8-.5-2.81-.29-3.32-2.9-3.39-4.62a8.6,8.6,0,0,0-2.07-5c-.43-1.09-.85-2.18-1.27-3.24,2.19-.1,1.89,2.26,2.95,3.64.74-1.68,1.25-3.14.65-4.84a5.71,5.71,0,0,1,0-2c0-.27.21-.58.12-.8-1-2.6.5-3.84,2.58-4.8a5.35,5.35,0,0,0,1.6-1.19c3-3.19,6.76-4.71,10.91-5.61,1.06-.23,2.07-.69,3.55-1.19l-2.14,2c3-.86,5.56-1.62,8.13-2.29,1.77-.47,3.6-1.28,5.34-1.14,5.61.45,11.47-1.29,16.79,1.24a36.63,36.63,0,0,1,7.83,5.72c1.08.94,1.52,2.6,2.29,3.92a29.17,29.17,0,0,1,2.16,3.63,5.18,5.18,0,0,1,.44,3.31,15.63,15.63,0,0,1-2.8,5.55c-2.59,2.86-5.61,5.34-8.47,7.95a1.63,1.63,0,0,1-1.07.39c1.36-1.41,2.71-2.83,4.07-4.25l-.34-.35c-.71.48-1.43.95-2.13,1.44-2.74,1.93-5.59,3.66-8,6.1-3.16,3.2-4.93,7-6.46,11.11-.37,1-.78,1.91-1.16,2.86l-.4-.11.87-4.94-.41-.14-1.81,4.61a8.49,8.49,0,0,1-.65-1.69,12,12,0,0,1,1.39-7.57c1.67-3,3.54-5.83,5.31-8.73l.48.26-.8,2.06.51.25,5.72-11.59c.06,1,.1,1.57.15,2.35,2-1.09,1.53-2.88,1.75-4.68.14,1.75,1.66,3.26-.53,4.73l.68.23a25.83,25.83,0,0,0,2.29-2.27c1.44-1.81,3.07-3.58,3.12-6.08a3.6,3.6,0,0,0-.69-2c-.63-.89-1.5-1.55-1.19-2.91.12-.49-.46-1.15-.54-1.94l3.74,3.49-1.26.18,2.35,5-1-.89c-.56,1.72-1.08,3.38-1.64,5-.27.77-.5,1.7-1.71,1.24a.62.62,0,0,0-.45.09c-1.64,1.18-3.31,2.33-4.89,3.6a3.88,3.88,0,0,0-.88,1.6,28.43,28.43,0,0,0-1.57,4.67c1.1-1.08,2.6-2,3.2-3.29.88-1.93,2.66-2.28,4.13-3,5.07-2.45,8.79-6.26,7.13-13-1.11-4.46-3.81-7.21-7.35-9.48a7,7,0,0,0-3.6-1.06c-4.54,0-9.09.1-13.61.46a89.14,89.14,0,0,0-11.5,1.62c-5.79,1.23-11.56,2.72-16.13,6.81-.64.57-.78,2-.71,3a24.69,24.69,0,0,0,1.15,4.23c2-1.41,3.58-2.58,5.23-3.62s3.47-2.05,5.49-3.23c-.1.9-.15,1.32-.2,1.73l.33.21,2.42-3-.33,1.37a1.94,1.94,0,0,0,.47-.21c2.33-2.28,5.56-2.72,8.42-4-2.65,3-6.66,4.29-9.44,7.11l.19.48,6.94-.68a7.7,7.7,0,0,1,6.48-3c2.55.17,5-.16,7.5-.09.51,0,1,.52,1.13.59l-4.9.79,0,.55,4.33.49,0,.46c-2.69.37-5.38.85-8.08,1.08-2.36.2-4.76,0-7.11.23a21.52,21.52,0,0,0-4.33,1.48l.13.56,12.84-1.26.09.43c-1.6.23-3.2.49-4.8.68-1.76.21-3.53.33-5.29.53a51.07,51.07,0,0,0-5.09.71,27.23,27.23,0,0,0-4.86,1.69h2.37l.05.47-10.27,1.49,4-4.84-.4-.41a13.14,13.14,0,0,0-2.76,2.34,9.59,9.59,0,0,1-1.64,2.18c-1.94,1.68-.84,5.65,1.8,6.95l1.32.62-.29.5c-1.17-.73-2.61-1.24-3.43-2.26s-1-2.53-1.45-3.76a3.68,3.68,0,0,0,.45,4.44c1,1.22,2.67,1.92,4.21,3l-1.28,1.42.21.36,3.28-1.77.63,2.11,4.12-2.95.22.25-1,1.47h3.77l.07.26a45.57,45.57,0,0,0-4.63,1.85,49.7,49.7,0,0,0-4.32,3l4.1-.48.08.3-5,1.26.09.46,3.78-.51-6.71,3.14a66.58,66.58,0,0,0-13.34,4.85,28.66,28.66,0,0,0,6.69-1.25,23.38,23.38,0,0,0,3.76-2.23c.92-.53,1.9-.95,2.86-1.41l6.26-.77.2.41c-.85.4-1.71.79-2.56,1.21-1,.51-2.6.06-2.89,2-.08.48-1.61.73-2.46,1.12s-1.65.84-2.48,1.26l.25.56,4.38-1.36.08.23-5.7,3.09-2.3-1.24v-1.24a14.12,14.12,0,0,0-9.29,2.26l1.52-.21c1.3,2.47,3.12.17,4.23.51l-1.64,2.53c-2.92-1-5.19.74-7.89,1.73,2.26.16,4.2.34,6.15.43a1.67,1.67,0,0,0,1.69-2.21l2.23-.44.23,1.3,3.24-.91c.21-.06.56-.11.6-.24.9-2.63,4-2,5.55-3.68.52-.56,1.87-.35,2.85-.49l.06.45-6.71,2.6.15.42,1.49-.24.07.23a33.69,33.69,0,0,0-4,1.76c-1.27.77-2.71.76-4,1.26a16.23,16.23,0,0,0-2.65,1.62l.23.39,11.39-3-1.25-.32-.16-.43,7.72-2.73.18.46-5,2,.1.34,6.95-.68.1.4-3.8,1.23h1.75l.1.29-8.92,3.42.08.66,5.91.45-.09,1.24c1.17,0,2.27-.05,3.36,0s2.09-.37,3,1c.44.72,2.3.53,3.5.82,2.57.63,5.16,1.22,7.68,2,1.23.38,2.32,1.21,3.53,1.67,4.54,1.75,9.06,2.21,13.82.45,3.35-1.24,7-1.63,10.39-2.76a49,49,0,0,0,6.57-3.27,3.23,3.23,0,0,0,4-.46c.24-.32.06-1.05.32-1.26a11.67,11.67,0,0,1,2.41-1.36c3.46-1.51,6.94-2.95,10.39-4.47.58-.26,1-.86,1.55-1.22.84-.55,1.46-1.77,2.78-1,0,0,.11,0,.16,0,1.62-.82,3.23-1.68,4.87-2.47.53-.26,1.24-.23,1.7-.57,1.85-1.4,4.2-1.15,6.19-2,1.71-.72,3.63-1,4.82-2.93.49-.78,2.18-.86,3.35-1.17,3.79-1,7.57-2,11.38-2.84,1.9-.43,3.87-.53,5.8-.8A77.12,77.12,0,0,1,381.4,242c3.89-.07,7.93-.16,11.63.8,4.12,1.06,8.35,1.61,12.41,2.88.23.07.41.32.6.5.37.36.66.86,1.1,1.06a37.72,37.72,0,0,1,4.27,1.81c2.4,1.49,4.65,3.23,7,4.86l-.3.54-2.19-1,2.05,2.63c-1.67.87-3.13,1.56-4.83-.19l2.23-.26c-3-4.86-7.85-6.61-13-8.34-5.93-2-12-2-18-1.95a146.24,146.24,0,0,0-19.06,1.44c-3.89.57-7.65,2.22-11.41,3.55-3,1.07-6,2.38-8.9,3.62a12.49,12.49,0,0,0-1.72,1.07l1,.58-3.08,1.25c.7,1.37.15,1.77-1.15,1.95-2.41.32-4.38,1.6-6.46,2.85s-4.7,1.58-7.07,2.34c-.76.25-1.94-.21-2,1.26,0,.24-.86.4-1.31.62l-8.37,4.25.35.68,6.18-3.25.09.88,7.22-2.62.09.11-3.58,2.34,1.55,1c-.08.12-.14.32-.25.35a11.88,11.88,0,0,1-1.45.25c-1.37.13-2.62.47-3.26,1.85a5.3,5.3,0,0,1-2.9,2.56c-.86.39-1.46,1.36-2.18,2.07-.3.29-.59.78-.93.82-2.57.29-3.66,2.53-5.47,3.8l.18.42,2.43-.79.13.24-4.56,3.59,1.89.24.16.29a20.52,20.52,0,0,1-4,1.83c-1.53.34-1.58,1.35-1.68,2.66l2.19-1.13c1,2.8.5,4.1-2,6.23a6.92,6.92,0,0,0-1,1.33l.34.29c.53-.45,1.08-.88,1.59-1.35s.88-.91,1.31-1.37l.38.37a14.17,14.17,0,0,1-1.34,1.63,2.43,2.43,0,0,0-.87,2.53c.15,1-.85,2.12-1.37,3.18s-1,1.81-1.45,2.72l.57.25.46-1.34c.16.57.27,1,.44,1.56.73-2.46,1.78-3.56,3.17-3.47,1.09,1.84-.11,3.23-.86,4.75a8.1,8.1,0,0,0-.45,2l.59.13c.25-.67.49-1.35.73-2l.34.07c-.09.92-.18,1.84-.28,2.77l.24.06.82-1.5h.39c-.1,2.25-.32,4.5-.25,6.74.08,2.53-1.51,4.95-.38,7.56.16.38-.28,1.18-.64,1.61a31.2,31.2,0,0,1-2.4,2.32c1.4,1.2-.71,1.1-.8,2.25l4.72-2.57c-.2-2.23-.38-4.3-.57-6.37l.63-.06.48,5.7.36.32,1.21-1.82.58.37c-.38.72-.75,1.44-1.1,2.13.22.37.52.88.87,1.49l2.47-1.37c-.25.84-.43,1.47-.62,2.14,1.11.86,2.14,1.16,3.37,0,.47-.44,1.28-1.24,2-.1a8.91,8.91,0,0,0,1.2-.65c.7-.42,1.39-.86,2.08-1.29l.31.4L321,327.55l.23.48,3.37-1.42c.11.4.27,1,.44,1.66l3.45-1.61a10.27,10.27,0,0,1-1.21,1.67,7.49,7.49,0,0,0-1.49,1.31l7.56-2.51c.37,1.61-1.66,1.24-2,2.29,3.15-.48,5.73-2.78,8.94-3l.27.61L334.87,330Zm-3.6,45.37c1.3.58,2.68.09,3.62-1.66l-3.67,1.71a4.1,4.1,0,0,0-.22-.59c-1.07.29-2.14.62-3.2.94l.19.61ZM102.52,354.6c-.53-.36-1.21-1.13-1.58-1A6.68,6.68,0,0,0,99,355.14l.25.17,3.3-.76-1.32,1.79.21.35,2.58-1,0-.44Zm176-74.45h-3.86c1,1.71,2.05,1.83,3.1.52a3.78,3.78,0,0,1,.72-.52l.95-1.2-4.78-.24ZM139.8,496.91l1.73,3.31v-5l-1.69,1.7-1.42.63,1.1,2.18.28-.06ZM348.89,348c-.91,1.17-.15,2,.62,3.34a11.09,11.09,0,0,0,.64-2.64c0-.51-.25-1.66-1.3-.66.66-1.16,1.5-2.32.12-3.67a6.37,6.37,0,0,0-1.33,1.54,2.85,2.85,0,0,0,.05,1.8C347.75,347.87,348.47,347.87,348.89,348Zm-45.42-4.91c-2.83-.58-4.24,2.21-6.73,2.42l.33.74,6.4-3.17-.3,1c2.39.65,3.31-1.24,4.59-2.61l-3,.34,0,.33,1.61.3ZM171.2,392.37c-.68-.06-1.37-.11-2-.19l-6.13-.74-.15.46,1.18.92a2,2,0,0,1,1.58-.52c2.21.37,4.41.81,7.07,1.32l-1.5-1.25,6.58.85.11-.57-1.95-.43.7-.62-9-3.21,1.28-1c-2.19-1-2.37-.91-5,1.19q6,1.78,12,3.58c-.54.07-1.08.19-1.62.21C173.3,392.42,172.25,392.38,171.2,392.37ZM123.12,363.6c2.56-.06,3.75-.91,3.25-1.89-1.34.18-2.54.38-3.74.48-.54.05-1.09-.18-1.63-.16-.23,0-.45.31-.68.48.19.16.35.39.56.47.75.25,1.52.44,2.28.66-1.68-.55-1.84,1.1-2.62,1.85C121.56,365.08,123.25,365.59,123.12,363.6Zm224-21.52.79-1.51c-.48.07-1,.11-1.43.22a4.87,4.87,0,0,0-.88.38l2-2.26-.42-.45c-1.48,1.08-3,2.1-4.41,3.28-1.16,1-2.06,2.27-3.22,3.24a51.44,51.44,0,0,1-4.44,3.14c-.78.53-1.67.89-2.44,1.42a14.28,14.28,0,0,0-1.5,1.42l.38.41c1.4-1.16,3.32-1.09,4.64-2.84,1.16-1.54,3.3-2.32,4.94-3.53,1.48-1.08,2.87-2.28,4.3-3.42l-.37,1.14,2.11-.72c-1.58,1.59-1.58,1.8,0,3.88.33-.53.67-1,.95-1.53s.49-1.06.73-1.59ZM190.18,428c-1.86-1.37-4.54-1.7-5.12-.8l5.16.76-.65,1.15c1.84.33,3.47.62,4.57-1.17C191.59,426.53,191.07,426.54,190.18,428Zm152.54-48.32,3.89-1.68c-2.27-.4-3.79-.05-5,1.76l1.19-.12c-.33.23-.63.59-1,.67-1.87.4-3.76.73-5.65,1.09-1.06.21-2,.56-1.93,2.25,3-.9,6.09-1.47,8.76-3.18C343,380.41,342.8,379.93,342.72,379.66ZM187,411.62a4.32,4.32,0,0,1,1.5.12c1.35.65,2.65,1.42,4,2.14-2.56-3-4.71-6.45-9.07-7.05l4.48,2.6-.27.49-8.52-3.31-.3.54c1.15.75,2.25,1.57,3.45,2.24,1.35.74,2.77,1.34,4.16,2l-4.83-.94,5,3.25c.47-.89.79-1.51,1.11-2.13l1.14.89Zm-35.64,16.2,5.07,4.11c.51-1.64,1.07-3.4,1.63-5.17h.2v2.74c2.33-2.31,2.33-2.31,2-3.94l-1.18,1-.12-.13,1.17-1.82c-1-1.2-2.09-2.25-3-3.46s-1.86-1.51-2.74-.1a32.41,32.41,0,0,0-1.94,4.18c-.39.87-.74,1.76-1.1,2.64a15,15,0,0,0-1.15,1.63c-.19.37,0,1-.28,1.25-1.8,1.58-1.41,3.59-1.13,5.53a1.88,1.88,0,0,0,2.22,1.74,2.57,2.57,0,0,0,2.23-2.52c-.05-1.48,0-3,0-4.45l.42-.09.72,2.23.57-.13c-.11-.53,0-1.19-.35-1.56C153.63,430.22,152.48,429,151.37,427.82ZM306.1,373c0-.18,0-.44-.12-.54-1-.87-2-.12-3,.06-4.49.77-9,1.47-13.49,2.19,1.3-.09,2.66,0,4,0A34.24,34.24,0,0,0,306.15,373l-.86,1.09-3.07.83,0,.31,2.14.31-1.72,1c6.51-.16,18-4.36,21.3-7.95-.78.33-1.28.52-1.75.75a33.77,33.77,0,0,1-3.43,1.66c-.77.27-1.72,0-2.49.24-2.61.85-5.17,1.86-7.78,2.72a26.1,26.1,0,0,1-3.19.64l-.09-.53q6.28-2.32,12.58-4.67c.52-.19,1-.69,1.5-.65,3.14.32,4.73-1.91,6.52-3.86l-7.31,3.35c3.09-3.59,7.61-5.47,9.9-9.76l-4.54,3.74-1-1c2.05-1.83,4.08-3.59,6-5.43.38-.36.44-1.06.79-1.94l1.64-.86-.19-.42a7.21,7.21,0,0,0-2.25.86c-1.5,1.27-2.85,2.72-4.27,4.09-1.95,1.89-3.82,3.86-5.88,5.62-1.58,1.33-3.39,2.39-5.09,3.57l.16.34,5.31-2.51c-3.31,3.57-8.11,4.27-11.86,6.56.21.57.3,1.12.06,1.36A3.59,3.59,0,0,1,306.1,373ZM106.58,346.76c.68-1.29,1.1-2.85,2.1-3.8,1.58-1.51,1.5-3,1-4.82-.31-1-.68-1.66-2.08-1.38a9.28,9.28,0,0,1-3.59-.37c-1.77-.38-3.5-1.16-5.27-1.26a49.73,49.73,0,0,0-6.77.53l-4.75,5.15c3.57.81,3.61-2.75,5.71-4-.23,2.93-2.87,3.93-4.12,6.2l4.09-2,.13.16-3.16,2.64c2.34.1,3.15-1.63,4.33-3l.13,1.39,1.92-.58L95.67,337l.49,0c1.45,2.25,1.22,4-1,6.39l5-1.35-.17,1.56,2.54-.86-1.27,1.73,2.53,1.41,1-1.95.64.55a15.77,15.77,0,0,0,.2,2.17c0,.11.69.09,1.07.14.21,0,.51.18.63.09,2.35-1.8,5.7-2.79,5.45-6.71a2.44,2.44,0,0,1,.27-.95c.76-1.95.6-2.2-1.77-2.41.87,1.75,1,3.47-.25,5C109.52,343.48,108,345.1,106.58,346.76ZM294.8,302.63c-.15-1.11-.29-2.21-.44-3.32-1.95,2.9-2,3.81-.93,4.83l1.42-1.57c-2,2.91-.39,5.76.33,8.62l-.43.18-1.52-2.49c-1.92.13-1.71,2.07-2.68,3.32.06-.47.1-.73.13-1s.22-.69.12-1-.44-.52-.67-.77c.95-.73,2.58-1,2.21-2.67-.3-1.36.23-3.24-1.71-3.84-2.19,2.3-4.5,4.4-5.32,7.45l.76.48,2.84-5.56.48.24c-.31,1.43-.61,2.85-.89,4.16l1.64-.26L289,314.6l.76.47,4-3.43c-.08,1.55-.19,3.48-.29,5.4l.47,0,1.09-1.69.32,1.52,1.67-.43a5.16,5.16,0,0,0-1.34,5.72l2.82-2.69.24.29-1,1.39c2.5-.41,3.07-2.3,3.75-4.27l1.21,2.06.94-.28.09.22-5.31,3.39c1.4-.93,1,.91,1.59,1,2.39.37,3.95-1.76,6.15-2-.93,2.38-8,4.75-12.37,4.17l-.64-.64,1.83-.86c-.79-1.81-2.22-.64-3.28-.88a8.61,8.61,0,0,0-1.81-1.31s-.29.41-.5.71l1.09.31-1.08,1,1.84.3-2.45.8c1.1.2,1.8.29,2.47.46.4.1,1.13.37,1.11.48-.26,1.7,1,1.29,2,1.38l-.73,1.51,2.34-.12.15.38-2.43,1.26.16.3h3.69l.07.9c1.12.16,2.38,0,3,.5a4.73,4.73,0,0,0,6.32-.36l-7.65-.72v-.27h4.28l0-.26-5.93-1.72,1-.89-2.78-1.12c2.38-.57,4.79-.23,6.94-1.7s5.37-2,4.2-5.87c-.08-.24.12-.56.07-.82-.26-1.31-.57-2.61-.86-3.92l-.49.11c-.29,1-.59,1.92-.89,2.88l-.23-.08.81-4.57-.66-.29c-.59.84-1.17,1.68-1.81,2.61.11-.89.21-1.71.35-2.77l-1.16.54v-2.68c-1.5-.73-2.95-.31-3.25.9-1.13-1.7-2.37-3.4-3.41-5.21a2.7,2.7,0,0,1,0-2.09C295.76,302.81,295.53,302.65,294.8,302.63Zm-67.49,24.46,3.77,2.21.21-.63h1.76c-.57-1.71-3.89-.72-3-3.6l.84.08-7.74-6.52.23-.34L234,324.5c-3.24-3.75-8-5.29-11.66-8.55l4.1,1.86-.24-1.05,6.22,4.42.25-.37c-5.23-6.87-22.28-13.66-28.49-11.54a21.4,21.4,0,0,1,.9,3.72c.21,3.14.13,3.15.9,3.67l-.44-1.54.2-.09c.48.74.95,1.48,1.61,2.49l.26-1.93,1.33,2.45.3-.14L208.4,316l.3-.14c.33.49.65,1,1,1.48a1.82,1.82,0,0,1,1.61.15,20.39,20.39,0,0,1,1.86,2.2c.1-.83.17-1.38.24-2,1.74,1,1.84,3.88,4.46,3.33l-.22-1,.26-.12,2.15,2.26.3-.66,4.27,4.32.34-.34-1.33-1.86.24-.18,3.51,3.68-2.41-.69-.18.34,4.13,2.41.11-.2ZM130.18,477.56c.3-.42.63-.82.9-1.25s.53-1,.79-1.49l-1.6.19a5.65,5.65,0,0,0-.58.16l1-1.53h-4.06l1.15,2.35c-1.37-.22-3.34-2.35-3.69-3.66l-1,.39c.34-2.22-2-1.81-2.4-3.18l-.47.13-.55,2,1-.78a4.52,4.52,0,0,1,.38.84c.3,1.26.52,2.55.88,3.8a18.8,18.8,0,0,1,.87,2.11c.17,1.2.89,1.57,1.91,1.69,2.13.26,3.88-.65,5.55-1.81-1.77,3.42-7.43,4.59-9.25,1.88l2-.1-1.89-2.72-1.4,1.91-.35-.25c.73-2.4.36-3.25-1.8-4.66a25.82,25.82,0,0,1-7.33-6.68,20.7,20.7,0,0,0-2-2.19l-.4.3,1.16,2.55-.22.11-1.66-2.17a3.83,3.83,0,0,0-.35,2.54,62.27,62.27,0,0,0,2.64,7.73c1,2.11,1.84,4.69,5.23,4-2,1.13-3.42.8-5.54-1.8-1.29-1.59-2-3.64-3.07-5.62l-1.11,2.61c-3.07-.52-3.65-3.69-5.88-5.3-.51,2.64-2.7,3.36-4.29,4.14L96.38,476,98,478.11c.56-.73.94-1.69,1.63-2,1-.5,1.21.67,1.68,1.31,1,1.41,2.18,1.29,3.22-.08a7.91,7.91,0,0,1,1.78-1.38c.1-.06.28,0,.54,0l-.68.86a4.81,4.81,0,0,1,.48,1.56,11.58,11.58,0,0,1-.67,2.13l3.31.53c.64,2.15-.2,3.54-3.77,6a12.23,12.23,0,0,0,2.31-.44c.72-.14,1.65-.48,2.15-.17,1.1.67,1.67.11,2.7-.58l-2.25-.27.76-3.18c.41.39.88.64,1,1a2.84,2.84,0,0,0,3.33,1.73c1.74-.55,3.47-1.12,5.23-1.62.85-.24,1.76-.32,2.64-.48l.1.36-2.64,1.26.2.6,1.82-.43c.69,1.86.85,1.88,2.22.38a1.49,1.49,0,0,1,.87-.44c2.06-.21,3.35-1.55,4.62-3,.09-.1.27-.13.45-.22v1.11l1.48-1.17-1.75-1.37.16-.46a8.57,8.57,0,0,1,2.19-.11,1.56,1.56,0,0,0,2-.94c.25-.49.93-.75,1.41-1.12l1.28,1.78,2.95.56v1.07l.41.31,2.5-2.55c1.59.7-.87,2-.1,3.06,1.68-1.23,2.25-3.26,1.15-4.44,2.61-1.92,4.15-4.95,7-6.6.14-.08.37-.2.37-.31,0-1.76,1.4-2.15,2.65-2.75-.62-.06-1.2.05-1.76,0A3.71,3.71,0,0,0,149,470c-.43.88-1.29,2-2.11,2.15-2.44.42-4.47,3-7.31,1.44-.23-.13-.73.17-1.08.32C135.71,475.1,133,476.33,130.18,477.56Zm-1.39,21.79c0-.21-.08-.59-.15-.59-2.06-.25-4.13-.45-6.19-.66l-.06.41c1.16.54,2.29,1.11,3.47,1.58a2,2,0,0,0,1.21,0,15.36,15.36,0,0,0,1.77-.78l1,2.43.56-.21-.17-2.32c2.66,1.84,2.28-1.82,3.88-1.92l.19,3.58,2.22-.71.16,2.12.18,0,.7-2.6.78.91.29-.15-.47-2.41-2.49.46a30.94,30.94,0,0,1,3.71-3q9.15-6.9,18.28-13.84c1.56-1.19,3-2.55,4.56-3.72,3.16-2.34,6.39-4.58,9.56-6.91,6.24-4.58,9-11.18,10.56-18.46a5,5,0,0,0-.25-1.62c-1.78,2.34-3,4.7-4.43,6.94-1.86,3-3.82,5.85-5.82,8.71-2.68,3.83-6.57,6.34-10.16,9.17-3.1,2.46-6.84,4.09-9.36,7.31a4.3,4.3,0,0,1-1.46,1.26c-4.29,2.07-8.55,4.21-12.93,6.07a9.63,9.63,0,0,1-8.4,0c-1.57-.8-3.22-1.45-4.78-2.29-2.09-1.14-6.1-1.2-7.19.19-1.9,2.43-4.8,2.87-7.37,4a2.18,2.18,0,0,1-1,.05c-2.52-.2-5-.59-7.57-.59-5.7,0-11-1.15-15.52-4.85-1.53-1.25-2.67-4.1-2.33-5.6A24.27,24.27,0,0,0,94,489.4c-2.27-2.91-2.27-2.91-1.28-3.7,1.73,2.46,2.38,2.65,3.54,1.06-3.61-2-4.34-3.38-5.14-7.67-.44-2.37-2-4.34-4.26-6.11-.82,5.14.73,8.87,4.73,11.64a3.41,3.41,0,0,1-4.52-2.11,5.76,5.76,0,0,0-1.56-3c-1.51-1.13-1.65-2.65-2-4.19-.16-.77-.26-1.56-.39-2.34-2.16.57-2.55,2-3,3.8-1.63,6.89.56,12.76,4.21,18.36,0,0,.18,0,.42-.1-1.79-4.76-5.3-9.1-3.69-15.1a11,11,0,0,1,.4,1.4,7.12,7.12,0,0,0,2.73,5.2c.72.56,1.82.83,2.25,1.53,1.42,2.31,4.13,2.15,6,3.46a.66.66,0,0,0,.32.08c2.92.47,5.83.94,8.75,1.39,3.86.6,7.72,1.14,11.57,1.8a24.33,24.33,0,0,1,3.65,1.12,51.17,51.17,0,0,0,13.2,2.75Zm18.08-56.18-7.05-1.8c-.44,1.71-.91,3.47-1.34,5.23-.67,2.82-.37,3.16,2.68,3.16l-.85-2.63c1.87,1.89,2.76,1.92,4,.2,1-1.32,1.71-2.81,2.55-4.22-.48,1.48-.67,3.14-1.5,4.37a15.69,15.69,0,0,1-3.78,3.57c-1.19.87-2.12-.41-3.15-.8a1,1,0,0,0-.43,0,8.39,8.39,0,0,1-1.07,6.37c-1.1,1.82-2.17,3.64-5.1,3.11-2.18-.4-3.79-1.28-4-3.54,0-.42-.47-.8-.64-1.06l2.35-4.27-.44-.25c-1.23,1.67-2.45,3.35-3.68,5l1,1.44c-1.46-.23-2.53-.46-3.6-.54-1.27-.09-1.48.85-1.36,1.79.15,1.22-.59,2.76,1.1,3.5a.7.7,0,0,0,.49-.05c1.5-.71,3.65-.31,4.28-2.5,0,0,.19,0,.58,0a9.35,9.35,0,0,1-1,2.29c-.83,1-1.93,1.72-2.79,2.68a30.06,30.06,0,0,0-2.54,3.4,1.46,1.46,0,0,0,0,1.36,5.57,5.57,0,0,0,1.86,1.4c.34.16.89-.1,1.59-.21,1.88-2.73,3.87-5.84,7.4-7.53-1.39,3.6-4.52,5.86-7.14,8.65a4.1,4.1,0,0,0,.93.48c2.53.46,4.82,2.15,7.68,1,1.26-.51,2.9-.09,4.34-.09l.92-4-1.53.46c.44-.84.58-1.58,1-1.9,1.73-1.22,2.9-3,5-4,3-1.42,2.85-1.74,5.41.8.85-1.69,1.66-3.28,2.47-4.87l.37.15a11.71,11.71,0,0,1-.43,1.46c-.55,1.27-1.23,2.49-1.68,3.79a7.15,7.15,0,0,0,0,2.17,18.28,18.28,0,0,1,2.51-.43A7.58,7.58,0,0,0,159,462.5c.38-.66.63-1.39,1-2.08l-.41-.4c1.08-.32,2.17-.62,3.24-1,.55-.18,1.37-.32,1.55-.71.82-1.78,2.47-2,4-2.25.95-.15,1.3-.45,1.44-1.41.21-1.44,1-2.93,2.54-2.82a2.27,2.27,0,0,0,2.64-1.53,1.85,1.85,0,0,1,.78-.83c3.34-1.58,3.58-4.57,3.63-7.71,0-1.67.25-3.34.39-5.13l1.51,1.06c.56-4.42-1.71-8-2.74-11.86-.13-.47-.68-.81-.87-1.27-.57-1.36-1-2.79-1.61-4.11-.83-1.73-2.8-2.9-2.56-5.19,0-.14-.36-.32-.3-.27-2,3.22-6.22,3.67-8.23,6.79,1.27.9.76,2,0,2.94-.51.63-1.18,1.12-1.75,1.71s-1.13,1.26-1.71,1.88c-1.62,1.76-2.54,4.19-4.95,5.22a1.45,1.45,0,0,0-.71.94c-.37,2.16-1.37,3.68-3.69,4-1,.15-2.15.05-2.89.57a8.49,8.49,0,0,0-1.9,2.66A7.27,7.27,0,0,0,146.87,443.17ZM367.81,277.88c.17.57.35,1.15.5,1.62l-1.65.33.74,1.42-4.76,1.52,0,.23h3.21l0,.2-2.74.7.05.24h2.56c-1.1.52-1.71.87-2.37,1.11a16,16,0,0,1-1.84.46l.16.46,3.08-.43.11.58-5.06,1.81.13.33,11-2.83c-3.52,2.42-8.21,2.23-11.18,5.65l-.8-1.17-.63,1.47c-1-.89-1.52-.37-1.9.62a1.58,1.58,0,0,1-.79.78c-1.58.67-3.18,1.27-4.76,1.92a8.32,8.32,0,0,0-1.11.66l.17.26,2.05-.41c-1.58,1.37-4.07,1.39-4.51,4.24l3-2,.4.4a17.75,17.75,0,0,1-1.27,1.69c-.73.76-1.87,1.31-2.22,2.2-.58,1.5-1.74,1.88-3,2.35a13.8,13.8,0,0,0-2.31.94,25.47,25.47,0,0,0-2.51,2l1.84.22-2.29,1.25.11.27,8-2.82-3,2.8.14.21,6.66-3,.2.43-.72,1.39.3.35,5-3.29.16.92,5.35-4.39-9.57-1.14.05-.7c1.82-.1,3.63-.22,5.45-.28,2.52-.08,5.16.5,7.25-1.5l-3.35-.52c2.57-1.45,5.54.17,7.5-1.89a7.91,7.91,0,0,0-2.33,0c-.7.07-1.41.11-2.11.16a59.9,59.9,0,0,0,14.61-5,59.55,59.55,0,0,1,8.29-3.81c2.87-.94,5.1-3,7.91-4,1.23-.44,2.21-1.64,3.21-2.6s2.06-2.18,3.08-3.28l.38.35c-.44.61-.84,1.26-1.34,1.83-3.94,4.5-9.14,7.32-14,10.57a9,9,0,0,1-1.24.44q-5.53,2.47-11.05,5a4.22,4.22,0,0,0-.86.73l.14.14,5.78-2.34.18.39c-3.45,1.76-6.77,3.86-10.37,5.18-4.86,1.78-8.4,5.24-11.26,9.05-3.26,4.35-7.51,6.91-12.07,9.31-.2.11-.5,0-.76,0,.29-1.27-.64-.47-.94-.47a6,6,0,0,0-1.93.31,15.56,15.56,0,0,0-1.94.91l.17.35,2.2-.41-1,1.22h4.95l.09-.18c4.79-.41,8.54-2.4,12.09-4.91.06,0,.06-.16.11-.3l-.81-.07c1.69-1.85,3.48-3.78,5.22-5.75.32-.36.28-1.09.62-1.34a83.56,83.56,0,0,1,6.89-4.83c4-2.39,8.49-3.64,12.8-5.33.46-.18.95-.31,1.43-.45,6.08-1.68,11.62-4.33,16-9,.49-.53,1-1,1.49-1.56a6,6,0,0,0-2,.53l-2,.77c3.28-4.6,8.64-6.91,10.59-12l-9.52-.55c3.08-.57,6.13-.94,9.16-1.49.53-.1,1.38-1,1.3-1.43a1.45,1.45,0,0,0-2.21-1.18,5.84,5.84,0,0,0-1.43.84c-2.44,2-5.2,1.88-8.05,1.29a25.12,25.12,0,0,0-3.11-.48c-.24,0-.53.47-1,.94l-2.63-.42-.16-.6a15.9,15.9,0,0,1,2.19-1.52c1.1-.51,2.35-.72,3.43-1.26s2.69-1.2,3.4-2.24c2-2.89,4.23-5.2,7.62-6.37A7.59,7.59,0,0,0,410.6,259a5.43,5.43,0,0,0,.85-1.72c-.72-.12-1.08-1.59-2.21-.52-.28.27-1.28,0-1.81-.28-1.47-.78-2.89-1.65-4.28-2.57-2.2-1.46-4.51-1.33-7.28-.6l3.64,1.8c-1.33.27-2.25.49-3.19.65-1.36.22-2.73.36-4.09.63-.36.07-.66.45-1,.7-.58.44-1.11,1.18-1.75,1.29-2.86.51-5.75.82-8.62,1.26-2.18.33-4.35.74-6.53,1.14a2,2,0,0,0-.82.38c-.44.35-.78.9-1.28,1.11a12.86,12.86,0,0,1-2.3.5c1.35,1.29,1.6,1.3,3,.59a11,11,0,0,1,2.59-1.07c2.38-.52,4.78-.92,7.17-1.34,1.44-.26,2.89-.47,4.33-.7l.06.42-7,1.84.11.44,1.93-.13c-2.74.95-5.53,1.64-7.68,3.85l6-.39v.23l-3.68,1.14,3.38,1c-2.41.93-4.76,1.89-7.14,2.75-1.24.45-2.54.73-3.81,1.08l.12.49,8.87-1.29c-.51.8-.77,1.69-1.22,1.8-1.7.43-3.47.51-5.18.88s-3.41.95-5.11,1.44l.11.41,5.36-1.37-.5,1.21,1.63.55-5.36,1.36-4.26.37a3.67,3.67,0,0,0,2.29.85C366.66,279.09,367.72,279.14,367.81,277.88ZM188.57,460.22l-5,4.32.41.48c1.62-1.27,3.25-2.53,4.83-3.84.09-.08-.19-.6-.3-.91l1.08-.79.33.28c-.35.66-.7,1.31-1.06,2-.21.38-.47.73-.66,1.12-.46.93-.86,1.9-1.38,2.81-.35.62-1,1.09-1.26,1.72a6.59,6.59,0,0,1-4,3.47c-.4.14-1.11.44-1.09.59.24,1.6-1.13,1.43-2,1.83-.65.32-1.32.58-2,.87l.09.23,2.41-.27.09.27-2.4,1.32h2c-1.29,1.27-2.66,2.63-4.05,4-.88.85-1.65,2-2.7,2.44a47.54,47.54,0,0,1-5.73,1.6c-.76.21-1.5.49-2.24.73l.17.48,4.93-1.45.19.45-6,3.06.22.48,1.32.13-4.32,3.36.15.34h2.56l-2.94,1.36.24,1.59-5.71,3.33,1.74.53.14.42a10.34,10.34,0,0,1-2.32.86c-2.55.31-4.4,1.93-6.46,3.12l.89,1.84c3.76-1.15,20.28-13.33,22.31-16.56l-7.94,3.56a9.27,9.27,0,0,1,1.12-1c2.29-1.47,4.61-2.88,6.88-4.36,3.19-2.1,6.65-3.91,9.45-6.44,6.07-5.46,11-12,16-18.44,1.22-1.57,2.53-3.07,3.8-4.6l.5.38-8.61,13.05c3.3-3.07,6.69-6.1,9-10a40.56,40.56,0,0,1,7.86-10,10.07,10.07,0,0,1,1.4-.89c-1.7,3.8-5.67,5.67-7.17,9.5a17.57,17.57,0,0,0,3.32-2.86c2.82-3.29,5.6-6.62,9.81-8.25a4.59,4.59,0,0,1,1.06-.12l-.05,1.05.06-.06c-1.45,1.09-2.93,2.15-4.35,3.29a10.73,10.73,0,0,0-1.75,1.75c-1,1.32-2,2.71-2.94,4.06l-.28-.16.6-1.61-.25-.1-4.12,5.86-.27-.17c.44-.86.88-1.73,1.33-2.59l-.43-.31A41.14,41.14,0,0,0,201,462c-2.59,3-5,6.18-7.47,9.33a6.31,6.31,0,0,0-.65,1.65l.41.18c.31-.37.61-.75.92-1.13,1.25-1.49,2.23-3.44,3.8-4.34s2-2.16,2.8-3.4c.58-.9,1.24-1.75,1.87-2.62l.5.24a9.93,9.93,0,0,1-.56,1.9,49,49,0,0,1-8.31,10.54c-.77.79-1.66,2.18-2.42,2.13-1.92-.13-2.55,1.49-3.84,2.13a9.61,9.61,0,0,0-1.56,1.25l-.42-.38c1.5-2.54,3.66-4.61,5.41-7l-15.86,13.82c1.75-.46,3.16-.89,4.59-1.2,2.85-.63,5.73-1.15,8.58-1.81,1.38-.33,2.72-.87,4.31-1.39l-1,1.12,2.65-.64a6.66,6.66,0,0,1-1.9,1.07c-4.49,1.41-9.07,2.56-13.46,4.23-4.21,1.6-9,2.26-12,6.19a15,15,0,0,1-2.48,1.93c-.55.46-1,1-1.52,1.52a1.6,1.6,0,0,0,1.13,0c4.56-1.49,9.13-2.95,13.67-4.5S187.4,489.71,192,488c2.24-.85,4.3-2.16,6.55-3a22.92,22.92,0,0,1,4.78-.76c2.07-.26,4.15-.47,6.22-.7l-.06-.35h-7.13l5.71-1.84-1.27-.8,9.52-1.36-.54.65.21.43,13.32-4.9a36,36,0,0,1-6.62,3.46c-3.71,1.39-7.52,2.51-11.27,3.8-.49.17-.86.69-1.29,1.05l.26.3,11.86-2,.11.4a23.71,23.71,0,0,1-3.6,1c-2.72.36-5.47.46-8.19.81-3,.39-6,1-9,1.46-.21,0-.38.32-.58.48l.11.3,5.18-.74a1.6,1.6,0,0,1-1.05.9c-2.22.46-4.46.81-6.67,1.31a22.9,22.9,0,0,0-2.95,1.12l.19.41c6.08-.63,12.22-1,17.79-4.13l.1.43-1,1.27h2.48l-5.38,2.9.12.38h2.76l.11.56c-6.57-.63-11.81,3.07-17.65,5,3.84.89,7.67,1.53,11.49,2.22,5.63,1,11,0,16.26-2,.83-.32,1.36-1.38,2.18-1.72,2.59-1.06,4.86-2.41,6.13-5,0-.11.25-.15.46-.26l.34,1.43,2.33-1.18-1.61-.56c1.64-1.56,3.06-3,4.59-4.3a6.75,6.75,0,0,1,2.61-1.51,6.31,6.31,0,0,0,3.88-2.38A5.21,5.21,0,0,1,246,479c2.65-1,5.35-2,8-2.93l-.12-.34-8.74,1.12-.22-.59c.66-.45,1.3-.92,2-1.36,2-1.33,4.54-.92,6.61-2.65,2.48-2.06,5.77-3.12,8.66-4.7,2-1.11,4-2.39,5.93-3.59l-.06.06,4.51-2.25.16.25-7.15,5.05.24.38,6.59-3.9.39.35a5.49,5.49,0,0,1-1,1.55c-1.25,1-2.66,1.8-3.89,2.83a28.51,28.51,0,0,0-2.52,2.74l.51.61,10-5.56.17.28-7,4.6.45.7,8.32-4.76c-2.24,2.57-6.08,4.83-10.4,6.17a17.87,17.87,0,0,0-6.57,3.37c-2.29,2-4.87,3.6-7.33,5.37-.31.23-.6.48-.9.71l.14.26,7.62-1.49-.86,1,6-1.87c-3.12,2.67-7.06,3.39-10.7,4.82l7.14-1.25c-2.75,1.41-5.56,2.48-8.35,3.6-2.64,1.05-7.61,1.41-8.51.72l6.83-.86c-7.37-.31-9.49.06-13.26,2,2.63-.16,5.25-.7,7.77-.39,4.11.51,8.14,1.62,12.23,2.35.9.16,1.87,1.16,2.88.09.1-.12.52.06.8.09l8.67.81.05-.45c-1-.2-2-.35-3-.62s-1.71-.6-2.57-.9c3-.52,5.84-.48,8.76-1,4.29-.76,7.29-1,8.5-2.07h-8v-.25l1.8-.17c-1.33-.33-2.67-.34-3.94-.61-1.79-.4-3.54-1-5.3-1.49l0,0c4,.91,8,1.18,12-.27a30.53,30.53,0,0,1,3.84-.86,24.94,24.94,0,0,0-3.54-.12c-1.09,0-2.19-.19-3.28-.3,4.93-.75,9.87-1.15,14.57-3.38l-.46-.27c2.46-1.66,5-3.38,7.6-5.15.78-.54,1.49-1.18,2.42-1.94l-2.31-.13,3.5-2.63-.29-.47-2.08.22-.06-.24,5.13-3.06-.19-.29-1.49.29,4.13-3-.15-.24-2.06.73-.08-.16,3.5-2.27-.22-.26h-5a12.26,12.26,0,0,1,1.85-.68c1.06-.47,2.73-.85,3-1.63.36-1.21,1.06-1.46,1.94-1.85.7-.32,1.37-.7,2.06-1.06l-.13-.35-6.94-.93,9.09-2.58a8.83,8.83,0,0,0,1.73-.48c1.13-.59,2.18-1.36,3.33-1.94,1.45-.74,3-1.35,4.45-2l-.08-.3H321l2.36-1.49-.84-.7,4-1.54-.1-.35-4,.44,0-.17,3.7-1.31-.1-.37h-1.57l5.55-2.51-2-.38,8.74-8.89-.2-.22-5,3.41-.21-.29,2.52-2.65-1.75.31,1.29-2.1h-1l2.84-3.08-.13-.12-2.52,1.54a62.32,62.32,0,0,1,4.62-5.92,4.21,4.21,0,0,0,.48-1.1c-1.26-.35-.14-.84,0-1.1a11.37,11.37,0,0,1,1.29-1.5l-.47-.18c-.37-1.53,1.66-2.23,1.88-3.71l-3.72,2.59-.19-.28c.32-.41.64-.82,1.27-1.6l-2.57,1.13.2.12c1.17-1.3,2.35-2.59,3.52-3.88l3.48-3.17-.54-.52-2.89,3.73-2.71.32,3.15-3.2-.29-.29-1.63.9c-1.16-1.84-.19-2.95,1.18-3.94a8.33,8.33,0,0,0,1.06-1.08l-.23-.31-2.85,1,1.56-1.64-1.78.13c.93-1.06,1.71-1.95,2.46-2.85a2.61,2.61,0,0,0,.48-.82c-1.51-1.29.2-1.7.62-2.47a7.63,7.63,0,0,0,.45-1.54l-2.58.56-.12-.28,3.57-1.9-.19-.43-4.14.89c1.86-1.51,4.62-1.51,6-4.1l-6.38,2.42-.25-.53,7.64-3.67-.26-.54c-3.31,1.71-6.66,3.31-10.55,2.94,1.24-2.42,4-1.47,5.73-2.74l-12.18.69,0-.19,6.41-2.43L331.67,385l0,.56a10.35,10.35,0,0,1-1.55.17,13.74,13.74,0,0,0-2.35-.26c-1.7.22-3.37.64-5.07.94a4.9,4.9,0,0,1-1.13-.1l-.09-.61,8.53-2.28-.11-.48a14.06,14.06,0,0,0-3.62.82c-2,1.05-4.13.05-6.13.58-.29.08-.6.11-.92.17l.09-1.63-5,1,1.08-2.2a10.08,10.08,0,0,0-2.54-.14c-2.37.51-4.7,1.16-7,1.74a6.91,6.91,0,0,1-5.61-.75c5-1,9.86-1.69,14.47-4-1.5-1.84-3.15-.6-4.17-.12-6.89,3.21-14.17,2.25-21.36,2.34-.13,0-.26-.17-.45-.3l13.88-2.12-.06-.44c-.92.09-1.85.16-2.77.26-2.42.24-4.84.51-7.27.7a2.55,2.55,0,0,1-1.59-.27,10.06,10.06,0,0,0-6.87-1.86c-1.79.12-3.58.2-5.37.3l0-.46,3.67-.45,0-.28h-4.57a17.36,17.36,0,0,1,3.81-.6c2.52-.16,2.52-.14,2.87-1.48l-6.55,1.48,0-.18,4.6-1.3-.07-.63a21.62,21.62,0,0,0-3.2-.18c-2.78.22-5.55.57-8.32.87l-.07-.55,7.49-1.19c-4.27-1.86-9-.7-13.05-2.64h16.6l0-.46a13.79,13.79,0,0,0-3.59-.25,9.58,9.58,0,0,1-6.26-.76,14.56,14.56,0,0,0-2.9-1c-1.25-.29-2.54-.47-3.81-.69a21.37,21.37,0,0,1,3.85.09c3.56.06,7,.77,10.7.14,3.11-.53,6.48.74,9.69.53a58,58,0,0,0,11.07-2,59.53,59.53,0,0,0,7.73-3.24c-.36.46-.79,1-1.22,1.6l.4.33c1-1.14,2-2.29,3.21-3.63a18.84,18.84,0,0,0-3.58.76c-1.18.52-2.14,1.58-3.33,2a39.47,39.47,0,0,1-7.16,2.13,51.85,51.85,0,0,1-7.28.27c-1.88,0-3.76,0-5.64.05-4.65.09-9.28.51-13.9-.62-4.13-1-8.34-1.64-12.51-2.44-.13,0-.23-.17-.5-.38a3.26,3.26,0,0,1,.88-.24c3.28.13,6.57.21,9.84.45,3.91.27,7.81.86,11.73,1,3.3.1,6.62-.26,9.93-.47s6.5-.34,9.72-.8c1.38-.19,2.66-1.1,4-1.69l-.2-.6c-4.88.76-9.75,1.82-14.66,2.2s-10.09.08-15.13.08v-.14l3.69-.32,0-.33-2.61-.75c3.12,0,6.14,0,9.16,0a9.86,9.86,0,0,1,1.91.42c.29-.64.65-1.21,1.64-.23a2.23,2.23,0,0,0,1.86.24c2.62-.82,5.2-1.76,7.78-2.67a10.62,10.62,0,0,0,1-.51,29.89,29.89,0,0,0-3.3.34,17.77,17.77,0,0,1-3.24-.48l1.53-.68a45.25,45.25,0,0,0-8.47,1.4c-3.2.92-6.22-.26-9.33-.33-.27,0-.54-.47-1-.91,2.05-.68,4-1.22,5.79-1.95s3.41-1.6,5.11-2.42l-.22-.51c-6.31,1.87-12.59,3.82-19.32,3.08-6.56-.72-13.19-1-19.53-3.22a3.92,3.92,0,0,1,1.69-.13c5,.49,9.89,1.18,14.85,1.42,2.1.11,4.24-.72,6.36-1.13l-.06-.25-7.54.52c2.12-.48,4.23-.89,6.34-1.29a14.75,14.75,0,0,1,3.65-.61c3.46.28,6.57-.86,9.68-2.07.3-.12.64-.17.95-.26l2.79-.91-.11-.35-1.08-.37,9.24-3.76-.23-.78a26,26,0,0,0-3.77.95c-3,1.24-5.85,2.92-8.93,3.88a81.44,81.44,0,0,1-9.51,1.82l.13-.81c-.25-.09-.52-.3-.75-.25-1,.21-2,.55-3.05.73-1.63.28-3.29.44-4.93.7-1.32.22-2.81-.6-4,.64-.16.16-.65,0-1,0-3.87-.72-7.73-1.46-11.6-2.19v-.25H255.3c-2.73-1.14-6.59-.58-9.53-3l6.84,1.56.11-.38-6-2.27a35.64,35.64,0,0,1,11.78,1.63h-4.4c2.3,1.32,4.73.47,6.92,1.51,1.09.52,2.88-.47,4.36-.77l-.07-.31-1.63-.31L266,344H258.7l0-.3,7.29-1.28.1.27-1.28,1c.82-.06,1.25,0,1.65-.12,4.23-.77,8.45-1.56,12.67-2.34.21,0,.43-.1.64-.13,1.86-.22,3.75-.33,5.58-.69a38.29,38.29,0,0,0,4.22-1.35l-.12-.44-3-.22,3.16-.74-.13-.63c-1,.2-2.05.37-3.05.61s-1.68.53-2.51.8l0,0c-.37-.19-.77-.59-1.1-.54-1.64.26-3.27.64-4.91,1l0-.1,4.47-2-1.78-.22,1.62-1.24c-.51-.21-.74-.41-.89-.36-1.09.34-2.17.74-3.24,1.12l1.27-1a4.49,4.49,0,0,0-5-.91,21.6,21.6,0,0,1-4.61,1.5,55.43,55.43,0,0,1-6.94.65c-1.38.06-2.8-.38-4.16-.22a48.92,48.92,0,0,0-5.83,1.28,5,5,0,0,0-1.19.67l.16.39,4.54-.23-2,.9c2.32,0,4.15.12,5.94,0,.93-.09,1.78-.81,2.71-1a20.86,20.86,0,0,1,5.11-.69c2.21.15,4.46-.65,6.71-.83,1.13-.1,2-1.51,3.3-.54-.6.65-1.11,1.7-1.83,1.89-3,.77-6.09,1.28-9.14,1.89l-.1-.47,9.78-2.23-.1-.42c-2.71.43-5.54.47-8.08,1.37a48.94,48.94,0,0,1-8.09,1.83,41.37,41.37,0,0,1-5.9.09c-1.55,0-3.09.16-4.63.32a34.9,34.9,0,0,1-5.34.59,8.13,8.13,0,0,1-5.62-2.44l2.86.92.22-.55c-1.37-.64-2.73-1.27-4.09-1.92-.44-.21-.86-.47-1.29-.72a15.37,15.37,0,0,1-1.7-1c-1.68-1.29-4.64-.36-5.46-3.14,0-.07-.18-.11-.29-.14-2.33-.62-4.66-1.26-7-1.82a2.37,2.37,0,0,0-1.56.11c-4.4,2.4-9.19,2.91-14.06,2.78a2.4,2.4,0,0,0-2.6,1.54c-.57,1.59-1.62,1.51-2.88,1.32-1-.15-2-.2-3.22-.31l1,1.2a20.39,20.39,0,0,1-3.47-1c-2.44-1.3-4.81-2.71-7.18-4.12-2.6-1.55-3.14-3.76-1.74-6.51a7.91,7.91,0,0,0,.41-2h-2l6.22-4.71-1.94-1.13A.71.71,0,0,1,190,317c1.1.68,2.07,1.08,2.7-.62.12-.31,1.09-.59,1.51-.44,1.06.37,1.9.58,2.18-.74l1.93,2c.49-2.84,1.54-5.38-1.26-7.06a5.16,5.16,0,0,0-.13-2.66,3.33,3.33,0,0,1,.25-3.46q2.24-2.85,4.57-5.6c1.39-1.63,3-2.81,3.74-5.21.63-2.12,2.44-3.95,2.2-6.55,2.18,2,2.44,4.52,2.06,7.15,2.12.29,4.18.69,6.26.81,3.14.19,5.68,1,7.7,3.82,1.19,1.69,3.49,2.62,5.34,3.8,2.41,1.53,4.87,3,7.31,4.44l-.21.4c-.24-.09-.49-.16-.72-.27-5.44-2.72-10.84-5.54-16.34-8.11-2.13-1-4.53-1.41-6.77-2.18-.47-.17-.8-.75-1.2-1.14,0-.38-.37-.32-.67-.42-1.31-.46-2,0-2.44,1.29a37.72,37.72,0,0,1-1.73,3.9l-1.08-1.06c.7-1.12,1.43-2.22,2.07-3.37.13-.23-.08-.63-.14-1-.27.13-.62.19-.8.4-.91,1.11-1.76,2.27-2.65,3.39a38.76,38.76,0,0,1-2.56,3.13c-2.21,2.27-2.42,3.24-1.11,6.18a2.25,2.25,0,0,1,.09.49l-1.33-.2c.24.72.25,1.49.62,1.78a2.38,2.38,0,0,1,.93,2.43c-.2,1.7-.34,3.41-.51,5.13l2.29.22c.31-.6.59-1.14.84-1.69.77-1.67,1.21-3.37,0-5a8,8,0,0,1-.16-8.1c.8-1.16,1.54-2.36,2.3-3.55a7.54,7.54,0,0,1-1.17,4.67,10.29,10.29,0,0,0-.71,2.73l7.36.79-1.2-.86a49.68,49.68,0,0,1,8.75,2.13,35.53,35.53,0,0,1,18.29,13.68,6.77,6.77,0,0,0,2.88,2.08,42.55,42.55,0,0,0,4.8,1.35,3.11,3.11,0,0,1,.51.31l-.78.47,1.46.63,0,.19-2-.29.07,1.38,3.14-.18L244.74,330h6.44l-.92,1.36.37.36,2.48-1.67-.61,1.27a7.1,7.1,0,0,0,4.41-3.2,1.07,1.07,0,0,0-.07-1c-.68-.76-1.46-1.43-2.21-2.16-2.08,2.81-2.08,2.81-3.51,2.62.54-.4.9-.68,1.29-.93,2.05-1.34,2.09-2.06.27-3.6-.91-.77-1.77-1.61-2.65-2.42l.46-.49,13.77,12.05-.28.54-3.94-.59-.62.87,1.34.44-3,1.71c1.08,0,2.17-.64,2.82-.34,2.51,1.14,4.74.79,7.11-.84l-.21,1.45c1.18-.2,2.22-.35,3.24-.58.69-.15,1.93-.34,1.95-.61.13-1.28,1-.84,1.62-.89,1-.09,2,0,3-.21a21.91,21.91,0,0,0,2.79-.87l-.13-.47c-3.91,0-7.74,2-11.7,1l0-.59,7.25-.65v-.67a35.07,35.07,0,0,1-5.13-.05,34.47,34.47,0,0,1-4.85-1.45l.08-.15,6.59.92.07-.43-4.71-1.18.06-.19,5,.39.17-.82-5.28-1.84a4.79,4.79,0,0,1,1.59-.1c.53,0,1.06,0,1.59,0v-.42l-3.45-1,.05-.21,6.57.79.08-.5c-4.91-1.66-10.32-2-14.26-5.31,7.24,1.27,9,1.17,10.77-.68-2.12-.47-4.22-1-6.36-1.39s-4.14-.54-6.22-.81L258,316h7.3l0-.37-9.58-.89,2.75-1.29-1.79-.35,5.16-.8-.09-.8-9.35.58c1.95-1.45,4.81-.66,6.59-3.05.74-1,3.17-1.2,4.7-1,2.27.35,3.52-1,5.12-1.8l-.1-.45-8,.77,0-.33,5-1.93-.11-.3-16.17,3.15-.08-.34,16.44-4-.11-.41-8,.74-.09-.38,10.9-3.82-.22-.59-10,2.65-.19-.35,8.72-4.42a8.76,8.76,0,0,0-4,.62c-2.93,1.44-6.06.42-9,1,0,0-.13-.16-.48-.64l3-1.44-.2-1.09,5.24-1.61-2.56-.69,2.74-2.51-8.09,1c5-3.28,10.12-3.71,15.41-3.52a23.39,23.39,0,0,0-4.58-1.18c-.92-.14-2.08-.46-2.75-.07-2.8,1.64-5.93,1.12-8.88,1.66-.52.09-1.14-.34-2-.63l13.93-2.46,0-.59c-5.91.87-11.76,2.58-18.12,1.66l9.67-1.63-.08-.36h-9.95l0-.24,4.62-.74-4-.55,1.51-2c-1.72.14-3.25.31-4.79.37-.55,0-1.56-.16-1.6-.39-.32-1.81-1.36-1.26-2.45-.93a13,13,0,0,1-2.76.52c-2.06.16-4.12.22-6.18.33l0-.51,8.2-.77,0-.46h-2.47l0-.19,4.09-1-.09-.46L233.06,278l1.47-1.46-.61-.47.09-.39,5.19-.3.06.48-.94.65.16.29,4.83-2.18-.05-.42-6.89.69,0-.18.78-.16s0-.09,0-.06c-5.12-.86-9.77,1.12-14.5,2.63l-.11-.51L233,273.64a21.32,21.32,0,0,0-7.18,1.15c-2.75.88-5.75,1.85-8.88,1.15-.83-.19-1.8.39-2.73.46-2.11.18-4.24.14-6.34.42A48.48,48.48,0,0,0,203,278a10,10,0,0,0-2.26.44c-2.78,1.49-6.15,1.74-8.54,4-.08.08-.3,0-.87,0,3.27-1.82,5.22-4.45,7.28-7-4.08,1.93-6.82,5.95-11.48,6.8l-.34-.37,9.75-9.06-9.25,3.72-.11-.27,3.77-2.05-.25-.47L187,275.57l.86-1.37-.23-.21-12.55,8,.93-1.92c-2.53,1.67-4.74,3.34-7.14,4.66s-4.38,3.38-7,4.26a4.3,4.3,0,0,0-1.93,1c-1.22,1.48-2.94,2.6-3.43,4.64,0,.18-.5.27-.86.46a5.55,5.55,0,0,0-.59,2.13,16.47,16.47,0,0,0,1.14,4.37c.13.29,1.53.29,2.21,0a31.64,31.64,0,0,0,3.58-1.81l-.66-.5a28.18,28.18,0,0,0,2.88-1.48c2.43-1.18,4.63-2.31,6.08-4.72a14.21,14.21,0,0,1,2.55-2.83,5.31,5.31,0,0,1,1.58-.72,1.63,1.63,0,0,1-.25,1.34,89.53,89.53,0,0,1-7.22,7.1c-2.17,1.74-4.89,2.77-7.21,4.34-4.37,3-8.63,6.11-13,9.24l9.35,5.55-.91.31,4.67,2.05-2.75-.26-.07.25,7.25,4.21-.21.49L156.65,321l.82,1.42-.31.22-1.24-1.43a6.45,6.45,0,0,1-2-.45c-3-2-6-4-8.81-6.19-3.17-2.52-6.44-4.58-10.66-4.35a32.64,32.64,0,0,0-4,.73l4.35,4.07-.16.22-3.7-2.7-.25.31q2.73,2.37,5.44,4.76l-.11.27-2.36-1-.16.23,7.81,6.73-.15.39-4.25-1.5c2,2.21,4.83,2.5,7.71,3.05-2.39,1.07-4.46,1-6.44-.41a7,7,0,0,0-1.18-.63,9.36,9.36,0,0,1-4.75-5.46,18,18,0,0,0-2.5-4.81c-2.68-3.19-6.52-4-10.46-4.33a16.22,16.22,0,0,0-3.36.48l6.74,4.6-.38.63c-10.15-4.27-19.51-10.18-29.72-14.33l.21-.5,1.45.2,0-.19-2.9-1c.61,1.3,1.21,2.53,1.75,3.78.89,2,2.14,4,2.51,6.11a42.12,42.12,0,0,1,.45,9.39,4.53,4.53,0,0,1-2.23,3.18,46.07,46.07,0,0,1-6.57,2.07c-.49.16-1.25.49-1.3.83-.23,1.48-1.18,1.81-2.43,1.94-.58.05-1.5.1-1.65.43-.82,1.8-2.34,1.74-3.9,1.75-.59,0-1.19.06-1.79.09l0,.55a5.29,5.29,0,0,0,1.8.24c2.07-.52,4.12-1.14,6.15-1.79.78-.25,1.6-1.11,2.23-1A32.14,32.14,0,0,1,91,329.47l-1.41.58,4.66,2.86-.91,1.29c1.73-.4,3.16,1.31,4.6-.39l1.53.48c.11-2.22-2.29-2.59-2.68-4.38a3.71,3.71,0,0,1,.87.42,18.13,18.13,0,0,0,8.1,4.15,3,3,0,0,0,3.75-3.06,2.09,2.09,0,0,0-1.16-1.39c-1.44-.53-3-.84-4.78-1.33,1.9-1-.09-1.47,0-2.33a18,18,0,0,0,2.84.32,23.92,23.92,0,0,0,3.12-.53,13.4,13.4,0,0,0-2-2.32c-2-1.43-2.59-3.47-3-5.69a1.19,1.19,0,0,1,.76.57c1,2.28,2.89,2.89,5.11,3,2.43.16,3.52,1.18,3.84,3.67l4.08-1.65-1.88-.42c3.74-.32,7-1.85,10.36-.65-2.23.36-4.67-.23-6.7,1.76h11.77l-2.44-2.84,1-.14-1.53-3.11a21.78,21.78,0,0,1,3.93,4.18c1.17,1.66.69,2.5-1.3,2.58a19.46,19.46,0,0,1-2.16,0c-4.89-.33-9.66-.08-13.9,2.77a1.81,1.81,0,0,0-.83,1.31,11.92,11.92,0,0,0,.85,2.5,38.87,38.87,0,0,0,5.32-1.18c2.94-1.08,5.81-1.59,8.82-.37a6.4,6.4,0,0,0,1.79.36,26.38,26.38,0,0,1,9.87,3.3l1.19.55-2,.79c1.25,2.29,2.45,4.43,3.6,6.61a10.78,10.78,0,0,1,.82,2.13c.77,2.71,0,5.14-1.39,7.45-.33.55-.61,1.12-1,1.93l3.56-.29L145,354.7l2.74.39.09-1.82,2.57,1.81a8.1,8.1,0,0,1-1,1.06,5.17,5.17,0,0,1-1.09.51,4.86,4.86,0,0,0,.79.94c2.14,1.5,2.17,1.5,1,3.92-.37.8-.92,1.51-1.33,2.29a15,15,0,0,0-.61,1.49l.44.26c1.06-1.43,3.83-1.3,3.38-4.1,0-.15.23-.37.4-.5.83-.63,1.67-1.24,2.5-1.85l.35.31-3.77,5.06H152l1.33,3.41-5.21,4.47c2.87.31,4.3-3,7.31-2.5l-3.06,3.76c1.68-.87,3.79-1.28,4.18-2.33.73-2,2.44-1.93,3.51-3l.31.33-4.57,4.4,6.84.38,0,.61-1.85.65c2.6,1.4,5.08.41,7.7.24l-1.66,2.23,3.64-.6.08.21-2.13,1.33,2.76.27v.26h-4.94l-.12.44,3.76,2.36-.32-1.18,6.63,1.33-.07.52h-4l-.05.24c1.72.77,3.44,1.53,5.5,2.43l-3.35-.21L174,385a10.26,10.26,0,0,0,1.19,1c1.16.74,2.42,1.34,3.53,2.15,1.88,1.38,3.52,3.09,5.66,4.18a30,30,0,0,1-5.55-2.36,5.11,5.11,0,0,0-4.27-.68l14.4,6.8-.05.18-6.37-1.62-.23.44c1.72,1,3.41,2.13,5.17,3.07.46.24,1.31-.22,1.72,0,3.06,1.9,6.16,3.76,9,5.91,3.86,2.87,7.57,6,11.3,9,1.44,1.18,2.74,2.52,4.1,3.78l-.31.36c-.59-.38-1.18-.78-1.79-1.15-1.54-.95-3.09-1.87-4.63-2.83l-9.6-6,.32-.51,6.25,4c-2.79-3.49-11-9-13.23-8.94l4.46,3.08-.19.38-4.42-2-.2.42,4.67,2.88-.11.23-1.79-.29.69,1.74a2.07,2.07,0,0,0,.47,0c2.32-.75,2.36,1.7,3.53,2.54l-1-.17-.15.33,3.95,2.36h-1.51l5.56,3.25-1.13.4,3,2.83-.38.42a33.81,33.81,0,0,0-2.77-2.2,33.08,33.08,0,0,0-3.14-1.6l-.55.73c.83.65,1.66,1.28,2.48,1.94s1.83,1.31,1.21,2.49l-2.53-.42L197.64,418c-.3.42-.34.6-.27.71.73,1.17,1.49,2.32,2.2,3.5a5.71,5.71,0,0,1,.59,1.44c-1.24.69-.07,1.84-.8,3.06l-1.11-2-.38.34c.76.69.21,2.14,1.87,2.42.87.15.69,1.65-.07,2.33a10.12,10.12,0,0,0-1.28,1.72l.3.25,1.15-.63c-1,1.64-1.82,3-2.65,4.32l.45.27,1.28-1.09a32.87,32.87,0,0,1-2,4.31c-.7,1.4-1.23,2.89-1.83,4.34l.45.23.93-.41.33.37c-1.14,1-2.31,2-3.41,3.1-.34.33-1.19.76-.14,1.31l-1.69,2.14,1.45-.22-2.18,3.56a13.17,13.17,0,0,0,6-6.13c.08.4.36,1,.19,1.18-1.37,1.91-2.73,3.84-4.28,5.61-2,2.25-4.87,3.74-5.95,7.05Zm-54.51-108,.57.53a55.91,55.91,0,0,0,4.24-4.76,10.63,10.63,0,0,0,1.91-7.9c-.48-3-.63-6.38-4.74-7.22a36.26,36.26,0,0,0-5.7-.72c-4.34-.2-8.47.74-12.63,1.61a48.44,48.44,0,0,0-5.71,2c2.7.78,2.49,2.2,1.73,3.79a2.1,2.1,0,0,0-.09.8,5.83,5.83,0,0,1-1.8,4.45l-3.42,2.95.16.23,1.35-.68c-.4,2.47,1.66.42,2.17,1.43l-.91.66,5.19.68-.37.51c1.3.27,2.75.19,3.67.85a2,2,0,0,0,2.49.23c.75-.4,1.49-.83,2.23-1.24l.33.39-1.81,1c2.56.74,2.89-2.11,4.7-2.05L126,352.67l.61.55c.58-.48,1.18-.93,1.74-1.43s1.17-1.13,1.75-1.69l.37.38-1.73,2.06a3.57,3.57,0,0,0,2-.38,15.2,15.2,0,0,0,1.86-1.39l.21.91,2.51-1.94.27.3Zm84-23.44c-2.94-2-5.77-4-8.66-6a18,18,0,0,0-4.27-2.43c-4.75-1.53-9.39-1.65-13,3.57-.4.58-.66,1.94-.35,2.22,1.47,1.31,3,3,4.81,3.42a77.43,77.43,0,0,0,11.48,1.77C211.6,331.7,215.2,331.79,218.09,328.75ZM100.37,376.08c-1.53,7.07.95,13,4.79,18.51l1.25-.23-.21-1.87a5.08,5.08,0,0,0,1.91-2.46,44.62,44.62,0,0,1,4.49-11.92c.27-.46.31-1.51,0-1.76-1.48-1.26-3.06-2.5-5.21-2C105.09,374.87,102.8,375.48,100.37,376.08ZM76.68,316.55l3,.38-2.07-1.19L79,314.3l-.7-1.28,1.64-.15-2.26-1.68.24-.36h1.22c-1.61-3.63-4.26-6.62-6.16-10.44l3.29-.6v-.28l-3.35-.35,0-.32,3.29-.53v-.37l-2.3-.65c4.19-1.4,8.16.22,12.24,1.39a7.89,7.89,0,0,0-3.43-1.9c-3.09-.56-6.22-.9-9.35-1.24a7.94,7.94,0,0,0-7.7,5c-2.05,6.12-2.46,12.47-2.56,18.86a2.85,2.85,0,0,0,.24.73l2-.68c-2.08-1.21.4-3.52-1.61-4.65l2-.54-1.11-1,1.34-.61-.88-2.92,1.34.07c-.08-.93-.52-2-.15-2.55a2.65,2.65,0,0,0,0-3.53c-.08-.11,0-.32,0-.57l.87-.42c.44-1.52.5-3,1.23-3.89s2.08-1.1,3.17-1.62l.53.63-2.06,3.28,1.58.63c-.81,1.63,0,2.23,1.54,2.44l-.79.94c1.65.55,2.4,1.84,1.73,3a12.3,12.3,0,0,1,1.32.63c1.5.93,2.43,5.06,1.28,6.13-.75.7-1.59,1.18-.71,2.24a24.22,24.22,0,0,0,1.86,1.79l.44-.44ZM85.82,458l-.37.24,1.09,2.28-.26.17L83.61,457a27.88,27.88,0,0,0,0,3.09c.5,4.08,2.4,7.52,4.69,10.87,1.18,1.72,2.44,2.28,4.31,1.86a19.58,19.58,0,0,0,3-.84c2.64-1.05,2.87-2.94.63-4.67-.4-.31-.89-.48-1.27-.8-1.79-1.46-3.62-2.89-5.32-4.45C88.31,460.79,87.1,459.34,85.82,458ZM328.59,285a16.3,16.3,0,0,0,10.31-3.45c.94-.68,2.45-1.05,2.84-1.94.9-2.06,2.79-2.29,4.4-3.13,2.47-1.28,4.91-2.63,7.58-4.07H343.24v.31l1.14.56c-2.83.76-5.72,0-8.14,1.34l.07.49h2.51l0,.27-3.12.79,0,.27h4.57c-.82,2.08-2.52,0-3.46,1.07l1.65.17-4.33,1.12c.26.43.48.62.48.82,0,1.49-1.08,1.55-2.13,1.61-2.31.14-3.94,1.56-5.58,3l6.29-1.93.13.45ZM245.8,269.82l0-.45h-5.73l0-.42,4-.43c-.34-.32-.42-.46-.5-.45-3.46.16-7-.41-10.28,1.26a.8.8,0,0,1-.63.08c-1.78-1.12-3.62.09-5.44-.11A9.43,9.43,0,0,0,224,270c-.13,0-.13.51-.23.94l-8.59,1.85c3,.72,5.63-1.39,8.8-.33,1.76.6,4-.19,6-.38a3.16,3.16,0,0,0,.87-.38l-.32,1.22a55.88,55.88,0,0,1,18.52-.05,3.09,3.09,0,0,0-1.86-1.3c-3.15-.31-6.31-.48-9.47-.7l-.08-.19ZM100.23,483.25c5,2.34,5.59,2.27,8-.86-2-1.42-2.38-1.39-4.31.36.76-1,1-1.95-.22-2.66s-2.55-1.42-4-2.25c-.09,2.12,1.42,3.45,1.87,5.33l-6.27-4.4,1.58-.46A21.79,21.79,0,0,0,94.94,476c-1-.9-2-.59-2.17.69-.15.84.13,1.74,0,2.6a5.21,5.21,0,0,0,7.56,5.16Zm49-16.21c-.53-1-1.14-2.27-1.92-3.43a1.56,1.56,0,0,0-2.67-.26c-.75.72-1.54,2.11-2.22,2.06-1.67-.14-1.52,1.13-2,1.88a7.34,7.34,0,0,0-.75,2.2c-.16.72-.43,2-.19,2.11a6.29,6.29,0,0,0,3.07.76,14.18,14.18,0,0,0,3.34-.95A5.13,5.13,0,0,0,149.27,467Zm205.67-197-.1-.51c5.68,0,10.59-2.4,15.53-4.78a24.52,24.52,0,0,0-4.26-.21c-.48,0-1.35.11-1.38.3-.29,1.34-1.29,1-2.08.94-1.59-.08-3.18-.3-4.77-.42a8.75,8.75,0,0,0-1.34.11l0,.38,3.51.27.05.56c-3.53.39-7.45-.8-10.27,2.27l1.52.51L345,270l2.27.57-1.68.57c4.09.62,8.14,1.05,11.94-.77l-.05-.55Zm-37.27,30.37.44.44,8.27-7.66.38.4-4.62,6c1.4-.7,2.77-1.38,4.12-2.08.66-.34,1.56-.59,1.88-1.14,1.48-2.59,2.8-5.28,4.24-8l-.95.06,3.63-3c-3.24.08-7,1.51-7.83,2.86h1.32l-1.78,1.35,1,.24-7.71,4.71.29.47,4.52-2.7.37.5ZM152.74,473.18l-.08,1,.22,0,2.08-4.64.56.25-.63,2.16.23.08,1.74-3.28.24.06-.32,1.72.46.26,3.8-5.47-.14,2.16.57.13,1.77-3.09c-.25,1.25-.47,2.36-.73,3.7.8-1,1.85-1.78,2-2.64.27-2.29,2.21-3.33,3.34-4.94.73-1.05.58-1.89-.12-2.39a2.27,2.27,0,0,0-2.16.38c-1.23,1.31-1.69,3-4,3.63-1.51.39-2.5,2.78-3.74,4.26-.63.75-1.18,1.94-1.94,2.11-2.06.46-3.09,2-4.29,3.36-.29.33-.28.92-.41,1.39Zm-23-19-.23-.13c-.46.69-1.23,1.36-1.28,2.08a2.43,2.43,0,0,0,1.15,2c2.51,1,6.12-.44,6.94-3,.23-.73.69-1.4.9-2.13a7.27,7.27,0,0,0,0-1.76c-1.5,1-1.5,1-3.13-.33s-1.94-1.23-3,.4C130.6,452.22,130.22,453.24,129.75,454.21ZM280.1,303.43l1.8-4.72.47.18-2.14,6.56.5.16a18.66,18.66,0,0,1,.8-2.6,15.5,15.5,0,0,1,1.48-2.15l.43.3c-.54,1.21-1.09,2.42-1.64,3.63l.35.33a3.53,3.53,0,0,0,1-.52c1.29-1.37,2.57-2.74,3.78-4.18a2,2,0,0,0,.35-1.38,10.2,10.2,0,0,0-.52-1.85c-1.15.19-2.23-.63-1.78-1.38a11.36,11.36,0,0,1,2.13-2.08l-1.31.15.45-.79c-1.82,1.09-4.68.69-5.25,3.65,1.4.05,1.41.6.76,1.5C280.63,299.76,279.56,301.3,280.1,303.43ZM306,272.34l-.35-.55c-5.68,2-10.86,4.76-14.6,10.09l1.94.28c-2,1.23-4.36,1.75-3.69,4.66l2.15-3.36v1.92l.37.28,5.8-5.84-1.26-.32c.7-1.44,3.19-1.11,3.14-3.36ZM124.68,376c-2.26-.41-4.54-.85-6.84-1.16-.2,0-.57.83-.76,1.32-.07.18.3.58.22.69-1.55,2.18-.36,3.87,1,5.48a7.65,7.65,0,0,0,1.69,1.16c.56-.87,1.19-1.7,1.66-2.62.29-.55.21-1.31.54-1.82C122.81,378.05,123.62,377.22,124.68,376Zm150.43-30.87,8.39-2.54a6.2,6.2,0,0,0-1.26-.17,37.42,37.42,0,0,1-9.51.66c-.43,0-.93.55-1.39.85l.24.54,4.32-.58,0,.2-18.45,3.09a3.76,3.76,0,0,0,1.6.57c3.46.57,6.78-.17,10.09-1.09a11,11,0,0,1,2.23-.16c1.82-.11,3.63-.24,5.44-.36l0-.34ZM78.09,304l-.06.42c1.8,1.83,3.55,3.7,5.42,5.46.37.35,1.17.32,1.77.31s1.1-.29,1.66-.31c1.5-.05,3,0,4.91,0L94.11,313a24.9,24.9,0,0,0-1.65-5.94c-.82-1.87-1.5-1.91-2.86-.4a2.37,2.37,0,0,1-2.94.79c-.29-.11-.88-.08-1,.1-1,1.57-1.85.61-2.68-.12a26.37,26.37,0,0,0-2-1.93A24.39,24.39,0,0,0,78.09,304ZM297.7,353.28l-.18-.69-1.46.48c-1.3.43-2.45,1.53-4,.8a4.52,4.52,0,0,0-2-.4,24.7,24.7,0,0,0-2.95.44l-.11-.36,3.71-2.14c-3-.31-4.56,2.23-6.93,3.13s-4.76,1.88-7.13,2.82l0,.29,10-2-.54,1.46ZM73.16,376.92c.64-1.4,1.27-2.58,1.74-3.82a27.06,27.06,0,0,0,1.53-4.72c.27-1.57-1-2-2.3-2.23-1.15-.17-2.23.12-2.18,1.37.11,2.92.47,5.83.77,8.75C72.74,376.49,73,376.69,73.16,376.92ZM179.93,495.85c2.21-.21,3.95-.34,5.69-.54.64-.08,1.7-.18,1.8-.51.53-1.72,2-1.16,3.08-1.44.69-.18,1.42-.27,2.13-.39l0-.24-2.25-.2,0-.16,10-1.71a4,4,0,0,1-1.73,1c-.62.22-1.24.41-1.87.62,3.8-.19,4.83-.61,6.19-2.25C197.65,489.31,183.63,492.73,179.93,495.85Zm-50.25,12-.09-.87-2.85.33c-1.2.15-2.49.67-3.58.39-2.17-.55-4.2-1.64-6.35-2.32a21.45,21.45,0,0,1-12.06-9c-.49-.76-1.92-1-3-1.27-.49-.1-1.13.45-1.79.74.66.45,1.8.82,1.93,1.41.22,1,.49.88,1.17.66a1,1,0,0,1,.8.14c2.42,1.85,4.65,4,7.27,5.52a53.74,53.74,0,0,0,10.1,4.43c2,.65,4.39.34,6.59.36A6.88,6.88,0,0,0,129.68,507.89ZM312.13,366.42l-.25-.53c-2,.83-3.94,1.63-5.9,2.49-3.42,1.49-6.73,3.31-10.62,3.36-1.32,0-2.64.29-4,.39a23.34,23.34,0,0,1-3.73.16c-2-.16-4-.5-6-.76l0,.3,1.17.12c.58.62.87,1.23,1.19,1.24,2.33.09,4.55.63,7,.3,5.21-.7,10.28-1.41,14.86-4.27A48.42,48.42,0,0,1,312.13,366.42Zm12.8-20.84-.25-.49c-2.29.7-4.61,1.34-6.86,2.14a19.61,19.61,0,0,0-3.61,1.8c-.3.18-.29.86-.42,1.32l.43.11,1.43-1,.28.36-6.29,4.88.25.36,5.35-3.07c.58-.33,1.15-.94,1.73-.94,2.41,0,3.52-1.93,5.07-3.3l-2.88.5V348Zm5.25,5.59-.39-.71a15.75,15.75,0,0,0-3.57,1.56,41.8,41.8,0,0,0-4.18,4c-3.28,3.34-6.66,6.5-11.4,7.69-.64.16-1.14.86-1.7,1.31l.24.38a66.68,66.68,0,0,0,6.65-2.88c2.55-1.41,5.39-2.5,6.78-5.51a4.71,4.71,0,0,1,2.75-2.47C327.68,354.12,327.94,351.48,330.18,351.17ZM117.08,460a30.11,30.11,0,0,0-.79,4.32,2.57,2.57,0,0,0,1.06,1.95c1.31.82,4.74-.65,5.25-1.83a15.09,15.09,0,0,1-1-1.87C120.65,460,119.77,459.45,117.08,460ZM132,377.57c0,.2,0,.47.12.61,1.36,1.66,2.74,3.31,4.15,4.93a3.35,3.35,0,0,0,1.12.69c1.56.69,2.32-.37,2.65-1.55.15-.5-.44-1.42-1-1.84a21.24,21.24,0,0,0-3.45-2.24C134.49,377.58,133.4,376.53,132,377.57Zm197.11-62.39c1.42-.64,2.34-1.34,3.32-1.42a35.63,35.63,0,0,1,5,.18l-.54.77,4.22-1a2.75,2.75,0,0,0-1.61-.76,52.47,52.47,0,0,1-5.18-.94,11.64,11.64,0,0,0-6.84.07c-.53.16-.88.91-1.32,1.38l.37.35,2.23-.86.1.2-2.31,1.37.12.2,3.51-1ZM193.63,423.05l.24-.38c-2.59-1.36-4.1-4.75-7.75-4,0,2.46-2,.39-2.9,1.58l4.13.75c-1.84.2-3.24.43-3.33.72l2.14-.26,0,.31-.69.45,6.83,1.82.14-.5-1.75-1.41.29-.42Zm123.44-68.64-20.79,9.4.2.56,9.19-2.79-.14-.5-1-.25C309.1,359.36,313.69,358.16,317.07,354.41Zm-149.26,104c2.13.53,1.91,1.34,1.23,2.38-.22.33-.07.9-.1,1.37l.61.09c.37-.84,1.19-1.77,1.06-2.52-.6-3.27,2.11-4.17,4-4.87,2.42-.91,2.51-2.78,3.26-4.52-1.32.22-2.45.46-3,1.94-.22.6-1.27.93-2,1.31s-1.84.52-1.88.88C170.76,456.19,169.89,457.38,167.81,458.38ZM280.1,352c-5.09.42-10.36-.81-14.76,1.77a8.74,8.74,0,0,0,7.37.39C275.1,353.28,277.63,352.73,280.1,352Zm-168.65,4.53c2.18.27,4.26.5,6.34.78,1.08.15,1.65-.19,1.61-1.56l-5.06.39-.41-1.89,2.91-.19c-5.34-1.92-6.6-1.78-7.67.69l2.82.41ZM307.29,365l-.18-.53c-3.9,1.07-7.73,2.48-11.7,3.13s-8.08.54-12.13.77A39.17,39.17,0,0,0,307.29,365Zm-189,107.1.87-3.9c-2.16.06-3.6-.65-3.94-2.84a1.13,1.13,0,0,0-1-.53,21.91,21.91,0,0,0-2.45,1.08ZM318.11,345.93a5.66,5.66,0,0,0,1.27-.07c3.92-1.44,7.85-2.89,11.74-4.41.46-.18.75-.82,1.12-1.24l-1.5-.19a1.33,1.33,0,0,0-.48,0c-2.36.53-4.72,1.08-7.08,1.63l.14.57,3.72-.67C324.76,344.22,321.08,343.87,318.11,345.93ZM67.26,375.07c1.15-2.43,3-4.55,3.2-7.42l-3.29-.55C66.09,369.8,66.53,372.4,67.26,375.07Zm122.23-48.94,3.62-5.8c-4.49.57-4,4.91-6,7.3.94.79,1.7,1.43,2.26,1.92l2.52-1.67ZM91.36,493.78c-.61-1.87-3.36-.25-4.6-1.82,1.23,3.32,4,4.76,6.91,6.07,0,0,.15-.09.3-.19l-1.08-1.16,1.59.28-.59-1.2c.52.24.82.4,1.13.52a8.15,8.15,0,0,0,.85.22l.21-.49ZM302.2,353.16c4.18-1.33,8.48-2.43,12.32-5.46C309.32,347.72,305.62,350.14,302.2,353.16ZM268,295.81c2,0,3.75,0,5.52,0,1.24-.05,1.54-.72,1.2-1.93a13.58,13.58,0,0,1-.5-3.36c-.05-1.34.11-2.68.18-4l-.41-.07c-.33,1.95-.66,3.89-1,5.91h-5.76v.08l5.31.63C271.87,295.51,269.4,294.38,268,295.81ZM331,297c-.41.83-.69,1.48-1,2.08a3,3,0,0,1-.94,1.19c-1.37.7-2.83,1.23-4.22,1.88a5,5,0,0,0-2.93,3.86l3.33-1.6-1.06-.87,4.72-.95c1.35-.26,2.23-.89,2.15-2.44C330.9,299.24,331,298.33,331,297ZM142.89,346.82l-3.52,4.35c-.07-.43-.11-.65-.14-.87-3.71,3-3.77,3.17-1.49,6.05.38-.65.7-1.22,1-1.77a9.48,9.48,0,0,1,1.6-2.5C142,350.69,142.51,348.81,142.89,346.82Zm186.33-2.23,6.43-2v-2.17c-4.31,1.12-7.32,4-10.64,7.06C328.22,347.14,329.58,346.27,329.22,344.59ZM75.53,320.16c-2.76-1.61-2.55-3.64-1.67-5.91a5,5,0,0,0,.11-2.59c-.06-.39-.71-.79-1.17-.94-.18-.05-.74.58-.84,1a18.49,18.49,0,0,0-.62,3.59A4.81,4.81,0,0,0,75.53,320.16ZM317.4,353.07l.31.43,4.68-3.23.14.13c-1.49,1.55-3,3.09-4.46,4.64l.49.57c2.1-1.63,4.19-3.27,6.27-4.9-1.33-1.56-2.56-2.22-4.07-.81ZM195.11,420.89c-2.81-2.21-4.46-6.11-8.87-6.14l1,1-.11.21-4.27-1.43-.19.46,7.11,3.81-1-1.49.28-.29Zm88.42-99.29c2.52.84,4.44.59,5.1-.42a4.36,4.36,0,0,0-.6-4.83l-.13,2.58-.27,0-.63-2.12-1.48.47C285.5,318.83,286.78,320.92,283.53,321.6ZM66.24,365.2c-3.65,1.52-4.58,5.85-1.63,8.28C65.17,370.65,65.69,368,66.24,365.2Zm106.23,48.13-6.63-8.7-.67.4c1.07,2.1,2.14,4.19,3.18,6.25l1.05-.65,1.23,3.92Zm144.08-53.51-2.3.37,6.77-4.63-.28-.39c-4.1,1.37-7.19,4.15-10.32,7.26C314.16,361.9,315.14,361.48,316.55,359.82Zm-188.8,2.59c2.9,2.2,8.69.82,10.54-2.41a5.2,5.2,0,0,0,.2-1.93c-.49.33-1,.64-1.46,1a6.73,6.73,0,0,0-.62.77c-1.37,1.51-2.8,2.77-5.13,2.38A16.77,16.77,0,0,0,127.75,362.41Zm161.78-85,5.25-2.15-.29-.68-5.09,1.74.44-.7-.19-.43L284.86,277l.16.45,3.74-1.07-2.9,2.42.34.56L291,278l0-.26ZM291,298c.89-3.16,3.4-5.85,2.61-9.89l-3.08,3.46.41.39,1.14-.95.6.22A6.07,6.07,0,0,0,291,298Zm-7,10.94,4.89-6.82-.71-1.26C284.44,302.62,284.16,306,284,308.92Zm-12.94,3.64a14.11,14.11,0,0,0-10.93,2.19C263.61,313.47,267.66,315,271.09,312.56ZM111.35,352.29l.07-.47c-.85-.34-1.71-.64-2.53-1a27.19,27.19,0,0,1-4.77-2.55c-1-.77-1.29-.59-1.78.13,1,.84,2.24,1.44,2.78,2.42s1.12,1,2,.71c.41-.13.85-.22,1.27-.32l.14.38-1.25,1.17.13.28Zm-26.3-26.88.07-.61a8.3,8.3,0,0,1-6.43-2c-1.82-1.53-2.32-1.69-3.59.27-.2.29-.34.92-.18,1.09a1.39,1.39,0,0,0,1.17.34,8.43,8.43,0,0,1,4.2.19C81.84,325.05,83.46,325.17,85.05,325.41Zm46,30a6.63,6.63,0,0,0-1.73-.17,5.19,5.19,0,0,0-2.36.76,19.68,19.68,0,0,0-2.34,2.77l.11.25c1.42-.75,2.85-1.5,4.17-2.18l-.54,2.65C130.51,358.53,131.34,357.06,131,355.45ZM96.65,375.24c-.06-1.12-.11-1.6-.11-2.08,0-1.26-.83-2.21-1.86-2.1s-1.91,1-2.83,1.65c0,0,.16.77.39.87C93.56,374.14,94.92,374.6,96.65,375.24Zm85.43,27.52c-3.55-2.49-7.72-3.33-12-3.94a4.91,4.91,0,0,0,2.29,1.36c.58.15,1.33-.25,1.85,0,1.08.45,2,1.34,3.11,1.69A37.62,37.62,0,0,0,182.08,402.76ZM185.71,433l-.12.38a20.71,20.71,0,0,1,4.15,1.31c1.43.8,2.15,0,3.51-.8l-3.37-.33,1.67-.8c-.58-.29-1-.68-1.36-.63C188.69,432.39,187.2,432.73,185.71,433ZM63.86,327.62c1.67-3.24,1.1-6.19-.44-6.88-1.41,1.11,1,3.56-1.69,4.32Zm216.45-37.89.16.06,7-4.33h-2.32l2.3-1.37-.17-.32-3.52,1.28a5.89,5.89,0,0,1,.81.36,1,1,0,0,1,.26.27l-3.8.61.06.46,1.55.47C281.78,288.16,281,288.94,280.31,289.73Zm-22-62.28c1.52-1.38,1.55-1.63.37-3.65a4.1,4.1,0,0,1-.39-1.08c-.31-1.28-.59-2.56-.88-3.84l-.5.05a11.89,11.89,0,0,0,.25,5.49C257.52,225.47,257.93,226.52,258.29,227.45Zm2.63,32.75,0-.23a2.91,2.91,0,0,0-.59,0c-3,.61-5.93,1.19-8.88,1.88-.43.1-.74.73-1.11,1.12a4.49,4.49,0,0,0,2.65.17c1.71-.55,3.36-1.27,5-1.91C259,260.87,259.94,260.55,260.92,260.2Zm16.13,37.64-.62.44c-.34-.44-.59-1.12-1-1.26-.9-.31-3.77,1.69-4.09,2.59l3.93-1.52-.54,2.27-2.13,1.18A4,4,0,0,0,277.05,297.84Zm41,15.55-.24-.1,1.82-4.26a12.1,12.1,0,0,0-3.08,7.19c1.91-.67,3.4-2.82,3.64-5.82ZM80.67,337.47c3.5.44,7.84-2.47,7.6-4.78Zm-3.14-2.88.1.64c1.88,0,3.9.44,5.59-.13s2.89-2.12,4.24-3.33c.2-.17,0-.84-.1-1.27l-.41-.16C84.89,334.11,81.5,335,77.53,334.59ZM307.11,344l2.29-.32-.49-1.43c3.57-.36,7-.19,10.33-2.12-2.9.35-5.46.64-8,1a6,6,0,0,0-2.48.7A8.7,8.7,0,0,0,307.11,344ZM74.37,325.19l-.37-.62L66.14,330l.28.42C69.92,330,71.9,327.2,74.37,325.19Zm63.06,121-.78-.45L133,449.29l.16.56c1,.11,2.56.63,2.83.24A14.68,14.68,0,0,0,137.43,446.21Zm39.73-50.34-.19.41,7.9,3.68.24-.35c-1-.92-1.78-2.18-2.92-2.68A25.1,25.1,0,0,0,177.16,395.87Zm79.26,82.49-.11-.26-9.42,2.48-.51,2.05Zm61.72-104.73.41.52,10.13-6-.29-.47A54.78,54.78,0,0,0,318.14,373.63Zm-43.09-64.48.39.33a24.94,24.94,0,0,0,2.38-2.68c1.71-2.6-.33-5.49.59-8.2a7.47,7.47,0,0,0-.84,3.77c.4,2.47-.65,4.25-2.11,6A3.85,3.85,0,0,0,275.05,309.15ZM160.64,484.58l2-3.57.77,1.82c.18-1.47.31-2.45.49-3.87-1.27.81-2.14,1.26-2.91,1.87C159.08,482.32,159.1,482.35,160.64,484.58Zm121.12-120V364H269.51C273.72,365.19,277.76,364.4,281.76,364.57ZM79.1,332.91c2.7.76,4.41.32,6-1.77l-1.49.36,2.11-2-.2-.22Zm261.11,20.32.3.49c.65-.35,1.33-.67,1.95-1.08,1.29-.86,2.57-1.74,3.8-2.68.21-.16.23-.72.15-1s-.68-.35-.82-.24C343.77,350.17,342,351.71,340.21,353.23Zm-17.53,25.45-.21-.76c-1.78.27-3.56.51-5.33.85a3.52,3.52,0,0,0-1.36.8.72.72,0,0,0-.24.66.71.71,0,0,0,.62.35C318.34,380,320.51,379.32,322.68,378.68Zm10-73.21-5.9,3.8.24.48,7-2.85ZM183.81,400.92l-.44.56,6.37,5.38C189.09,403.36,185.89,402.77,183.81,400.92ZM330.29,295.69l-.17-.08L328,298.53c-1-1.2-2.11-.68-3.13,1.48,1.29-.12,2.49-.16,3.67-.37a1.61,1.61,0,0,0,.93-.95C329.83,297.72,330,296.7,330.29,295.69ZM198.15,273.07l9-3.73-.25-.56C204,270,200.34,269.81,198.15,273.07Zm147,88.14c3.08-.11,4.71-2.53,3.39-4.42Zm-46-9.68.18.57,6.7-2.64-.26-.64C302.85,347.77,301.39,350.59,299.2,351.53ZM195.11,330l-2.69-1.74.2.48-2,1.41C192.09,331.82,192.89,331.8,195.11,330Zm97.16-27.8c1.53-3.26,1.65-4.34.65-5.51C290.78,299.91,290.62,301.07,292.27,302.2Zm27.25,73.46,6.78-2C325.14,372.05,323.87,372.42,319.52,375.66Zm28.6-40.94c-2.49.66-2.81,2.94-3.86,4.59l4.3-2.7Zm-62.6-60.2v-.37l-4.43-.72-.1.65,2.85.33c-2.52.45-2.52.45-2.76,1.74l4.62-.72-.07-.37-1.21-.36.05-.18Zm-174.09,59,.3.4a13.05,13.05,0,0,0,2.09-2.59c.18-.36-.54-1.3-1-1.78-.28-.26-1-.12-1.12-.13C111.58,331.07,111.5,332.32,111.43,333.56Zm-39.89-.81-3.24,1.74c2.65.56,5.63-1.77,5.13-4l-2.82,1ZM274,321.44l-10.08-.53C267.25,321.79,270.56,322.73,274,321.44ZM113.81,364.23a5.55,5.55,0,0,0,5.28-2.52l-1.58-.5Zm73.85,60.47c1.29.35,2.9,1.36,3.81.92,1.91-.93,2.64.23,3.69,1.15a8.82,8.82,0,0,0,1.36.73C194.43,424.18,191.38,424.19,187.66,424.7Zm116.15-67.13.36.61c1.6-.64,3.21-1.26,4.78-2,.22-.1.26-.62.38-.94-.38-.09-.83-.35-1.14-.24a31,31,0,0,0-3.26,1.51A6.31,6.31,0,0,0,303.81,357.57Zm-12.24-4.67.24.66,7.63-2.86-.23-.63C296.33,350.11,294.2,352.2,291.57,352.9ZM276.3,296.28l.85-.14a32.07,32.07,0,0,1-.91-3.94,5.62,5.62,0,0,1,.5-2.42c.11-.29.65-.43,1-.65l-1-.86A10.38,10.38,0,0,0,276.3,296.28Zm3.79,20.34,1.92.51c.59-1,1.12-1.83,1.64-2.7l-1.13-1.36ZM175,471.56l-.51-.25c-2.44,1.4-2.89,2.48-2,4.44l1.87-1.87-.3-.56ZM281.31,307.68c-.67,2.26-1.4,4.7-2.15,7.22l2.9-3.59ZM188.69,448.74c-1.18.43-2.4.81-3.55,1.33a3.09,3.09,0,0,0-1.15,1.15c-.12.17.15.85.19.84a3.17,3.17,0,0,0,1.65-.36C186.86,450.8,187.75,449.74,188.69,448.74Zm46.16-175.13h8C239.68,272.26,235.68,272.41,234.85,273.61ZM108.58,323.17a26.19,26.19,0,0,0,2.25,1.89,8.64,8.64,0,0,0,1.7.64c.1-.35.39-.81.27-1-.34-.56-.77-1.26-1.32-1.45A10.52,10.52,0,0,0,108.58,323.17ZM335,306.57l.13.62c1.79,1,4,.26,4.15-1.67Zm10.27,7.29.19.42c2.13-1,4.61-1.47,6.11-3.53l-.34-.56ZM151.62,384.39c3-.35,4.32-1.71,4-4.33C154.32,381.44,153.05,382.82,151.62,384.39Zm-3.79-26.28-4.93,5.25C146.29,362.37,148.72,359.38,147.83,358.11Zm100-82-1.06-.31.73-.31-.07-.21-6.21.72C243.47,278.28,245.66,275.19,247.83,276.08ZM162.11,384l0,.44c3,.12,5.75,1.73,8.79,1l0-.44Zm175.28-39.53c-2.17-.52-5.12,1.09-5.68,3ZM301.3,375.53l-.06-.55a13.1,13.1,0,0,1-3.57.43c-2.31-.36-2.29-.5-4.22,1.12ZM184.62,442.62l3.73-2.2-3.19-1.19Zm71.21-110.1.16.28c.67-.32,1.42-1,2-.88.8.18,1.39.15,1.5-.58.09-.58-.31-1.23-.63-2.27ZM148.91,497.76a10.28,10.28,0,0,0,.75-7c-.06-.29-.51-.5-.78-.75-.08.32-.3.7-.2,1A11.79,11.79,0,0,1,148.91,497.76ZM282.8,343.63l.31.55,6.09-3.59-.48-.77Zm-17.35-33.34-5.92.48.05.51C261.62,311.76,263.66,312.18,265.45,310.29Zm-2.62-69.49-.21-.52-6.7,3.25.38.76ZM142.31,370c1.13,0,2.17,0,3.21,0s2.1,1,2.85-.58C146.24,369.11,144.19,368.22,142.31,370Zm103.32-36.75.1.69c2.42.35,4.46-1.08,6.64-1.86Zm-17.9-71.59c-3-.61-5.53.28-5.75,1.74Zm-83.3,231.42c-2.61,1.59-2.73,1.85-1.81,3.63l1.16-1.72,1.19,1ZM310.59,275.38l.34.69a13.57,13.57,0,0,0,5-3l-.23-.42Zm30,103.41-.16-.62-8,2.35.13.48ZM222,261.05l-.27-.9-5.58,2.12.23.65Zm122.77,76.57c-1.57-.72-3.51.75-4.18,3Zm-9.72-79.45.3.74,6.23-2.85-.21-.47Zm-7.2,74.61c-2.8-.37-3.65.18-4,2.57ZM330,360.61l-.49-.57-4.93,4,.45.54ZM191,442l-6,4.74A10.93,10.93,0,0,0,191,442Zm130.5-172.69c-2.78.63-3.53,1.08-3.64,2.12C320.15,271.4,321.58,270.6,321.51,269.31ZM104.19,486.8c-3.69-2.25-3-2.13-4-.77l2.12.1L101,488.08l.17.22ZM342.5,355.05l.15.18c1.41-.83,2.85-1.64,4.23-2.52.28-.19.37-.67.55-1-.41.06-.95,0-1.23.2C344.93,352.89,343.73,354,342.5,355.05Zm1.79-65.55.19.89,5.28-1.25-.17-.7Zm-43.82,49.65c-2.8,0-3.16,2.82-5.05,3.58.47.15,1,.35,1.18.18C297.87,341.76,299.06,340.53,300.47,339.15ZM157.19,397.69c-.28-2.27-.54-4.6-3.32-5.88.42,1,.71,2.15,1,2.15,1.49,0,1.16,1.23,1.57,1.92A13.86,13.86,0,0,1,157.19,397.69ZM177.75,403l-.26.69,6.45,2.65.17-.4Zm70.69-125.9-5.51.25C244,278.66,247.14,278.48,248.44,277.07Zm58,63,.07.64,5.62-.52-.08-.82ZM99.81,360.63a5.47,5.47,0,0,0,6.23-.93Zm64.37,63.16v-.65c-.64-.18-1.56-.7-1.84-.46a6.13,6.13,0,0,0-1.12,2.07l.49.47Zm120.51-110.2-2.18,4.86c1.2.45,1.8-.29,2-1.34A30,30,0,0,0,284.69,313.59Zm-18.51-22.68a5.87,5.87,0,0,0-6.24,1ZM295,345l-.24-.6L289,346.72l.24.6ZM175.2,488.51c-2.25-.89-3.83-.23-4.35,1.75ZM309,346.93l.2.64c1.44-.18,3.07.2,4-1.36l-.17-.52ZM90,334.81l-.13-.26-4.49,2.08.24.49,1.84-.68v.81Zm55.85,29.68c2.41-1,4.14-3.15,4-4.82C148.61,361.24,147.37,362.73,145.89,364.49Zm23.87,113.65,2-4.47C169.27,474.93,169.27,474.93,169.76,478.14ZM85.5,470,85,474.83l.43,0C85.67,473.34,87.79,472,85.5,470ZM281.33,291.43l.36.57,4.21-2.52A5,5,0,0,0,281.33,291.43ZM81.87,346.51l-.46.34c-.4.19-.81.36-1.2.57s-.79.32-.9.6a1.33,1.33,0,0,0,.4.9,7.72,7.72,0,0,0,2.4-.74C82.3,348.08,82,347.09,81.87,346.51Zm259.19,3.21,3-3.75C342.64,346.69,340.6,346.85,341.06,349.72ZM151.93,495c1.19-1.68,1.32-4.82,0-5.94ZM100.37,346.19c0,1.42.34,1.56,2.13.86l-1.83-2.32L99.13,346l.18.3Zm189.41-6.3,0,.54c1.86.93,3.31-.71,5-.76l-.07-.47Zm9.15-4.69.06-.56-6.27.89.09.64Zm-106.49,102-2.75,3.38C192.4,439.85,192.78,439.42,192.44,437.19Zm58-102.5,0-.18h-6.66l0,.18Zm-87.73,65.82-.77.29,1.79,5.1.69-.24Zm91.06,85.11-.08-.5-6.77.63.06.59Zm64.62-219.39.28.59c1.16-.45,2.34-.87,3.49-1.36.19-.09.25-.48.37-.73-.23-.07-.51-.25-.68-.18C320.64,265.08,319.5,265.66,318.35,266.23ZM150.74,389.33c.75,1.49,1.31,2.62,1.92,3.85C153.44,390.91,153.14,390.17,150.74,389.33Zm-2.44,87.3q-2.61.62-2.31,4.39Zm51.81-144.26c-3.44-1.35-3.32-1.77-3.75.32Zm126.51-52.51.16.44,5.55-1.45C329.75,277.65,328.44,279.75,326.62,279.86Zm-48.25,50.78.1.45,5.07-.94-.18-.83ZM234.28,247c1.95-.24,2.07-1.82,2.66-3.39C235.63,244.56,233.82,244.78,234.28,247Zm24.28,47.73.11.63,6-1.27-.06-.39ZM146.88,495.05v-2.51l.23,0,.57,1.83.3-.08c-.16-.95-.31-1.9-.46-2.86C145.67,491.88,145.67,491.88,146.88,495.05Zm176.81-183-.36-.35-3.91,3.68.37.37ZM157.61,483.26l-1.6,1.15,1.6,3Zm14.06-86.79.06-.56-4.84-.51C168.43,398.09,170.24,395.5,171.67,396.47Zm35.77,93,.3.53,4.27-1.7-.33-.76Zm-15.91-57.87.07-.38h-5.78v.38Zm-66.62,71.07,3.32,1.78.15-.23c-.55-.86-1.09-1.73-1.64-2.6ZM308.16,328.76l0-.29h-5.08l0,.29Zm-90.57-67.53-.15-.54c-1.35.36-3-.36-3.89,1.72Zm60.48,50.48c.61-.12,1.11-.07,1.35-.3a2.86,2.86,0,0,0,.54-3.47ZM140.54,379.17l-.24.47,5.07,2.7.26-.5Zm202.3,3.14.2.17c.9-.17,1.81-.29,2.69-.52a1.63,1.63,0,0,0,.8-.67.73.73,0,0,0-.26-.66,1.42,1.42,0,0,0-1,.07C344.42,381.19,343.64,381.77,342.84,382.31ZM160,389.36l-.18.54c1.58,1.6,2.14,1.79,3.43.74Zm-19.63-29a4.69,4.69,0,0,0,2.6-4.32Zm191.18.74c-1.51,1.1-3.51,1.73-4.3,4.13Zm14.12,10.13.37.71c.89-.41,1.81-.8,2.66-1.28a5.35,5.35,0,0,0-.35-1.38ZM118.39,457.77l.44.74,1.92-.77-.59-1.39Zm66.16-12.12c1.73-.09,1-1.86,2-2.58C184.49,443.1,184.25,443.43,184.55,445.65Zm99.79-224.48v.39h5.37v-.39Zm-33.51,58.56v-.5l-6,.38v.12Zm64.09,53.86c2.53,1.08,2.56,1.08,3.52-.47Zm30.43,23.61-.32-.42q-1.89,1.35-3.79,2.69l.45.6Zm-31.67-10.8.19.59c1.36-.27,2.9-.08,3.81-1.46l-.18-.5ZM146.5,367.74l0,.78,4.2-.27,0-.51ZM109.74,498.9l-.52.39c-.23,1.91,1.66,1.63,2.46,2.47l.3-.29ZM347.42,375.83l-.18-.7-4.1,1,.17.66Zm-25.09-34.95-.19-.78-4.28,1.35.16.53ZM182.74,459.66l3.15-1.86C183.16,457.41,182.38,457.84,182.74,459.66Zm111-173.25-2.3.24.27,1.92.49,0Zm-27.53-62.35.13.84,3.75-.68-.07-.5Zm37.31,112.8c-1.51-.83-3-.47-3.63.67a9.78,9.78,0,0,0,1.71,0A13.19,13.19,0,0,0,303.53,336.86ZM166.73,478.77c.49-.53.9-.95,1.28-1.4s.56-.78.84-1.17C166.48,476.9,166,477.62,166.73,478.77Zm34.41-144.42,0-.44-4.63.42C198.1,335.39,199.61,334.75,201.14,334.35Zm78.29-29.77-1.6,4.58C279.66,308,279.69,306.31,279.43,304.58Zm21.65,40.82.22.71,3.17-.94-.24-.77Zm-29.65-36.34.33.69,3.08-2-.48-.72ZM113.71,360.57l.13-.45a20.42,20.42,0,0,0-2.21-.95c-.22-.07-.57.26-.85.41.16.24.29.64.5.68C112.08,360.42,112.9,360.48,113.71,360.57Zm-4.64.91c1.46,1.3,2.25.33,3.15-.27l-.17-.56ZM272.78,302.6l-4.46,2.08C270.47,305.7,271.21,303.78,272.78,302.6ZM199.64,415.84l.55-.55-3.4-2.79-.34.41Zm-21.06-21.2.09.91h1.8l0-1.31ZM335.93,272.57l-.24-.85-3.56,1.1.16.55ZM305.48,286l-.47-.49-2.7,3,.23.26Zm-30.41,42.68c1.39-.12,2.65,2.19,4.34.23Zm30.68,18.51.38.9,2.7-1.43-.21-.51Zm.28,7-.19-.38-4.3,1.85.26.55ZM91.93,474.57l-2.26-.85-.16.31,1.65,2.38Zm137.2-144.26-.22.44,3.53,2,.35-.7ZM125,504.6l.4-.48-3.57-2.73-.32.41ZM314.13,333.66c-1.12-.17-2.37-1.28-3.25.56Zm5.61,1.43,2.38-1.55C320.78,333.19,319.71,333.28,319.74,335.09Zm13.59-46.25.49.4,2.9-3.46-.47-.38ZM119.4,368l.63-2.29-2.64,1.67Zm159.14-17.58.16.47,4.87-1.73-.14-.4Zm56.69,4.29.42.69,3.33-2.15-.21-.31ZM150.54,474.94l-.61-.26-1.46,3.43.56.25ZM253.7,277.15l0-.4c-1.13-.12-2.3-1.08-3.6.4ZM141.88,361.22c1.26-.56,2.57-1.13,2.15-2.94Zm156.66-3.28.24.76,3.3-1.1-.17-.6Zm-82.05-85.88-.14-.59-5,1.46.08.3Zm63.85,61.14.13.48,4.83-1.24-.09-.38Zm65.49,51.07c-2.12-.77-2.65.1-2.74,1.86ZM182.76,467.34l2.52-2L185,465C184.18,465.43,182.79,465.12,182.76,467.34ZM391.82,253.25v-.56l-5.56.38v.18ZM285.09,278.94l-.43-.48-2.81,2.11.39.48Zm4.42,20c-.76,2.45-.75,2.47,1.3,2.53ZM86.94,353.06l.21.45,4.35-1.69-.2-.52Zm185.75-42.32-.22-.72-3,1.21.21.57Zm-136,54.94v-.84l-3.13.24,0,.44Zm88.71-97.47-.08-.45-4.22.76.08.43ZM108,499.61l.57-.31-1.67-3.08-.55.3ZM358.83,276.26l-.17-.77-3.74,1.05.11.38Zm-177.69,124,.21-.45-4.58-1.29-.12.44Zm104.63-29.8,0,.48c.79,0,1.57.13,2.35.11.16,0,.32-.35.48-.53-.18-.16-.38-.46-.55-.44C287.31,370.13,286.54,370.29,285.77,370.43Z"/><path d="M280.62,243.85c3.28,2.6,9.52,21,9.11,26.13l-2.84-2v2.88l-.65.08a90.84,90.84,0,0,1-1.81-10,41.43,41.43,0,0,0-2.08-9.5C281.62,249.15,281.25,246.7,280.62,243.85Z"/><path d="M274.68,262.3l-10.58,1.22-.2-1.21-3.24.78-.1-.57c3.33-1.48,6.91-1.7,10.57-1.65l-2.6.66,0,.38h6.11Z"/><path d="M259.23,232.34l-.09-1.55c4.42-.87,9-2.17,13.79-1.26Z"/><path d="M77.42,358.55c1.56,1.72,2.19,3.36,1.83,4.95-1.18-.74-.37-3-2.52-3.12l.65,1.26c-2.58-.55-5.44.47-7.45-2.6a11.1,11.1,0,0,1,2.29.72A3.86,3.86,0,0,0,77.42,358.55Z"/><path d="M298.2,214.25,288.08,216l-.08-.49C291.18,213.69,294.47,212.61,298.2,214.25Z"/><path d="M280.34,217.12c3.23-2.86,7.43-3.44,11.27-4.84l.2.5-11.37,4.57S280.38,217.2,280.34,217.12Z"/><path d="M82.6,371.38c-2,.35-3.44-2.5-2.77-5.41C80.73,367.71,81.67,369.56,82.6,371.38Z"/><path d="M94.2,364.84l5.09,1.37-.9,1.62-4.22-2.61Z"/><path d="M310.77,316.32v3.05c-1.67-1.71-2.19-3.51-1.26-5l.56,2.62Z"/><path d="M351.89,247.63l-6.61,2.72-.16-.28,6.46-3.07Z"/><path d="M275.1,264.35h-6.32l0-.56C271,263.11,273.06,264,275.1,264.35Z"/><path d="M334.72,330h.15l2.46-.18.12.24-3.89,1.39-.21-.25Z"/><path d="M243.21,437.62l-8.12-4.39c7.77,1.54,14.68,6.36,23.08,4.36-1.6,1.59-3.65,1.59-5.59,1.74s-4,0-6,.24c6.1,1.1,12.28,1.08,18.64,1.3l-3.54,1.56.11.42,9.62-1.65c-1,1.42-2.62,1.94-9.19,3,6.44.38,12.55-.7,18.1-4.31-1.23,3.48-4.87,3.88-7.55,5.94,7.14-1.06,11.83-5.25,15.73-10.61l.49.37c-1.07,1.93-2.13,3.86-3,5.44,2.49-1.36,4.42-3.94,6.74-9.43-.46,4.46-2.29,7.81-6.08,10.06a10.22,10.22,0,0,0-3,3.15l3.25-2.14c-.84,1.89-3.72,3.69-7.21,4.36l1.92-1.18c-4.2.35-7.26,4.18-11.9,3.62l1.84-.69,0-.2a13.83,13.83,0,0,1-2.41,0c-1.1-.21-2.15-.67-3.25-.9a23.67,23.67,0,0,0-2.93-.34,13.64,13.64,0,0,1-3.23-.54l6.79-1.08-.06-.65H255.89l-.06-.49,2-.45c-3.22-.77-6.23-1.47-9.21-2.23a28.2,28.2,0,0,1-2.66-1c-2.37-.9-4.76-1.76-7.12-2.72-1.27-.51-2.49-1.19-3.73-1.79l.26-.63,7.56,2.59Z"/><path d="M234,390.48c-1.31,1.15.16,1.57.67,1.88a22.36,22.36,0,0,0,4.58,2.31c4.24,1.42,8.53,2.66,12.81,4a3.1,3.1,0,0,1,1.24.55l-6.52-.55-.15.84c2.18.69,4.33,1.5,6.54,2,1.88.45,3.84.56,5.76.85a14,14,0,0,1,1.65.46l-.1.5-9.84-.88c1.34,1.35,2.44,1.56,9.76,1.94-1.08.8-5,1.42-7.11.76a71,71,0,0,1-7.7-2.95,72.9,72.9,0,0,1-6.67-3.35,37.1,37.1,0,0,1-5.44-3.55c-.61-.5-.52-1.65-1.5-2.31-2.27-1.51-4.34-3.32-6.47-5a1.71,1.71,0,0,1-.53-1.09l2.12,1.22.32-.34-5.55-5.59,3,1.81.26-.39c-1.54-1.07-3.08-2.13-4.6-3.21-.45-.32-.86-.69-1.29-1.05-.86-.73-1.83-1.43-.54-2.62.06-.06-.05-.3-.07-.46l4.67,4,.33-.36a2.11,2.11,0,0,0-.31-.53c-1.37-1.26-2.73-2.54-4.15-3.74a3.39,3.39,0,0,0-1.33-.37c-1.51-.8-1.86-2.23-2.08-3.7l5.22,3.8.23-.22-1.17-1.44.1-.11,13,9.63-1.71-.55-.15.26,11.42,8.91-.3.41a61.87,61.87,0,0,0-5.64-4.23,30.65,30.65,0,0,0-6.8-2.74c.19.4.27,1,.58,1.16,2.14,1.25,4.31,2.43,6.49,3.61.48.26,1,.45,1.62.73l-1.28.47L251,397.42a35,35,0,0,1-3.61-.93c-3-1.14-6-2.32-8.93-3.6-1.55-.67-3-1.57-4.52-2.37l-2.66-1.58C231.56,390.76,232.48,391.26,234,390.48Zm-10-11.75a16.53,16.53,0,0,0,8.35,6C229.64,382.64,227.14,380.24,224,378.73Z"/><path d="M157.45,325.44l10.47,5.12.31-.44L163,326.45a9,9,0,0,1,6.2,3.75c3.95,5.78,7.65,11.74,11.28,17.75-1.92-1.66-3.84-3.32-5.43-4.71,2.24,6.46.57,13.33-1.07,20.21l.37-4-.39-.1-1.54,5.2-.17,0v-1.38L172,363l-2.71,4.3-.38-.17,2.63-6.56c-2.13,2.12-2.37,6-6.4,6.25l.34-1.31-1.34.34c0-.18,0-.36.09-.47,1.17-1.73,2.51-3.36,3.5-5.19,1.74-3.24,4.55-6.05,4.92-9.85.34-3.53,1-7.4-2.88-10l.38-.24.88.26.27-.2-4.35-5.27,2.39.69a22.43,22.43,0,0,0-12.18-9.62Z"/><path d="M228.62,345.05a46.06,46.06,0,0,1-5.19,4.43,60,60,0,0,1-8.21,4.32c-6.05,2.68-12.14,2.33-18.19-.14l-1.37-.59s-.1,0-.37.12l1.3,1.44c-4.31-2-8.51-8-9.19-17.38,2.38,2.66,5.06,4.84,8.88,5.52-1.54,1-3.14.45-6.68-1.61,1.79,3.08,4.8,4.89,7.46,7-1.66.16-1.88,0-5-2.52a9.67,9.67,0,0,0,7.51,7.34,15.32,15.32,0,0,0,10.88-1.71,69.07,69.07,0,0,1,6.43-2.92l.21.41-1.61,1.3.07.22,3.51-1.6.18.31-3.31,2.07.29.52a46.83,46.83,0,0,0,11.95-7.16Z"/><path d="M175.14,320l.75-1.08c2.34.59.75,2.3,1.27,3.23l1.76,1.92c-3.19-.91-5.42-2.32-6-5.46l-.38.17v3.07H172c-.15-1.58-2-3,0-4.83.31-.27-.24-1.44-.31-2.2a33.83,33.83,0,0,1-.34-5.11c.08-1.3,0-2.32-1.36-3-.78,2.39-1.34,4.72-.61,7.27a14.1,14.1,0,0,1,.16,3.51,2.76,2.76,0,0,1-1.73,2.72,12.78,12.78,0,0,0-2.29,2l-.41-.32c.27-.42.54-.84.8-1.27s.51-.78.44-.84c-1.2-1.2.2-2.11.3-3.15.16-1.67.37-3.34.5-5a28.66,28.66,0,0,1,.4-5.11A20.07,20.07,0,0,1,169.8,302c.65-1.12,1.5-2.12,2.18-3.21,1-1.63,1.75-3.51,4-3.95.36-.07.61-.6.93-.89a10.55,10.55,0,0,1,2.53-1.88c-2.72,4.9-6.75,9-8,15.17l2.93-5.27.66.14C171.44,308.11,172.47,314,175.14,320Z"/><path d="M197.62,292.49l-1.85,1,.38.48,5.81-.77.09.12a17.94,17.94,0,0,1-2.19.89,27.59,27.59,0,0,0-9.55,4.89c-.18.12-.44.32-.43.47.08,2-1.6,2.57-2.78,3.6s-2.21,2.21-3.46,3.2c0-2.26,2.25-3.21,3-5.09-3.31.95-7.57,7.55-8.58,13.46l2.64-4.63a3.86,3.86,0,0,1-1.33,4.69c-.77.41-1.25,2.67-.74,3.68-.73.25-1.11.34-1.51-.67-1.51-3.8-.94-7.55.17-11.23.39-1.31,1.54-2.39,2.34-3.58l.44.3-1.14,1.57.39.35c.43-.53,1.2-1,1.23-1.58.11-2.34,2.06-3.21,3.52-4.12,4.13-2.57,8.47-4.79,12.73-7.15a3.38,3.38,0,0,1,.56-.2Z"/><path d="M230,334.2c-2.18.45-3.87.84-5.59,1.15-.7.13-1.46,0-2.16.16a3.89,3.89,0,0,0-1.5.85,30.36,30.36,0,0,1-3.26,2.62l2.07-2.51c-.86-.32-1.2-.1-1.79.68a7.35,7.35,0,0,1-3.2,2.27c-2.32.85-4.75,1.5-7.43.6,2.66-.54,5.38-.63,7.54-2.24l-.18-.5-5,1.88-.11-.24,1.25-.85-7.85-.71c1.7-.7,3.12-2.22,5.31-1.15a2.21,2.21,0,0,0,2.94-.89c.14-.25.54-.35.9-.56l.13,1.24,4.05-2.65.34.35-3.07,1.91.86,1c1-.76,2-1.45,2.83-2.29.67-.65,1-1.65,1.78-2.19a3.73,3.73,0,0,1,2.09-.28A23.08,23.08,0,0,1,230,334.2Zm-4,.57,0-.73c-2.42.14-4.92-1-7.65.73Z"/><path d="M199.18,448.05c-.28-4.32,2.72-6.87,4.61-10.08l-2.24,1.31L210,431l-.32-.3L204,432.84l-.15-.28,10-5.52.25.25c-2.44,3.45-4.86,6.91-7.32,10.34S201.71,444.58,199.18,448.05Z"/><path d="M161.17,351.84l.33,4.27h.41V349l1.35.7c-.5-2-.93-3.81-1.37-5.59-.32-1.26-1.14-2.27-1.34-3.68-.17-1.15-1.76-2.09-2.57-3.43l4.82,2.8-.15.33h-1c.29,2,3.22,2.59,2.75,5l-.78-.25c.06,2.54,2,4.78.51,7.61-1.13,2.21-1.35,4.89-2,7.36l-.57-.13L162,357l-.38-.15-1.3,3.38-.66-.7-1.24,2-.32-.17c.32-1.33.21-3.16,1.06-3.88C161,355.81,160.12,353.71,161.17,351.84Z"/><path d="M195.22,368.82l-6-1.38-.27.4,5.91,4.74-.12.21-2-.77-.2.24,2.92,2.64c-6.25-4-11.67-8.74-15.14-15.43a38.18,38.18,0,0,0,15.12,8.82Z"/><path d="M182.69,293.64l1.54-2.61-.22-.16-4.94,5.18c.2-1.69,4-6.15,5.88-7.07l.16,1.1,3.14-1.88.32.3-1.14,2.19.35.2c.66-.58,1.29-1.19,2-1.72s1.44-1,2.46-1.69c-.17.76-.27,1.18-.39,1.71.73-.47,1.35-.93,2-1.27.41-.21,1.06-1,1.28.21a18.35,18.35,0,0,1,2.17-.49,8.62,8.62,0,0,1,1.75.15c-.43.39-.8.95-1.31,1.16a30.77,30.77,0,0,1-3.29,1l1.25,1.82-4.78,1.86,3.43-3.32-.39-.67c-1.87.63-3.83,1.67-5.58,1.77C186,291.52,184.77,293.15,182.69,293.64Z"/><path d="M209.33,478.6l5.6-.66-.05-.45h-3.46l0-.23,5.48-1.36-1.18-.7,8.76-2.76.2.43-4.85,2.19c2.93.6,5.28-.84,7.68-2.1l.14.38a42.61,42.61,0,0,1-6,3.22c-3.37,1.19-6.88,2-10.36,2.88a5.26,5.26,0,0,1-2-.33Z"/><path d="M195.13,366A36.15,36.15,0,0,1,180,353.74c3.91,4.34,9.11,6.45,14.43,8.63l-1.69.2Z"/><path d="M268.14,464c-1.62.7-3.2,1.52-4.87,2.05-1.85.58-3.78.9-5.68,1.33l-.16-.58C260.28,465.49,263,464,266,463a21.11,21.11,0,0,0,6.82-4.3c1.31-1.09,2.63-2.16,3.95-3.25l.37.35a11.74,11.74,0,0,1-1.32,1.63c-2.55,2.21-5.14,4.38-7.71,6.56Z"/><path d="M283.91,338.35l-11,3.21-.13-.46,2.8-.91-.09-.48c-6.59.28-12.86,3.44-20,2.43,2.21-.22,4-.28,5.83-.6s3.61-1.07,5.45-1.36a34.21,34.21,0,0,1,8.14-.79c3,.26,5.74-.52,8.56-1.11.15,0,.32.06.49.1Z"/><path d="M270.65,359.92c-5.7.57-11.27-.45-16.82-1.64l0-.45,16.83,1.46Z"/><path d="M234.8,457.56c-.75,2.92-6.3,5.49-9.72,4.6Z"/><path d="M263.8,461.5l10.06-6.68C272.51,458.14,269.07,460.55,263.8,461.5Z"/><path d="M220.82,352.38l12.4-9.9c-3.27,4.35-7.74,7.22-12.09,10.23Z"/><path d="M192.29,358.1c-2.84-.26-8.58-6.41-8.46-9.13Z"/><path d="M222.14,466.53,232.48,462C231.37,464.08,226.51,466.24,222.14,466.53Z"/><path d="M148.06,318.5l5.9,3.9C152,323.6,148.87,321.7,148.06,318.5Z"/><path d="M203.39,288c-1.71,2.74-4.37,2.42-6.35,3.47-.2.11-.62-.21-.93-.33.17-.34.27-.89.53-1C198.74,289.41,200.88,288.76,203.39,288Z"/><path d="M221.39,471.78l8.59-4.24C229.91,469.54,225.28,471.84,221.39,471.78Z"/><path d="M196.85,447.3l-2.73,1.37,1.63-2.28-.14-.13L193.13,448l4.8-5,.42.36Z"/><path d="M268,319c-4.58.24-8.67-.07-12.84-2.11Z"/><path d="M92.29,326.91a3.48,3.48,0,0,1-5-.05,1,1,0,0,1-.26-.81.86.86,0,0,1,.76-.39C89.27,326,90.76,326.48,92.29,326.91Z"/><path d="M187.93,335.07l6.1,5.58C191.08,339.71,188.59,337.55,187.93,335.07Z"/><path d="M273.24,476c-2.32,2.31-5.33,2.86-8.48,3.05Z"/><path d="M267.4,484.78c-2.69.81-5.27,2.15-8.2,1.75l-.11-.45c1.71-.36,3.42-.78,5.14-1.07a29.37,29.37,0,0,1,3.13-.21Z"/><path d="M254.71,341.32a11.45,11.45,0,0,1-8.9,0Z"/><path d="M210.86,424.12h-8.58v-.27h8.65Z"/><path d="M271,480.92,264.18,483l-.18-.52,6.69-2.36Z"/><path d="M263.76,475.24l5-2.25.31.65-4.94,2.52Z"/><path d="M269,356.54H258.6v-.32H269Z"/><path d="M210.83,455.89l3.8-4.44.58.47-3.61,4.56Z"/><path d="M257.89,291.65l-9.57.59A17,17,0,0,1,257.89,291.65Z"/><path d="M250.79,309.43l6.37-1.71.21.83L250.93,310Z"/><path d="M234.43,431.17l-1.75-.23,0,.41-3.77-2.64.14-.28,5.51,2.46Z"/><path d="M250.65,289.74,244.13,291c1.85-2.23,4.37-1,6.42-1.67Z"/><path d="M272,348.75c-3.48,1.48-7,.54-10.34.72Z"/><path d="M261,350.64h-7.55v-.31H261Z"/><path d="M210.08,426l-7.28,1.32-.09-.46,7.28-1.34Z"/><path d="M262.16,487.63c-1.85,1.47-4,1.12-6.1,1Z"/><path d="M162.84,369.6,159,371.83l-.43-.76,3.95-2Z"/><path d="M248.43,293.93l6.27-.37,0,.26-6.25.75Z"/><path d="M244.8,282.81l-4.93,1-.12-.5c1.53-.87,3.34-.59,5-1.06Z"/><path d="M160.89,371.85l3.78-1.6C163.73,372,162.52,372.39,160.89,371.85Z"/><path d="M210.12,493.44l-6.18.37,0-.35,6.18-.64Z"/><path d="M217.48,448.29l3.41-2,.26.39-4,3-.21-.18c.2-.41.39-.81.59-1.21Z"/><path d="M267.27,476l5.17-2,.19.5-5.17,2Z"/><path d="M205.81,433.47l-4.17,3.43-.31-.39,4.27-3.39Z"/><path d="M242.67,287.64l4.4-.55.08.54-4.4.61Z"/><path d="M250.84,299l-3.39.63-.14-.6,3.31-.94Z"/><path d="M247.85,302l3.59-.81.13.51-3.59.89Z"/><path d="M183.48,384.06c-1.74,1.08-3.26,1.22-4.17.34Z"/><path d="M160.88,314.31l1.44,3.35-.4.21-1.66-3.35Z"/><path d="M133.19,462.86a38.93,38.93,0,0,0,5.36-3.4c1.41-1.25,2.74-2.83,2.44-5.1l.35,1.25c.67-.57,1.47-.94,1.75-1.56,1.09-2.33,3.55-3.31,5-5.25A9.46,9.46,0,0,0,149,447c.79-1.71,2.72-2.22,3.81-3.62.54-.69,1.18-1.3,1.93-2.1l-4.8,1.61-.21-.51a21.38,21.38,0,0,1,3.22-1.51c2.26-.62,3.77-1.76,3.87-4.29a4.25,4.25,0,0,1,.53-1.21c.09.86.15,1.5.25,2.49l1.87-2.05-.66-1.55c1.56-.8,3-1.26,4.06-2.2s1.41-2.27,2.09-3.43l.4.2-.44,2.15,5-3.46c1-.67,1.86-1.43,2.86-2a1.88,1.88,0,0,1,1.71,0c-4.15,3.4-8.38,6.72-12.44,10.23-2.12,1.84-3.95,4-5.91,6q-5.52,5.7-11,11.4c-2,2-3.92,4.05-5.81,6.14A9.63,9.63,0,0,1,133.19,462.86Z"/><path d="M176.79,434.25c-5.69,8.21-12.41,15.28-21.49,19.75-.74-2.57,1.29-3.55,2.68-4.82,4.19-3.84,8.44-7.63,12.73-11.51l-.89,1.73Zm-12.5,12.31-.53-.56-3.44,4.09Z"/><path d="M165.48,437.58l5.21-2.9.31.59L165.72,438Z"/><path d="M125.73,495.26c-4.27-.31-8.6-2.56-9.45-4.92Z"/><path d="M139.11,474.39c-.13,1.64.93,2.18,4.51,2.26-.11.16-.16.32-.28.39-.42.26-.86.49-1.38.77l.52,1.25a15.15,15.15,0,0,1-1.55-.6,20,20,0,0,1-1.94-1.17c-.5-.35-1.35-.8-1.33-1.16a6,6,0,0,1,1-2Z"/><path d="M296,314.43v-3.85l.38,0,.56,3.18.7-1.43.53,2.55Z"/><path d="M298.75,314.37l.55,1.53.61-.94.33.07c-.05,1-.1,2.08-.18,3.59C299.27,317.09,297.8,316.3,298.75,314.37Z"/><path d="M106.94,389.14q.34-4.06.7-8.11l.65.05-1,8.12Z"/><path d="M100.66,336.34l-.19,2.92-.45,0v-2.93Z"/><path d="M309.06,371.06l6.06-2.13.2.54-6,2.2Z"/></svg>