<?xml version="1.0" encoding="utf-8"?>
<!-- Generator: Adobe Illustrator 22.0.1, SVG Export Plug-In . SVG Version: 6.00 Build 0)  -->
<svg version="1.1" id="Layer_1" xmlns="http://www.w3.org/2000/svg" xmlns:xlink="http://www.w3.org/1999/xlink" x="0px" y="0px"
	 viewBox="0 0 750 79" style="enable-background:new 0 0 750 79;" xml:space="preserve">
<style type="text/css">
	.st0{fill:#F53A5D;}
</style>
<title>sangre</title>
<path class="st0" d="M750,0v34c-1.8,1.4-3.9,2.4-6.1,3.1c-12.8,4.1-20.9-7.3-33.9-9.6c-30.8-5.4-44.8,47.6-81.7,49.6
	c-28.2,1.5-40.3-28.2-64.3-20C549,62.3,543,77.6,530,75.4c-9-1.5-8.8-9.4-18.3-12.2c-17.5-5.2-29.5,18.3-45.2,13.9
	c-12-3.4-9-18.3-27-32.2c-3.2-2.5-17.3-13.4-33-12.2C383.7,34.5,383,59.6,357,71.9c-34.5,16.4-80.5-5.1-84.3-7
	c-23.2-11.2-40.1-29.5-53.9-22.6c-6.4,3.2-9.4,10.3-17.4,10.4c-7.3,0.1-8.9-5.8-15.6-7.8c-17.5-5.3-32.2,27-51.3,23.5
	c-11-2-10.5-13.6-24.3-17.4c-8.9-2.4-16.2,0.4-33.9,7.8c-44.1,18.5-46.9,20.8-53,20C19.8,78.4,10.4,76.3,0,60V0H750z"/>
</svg>
