<?xml version="1.0" encoding="utf-8"?>
<!-- Generator: Adobe Illustrator 22.0.1, SVG Export Plug-In . SVG Version: 6.00 Build 0)  -->
<svg version="1.1" id="Layer_1" xmlns="http://www.w3.org/2000/svg" xmlns:xlink="http://www.w3.org/1999/xlink" x="0px" y="0px"
	 viewBox="0 0 292.7 292.7" style="enable-background:new 0 0 292.7 292.7;" xml:space="preserve">
<style type="text/css">
	.st0{clip-path:url(#SVGID_2_);}
	.st1{fill:#FF0000;}
</style>
<g>
	<defs>
		<circle id="SVGID_1_" cx="146.3" cy="146.3" r="146.3"/>
	</defs>
	<clipPath id="SVGID_2_">
		<use xlink:href="#SVGID_1_"  style="overflow:visible;"/>
	</clipPath>
	<g class="st0">
		<circle class="st1" cx="144.8" cy="146.3" r="151.7"/>
		<g id="_x39_3L7lX_3_">
			<g>
				<g>
					<path d="M61.2,187c2.2,1.5,4.2,2.8,6.1,4.1c1.5,1.1,2.8,2.3,4.3,3.4c2.4,1.8,4.7,3.9,7.6,5.1c1.3,0.5,2.4,1.3,3.6,1.9
						c0.8,0.4,1.7,0.6,2.6,0.9c1.6,0.6,3.1,1.2,4.7,1.8c1.9,0.7,3.7,1.5,5.7,2.2c2.4,0.8,4.9,1.6,7.3,2.3c3,0.8,6,1.6,9,2.3
						c4.1,0.9,8.2,1.9,12.3,2.6c2.2,0.4,4.4,0.3,6.7,0.3c2.6,0.1,5.1,0.1,7.7,0.1c1.2,0,2.4-0.3,3.6-0.4c2.5-0.1,5.1-0.1,7.6-0.2
						c0.7,0,1.3-0.3,2-0.5c0.1,0,0.2,0,0.4,0c2.1,0.1,4.1,0,6.1-0.6c0.8-0.3,1.7-0.2,2.6-0.3c2.1-0.1,4.1,0,6.2-0.2
						c2.3-0.2,4.7-0.5,7-0.9c2-0.3,3.9-0.8,5.8-1.3c3.3-0.8,6.7-1.5,9.9-2.5c4.1-1.3,8.2-2.5,12-4.6c2.2-1.2,4.6-1.9,6.9-2.9
						c1.8-0.8,3.7-1.6,5.4-2.6c3.3-1.8,6.5-3.7,9.8-5.6c0.8-0.4,1.4-1,2.1-1.6c2-1.7,4.1-3.5,6.1-5.2c0.6-0.5,1.3-1,1.9-1.5
						c-0.1-0.2-0.1-0.3-0.2-0.3c-2.1-0.8-2.6-2.7-3.1-4.5c-0.1-0.2,0-0.5,0-0.8c0.6-2.9,2.6-4.9,4.9-6.5c1-0.7,2.3-1.3,3.6-1.4
						c2.6-0.2,4.8,1,6.8,2.5c1.3,0.9,2.5,1.9,3.7,3c0.6,0.6,1.1,1.4,1.5,2.2c1,1.6,1.9,3.3,2.8,4.9c0.7,1.2,1.6,2.3,1.6,3.7
						c0,0.3,0.1,0.6,0.2,0.9c0.8,2.2,0.6,4.4,0,6.6c-0.1,0.4-0.3,0.9-0.6,1.2c-0.6,0.7-1.3,1.3-1.9,1.9c-0.1,0.1-0.3,0.2-0.4,0.3
						c-2.5,0.3-4.9,1.4-7.4,0.2c-1.1-0.5-2-1.3-2.9-2c-0.8-0.7-1.5-1.6-2.3-2.4c-0.4-0.4-0.6-0.3-1,0.1c-2.5,2.3-5.1,4.6-7.6,7
						c-3.2,3-6.3,6-9.4,9.1c-1.4,1.4-2.4,3.1-3.7,4.5c-1.2,1.4-2.5,2.6-3.7,4c-1,1.1-2,2.2-2.9,3.4c-2.1,2.7-4.5,5-7,7.2
						c-2.6,2.3-5.2,4.6-7.9,6.8c-1.8,1.5-3.8,2.7-5.7,4c-0.8,0.5-1.5,1.1-2.4,1.6c-2.4,1.3-4.7,2.7-7.1,3.8c-2,0.9-4.2,1.5-6.3,2.2
						c-0.5,0.2-1,0.4-1.5,0.5c-3.1,0.6-6.2,1.2-9.4,1.7c-2.3,0.3-4.6,0.5-6.9,0.6c-1.9,0-3.8,0-5.6,0.6c-0.6,0.2-1.4,0-2-0.1
						c-3.3-0.5-6.5-0.2-9.8-0.1c-1.8,0-3.7-0.3-5.5-0.5c-3.9-0.6-7.5-1.8-11.2-3c-3.6-1.2-7.2-2.5-10.8-3.9
						c-3.7-1.4-7.1-3.5-10.6-5.3c-3.4-1.7-6.6-3.6-9.9-5.4c-0.3-0.2-0.7-0.1-0.9-0.2c-0.6-0.5-1.1-1.1-1.7-1.6c-1.5-1.3-3-2.7-4.6-4
						c-1.6-1.3-3.2-2.7-4.9-3.9c-1.9-1.4-3.7-3-5.2-4.8c-1.6-1.9-3.6-3.6-5.4-5.4c-1.5-1.5-3.1-3-4.6-4.5c-1.5-1.5-3.1-2.9-4.7-4.3
						c-2-1.8-4-3.6-5.8-5.6c-0.9-1-1.4-2.2-2.3-3.6c-0.4,0.4-0.9,0.7-1.2,1.2c-1.4,2.1-3.2,3.9-5.4,4.8c-1.7,0.6-3.7,0.2-5.6,0.2
						c-1.9,0-3.3-1.1-4.6-2.2c-0.7-0.6-1.2-1.6-1.5-2.5c-0.7-2.3-0.7-4.6,0.1-6.9c0.1-0.3,0-0.8,0-1.2c0-0.7-0.1-1.2,0.3-1.9
						c2-3.7,4.6-6.7,8-9.2c1.3-1,2.6-2.1,4-3.1c0.1-0.1,0.2-0.1,0.4-0.1c0.8-0.1,1.5-0.3,2-1.1c0.5-0.8,1.4-0.5,2.1-0.7
						c2.1-0.8,4.3-1.3,6.5-1.1c2.1,0.2,4.1,0.9,5.4,2.7c0.9,1.3,2,2.5,2.6,3.9c0.4,1,0.3,2.3,0.2,3.4c-0.1,0.9-0.4,1.9-0.8,2.7
						c-0.6,1.1-1.3,2.2-2,3.2C62.4,185.8,61.9,186.3,61.2,187z"/>
					<path d="M192.8,73.1c0.8-1.7,2.5-2.4,4-3.3c0.5-0.3,1-0.5,1.4-0.9c2.7-2.9,5.9-5.2,9.3-7.3c2.5-1.6,5-3.1,7.6-4.6
						c1.6-0.9,3.2-1.8,4.8-2.6c1.2-0.6,2.5-1,3.8-1.6c0.3-0.1,0.5-0.4,0.8-0.5c0.2-0.1,0.5-0.3,0.7-0.3c1.2,0.3,2.3-0.1,3.4-0.3
						c2-0.4,4,0.1,5.9,0.5c0.5,0.1,1.1-0.1,1.7-0.1c0.2,0,0.6-0.1,0.7,0c0.7,0.9,1.4,1.8,1.9,2.8c1.1,1.8,0.2,3.4-0.9,4.9
						c-1.3,1.7-2.5,3.4-3.8,5.1c-0.4,0.5-1,0.9-1.5,1.3c-2.3,1.6-4.6,3.4-7.1,4.8c-2.3,1.3-3.8,3.3-5.9,4.8c-1,0.8-1.6,2.2-2.5,3.2
						c-2.5,2.6-5,5.3-7.7,7.7c-2.2,2-4.7,3.7-7,5.6c-2,1.6-4.4,2.5-6.9,2.8c-1.9,0.2-3.9-0.1-5.5-1.3c-1-0.8-1.9-1.8-2.2-3.3
						c-0.2-1-0.9-1.9-1.2-2.8c-0.7-2.6-0.1-5,1.2-7.2c0.8-1.5,1.9-2.8,2.8-4.2c0.5-0.8,0.9-1.7,1.5-2.5
						C192.1,73.4,192.5,73.3,192.8,73.1z"/>
					<path d="M63.7,57c0.3,0,0.5,0.1,1,0.2c-0.9-2.2-1.8-4.3-2.7-6.5c0.5-0.7,1-1.5,1.5-2.4c0.7-1.2,1.8-1.6,3.1-1.6c1,0,2-0.1,3,0
						c0.8,0.1,1.6,0.5,2.4,0.7c2.4,0.4,4.3,1.7,6.2,3c1.4,1,2.9,1.9,4.3,3c1.5,1.1,2.9,2.4,4.4,3.6c0.9,0.8,1.8,1.7,2.8,2.5
						c1.2,1.1,2.6,2,3.6,3.2c1.8,2.1,4.2,3.5,6,5.7c1.2,1.5,2.4,2.9,3.4,4.5c0.4,0.6,1.2,1,1.6,1.6c1.2,1.9,2.5,3.7,3.3,5.8
						c0.7,1.7,0.8,3.7,1.1,5.5c0.2,1,0.1,2.1,0.3,3.1c0.5,2-0.5,3.1-2,4c-1.5,0.9-3,1.6-4.6,2.3c-0.4,0.2-1,0-1.6,0
						c-2.5,0-4.7-0.8-6.9-1.9c-3-1.4-4.9-3.8-7-6.1c-2.3-2.5-4.4-5.1-6.5-7.8c-1.4-1.8-2.7-3.7-4.1-5.6c-0.8-1-1.7-2-2.4-3.1
						c-1-1.6-1.9-3.2-2.7-4.9c-0.7-1.2-1.2-2.5-1.9-3.7c-0.4-0.7-1-1.2-1.5-1.7c-0.5-0.5-0.9-0.9-1.4-1.5c-0.4-0.5-1.4-0.6-2.1-1
						c-0.3-0.1-0.6-0.3-0.8-0.4C63.6,57.3,63.7,57.1,63.7,57z"/>
					<path d="M96.6,113.3c0.3,0,0.6-0.1,0.7,0c0.5,0.7,1,1.5,1.4,2.3c0.4,0.7,0.7,1.4,1.2,2c0.8,1.1,1.7,2.1,2.6,3.1
						c0,0,0.1,0.1,0.1,0.2c0.4,1.5,0.8,3.1,1.1,4.6c0.1,0.3,0.2,0.5,0.3,0.8c0.1,0.6,0.3,1.2,0.3,1.8c0,0.7-0.4,1.5,0.3,2.1
						c0.1,0.1,0.1,0.4,0.1,0.6c-0.2,1.1,0,2.2-0.7,3.1c-0.9,1.4-1.6,2.9-2.6,4.1c-0.7,0.8-1.9,1.3-2.9,1.8c-2.7,1.6-5.6,1.6-8.6,0.9
						c-1.4-0.3-2.7-0.7-4.1-1.1c-3-0.8-4.8-3-6.1-5.6c-1.3-2.6-1.7-5.5-1.5-8.4c0.1-1.6,0.2-3.2,0.5-4.8c0.2-1.3,0.7-2.5,1.3-3.7
						c1-2.1,2.1-4.2,3.4-6.2c0.8-1.3,1.8-2.4,2.8-3.5c0.9-1,1.9-1.8,2.9-2.7c0.4-0.4,0.9-0.7,1.4-1c1.5-0.7,2.9-0.4,4.3,0.2
						c0.7,0.3,0.9,1.4,0.8,2.1c-0.2,1-0.2,1.9-0.3,2.9c0,0.1-0.1,0.3-0.1,0.4c-0.2,0.4-0.2,0.8,0.2,1.2c0.4,0.4,1.1,1.3,1,1.5
						C95.7,112.7,96.5,113,96.6,113.3z"/>
					<path d="M203.1,99.4c0.9,0.6,1.9,1.1,2.7,1.8c0.5,0.4,0.9,1,0.9,1.6c0.2,1.2,0.2,2.4,0.1,3.5c-0.2,1.8,0.4,3.1,1.8,4.4
						c1.7,1.5,3.8,2.7,4.7,5c0,0.1,0.1,0.2,0.2,0.2c2.4,2.6,2.8,5.7,2.6,9.1c-0.1,1.9-0.3,3.7-1.2,5.4c-0.5,0.9-1.2,1.6-1.8,2.5
						c-0.1,0.1-0.3,0.3-0.3,0.4c0.1,1.5-0.9,2.2-1.9,2.9c-2.3,1.7-4.9,2.7-7.7,3c-0.9,0.1-1.8,0.1-2.7,0c-0.3,0-0.7-0.1-0.9-0.3
						c-1.1-0.9-2.3-1.8-3.3-2.8c-2.4-2.4-3.5-5.4-3.4-8.8c0.1-2.2,0.1-4.4,0.4-6.6c0.5-3.2,1-6.4,1.8-9.5c0.3-1.3,1.2-2.4,1.8-3.6
						c0.5-0.9,1.3-1.7,1.1-2.8c0-0.1,0-0.2,0.1-0.3c0.7-1,1.3-2.2,2.2-3.1C201,100.7,202.1,100.1,203.1,99.4z"/>
					<path d="M133.9,174.1c0-1.7,0.4-3.4,1.3-4.9c0.5-0.9,0.7-1.9,1.2-2.7c1.5-2.4,2.7-5.1,5-6.8c2.2-1.7,4.5-3.5,6.7-5.2
						c1.9-1.4,3.9-0.9,5.8-0.2c0.7,0.3,0.9,2,0.4,2.9c-0.6,1.1-1.1,2.1-1.7,3.2c-0.4,0.8-0.4,1.5,0.1,2.3c0.3,0.4,0.4,0.9,0.6,1.3
						c0.5,1.1,1.4,1.9,2.1,2.9c0.7,1,1.1,2.3,1.6,3.5c0.5,1.4,0.9,2.8,1.4,4.2c0.1,0.2,0,0.4,0,0.6c0.1,1.4-0.1,2.7,0,4.1
						c0.1,1.3-0.8,2.8-1.6,4.1c-1.5,2.6-4.2,3.8-6.8,5.1c-0.5,0.2-1,0.5-1.5,0.7c-1.7,0.8-3.5,0.3-5.3,0.4c-0.4,0-0.7-0.1-1.1-0.1
						c-2.2,0-3.6-1.4-5-2.9c-0.5-0.5-0.9-1.1-1.4-1.6c-1.7-2-2.7-4.1-2.4-6.8C133.7,176.7,133.8,175.4,133.9,174.1z"/>
				</g>
			</g>
		</g>
	</g>
</g>
</svg>
