<?xml version="1.0" encoding="utf-8"?>
<!-- Generator: Adobe Illustrator 22.0.1, SVG Export Plug-In . SVG Version: 6.00 Build 0)  -->
<svg version="1.1" id="Layer_1" xmlns="http://www.w3.org/2000/svg" xmlns:xlink="http://www.w3.org/1999/xlink" x="0px" y="0px"
	 viewBox="0 0 750 76.7" style="enable-background:new 0 0 750 76.7;" xml:space="preserve">
<style type="text/css">
	.st0{fill:#FF0000;}
</style>
<path class="st0" d="M0,76.7V45c1.8-1.3,3.8-2.4,6.1-3.1c12.8-4.1,20.9,7.3,33.9,9.6c30.8,5.4,44.8-47.6,81.7-49.6
	c28.2-1.5,40.4,28.2,64.3,20C201,16.7,207,1.4,220,3.6c9,1.5,8.8,9.4,18.3,12.2c17.5,5.2,29.5-18.3,45.2-13.9c12,3.4,9,18.3,27,32.2
	c3.2,2.5,17.3,13.4,33,12.2C366.3,44.5,367,19.5,393,7.1c34.5-16.4,80.5,5.1,84.3,7c23.2,11.2,40.1,29.5,53.9,22.6
	c6.4-3.2,9.4-10.3,17.4-10.4c7.3-0.1,8.9,5.8,15.6,7.8c17.5,5.3,32.2-27,51.3-23.5c11,2,10.5,13.6,24.3,17.4
	c8.9,2.4,16.2-0.4,33.9-7.8c44.1-18.5,46.9-20.8,53-20c3.3,0.4,12.8,2.6,23.1,18.8v57.7H0z"/>
</svg>
