<?xml version="1.0" encoding="utf-8"?>
<!-- Generator: Adobe Illustrator 22.0.1, SVG Export Plug-In . SVG Version: 6.00 Build 0)  -->
<svg version="1.1" id="Layer_1" xmlns="http://www.w3.org/2000/svg" xmlns:xlink="http://www.w3.org/1999/xlink" x="0px" y="0px"
	 viewBox="0 0 750 55.1" style="enable-background:new 0 0 750 55.1;" xml:space="preserve">
<style type="text/css">
	.st0{fill:#F53A5D;}
</style>
<title>rashitos</title>
<path class="st0" d="M749.9,10.4l-0.1,44.6H-0.1v-8.6l33.2-27.3c0,0,6.5,20.4,6.6,20.4s38.7-11.2,38.7-11.2l19.1,11.2L159,17.8
	l11,22.6l89.5-21.2l-5.3,18.2l85.3-27.7l5.3,24.7l34.3-23.9l26,19.8l54.1-11.1l23.9,14.4l46.7-19.5l7,14.3L603.5,0v28.5l58.7-24
	c0,0,14.2,21.8,17,24S721.8,0,721.8,0l7.3,22.5L749.9,10.4z"/>
</svg>
