<svg id="Layer_1" data-name="Layer 1" xmlns="http://www.w3.org/2000/svg" viewBox="0 0 750 79.03"><defs><style>.cls-1{fill:red;}</style></defs><title>sangre</title><path class="cls-1" d="M750,0V34.05a21.46,21.46,0,0,1-6.07,3.11c-12.75,4.08-20.87-7.28-33.93-9.57-30.84-5.39-44.76,47.58-81.72,49.56-28.2,1.52-40.35-28.25-64.34-20C549,62.31,543,77.61,530,75.42c-9-1.53-8.82-9.36-18.26-12.18C494.26,58,482.23,81.58,466.56,77.15c-12-3.38-9-18.26-26.95-32.17-3.2-2.47-17.26-13.36-33.05-12.17C383.74,34.53,383,59.56,357,71.94c-34.49,16.45-80.53-5.12-84.34-7-23.18-11.2-40.07-29.47-53.91-22.61-6.37,3.17-9.38,10.32-17.39,10.44-7.31.11-8.94-5.8-15.65-7.83-17.46-5.28-32.18,27-51.3,23.48-11-2-10.53-13.6-24.34-17.39-8.91-2.44-16.2.41-33.91,7.82-44.07,18.45-46.89,20.84-53,20C19.79,78.44,10.37,76.33,0,60V0Z"/></svg>