<?xml version="1.0" encoding="utf-8"?>
<!-- Generator: Adobe Illustrator 22.0.1, SVG Export Plug-In . SVG Version: 6.00 Build 0)  -->
<svg version="1.1" id="Layer_1" xmlns="http://www.w3.org/2000/svg" xmlns:xlink="http://www.w3.org/1999/xlink" x="0px" y="0px"
	 viewBox="0 0 579 260.4" style="enable-background:new 0 0 579 260.4;" xml:space="preserve">
<style type="text/css">
	.st0{fill:#D70056;}
</style>
<g id="utnhRL">
	<path class="st0" d="M552,104.8c0-1.1,0.1-2.3,0-3.4c-0.8-8-1.6-16-2.5-24c-0.5-4.4,0.9-5.5,4.8-4.2c2.7,0.9,5.9,0.3,8.9,0.3
		c2.3,0,4.7,0,7,0.2c3,0.2,4.2,1.4,4.2,4.5c0.1,6.3,0.1,12.6,0.2,18.9c0.1,8.9,0.5,17.9,0.4,26.8c0,8.3-0.4,16.6-0.6,24.9
		c0,1.7-1,2.7-2.8,2.6c-3.7-0.2-7.4,0.8-10.5,2.8c-1.8,1.2-3,0.5-3.9-1.3c-2.6-5.3-6.4-9.7-10.8-13.8c-2.6-2.5-4.5-5.8-6.7-8.8
		c-0.4-0.6-0.6-1.4-1.1-1.9c-0.7-0.6-1.5-1.1-2.3-1.6c-0.4,0.7-0.7,1.5-0.9,2.4c-0.1,5,0,10.1,0,15.2c0,3.7-0.6,4.2-4.3,3.8
		c-4.4-0.5-8.7-1-13.1-1.5c-2-0.3-2.5-1.7-2.7-3.5c-0.5-5.8-1.2-11.5-1.5-17.3c-0.5-9.3-1-18.6-1.2-27.9c-0.1-6.8,0.2-13.5,0.5-20.3
		c0.2-1.4,1-2.6,2.2-3.4c3.3-1.6,6.8-3,10.3-4c0.9-0.3,3.1,0.5,3.3,1.3c1.7,5.5,5.6,9.6,8.7,14.2c4,5.9,8.1,11.7,12.1,17.6
		c0.4,0.5,0.9,1,1.4,1.5L552,104.8z"/>
	<path class="st0" d="M519.1,235c-0.2-1.8-0.5-3.6-0.6-5.4c-0.2-2.6,1.6-4.2,3.5-5.3c3-1.8,6.2-3.2,9.3-5c1.5-0.8,2.3-0.5,3,0.9
		c2.1,3.8,4.1,7.5,6.4,11.2c1.1,1.8,2.5,3.6,5,2.9c2.5-0.7,2.8-2.9,2.5-4.8c-0.3-1.9-1-3.8-2.2-5.3c-1.8-2-4.1-3.4-6.2-5.1
		c-4.4-3.6-8.9-7.1-13-10.9c-6.9-6.4-8-19.6-3.5-26.3c3.6-5.4,6.6-11.3,11.7-15.7c9.6-8.3,26.5-6.9,33,6.1
		c3.6,7.2,5.3,14.7,7.2,22.3c0.8,3.2-0.1,4.1-3.3,4.3c-2.2,0.1-4.3,0.3-6.5,0.5c-2.3,0.2-3.8-0.4-4.2-3c-0.6-4-2.9-7.2-5.7-9.9
		c-2.6-2.5-7-1.7-9.1,1.6c-2.7,4.2-2.4,8.7,1,12.5c1.8,1.9,3.9,3.5,5.7,5.4c4.8,5,9.9,9.8,14.1,15.2c6,7.9,3.5,24.9-6.8,30.6
		c-4.4,2.4-8.6,5.7-13.4,6.8c-14.7,3.3-27.1-5-28-20.7C519,236.8,519.1,235.9,519.1,235L519.1,235z"/>
	<path class="st0" d="M258.4,138.1c-1.2-11-2.3-22-3.5-33c-0.7-7.2-1.4-14.3-2.2-21.5c-0.1-1.2-0.6-2.3-0.7-3.4
		c0-0.7,0.2-1.4,0.6-1.9c0.1-0.2,1.1,0.3,1.6,0.5c2.6,0.9,5.2,2,7.9,2.8c6.3,1.8,12.6,3.7,19.4,3.3c2.7-0.2,3.6,1.4,3.2,4
		c-0.9,5.3-1.7,10.7-2.6,16c-0.4,2.1,0.3,3.2,2.4,3.8c2.1,0.6,3.3-0.3,3.6-2.1c0.7-3.3,1.1-6.7,1.6-10.1c0.1-1.1,0.4-2.1,0.8-3.1
		c1.9-4.6,3.8-5.4,8.6-4.6c3.8,0.6,7.7,1,11.5,1.2c2.4,0.2,3.4,1.2,3.3,3.6c-0.5,9.9-0.8,19.8-1.5,29.7c-0.7,9.9-2,19.7-3,29.6
		c-0.2,1.7-0.8,2.8-2.7,3.2c-3.1,0.6-6.2,1.3-9.2,2.1c-3.8,1-4.6,0.3-5-3.5c-0.9-8.5-1.9-17-2.9-25.5c-0.2-2-0.7-4-3.6-3.7
		c-2.9,0.3-4.4,1.6-4.3,4.5c0.2,3.8,0.8,7.6,1.2,11.3c0.3,2.9,0.7,5.7,1.1,8.6c0.5,3.8-0.2,4.5-3.9,4.8c-5.8,0.4-11.5,0.8-17.3,1.3
		c-2.5,0.3-3.9-0.8-4.1-3.1c-0.5-4.8-0.8-9.7-1.3-14.6L258.4,138.1z"/>
	<path class="st0" d="M391.2,239.5c-0.5,4.1-0.8,8.2-1.5,12.3c-0.4,1-1.3,1.7-2.4,1.9c-5.1-0.3-10.2-0.8-15.3-1.3
		c-2-0.2-3.1-1.4-2.7-3.5c1.9-12.4,3.7-24.7,5.7-37.1c1.1-6.7,2.3-13.3,3.5-20c0.5-3.1,1.1-6.2,2-9.2c0.3-1.1,1.7-2.1,2.8-2.5
		c2.1-0.9,4.3-1.2,6.5-1.9c1.7-0.6,2.4,0,3.1,1.6c2.7,5.8,5.5,11.5,8.4,17.2c0.3,0.6,1.1,1,1.7,1.5c0.5-0.6,1.3-1.1,1.4-1.8
		c1.3-5.3,2.6-10.6,3.5-16c0.7-4.3,1.1-4.9,5.3-5.1c2.2-0.1,4.5-0.3,6.7-0.6c1.6-0.2,2.3,0.3,2.6,1.9c2.2,10.4,4.6,20.8,6.9,31.1
		c1.4,6.4,2.6,12.7,3.9,19.1c1.5,7,3.1,13.9,4.6,20.9c0.7,3.2,0.3,3.7-2.9,4.5c-4.1,1.1-8.1,2.4-12.2,3.7c-2.2,0.7-3.4,0.1-3.9-2.2
		c-1.9-9.8-3.7-19.6-5.8-29.4c-0.4-1.9-1.5-3.7-2.3-5.5c-1.6,1.1-3.5,1.9-4.7,3.3c-1.5,1.8-2.4,4.2-3.6,6.3
		c-0.7,0.9-1.4,1.6-2.3,2.3c-0.7-0.8-1.4-1.7-1.9-2.7c-0.8-2-1.2-4.1-2-6.1c-0.2-0.6-1.2-1-1.8-1.4c-0.4,0.6-1.2,1.2-1.3,1.8
		c-0.6,3.3-1.1,6.7-1.5,10.1c-0.3,2.3-0.3,4.7-0.5,7L391.2,239.5z"/>
	<path class="st0" d="M389.9,149.7c-0.6,0.7-1.2,1.9-2,2.2c-3.2,1.1-6.4,2-9.7,2.7c-3.3,0.8-6.5-1.2-7.4-4.4
		c-1.1-3.4-2.2-6.8-3.3-10.3c-0.8-2.5-2.3-3.9-5-3.4c-4,0.7-7.9,1.5-11.8,2.6c-1,0.3-1.8,1.9-2.2,3.1c-1,3.3-1.6,6.7-2.7,9.9
		c-0.9,2.8-1.4,2.5-4.1,1.4c-2.6-0.9-5.3-1.5-8.1-1.7c-3.7-0.5-7.5-0.7-11.3-1.1c-0.9-0.1-1.8-0.4-2.5-0.9c-0.6-0.6-1.1-1.3-1.4-2.1
		c0.7-0.3,1.3-0.7,1.9-1.2c0.9-0.8,2.3-1.5,2.6-2.5c1.4-4.3,2.4-8.7,3.6-13c1.5-5.4,3.1-10.7,4.6-16.1c2.7-9.3,5.3-18.5,7.9-27.9
		c0.3-1.7,1.7-2.9,3.3-2.9c7.6-0.8,15-1.6,22.6-2.3c4.6-0.4,5,0.1,5.9,4.5c3.1,16.7,7.1,33.1,13,49.1c1.5,4,3.5,7.9,5.2,11.8
		C389.3,147.8,389.5,148.5,389.9,149.7z M355.5,115.6c2.3-1.2,5.2,0.2,5.5-3c0.2-2.4-2.1-5.9-3.6-5.9s-4.1,4.1-3.8,6.3
		C353.7,114,354.8,114.8,355.5,115.6z"/>
	<path class="st0" d="M468.6,229.8c0.5,3.7,1,8.2,1.6,12.6c0.3,2.3-0.4,3.2-2.8,3l-14.8-1.4c-3.2-0.3-5-2.6-4.5-5.8
		c0.5-2.6,0.9-5.1,1.6-7.7c0.3-1,0.7-2.3,1.5-2.8c2.2-1.2,2.7-3.2,3.2-5.3c3.5-13.2,7-26.3,10.6-39.5c0.1-0.4,0.3-0.8,0.4-1.3
		c1.2-5.3,1.2-5.2,6.7-6.1c4.9-0.8,9.8-1.7,14.7-2.4c1,0,1.9,0.5,2.4,1.3c2.5,6.1,5,12.2,7,18.4c2.6,7.8,5.1,15.6,7.1,23.5
		c2,8.2,3.2,16.6,4.9,24.9c0.6,2.7,0,4.2-2.9,5c-4.9,1.2-9.7,2.8-14.5,4.1c-1.8,0.5-2.3-0.8-2.7-2.2c-2.2-7.2-4.3-14.5-6.7-21.7
		c-1-3.1-3-4.1-5.8-3.6C469.6,224.1,468.5,225.1,468.6,229.8z M476.3,205.5l0.2,0.1c0,0.5,0,1.1,0,1.6c0,1.5,0.2,2.8,2.1,2.7
		c1.9-0.1,4.3-0.2,4.1-2.4c-0.2-2.9-1.3-5.7-2.2-8.5c-0.4-0.6-1-0.9-1.7-0.9c-0.6,0.3-1.1,0.8-1.3,1.5
		C477,201.4,476.7,203.5,476.3,205.5L476.3,205.5z"/>
	<path class="st0" d="M166.4,123.4c-0.5,1.8-1,3.6-1.7,5.4c-0.7,1.8-1.7,3.4-2.8,5c-0.7,0.7-1.6,0.9-2.5,0.7c-0.7-0.3-1-1.5-1.3-2.4
		c-1.7-4.3-3.2-8.7-5-13c-0.3-0.7-1.3-1.1-1.9-1.6c-0.5,0.7-0.9,1.5-1.2,2.3c-1.6,7.7-3.2,15.4-4.7,23c-0.5,2.4-3.9,5.1-6.4,4.7
		c-2.1-0.3-4.1-0.8-6-1.6c-1.9-0.5-2.9-2.5-2.4-4.4c0-0.1,0-0.1,0.1-0.2c1.7-7.1,3.6-14.1,5-21.3c2.4-13,4.4-26.1,6.5-39.2
		c0-1.3,1.2-2.4,2.5-2.4c0.1,0,0.1,0,0.2,0c2.9,0,5.7-0.1,8.6-0.4c2.1-0.3,2.9,0.5,3.5,2.4c1.6,5.4,3.3,10.8,5.2,16.1
		c0.3,0.8,1.1,1.5,1.7,2.2c0.5-0.8,1.3-1.5,1.4-2.3c0.9-4.4,1.7-8.8,2.5-13.3c0.3-2.1,1.2-3,3.4-2.9c1.9,0.1,3.7-0.4,5.6-0.4
		c0.9,0.2,1.6,0.6,2.3,1.1c0.2,0.2,0.3,0.6,0.4,1c1.5,6.2,3,12.4,4.6,18.6c2.4,9.8,4.8,19.6,7.4,29.4c1,3.3,2.2,6.5,3.6,9.6
		c1.1,2.9-0.3,4.9-3.4,4.4c-5.3-0.8-10.1,1.5-15,2.7c-3.6,0.9-4.3,0.6-4.9-3c-1-5.8-1.9-11.6-2.9-17.3c-0.2-1-0.6-2-1-2.9
		L166.4,123.4z"/>
	<path class="st0" d="M501.9,108.8c0.1,11.1-3.2,20.5-9.8,28.6c-4,5.1-10,8.1-16.4,8.2c-3.2,0.1-6.9-1.6-9.7-3.5
		c-3.7-2.4-7.9-4.7-9.6-9.2c-2-5.1-4.5-10.2-5.4-15.5c-0.6-4.1,0.6-8.6,1.6-12.7c0.9-3.6,2.7-7,4.2-10.5c2.6-6,6.6-10.5,13-12.5
		c1.6-0.5,3.1-1.3,4.4-2.4c7.1-6.7,11.6-4,16.9,1.3C497.4,86.9,502.9,100.2,501.9,108.8z"/>
	<path class="st0" d="M362.9,210.4c-0.9,6.6-1.2,12.8-2.7,18.5c-3,11.1-13.2,16.9-23.3,17.3c-2.9,0.1-5.9-1.3-8.6-2.7
		c-3.8-1.9-7.3-4.2-10.9-6.4c-5.3-3.2-7.1-8.7-9.1-14c-1.2-2.9-2-6-2.4-9.1c-1-7.5-1.8-15-2.6-22.6c-0.3-2.9,1.7-4.8,5.1-5.3
		c2.7-0.4,5.5-1,8.2-1.4c2.1-0.4,4.3-0.5,6.4-0.5c2.3,0.1,3.4,2,3,4.2c-0.5,3.2-1.3,6.4-1.1,9.5c0.6,7.6,0.5,15.3,3.6,22.6
		c1.3,3.1,3.7,4.8,6.6,5.9c0.9,0.3,1.9,0.1,2.7-0.5c1.2-1.1,2.2-2.6,2.8-4.1c1.6-5.2,2.8-10.5,1.9-16.2c-1.1-7.1-1.7-14.3-2.5-21.5
		c-0.2-2.2,0.6-3.8,3-4.1c4.1-0.4,8.3-0.6,12.4-0.8c2-0.1,2.4,1.3,2.7,2.8C359.8,191.6,361.4,201.2,362.9,210.4z M334.2,241.5
		l-0.2,1.4l3.3,0.3l0.2-1.2L334.2,241.5z"/>
	<path class="st0" d="M243.8,110.7c0,7.4-0.2,13.9-3.4,19.7c-2.6,4.6-5.6,9.2-9.4,12.6c-4.3,3.9-10,3.4-15.3,1.1
		c-4.2-1.8-6.6-5.5-9.1-9c-6-8-8.2-17.4-7.3-27.1c0.5-6.3,2.3-12.4,5.2-18c2.3-4.2,6.8-7.4,11.1-9.9c3.6-2.1,7.8-0.1,11.3,1.7
		c3,1.4,5.8,3.3,8.2,5.7c2.2,2.4,4,5.1,5.4,8C243.1,100.5,244.4,105.9,243.8,110.7z M219,83.4l-0.1-1.2l-3.6,0.7l0.2,1L219,83.4z"/>
	<path class="st0" d="M219.8,241.7c0,6.3,0,6.2-5.8,6.3c-2.5,0-5,0.4-7.6,0.4c-2.9,0-3.2-1-2.6-3.7c0.5-2.9,0.7-5.9,0.6-8.8
		c0.1-7.2,0.1-14.4,0-21.6c-0.1-10-0.4-20-0.6-30c0-2.2-1.7-4.7,0.8-6.6c0.8-0.8,1.7-1.4,2.7-1.7c7.8-1.5,15.7-2.4,23.5-0.4
		c3.7,0.8,7.3,2.2,10.6,4c8.8,5,10.9,16.6,4.8,25c-4.9,6.8-11.5,10.1-20.1,9.3c-1.8-0.2-3.4,0.1-3.7,2.2
		C221.5,224.8,220.6,233.5,219.8,241.7z"/>
	<path class="st0" d="M401.6,134.6c-0.7-8.1-1.4-16.1-2.1-24.2c-0.1-1.1-0.2-2.2-0.1-3.2c0.8-6.4-0.6-12.5-2-18.7
		c-0.9-4.1,0-5.1,4-5.2c4.3,0,8.9-1.1,12.8,0.1c12.4,3.8,23.9,12.1,24.8,27.9c0.5,8.6-1.8,17.2-6.6,24.3c-4.2,6.4-11,10.4-18.3,12.9
		c-3.3,1.1-7,1.2-10.6,1.5c-2.1,0.2-2.4-1.5-2.5-3.1c-0.1-4.1,0-8.1,0-12.2L401.6,134.6z"/>
	<path class="st0" d="M29.8,85.1c3.8-0.3,7.5-0.8,11.1-0.9c1.1,0,2.7,0.8,3.1,1.7c4.4,10.3,8.9,20.7,13,31.2
		c2.7,6.9,5,13.9,7.5,20.9c0.6,1.7,0.1,2.8-1.7,3.3c-3.9,1-7.8,2-11.8,2.9c-3,0.7-3.9,0.1-4.3-3c-0.3-2.9-0.5-5.7-0.8-8.6
		c-0.3-2.5-1.6-3.6-4.1-3.6c-2.9,0-5.8-0.2-8.6-0.4c-2.6-0.2-4.7,0.7-5.8,3c-1.3,2.6-2.4,5.2-3.3,7.9c-0.9,3-1.6,3.7-4.8,3.2
		c-3-0.5-6-1.3-9-1.8c-1-0.2-2.2,0.2-3.2-0.1c-1.4-0.4-3.1-0.9-3.8-1.9c-0.6-1.3-0.7-2.8-0.2-4.2c4.7-10.8,9.7-21.5,14.2-32.3
		c1.9-4.5,3.1-9.4,4.5-14.2c0.7-2.4,2.1-3.2,4.4-3.1C27.4,85.2,28.6,85.1,29.8,85.1z M36.2,108.8c1.3-1.5,2.8-2.5,2.8-3.4
		c-0.1-1.2-1.4-2.3-2.2-3.4c-0.9,1.3-1.8,2.7-2.5,4.1C34.2,106.4,35.2,107.4,36.2,108.8z"/>
	<path class="st0" d="M301.2,238.9c0.6,4,1,8,1.7,12c0.6,3.6,0,5-3.6,4.9c-7.3-0.1-14.5-0.9-21.8-1c-7,0-13.7-3.6-20.8-1.3
		c-1.8,0.6-3.1-0.4-3-2.4c0-2.6,0.2-5.2,0.5-7.8c1.3-12.4,2.7-24.9,4-37.3c0.3-2.7,0.9-5.3,1.1-8c0-1.5-0.1-3-0.4-4.4
		c-0.1-0.8-0.3-1.8,0-2.4c0.3-0.4,1.5-0.6,2.2-0.4c6,1.3,12.2,1.2,18.1-0.4c1.9-0.5,2.4,0.9,2.5,2.1c0.4,5.2,1,10.4,0.9,15.6
		c-0.1,6.6-0.8,13.1-1.1,19.7c-0.2,3.8,1.1,5.2,4.9,5.1c3.7-0.1,7.4-0.3,11-0.8c3.3-0.4,4,0.1,4,3.5c0,1.1,0,2.2,0,3.2L301.2,238.9z
		"/>
	<path class="st0" d="M22.6,51.9c0-8.7,0.1-17.5-0.1-26.2c-0.1-5.6-0.8-11.1-1.1-16.7c0-1.1,0-2.2,0.1-3.2c0.1-2.5,1.5-3.5,3.9-3.5
		c4.1,0.1,8.2,0.2,12.4,0.4C43.3,2.8,49,3,54.7,3.2c3.4,0.1,4,0.5,4.2,3.9c0.2,4.6,0.1,9.2,0.1,13.8c0,2-1,3.3-3,2.9
		c-5.7-1.2-10.9,1.1-16.3,1.9c-0.7,0.1-1.4,0.9-2.1,1.4c0.6,0.5,1.2,1.3,1.9,1.5c1.4,0.4,2.8,0.6,4.3,0.7c2.5,0.2,3.2,1.6,3.1,3.8
		c-0.1,2.2-0.1,4.5,0,6.7c0.1,2.1-0.5,3-2.9,2.4c-3.2-0.8-5.5,1-4.3,3.6c0.8,1.2,2.1,2.1,3.5,2.3c2.7,0.2,5.4,0.1,8.1-0.2
		c2.9-0.2,5.7-0.7,8.6-1.1c2.4-0.3,3,1.2,3.2,3.1c0.3,2.8,0.3,5.6,0.5,8.4c0.2,1.7,0.4,3.4,0.8,5c0.6,2.5-0.2,3.5-2.8,3.5
		c-7-0.1-14.1-0.4-21.1-0.5c-4.8-0.1-9.5-0.1-14.3,0c-2.5,0-3.7-1-3.6-3.5C22.6,59.1,22.6,55.5,22.6,51.9L22.6,51.9z"/>
	<path class="st0" d="M50.5,229.5c1.1-14.2-1-28-2.2-42c-0.2-2.8-0.7-5.5-0.7-8.3c0.2-1,0.7-1.8,1.6-2.3c0.9-0.5,1.8-0.7,2.8-0.8
		c5.1-0.7,10.2-1.8,15.2-1.8c7.4,0,12.8,4.5,16.7,10.1c11.8,16.9,3.1,37.1-11.1,45c-4.4,2.4-8.8,5-13.5,6.7
		c-2.3,0.8-5.3-0.2-7.9-0.6c-0.3,0-0.6-1-0.7-1.6C50.6,232.4,50.6,230.9,50.5,229.5z"/>
	<path class="st0" d="M120.9,237.6c-5.1,0-10.2,0-15.4,0c-2.3,0-2.2-1.6-2.2-3.2c-0.1-6.6,0.3-13.2-0.5-19.7
		c-0.8-6.8-2.9-13.4-4.3-20.1c-0.4-2.1-0.2-4.3-0.3-6.4c0.1-1.3,0-2.7-0.2-4c-0.8-3.5,0.1-4.7,3.6-4.5c0.8,0,1.6,0,2.4-0.1
		c5-0.7,10-1.5,15-2.1c4.8-0.5,9.7-0.8,14.5-1c0.8,0.2,1.5,0.7,1.8,1.5c0.8,3.5,1.3,7.1,1.9,10.6c0.5,3.1-0.3,3.6-3.3,3.8
		c-3.2,0.2-6.4,1.1-9.6,1.5c-1.8,0.3-3.7,0.3-5.6,0.6c-0.8,0.1-1.9,0.5-2.2,1.1c-0.2,0.8-0.1,1.7,0.5,2.4c0.7,0.5,1.5,0.7,2.4,0.5
		c1.1-0.3,2.2-0.7,3.3-1.2c2.9-0.9,3.9-0.5,4.5,2.4c0.7,3,1.2,6,1.7,9c0.4,2.1-0.2,3.5-2.7,3.6c-2,0.2-3.9,0.5-5.9,0.9
		c-0.5,0.1-1.3,0.1-1.5,0.4c-1.8,2.3,0,4.5,0.5,6.6c0.5,1,1.6,1.6,2.7,1.7c4.8-0.5,9.6-1.3,14.4-2.1c4.2-0.7,4.9-0.2,5.2,4
		c0.2,2.9,0.7,5.9,0.9,8.8c0.1,2.2-1.2,3.1-3.4,3.2c-4.5,0.4-8.9,1-13.4,1.5c-1.6,0.2-3.2,0.2-4.8,0.3L120.9,237.6z"/>
	<path class="st0" d="M75,122.9c0.3-10,0.4-20.4,0.8-30.7c0.1-2.2,0.6-4.5,1.3-6.6c0.5-1,1.5-1.6,2.5-1.8c3.8-0.2,7.5-0.1,11.3-0.2
		c2,0,2.5,1.1,2.5,2.7c0.2,4.1,0.4,8.1,0.6,12.2c0.5,8.1,1.1,16.2,1.7,24.3c0.1,1.7,0.9,2.8,2.6,2.9c3.8,0.1,7.5,0.2,11.3,0.2
		c2.2,0,4.3-0.2,6.5-0.1c2.1,0.1,3.2,1.5,3.1,3.6c-0.1,3.9-0.4,7.8-0.3,11.6c0.1,4.8-5.2,9.4-10.4,8.7c-8.9-1.2-17.7-2-26.1-5.4
		c-0.9-0.2-1.8-0.3-2.7-0.4c-2-0.2-3.5-1.8-3.6-3.8C75.9,134.6,75.5,128.9,75,122.9z"/>
	<path class="st0" d="M114.4,60l-13.6,2.9c-0.5,0.1-1.1,0.4-1.6,0.3c-5.7-1.9-11,1.4-16.5,1.6c-0.8,0-1.6,0.2-2.4,0.3
		c-4.4,0.2-5.4-0.9-5.7-5.1C74,51.4,73.2,43,72.5,34.6c-0.6-7.2-1.2-14.4-1.8-21.6c-0.2-2-0.6-3.9-1-5.9c-0.4-2,0.6-2.8,2.4-3.1
		c3.8-0.7,7.6-1.3,11.4-2.1c2.7-0.5,3.5-0.2,3.5,2.3c0.3,11.4,4.4,21.9,6.9,32.8c0.5,2.2,3,3.5,6.1,3.5c4.4,0,8.8,0.1,13.2,0.1
		c2.4,0,3.7,1.1,4.1,3.4c0.8,4.5,1.5,9.1,2.2,13.6c0.4,2.5-0.5,3.3-3,3.2l-1.9-0.1L114.4,60z"/>
	<path class="st0" d="M499.2,74.7c-3.6-2.3-7.2-4.6-10.9-6.9c-1-0.6-2-1.1-3.1-1.6c-2.4-0.9-2.8-2-1.2-4c1.1-1.2,2.3-2.3,3.5-3.3
		c3.3-2.8,6.6-5.6,9.9-8.5c0.7-0.8,1.3-1.7,1.7-2.7c0.9-1.7,2.1-2,3.5-0.8c2.6,2.2,5.2,4.5,7.6,7c0.6,0.8,0.7,1.9,0.4,2.9
		C507,62.8,503.1,68.7,499.2,74.7z"/>
</g>
</svg>
