<?xml version="1.0" encoding="utf-8"?>
<!-- Generator: Adobe Illustrator 22.0.1, SVG Export Plug-In . SVG Version: 6.00 Build 0)  -->
<svg version="1.1" id="Layer_1" xmlns="http://www.w3.org/2000/svg" xmlns:xlink="http://www.w3.org/1999/xlink" x="0px" y="0px"
	 viewBox="0 0 44 44.2" style="enable-background:new 0 0 44 44.2;" xml:space="preserve">
<style type="text/css">
	.st0{fill:#FFFFFF;}
</style>
<g id="P0CHck_1_">
	<g>
		<g>
			<path class="st0" d="M22,0.3c3.2,0,6.4-0.1,9.6,0c2.7,0.1,5.3,0.8,7.6,2.5c2.9,2.2,4.5,5.3,4.6,8.9C44,17.6,44,23.5,44,29.4
				c0,1.9-0.2,3.9-0.7,5.8c-1.3,5-5.2,8.1-10.4,8.6c-2.1,0.2-4.2,0.3-6.3,0.3c-4.6,0-9.1-0.1-13.7-0.1C11,44,9.2,43.7,7.4,43
				c-4.1-1.7-6.4-4.9-7-9.2C0.1,32,0,30.1,0,28.3c0-5.1,0-10.1,0.1-15.2c0-2.4,0.5-4.7,1.7-6.8c2.1-3.7,5.3-5.6,9.4-5.9
				C14.7,0.1,18.4,0.1,22,0C22,0.1,22,0.2,22,0.3z M22,3.9c-3.4,0.1-6.9,0.2-10.4,0.4c-2.3,0.1-4.3,1.1-5.8,3
				c-1.1,1.4-1.6,3-1.7,4.7C4,15,3.9,17.9,3.9,20.8c0,3.8,0.1,7.6,0.2,11.4c0.1,1.8,0.6,3.5,1.8,5c1.7,2.1,4,2.9,6.6,2.9
				c6.3,0.1,12.7,0.2,19,0c5.3-0.2,8-2.9,8.4-8.2c0.2-2.5,0.2-5,0.2-7.6c0-4.1,0-8.2-0.2-12.2c-0.3-4.6-3-7.4-7.6-7.7
				C28.9,4.1,25.5,4.1,22,3.9z"/>
			<path class="st0" d="M22,10.9c6.2,0,11.3,5.1,11.3,11.3c0,6.3-5.1,11.3-11.3,11.3c-6.3,0-11.3-5.1-11.3-11.3
				C10.7,15.9,15.8,10.9,22,10.9z M22,29.5c4,0,7.4-3.3,7.4-7.3c0-4-3.2-7.4-7.3-7.4c-4.1,0-7.4,3.2-7.5,7.3
				C14.6,26.1,17.9,29.5,22,29.5z"/>
			<path class="st0" d="M33.8,7.8c1.5,0,2.6,1.2,2.6,2.6c0,1.4-1.2,2.6-2.7,2.6c-1.5,0-2.6-1.2-2.6-2.6C31.2,8.9,32.3,7.8,33.8,7.8z
				"/>
		</g>
	</g>
</g>
</svg>
