<?xml version="1.0" encoding="utf-8"?>
<!-- Generator: Adobe Illustrator 22.0.1, SVG Export Plug-In . SVG Version: 6.00 Build 0)  -->
<svg version="1.1" id="Layer_1" xmlns="http://www.w3.org/2000/svg" xmlns:xlink="http://www.w3.org/1999/xlink" x="0px" y="0px"
	 viewBox="0 0 215.8 172.3" style="enable-background:new 0 0 215.8 172.3;" xml:space="preserve">
<g id="_3IBpvz">
	<g>
		<g>
			<path d="M147.4,0c1.9,0,3.9,0.1,5.8,0c1.6-0.1,2.7,0.5,3.6,1.8c5.2,7.4,10.5,14.7,15.7,22.1c14,19.6,28,39.2,42,58.8
				c1.8,2.5,1.5,3.7-0.2,5.7c-20.9,24.4-41.8,48.7-62.7,73.2c-1.4,1.7-2.9,2.6-5.2,2.8c-29.4,2.6-58.8,5.2-88.3,7.9
				c-1.2,0.1-1.9-0.2-2.5-1.2C37.5,141.6,19.3,112.3,1,82.9c-1.4-2.3-1.4-2.5,0.4-4.6C22.3,54,43.1,29.7,64,5.3
				c0.9-1,1.8-1.6,3.2-1.6c16.5-0.7,33.1-1.4,49.6-2.1c10.2-0.4,20.4-0.9,30.6-1.3C147.4,0.2,147.4,0.1,147.4,0z M67.3,5
				c1,1.6,1.7,3,2.5,4.2c17.9,28.2,35.9,56.4,53.8,84.7c0.8,1.3,1.6,1.6,3.1,1.4c9.6-1.2,19.3-2.3,29-3.5c18.6-2.3,37.1-4.6,55.6-7
				c1-0.1,1.9-0.2,3.1-0.3c-0.3-0.6-0.4-0.9-0.6-1.2c-1.9-2.6-3.9-5.2-5.8-7.9c-17.1-24-34.1-47.9-51.1-72c-1.3-1.8-2.5-2.3-4.6-2.2
				c-23.4,1.1-46.9,2.1-70.3,3.1C77.1,4.5,72.4,4.7,67.3,5z M59.4,170.5c0.1,0.2,0.1,0.3,0.2,0.5c0.6,0,1.2,0,1.8,0
				c2.2-0.2,4.4-0.4,6.6-0.6c26.3-2.6,52.7-5.2,79-7.7c1.4-0.1,2.5-0.7,3.4-1.7c5.1-6,10.4-11.9,15.5-17.9c16-18.6,32-37.2,48-55.7
				c0.4-0.4,0.7-0.9,1.3-1.7c-1.1,0.1-1.7,0.1-2.3,0.2c-4.9,0.6-9.8,1.3-14.7,1.9c-23.2,2.9-46.4,5.9-69.6,8.8
				c-2.4,0.3-4.2,1.2-5.8,3.1c-19.7,22.1-39.4,44.2-59.2,66.2C62.2,167.3,60.8,168.9,59.4,170.5z"/>
		</g>
	</g>
</g>
</svg>
