<?xml version="1.0" encoding="utf-8"?>
<!-- Generator: Adobe Illustrator 22.0.1, SVG Export Plug-In . SVG Version: 6.00 Build 0)  -->
<svg version="1.1" id="Layer_1" xmlns="http://www.w3.org/2000/svg" xmlns:xlink="http://www.w3.org/1999/xlink" x="0px" y="0px"
	 viewBox="0 0 463 245.5" style="enable-background:new 0 0 463 245.5;" xml:space="preserve">
<g id="nSQ0Gx">
	<path d="M354.1,206.7c-0.3-0.2-0.5-0.3-0.8-0.4c-1-0.2-2-0.4-3.1-0.6c-0.4,0-0.8-0.2-1.1-0.6c-1-1.1-2.3-1.8-3.8-2
		c-0.3,0-0.6-0.1-0.9-0.2c-0.7-0.2-1.5-0.3-2.3-0.1c-0.5,0.1-1,0.1-1.6,0.1c-1.2-0.1-2.3,0.1-3.4,0.6c-0.2,0.1-0.5,0.2-0.8,0.1
		c-1-0.2-2.1-0.1-3.1-0.3c-0.3,0-0.7,0-1,0c-0.2,0.4,0,0.6,0.3,0.7c0.8,0.2,1.6,0.3,2.5,0.4c1.1,0.1,2.2,0.1,3.3,0.2
		c0.7,0,1.3,0,1.9,0.1c1.7,0.2,3.4,0.4,5.1,0.7c1.4,0.2,2.6,0.9,3.5,2c1,1.2,2.3,2.2,3.8,2.7c1.6,0.7,3.1,1.5,4.5,2.5
		c1,0.6,1.8,1.4,2.5,2.3c1.1,1.3,2.4,2.4,3.8,3.3c2.4,1.6,4.6,3.5,6.5,5.6c0,0,0.1,0.1,0.1,0.1c0.4,1.2,1,2.4,0.5,3.8
		c-0.1,0.3-0.3,0.4-0.6,0.4c-0.4-0.1-0.2-0.4-0.4-0.7c-0.2,0.1-0.4,0.2-0.7,0.3c-0.3,0.2-0.6,0.5-0.9,0.5c-0.7,0-1,0.5-1.3,1.1
		l-0.9-0.4c-0.9-0.4-1.7-0.8-2.6-1.1c-0.3-0.1-0.5-0.1-0.8,0c-1.4,0.1-2.7,0-4-0.5c-0.5-0.1-0.9-0.3-1.4-0.3
		c-0.8-0.1-1.5-0.3-2.2-0.7c-0.3-0.2-0.6-0.3-0.9-0.3c-1.7-0.1-3.3-0.9-5-1.3c-0.5-0.1-1-0.2-1.5-0.3c-0.5,0-0.9-0.2-1.4-0.3
		c-0.5-0.2-1.1-0.3-1.7-0.3c-0.8,0-1.7-0.3-2.4-0.8c-0.4-0.3-0.9-0.5-1.4-0.5c-0.5,0-0.9-0.3-1.2-0.6c-0.7-0.6-1.4-1.1-2.2-1.5
		c-0.5-0.3-0.8-0.8-1.1-1.3c-0.3-0.5,0-1.2,0.5-1.5c0.2-0.1,0.5-0.1,0.7-0.1c2.4,0.6,4.8,0.4,7.2,0.8c1.1,0.1,2.3,0,3.4-0.2
		c0.1,0,0.2-0.2,0.4-0.3c-0.1-0.1-0.1-0.3-0.1-0.3c-1.4-0.4-2.7-1.2-4.1-1.4c-1.7-0.2-3.4-0.8-5.1-0.8c-0.7,0-1.4-0.2-2-0.5
		c-0.5-0.2-1.1-0.4-1.6-0.5c0-0.1-0.1-0.3-0.2-0.7c-1.5-0.4-3-1.2-4.6-1.2c-1.2-0.4-2.4-0.7-3.6-0.9c-0.9-0.2-1.9-0.2-2.8-0.4
		c-0.8-0.3-1.7-0.5-2.6-0.5c-0.3,0-0.6,0-0.9-0.1c-1.1-0.5-2.3-0.3-3.4-0.5c-1.5-0.2-3-0.2-4.4-0.9c-0.4-0.2-0.8-0.3-1.2-0.3
		c-1-0.1-2-0.3-3-0.7c-0.2-0.1-0.4-0.1-0.6,0c-0.4,0.1-0.8,0-1-0.3c-0.4-0.4-0.9-0.7-1.5-0.8c-0.3-0.1-0.7-0.3-1-0.4
		c-0.6-0.2-1.1-0.8-1.3-1.5c-0.5-1.2-1-2.3-1.6-3.4c-0.3-0.6-1-0.9-1.6-0.8c-1.3,0-2.5,0-3.8,0c-0.6,0.1-1.3-0.1-1.8-0.4
		c-0.5-0.4-1-0.3-1.2,0.2c-0.2,0.7-0.8,1.2-1.5,1.3c-0.6,0.1-1.1,0.4-1.5,0.8c-0.3,0.3-0.8,0.3-1.2,0.2l-3.1-0.6l1.2,0.9
		c-0.8,0-1.5,0.3-2.2,0.7c-0.2,0.1-0.5,0.2-0.8,0.1c-0.9-0.2-1.9-0.1-2.7-0.7c-0.5-0.2-1-0.4-1.5-0.5c-0.6-0.1-1.1-0.4-1.5-0.7
		c-0.2-0.3-0.6-0.5-0.4-0.9c0.1-0.3,0.4-0.5,0.8-0.5c0.4,0,0.7,0,1.2-0.1c-0.3-0.5-0.9-0.7-1.5-0.7c-0.6,0.2-1.3,0.1-1.9-0.2
		c-0.7,0.5-1,1.4-0.9,2.3c0,1,0.2,2,0.4,2.9c0.5,1.6,0.3,3.4-0.4,4.9c-0.4-0.1-0.8-0.1-1.3,0c-0.3,0.1-0.5,0.5-0.7,0.8l-0.5-0.1
		c-0.1,0-0.2,0-0.3,0.1l-1,1.9l-2,0.3c-0.3-0.2-0.6-0.4-0.9-0.7c-0.7-0.5-1.4-0.9-2-1.4c-0.7-0.5-1.1-0.9-1.7-1.4
		c-0.3-0.2-0.6-0.5-0.9-0.7c-0.1-0.1-0.3-0.1-0.4-0.2c-0.2-0.3-0.4-0.8-0.7-1s-0.7-0.1-1-0.2c-0.2,0-0.3-0.3-0.4-0.4
		c-0.1-0.2-0.3-0.6-0.4-0.8c-0.1-0.1-0.2-0.1-0.3-0.2l-1.1-0.4c-0.2,0.2-0.3,0.3-0.5,0.5c-0.5,0.5-0.8,0.5-1.3,0
		c-0.1-0.1-0.2-0.3-0.3-0.4c-1-0.4-1.1-1.1-0.7-2.1c1.5-0.5,3-1.2,4.3-2.1c1-0.6,1.8-1.3,2.6-2.1c0.3-0.3,0.7-0.6,1.1-0.9
		c0.4-0.3,0.6-0.7,0.5-1.2c-1.2,0.8-2.3,1.4-3.4,2.1c-1.4,1-2.8,1.8-4.4,2.4c-0.9,0.4-1.7,0.8-2.5,1.4c-1.1,0.6-2.2,1.1-3.3,1.8
		c-0.8,0.4-1.8,0.7-2.7,0.8l-2.9,0.5c-0.1,0-0.2,0.1-0.3,0.1c-0.9-0.4-1.8,0.1-2.8-0.1s-1.9,0-2.8-0.1c-0.8-0.1-1.6-0.2-2.1-1
		c-0.1-0.7,0-1.3,0.2-2c0.4-0.9,0.7-1.9,1-2.8c0.2-0.6,0.2-1.2-0.1-1.7c-1.3,0.2-2.5,0.6-3.6,1.4c-0.7,0.5-1.4,1.1-2.1,1.7
		c-0.5,0.4-1,0.8-1.5,1.2c-0.3,0.2-0.6,0.5-0.8,0.7c-0.1,0.1-0.1,0.2-0.2,0.2c-1.5,0.8-2.7,2-4.2,2.6c-0.4,0.1-0.8,0.3-1.1,0.6
		c-0.4,0.5-0.9,0.9-1.5,1.1c-0.1,0-0.1,0-0.1,0.1c-0.9,1.3-2.6,1.8-3.4,3.1c-0.2,0.3-0.5,0.5-0.9,0.6c-0.3,0.1-0.7,0.3-1,0.5
		c-0.2,0.1-0.4,0.3-0.4,0.4c-0.1,0.8-0.7,1.2-1.2,1.6c-1.1,0.9-2,2-3.4,2.5c-0.8,0.4-1.6,0.8-2.3,1.2c-1.1,0.5-2.1,1.2-2.9,2.1
		c-0.5,0.5-1.1,0.8-1.7,1.1c-0.9,0.5-2,0.8-2.6,1.8c-0.5,0.5-1,1-1.6,1.4c-0.1,0.1-0.3,0.2-0.3,0.3c-0.3,0.8-1,1.1-1.7,1.5
		c-0.4,0.3-0.7,0.7-1.4,0.5c-0.3-0.1-0.7,0.2-1,0.4c-0.4,0.3-0.9,0.6-1.3,0.8c-1.1,0.4-2,1.1-2.7,2.1c-0.3,0.4-0.7,0.7-1.1,0.8
		c-0.3,0.2-0.7,0.1-1,0.2c-0.3,0.2-0.4,0.5-0.6,0.7c-0.7,0.7-1.6,1.2-2.7,1.2c-0.9,0-1.8,0.4-2.4,1c-1.6,0-2.9-0.7-4.2-1.3
		c-0.5-0.2-1-0.4-1.5-0.6c-0.5-0.1-0.9-0.2-1.4-0.2c-0.5-0.6-1-1.2-1.4-1.8c-0.4-0.5-0.7-1.1-0.7-1.7c0-0.3-0.1-0.6-0.2-0.9
		c-0.3-1.6-0.7-3.2-1-4.8c0-0.3-0.1-0.5-0.1-0.8c0-1.3-0.2-2.7-0.5-4c-0.1-0.4,0-0.8-0.1-1.3c0-1.1,0-2.2-0.1-3.3
		c-0.1-1,0-2,0.3-2.9c0.5-1.8,0.9-3.5,1.3-5.3c0-0.3,0.1-0.6,0.2-0.9c0.4-0.6,0.7-1.3,0.8-2c0.4-1.4,0.9-2.8,1.6-4.1
		c0.1-0.2,0.2-0.5,0.3-0.7c0.2-1.9,1.1-3.5,1.9-5.2c0.2-0.4,0.3-0.8,0.5-1.1c0.1-0.2,0.2-0.5,0.4-0.7c0.7-0.5,1.3-1.2,1.6-2.1
		c0.1-0.2,0.3-0.4,0.5-0.6c0.3-0.5,0.6-1,0.8-1.5c0.1-0.2,0.2-0.5,0.3-0.7c0.9-0.9,1.7-2,2.1-3.3c0.4-0.7,0.9-1.4,1.4-2
		c0.3-0.3,0.5-0.7,0.7-1.1c0.4-1.1,1.2-2,1.7-2.9c0.8-1.6,1.7-3.2,2.5-4.7c-0.3-0.3-0.5-0.1-0.6,0c-0.3,0.2-0.5,0.4-0.7,0.7
		c-1.4,1.7-2.8,3.4-4.2,5.1c-0.2,0.2-0.4,0.5-0.5,0.8c-0.4,1-1.1,1.9-2,2.6c-0.7,0.7-1.3,1.4-1.8,2.2c-0.3,0.5-0.7,0.9-1.1,1.3
		c-1.5,1.3-2.8,2.8-3.9,4.5c-0.8,1.3-1.8,2.4-2.7,3.6c-0.4,0.5-0.7,1-1,1.6c-0.4,0.5-0.6,0.9-0.8,1.3c-0.4,0.6-0.7,1.2-1,1.8
		c-0.5,1.1-1.2,2.2-2,3.2c-0.9,1.3-1.8,2.6-2.5,4c-0.4,0.7-0.7,1.4-1.2,2c-0.3,0.4-0.6,0.7-1,1c-0.6,0.6-1.1,1.2-1.6,2
		c-0.8,1.3-1.8,2.6-2.7,3.9c-0.3,0.5-0.6,1-0.9,1.5c-0.4,0.8-0.9,1.5-1.5,2.2c-1.2,1.3-1.9,3-2.8,4.5c-0.6,1-1,2.2-1.8,3.1
		c-0.1,0.2-0.2,0.4-0.3,0.6c-0.4,1.7-1.6,3.2-2,4.9c-0.7,0.9-1.3,1.9-2,2.8c-0.4,0.5-1,0.9-1.4,1.5c-0.4,0.4-0.8,0.9-1.1,1.5
		c-0.5,0.8-1.1,1.5-1.8,2.2c-0.7,0.6-1.3,1.2-2,1.8c-0.2,0.2-0.4,0.3-0.7,0.4c-0.7,0.2-1.3,0.6-1.8,1.1c-0.3,0.3-1,0.4-1.4,0.6
		c-0.2,0.1-0.3,0.2-0.4,0.4c0,0.1,0,0.2,0,0.3c0.1,0.2,0.2,0.4,0.4,0.6c-0.2,0.1-0.4,0.1-0.5,0.3c-0.1,0.2-0.2,0.5-0.3,0.7l-1.3-0.2
		c0,0.9-0.5,1.2-1.3,1.2c-1.7,0.1-3.3,0.4-5,0.5c-0.3,0-0.6,0-0.9-0.1c-1.6-0.5-3.1-0.8-4.8-1c-1.1-0.2-2.2-0.7-3.1-1.5
		c-0.6-0.5-1.1-0.9-1.7-1.4c-0.1-0.1-0.2-0.1-0.2-0.2c-0.6-1.3-1.6-2.3-2.1-3.7c-0.2-0.7-0.5-1.3-0.8-1.8c-0.9-1.1-0.8-2.2-0.3-3.4
		c0.3-0.6,0.5-1.3,0.4-2c0.6-0.8,1.2-1.5,1.7-2.3c0.2-0.3,0.4-0.6,0.5-1c0.5-1.5,1.4-2.7,2.6-3.6c0.7-0.5,1.3-1,2-1.6
		c1-0.8,2.1-1.4,3.3-1.8c0.8-0.3,1.5-0.8,2-1.4c-0.5-0.8-0.7-1-1.2-0.7c-1.2,0.7-2.6,0.7-3.9,1.1c-0.6,0.2-0.9,0.1-1.1-0.3
		c-0.2-0.4-0.1-1,0.2-1.3c0.3-0.3,0.5-0.5,0.8-0.7c1-0.7,2.1-1.4,3.2-2.2l0.2-1.2c0.4-0.4,1.2-0.7,1.2-1.5c-0.3-0.3-0.8-0.4-1.2-0.2
		c-0.8,0.2-1.6,0.4-2.4,0.7c-0.5,0.2-0.9,0.4-1.4,0.7c-1.8,0.9-3.4,2.1-4.8,3.6c-0.1,0.1-0.1,0.1-0.2,0.2c-1.5,0.9-2.5,2.4-3.8,3.5
		c-0.4,0.4-0.7,0.8-0.9,1.3c-0.3,0.7-0.8,1.2-1.3,1.7c-0.6,0.5-1,1.1-1.2,1.8c-0.1,0.3-0.3,0.6-0.6,0.9c-1,1-2,2-3,3
		c-0.6,0.7-1.1,1.4-1.6,2.1c-0.2,0.2-0.2,0.5-0.2,0.7c0.2,0.5-0.1,0.9-0.2,1.3c0,0.1,0.1,0.2,0.1,0.3c0.5-0.1,1.1-0.1,1.6-0.2
		c0.1,0,0.2,0.1,0.3,0.2c0,0.5-0.4,1-0.9,1.1c-1,0.2-1.9,0.4-2.9,0.7c-0.6,0.1-1.3,0.2-2,0.2c-0.8,0.1-1.3-0.4-1.9-0.6
		c-0.7-0.3-1.5-0.4-2.3-0.6c-0.8-0.1-1.6-0.4-2.3-0.9c-0.5-0.4-0.9-0.7-1.5-0.9c-1.2-0.6-1.8-1.8-2.6-2.9c-0.2-0.4-0.4-0.8-0.4-1.3
		c-0.1-1.5-0.4-3-0.9-4.5c-0.1-0.2-0.1-0.4-0.1-0.6c-0.1-1.2-0.1-2.5-0.3-3.7c-0.1-0.9,0.1-1.9,0.5-2.7c0.3-0.9,0.7-1.8,0.9-2.7
		c0.6-2.3,1.3-4.5,2.3-6.7c0.6-1.2,1-2.4,2.2-3.2c0.5-0.4,1-0.9,1.3-1.5c0.5-0.7,1.1-1.3,1.8-1.7c1.5-1,3-2.1,4.5-3.1
		c0.6-0.4,1.1-0.8,1.6-1.3c0.7-0.7,1.5-1.3,2.5-1.7c0.1-0.3,0.2-0.6,0.3-0.9c0-0.2,0-0.4,0-0.6c-0.4,0-0.7,0-1.1,0.1
		c-0.8,0.2-1.7,0.1-2.4-0.4c-1.1-0.7-2.1-0.2-3.1,0.3c-0.4,0.2-0.7,0.4-1.2,0.2c-0.6-0.2-1.2,0-1.6,0.4c-0.2,0.2-0.4,0.4-0.5,0.6
		c-0.7-0.2-1.4,0.1-2-0.6c-0.7,0.4-1.3,0.8-2.1,0.3c-0.7,0.2-1.3,0.3-2,0.5c-0.5,0.2-1.1,0.4-1.7,0.6c-0.1,0.3-0.1,0.5-0.1,0.8
		c0,0.8,0,1.6,0,2.4c0.1,1.1-0.1,2.2-0.6,3.2c-0.4,1.1-0.7,2.2-1,3.3c-0.4,1.4-0.5,2.9-1.1,4.3c-0.1,0.3-0.2,0.6-0.2,0.9
		c0,0.8-0.3,1.7-0.7,2.4c-0.3,0.6-0.6,1.3-0.8,2c-0.2,0.4-0.1,0.9,0.2,1.2c0.3,0.4,0.5,0.8,0.6,1.2l1-0.1c0.4-0.1,0.8,0,1,0.4
		c0.1,0.3,0,0.6,0,0.9l-1.6,0.5l1.3,0.7l-1.7,0.7c0,0.4,0,0.8-0.1,1.2c-0.2,0.3-0.4,0.6-0.7,0.9l0.3,1c-0.1,0.1-0.2,0.2-0.2,0.2
		c-0.7,0.2-1.3,0.4-2,0.7l-1.4-0.7c-0.1-0.8-0.5-1.4-1.2-1.7c-0.2,0.1-0.3,0.3-0.6,0.4c-0.7,0.5-1.7,0.5-2.5,0
		c-1.1-0.7-2.1-1.6-2.9-2.6c-0.4-0.4-0.9-0.8-1.4-1.1c-0.1-0.6-0.1-1.2-0.1-1.7c0-1.8,0.1-3.7-0.9-5.3c-0.1-0.2-0.1-0.5,0-0.8
		c0.1-1-0.2-1.7-1.5-2c-0.2,0-0.4-0.1-0.7,0c-0.5,0-1-0.3-1.3-0.8c-0.1-0.1-0.2-0.3-0.2-0.4c-0.7-1.5-1.5-3-2.2-4.5
		c-0.1-0.2-0.1-0.4-0.2-0.6c-0.3-2-0.7-3.9-1-5.9c-0.2-0.9-0.2-1.9-0.1-2.8c0.2-1,0.6-1.9,1.2-2.7c0.7-1,1.3-2.1,1.8-3.3
		c0.4-1.2,1.4-2,2.3-2.7c0.4-0.3,0.8-0.6,1.1-1.1c0.2-0.4,1.1-0.5,0.7-1.3c0-0.1,0.2-0.3,0.4-0.4c0.3-0.1,0.6-0.3,0.9-0.4
		c0.6-0.2,1-0.6,1.1-1.2v0c0.3-0.3,0.7-0.5,1-0.8c0.2-0.1,0.3-0.3,0.3-0.5c0-1.1,0.8-1.7,1.6-2.2c0.6-0.3,1.1-0.9,1.4-1.6
		c0.1-0.3,0.4-0.5,0.6-0.7c0.7-0.7,1.3-1.5,1.8-2.4c0.7-1.1,1.7-1.9,2.8-2.4c1.1-0.5,2.2-0.9,3.4-1c0.8-0.1,1.6,0,2.3,0.4
		c0.6,0.4,1.3,0.6,2,0.8c0.8,0.1,1.6,0.6,2,1.4c0.2,0.3,0.4,0.5,0.8,0.3c0.1-0.5,0.1-1-0.2-1.5c-0.4-0.8-0.5-1.7-0.5-2.6
		c0-0.6-0.2-1.2-0.4-1.7l1.2-1c-0.4-1.2-0.9-2.4-1.5-3.5c-0.2-0.3-0.3-0.6-0.4-0.8c-0.2-0.8-0.7-1.6-1.3-2.2c-0.5-1.7,0.4-3,1.3-4.4
		c0.3,0,0.6,0,1,0.1c0.7,0.3,1.2,0.6,1.8,0.9c0.6,0.3,1.1,0.6,1.7,0.8c0.2,0.1,0.4,0.1,0.6,0.2c2.1,1.3,4.4,2.1,6.8,2.9
		c0.7,0.2,1.3,0.4,1.9,0.8c1.3,0.9,2.7,1.6,4.2,2c0.3,0.1,0.6,0.2,0.8,0.4c0.5,0.4,0.5,1.2,0.1,1.7c-0.4,0.4-0.9,0.7-1.4,1
		c-2,1.2-3.9,2.5-5.7,3.9c-0.9,0.7-1.6,1.5-2.1,2.5c-0.1,0.2-0.2,0.4-0.2,0.7c0.4,0.3,0.7,0.1,1,0c0.9-0.4,1.9-0.7,2.8-0.9
		c0.6-0.1,1.1-0.5,1.6-0.6c1-0.2,1.9-0.9,3-0.7c0.3,0,0.6-0.1,0.8-0.3c0.4-0.4,1-0.6,1.6-0.5c0.5,0.1,0.9,0,1.3-0.3
		c0.4-0.2,0.8-0.5,1.2-0.7c0.4-0.3,0.9-0.5,1.5-0.4c0.1,0,0.2,0,0.3,0c1.6-0.7,3.5-0.4,5.2-1.2c0.7-0.2,1.5-0.4,2.3-0.4
		c1.2-0.2,2.4-0.2,3.5-0.8c0.2-0.1,0.4-0.2,0.6-0.2c1.7-0.1,3.1-1.1,4.8-1.5c0.6-0.2,1.2-0.4,1.8-0.6c0.6-0.2,1.2-0.4,1.8-0.6
		c0.4-0.1,0.9-0.3,1.3-0.5s0.9-0.4,1.3-0.5c0.2,0,0.4-0.1,0.6-0.2c1-0.8,2.2-1,3.4-1.3c0.1,0,0.2,0,0.3-0.1c1-0.8,2.3-1,3.4-1.5
		c1.1-0.4,2.3-0.8,3.4-1.2c0.9-0.3,1.8-0.6,2.6-1c0.9-0.5,1.8-0.9,2.7-1.2c1.1-0.4,2.1-1,3-1.6c0.2-0.1,0.4-0.3,0.7-0.3
		c0.8-0.2,1.4-0.8,1.8-1.5c0.2,0,0.5,0.1,0.7,0.2c0.4,0.2,0.8,0.1,1.2-0.1c1-0.4,2-0.8,3-1.3c1.7-0.8,3.3-1.5,5-2.3
		c1.3-0.6,2.6-1.4,3.7-2.3c1.1-1,2.4-1.9,3.2-3.2c0.7-0.3,1.1-1,1.2-1.7c0-0.3,0.2-0.5,0.4-0.7c1.2-0.9,1.7-2.3,2.4-3.6
		c0.8-1.4,1.6-2.8,2.4-4.2c0.4-0.7,0.7-1.4,1.1-2.1s0.8-1.2,1.4-1.9c0.1-1.6,1.2-3,2.2-4.4c0.2-0.3,0.4-0.6,0.6-0.9
		c0.5-1.1,0.9-2.2,1.3-3.4c0.3-1.1,1.4-1.8,2.5-1.6c0,0,0,0,0,0c0.6,0.5,1,1.2,1.2,2c0.5,1.3,1.2,2.5,1.5,3.8
		c0.1,0.4,0.3,0.8,0.6,1.1c0.3,0.5,0.5,1.1,0.5,1.6c0.1,1.2,0.3,2.5,0.4,3.7c0,0.3,0,0.5,0,0.8c-0.4,1.9-0.7,2-2.3,2.2
		c-0.3,0-0.6,0.1-0.9,0.1c-0.4,0.1-0.6,0.6-0.5,1c0,0,0,0,0,0.1c0.1,0.3,0.4,0.5,0.5,0.8c0.5,0.8,1.1,1.6,1,2.6c0,0.4-0.1,0.7-0.3,1
		c-0.3,0.5-0.7,0.9-1.2,1.3c-2.1,1.9-3.9,3.9-5.6,6.2c-1.6,2.1-3.1,4.2-4.6,6.3c-1.8,2.5-3.3,5.2-4.8,7.9c-0.8,1.4-1.4,2.8-2.3,4.1
		c-0.9,1.6-2,3-3.3,4.4c-0.4,0.4-0.6,0.9-0.9,1.3c-0.5,0.6-1,1.2-1.6,1.7c-2,1.7-4.1,3.3-6.3,4.7c-0.8,0.5-1.5,1.2-2,2
		c-1,1.2-2.1,2.3-3.2,3.5c-0.6,0.6-1.2,1.2-1.7,1.8c-0.7,0.9-1.2,1.8-1.8,2.7c-0.3,0.4-0.5,0.9-0.8,1.3c-1.4,1.8-2.7,3.8-3.7,5.8
		c-0.4,0.9-1.2,1.7-1.7,2.6c-0.2,0.4-0.4,0.9-0.5,1.3c0,0.2,0,0.3,0.2,0.4c0.2,0.1,0.4,0.1,0.6,0c0.2-0.2,0.5-0.4,0.7-0.6
		c0.8-0.9,1.6-1.9,2.4-2.9c0.2-0.1,0.3-0.3,0.5-0.4l2.4-2c0.2-0.2,0.4-0.5,0.7-0.7c0.7-0.5,1.5-0.7,1.9-1.5c0.4-0.7,1-1.2,1.6-1.7
		c0.2-0.1,0.3-0.2,0.5-0.4c0.2-0.1,0.4-0.3,0.6-0.5c1.3-1.9,3.3-3,4.9-4.6c0.2-0.2,0.5-0.4,0.8-0.5c0.2-0.1,0.4-0.2,0.5-0.4
		c0.3-0.8,1.1-1.2,1.7-1.7c0.6-0.5,1.1-1.1,1.7-1.7c0.4-0.5,0.9-0.9,1.5-1c1-1,2.4-1.4,3.3-2.5c0.2-0.3,0.7-0.3,0.9-0.5
		c0.4-0.2,0.8-0.5,1.2-0.8c0.8-0.9,1.6-1.6,2.5-2.3c0.3-0.2,0.5-0.5,0.7-0.8c0.1-0.1,0.4-0.4,0.5-0.3c0.7,0.1,1.1-0.4,1.5-0.7
		c0.3-0.4,0.8-0.7,1.3-0.8c0.2,0,0.4-0.3,0.5-0.5c0.6-0.7,1.2-1.3,1.8-1.9c0.3-0.2,0.5-0.5,0.7-0.9c0.3-0.7,0.7-1.4,1.4-1.8
		c0.7-0.5,1-1.5,1.9-1.8c0.1,0,0.1-0.1,0.1-0.1c0.5-1.6,2-2.5,2.5-4.1c0.2-0.5,0.4-0.9,0.7-1.4c0.8-1.2,1.5-2.5,2.3-3.7
		c0.2-0.2,0.3-0.4,0.4-0.7c0.8-2.2,2.1-4.2,3-6.4c0.7-0.7,0.8-1.7,1.4-2.4c0.2-0.3,0.3-0.6,0.4-1c0.1-0.7,0.4-1.4,0.8-2
		c0.7-1.3,1.5-2.5,1.7-4c0.1-0.2,0.2-0.5,0.4-0.6c0.6-0.5,1.1-1.3,1.4-2.1c0.2-0.5,0.4-1,0.7-1.4c0.2-0.4,0.4-0.8,0.6-1.3
		c0.2-0.9,0.8-1.8,1.5-2.4c1.1-0.3,2,0.8,3,0.1c0.3-1-0.7-1.3-1-1.9c1.2-0.7,1.2-0.7,2.3-0.5c0.2,0,0.4,0.1,0.7,0.1
		c1.4-0.1,2.7,0.5,4,0.8c1.3,0.3,2.6,0.5,3.9,0.6c1.8,0.1,3.5,0.5,5.3,0.1c0.1,0,0.2,0,0.3,0c1.3,0.5,2.7,0.3,4,0.5s2.2-0.4,3.2-1.2
		c-0.2-0.3-0.4-0.6-0.7-0.7c-0.6-0.2-1.2-0.3-1.8-0.3c-1-0.1-2.1-0.4-3-0.9c-0.7-0.4-1.5-0.6-2.2-0.7c-1.5-0.1-2.9-0.5-4.1-1.3
		c-0.8-0.5-1.6-0.8-2.4-1.1c-0.7-0.3-1.5-0.6-2.1-1c-1.1-0.5-1.9-1.5-2.1-2.7c-0.3-1.3-0.5-2.7-0.9-4c-0.2-0.5,0-1.1,0.4-1.4
		c0.3-0.3,0.7-0.7,1-1c0.2-0.3,0.4-0.6,0.5-1c0.3-1.2,1.4-2,2.6-2.1c1.4-0.2,2.7-0.4,4-0.7c0.4-0.1,0.7-0.1,1.1-0.1
		c1.4,0,2.8-0.2,4.2-0.6c1.1-0.3,2.1-0.6,3.1-1.1c0.3-0.1,0.5-0.3,0.7-0.6c0.2-0.2,0.3-0.5,0.4-0.7c0.8-0.9,1.2-1.1,2.3-0.5
		c0.9,0.5,1.8,1,2.8,1.5c0.6,0.3,0.9,0.9,0.9,1.5c0,0.9-0.2,1.9-0.6,2.7c-0.3,0.5-0.6,1.1-0.7,1.7c-0.2,0.5-0.5,1-0.8,1.5
		c-0.5,0.8-0.5,1.6,0.2,2.1c0.9,0.7,1.7,1.4,2.6,2c0.8,0.4,1.3,1.3,1.3,2.2c0,0.4,0.1,0.8,0.2,1.1l-0.6,1c0,0.1,0,0.2,0.1,0.3
		c0.5,0.6,1.1,1.1,1.6,1.7c0.4,0.4,0.6,0.9,0.5,1.4c0,0.5-0.3,1-0.7,1.3c0.2,0.5,0.5,1,1,1.2c1.3,0.7,1.8,1.9,2.2,3.1
		c0.7,2,1.3,4,1.7,6c0.1,0.7,0.2,1.5,0.2,2.2c0,0.2,0,0.4-0.1,0.6c-0.5,0.5-0.5,1.3-0.7,1.9c-0.2,0.7-0.3,1.4-0.4,2.1
		c-0.2,0.7,0,1.5,0.5,2c0.1,0.1,0.2,0.2,0.3,0.3c1.3,1.3,2.6,2.7,3.7,4.3c0.8,1.1,1.6,2.2,2.3,3.4c1,1.6,1.8,3.3,2.7,5
		c0.3,0.7,0.6,1.4,0.8,2.1c0.2,0.7,0.1,1.5-0.2,2.2c-0.1,0.2-0.2,0.5-0.3,0.7c-0.4,1.2-1.2,2.2-2.3,2.8c-1.4,0.8-2.6,1.8-3.7,2.9
		c-0.9,0.8-1.8,1.6-2.8,2.3c-0.6,0.4-1.1,0.9-1.7,1.4c-0.8,0.8-1.2,1.8-1.1,2.9c0.4,0,0.8,0,1.1,0c0.6-0.1,1.3,0,1.8,0.4
		c0.3,0.3,0.8,0.4,1.2,0.2c1.2-0.2,2.4-0.4,3.5-0.7c2.4-0.6,4.8-1.1,7.2-1.4c0.5-0.1,1-0.2,1.5-0.5c0.5-0.2,1-0.2,1.5,0
		c0.5,0.2,0.9,0.5,1.4,0.7c0.7,0.2,1.3,0.4,1.9,0.7c0.4,0.1,0.8,0.2,1.2,0.4c1,0.5,1.6,1.4,1.8,2.4c0.4,2.6,0.2,5.2-0.5,7.6
		c-0.2,1.1-0.6,2.2-1.2,3.2c-0.1,0.3-0.1,0.6,0,0.9c0.1,0.3,0.3,0.7,0.5,1c0.5,0.5,0.7,1.2,0.5,1.9c1.2,0.3,2.4,0.4,3.5-0.5
		c0.4-0.4,1.1-0.7,1.7-0.6c0.3,0,0.6-0.1,0.9-0.3c1.7-1.3,3.6-2.4,4.9-4.1c0.1-0.1,0.2-0.2,0.3-0.3c1.2-1,1.8-2.4,2.3-3.8
		c0.2-0.6,0.6-1.1,1.2-1.4c0.9-0.4,1.8-0.9,2.7-1.3c1.3-0.5,2.6-1.1,3.8-1.8c0.4-0.2,0.7-0.4,1.1-0.6c1.5-0.4,2.5-1.5,3.6-2.5
		c0.3-0.3,0.6-0.7,0.8-1.2c0.1-0.2,0.2-0.5,0.1-0.7c-0.2-0.4,0.1-0.8,0.2-1.2c-0.8-0.8-1.8-1.3-2.9-1.6c-1-0.3-2-0.6-3-0.8
		c-0.8-0.1-1.7-0.1-2.5,0c-0.8,0.1-1.5,0.5-2.3,0.6c-1.4,0.3-2.9,0.6-4.3,0.9c-0.2,0-0.4,0-0.6-0.1c-0.4-0.3-0.6-0.1-1,0
		c-1,0.2-2.1,0.8-3.2,0.2c-0.1-0.1-0.3-0.1-0.4,0c-0.1,0.1-0.3,0.1-0.4,0.2c-0.5,0.2-1.1,0.2-1.5-0.2c-0.4-0.3-0.5-0.8-0.4-1.3
		c0.4-0.7,1.3-1,2.1-0.6c1-1.1,2-2.3,2.9-3.5c0.2-0.3,0.3-0.7,0.3-1c-0.1-1.7-0.7-3.4-1.8-4.8c-0.5-0.7-1-1.2-1.4-1.9
		c-1.1-1.5-1.9-3.3-2.2-5.1c-0.3-1.9,0.3-3.8,1.6-5.2l2.4-2.6c0.4-0.4,0.9-0.7,1.5-0.7c1,0,2.1-0.1,3.1-0.2c0.8-0.1,1.7,0,2.5,0.2
		c2.1,0.4,4.1,0.7,6.2,1.1c2.5,0.6,4.9,1.4,7.3,2.4c2,0.7,3.9,1.6,5.7,2.7c0.3,0.2,0.7,0.3,1,0.4c0.3,0.1,0.7,0.3,1,0.5
		c0.6,0.3,1,0.9,1.8,0.9c0.2,0,0.4,0.3,0.6,0.4c2,1.7,4.3,3,6.7,3.9c2.9,1.1,5.7,2.3,8.5,3.6c0.2,0.1,0.4,0.2,0.6,0.2
		c1.4,0.2,2.6,1,3.9,1.5c1.7,0.7,3.3,1.5,5,2.2c1.3,0.6,2.6,1,4,1.3c1.6,0.3,3.2,0.7,4.8,0.9c2.1,0.3,4.2,0.7,6.4,0.7
		c1.1,0,2.3,0.1,3.5,0.1c0.4,0,0.7-0.1,1.1-0.2c0.3-0.1,0.4-0.4,0.3-0.7c0,0,0-0.1-0.1-0.1c-0.2-0.2-0.5-0.4-0.8-0.5
		c-1.3-0.5-2.7-0.7-4.1-0.8c-0.3,0-0.6,0.2-0.9,0.3c-0.1-0.1-0.3-0.1-0.4-0.2c-0.6-0.8-1.5-1.3-2.5-1.5c-0.3-0.1-0.6-0.2-0.8-0.4
		c-2.3-1.3-4.7-2.4-7.2-3.4c-1.7-0.7-3.4-1.4-5.1-2.1c-1.7-0.7-3.1-1.5-4.7-2.2c-0.5-0.2-1.1-0.4-1.6-0.6c-0.4,0-0.8-0.1-1.2-0.2
		c-1.3-0.6-2.6-1.4-3.8-2.1c-1.4-0.9-2.7-2-4-3c-0.9-0.7-1.8-1.3-2.7-1.8c-1.6-0.8-2.8-2-4.2-3c-0.4-0.3-0.8-0.6-1.3-0.9
		c-1.3-0.7-2.5-1.5-3.6-2.4c-1.7-1.3-3.6-2.4-5.6-3.2c-0.4-0.2-0.8-0.3-1-0.7c0,0-0.1-0.1-0.1-0.1l-2.8-1.4
		c-0.8,0.2-1.2-0.5-1.8-0.8c-0.2-0.1-0.3-0.5-0.5-0.7c0.2-0.5,0.5-0.4,0.8-0.4c2.5,0.2,5,0.3,7.5,0.6s4.9,0.5,7.3,0.7
		c0.4,0,0.7,0.1,1.1,0.1c2,0.4,4,0.7,6.1,0.9c0.5,0.1,1,0.2,1.5,0.3c0.2,0,0.3,0.1,0.5,0.1c1.4-0.1,2.8,0.5,4.2,0.7
		c1.1,0.2,2.1,0.5,3.2,0.7c3.2,0.7,6.4,1.6,9.6,2.5c1.7,0.5,3.5,0.9,5.2,1.2c2.1,0.4,4.1,1.2,6.2,1.8c0.9,0.2,1.7,0.4,2.6,0.7
		c1.9,0.5,3.8,1.1,5.7,1.6c0.3,0.1,0.7,0.2,1.1,0.2c0.7,0,1.5,0.2,2.1,0.7c0.6,0.4,1.3,0.7,2,0.8c0.6,0.2,1.2,0.4,1.7,0.7
		c1.3,0.6,2.6,1,4,1.2c0.8,0,1.5,0.3,2.2,0.7c0.8,0.4,1.7,0.7,2.7,0.9c0.7,0.1,1.3,0.4,2,0.6c0.5,0.1,1,0.4,1.5,0.1
		c0.2-0.1,0.4,0,0.6,0.1c1.2,0.8,2.7,0.7,4,1.3c0.6,0.1,1.1,0.2,1.7,0.1c1.1,0,2.2,0.1,3.3,0.1c1.8,0,3.3-0.8,4.9-1.6
		c1.5-0.9,3-1.5,4.4-2.5c1.4-0.9,2.8-1.6,4.1-2.6c1.4-1.2,3-2,4.8-2.6c0.7-0.1,1.4-0.5,1.9-1.1c0.2-0.2,0.4-0.3,0.7-0.4
		c1.5-0.5,3-0.9,4.5-1.4c0.7-0.2,1.4-0.3,2.1-0.1c-0.3,0.4-0.7,0.7-1.2,0.7c-1.8,0.1-3.5,0.7-5.1,1.5c-0.4,0.2-0.9,0.4-1.3,0.6
		c-0.6,0.2-1.1,0.6-1.3,1.3c-0.2,0.7-0.7,1.3-1.3,1.7c-0.1,0.1-0.2,0.1-0.2,0.2l-3.6,3.9c-0.2,0.3-0.5,0.5-0.8,0.7
		c-1.7,1.3-3.5,2.3-5.1,3.6c-0.5,0.4-1,0.7-1.6,0.9c-1.6,0.7-3.2,1.4-4.9,2.1c-0.3,0.1-0.6,0.2-0.9,0.3c-1.1,0.2-2.1,0.4-3.3,0.7
		c-1.4,0.1-2.7,0.5-4,0.9c-0.4,0.2-0.9,0.2-1.4,0.2c-1.7-0.2-3.3-0.5-5-0.7c-1.7-0.3-3.3-0.5-5-0.6c-1.5-0.1-3-0.4-4.5-0.8
		c-0.7-0.1-1.3-0.5-2-0.2c-0.1,0-0.2,0-0.3,0c-1.1-0.6-2.4-0.4-3.5-0.9c-0.2-0.1-0.4-0.1-0.6-0.2c-2.3-0.4-4.6-0.9-6.9-1.6
		c-0.5-0.1-1.1-0.2-1.7-0.3c-0.1,0.4,0.1,0.4,0.3,0.5c1.8,0.5,3.5,1.1,5.3,1.5c2.3,0.7,4.6,1.2,6.8,1.8c0.8,0.3,1.7,0.6,2.5,0.8
		c0.9,0.2,1.8,0.4,2.8,0.6c0.5,0.1,0.9,0.2,1.4,0.3l3.5,1c0.6,0.2,1.1,0.3,1.7,0.4c0.3,0.1,0.6,0.3,0.8,0.2c0.9-0.4,1.6,0.2,2.3,0.5
		c0.8,0.3,1.7,0.6,2.5,0.9c1.4,0.6,3,0.6,4.4-0.1c0.3-0.1,0.7-0.2,1-0.3c0.3-0.1,0.7-0.1,0.9-0.3c0.8-0.7,1.8-0.7,2.8-0.8
		c1.5-0.2,3-0.5,4.4-0.9c2.1-0.6,4.2-1,6.3-1.3c1.3-0.2,2.7-0.1,4.1-0.2c1.3-0.2,2.6-0.2,3.9,0c0.6,0.1,1.1,0.2,1.7,0.3
		c0.3,0.1,0.6,0.2,0.9,0.2c1.2,0.1,2.3,0.5,3.2,1.2c1.1,0.7,2.3,1.3,3.4,1.9c1,0.5,1.9,1.3,2.6,2.2c0.4,0.8,0.8,1.6,1,2.4
		c0.2,0.5,0.3,1.1,0.5,1.6c0.3,0.8,0.3,1.7,0,2.5c-0.3,0.7-0.5,1.4-0.7,2.1c-0.2,0.7-0.6,1.3-1.1,1.9c-1.1,1.1-2,2.4-2.9,3.7
		c-0.4,0.7-1,1.3-1.8,1.7c-0.7,0.3-1.1,0.9-2,1s-1.7,0.2-2.5,0.3c-0.4,0-0.8,0.1-1.2,0.1c-0.4,0-0.7,0.1-1.1,0.1
		c-1.5,0.4-3.1,0.6-4.6,0.7c-2.6,0.1-5.2,0.2-7.8,0.2c-0.2,0-0.5,0-0.6,0.1c-0.8,0.5-1.8,0.2-2.6,0.2c-1.6-0.2-3.2-0.2-4.8-0.1
		c-0.3,0-0.5,0-0.8-0.1c-2.2-0.5-4.5-0.8-6.8-0.9c-1.7-0.2-3.3-0.4-5-0.7c-0.3,0-0.5-0.1-0.8-0.1c-0.8,0-1.6,0.2-2.3,0
		c-0.7-0.3-1.5-0.4-2.3-0.4c-1.7,0-3.4-0.7-5.1-0.7c-0.3,0-0.6-0.1-0.9-0.2c-0.2,0-0.3-0.2-0.5-0.1c-1,0.5-1.8-0.2-2.6-0.5
		c-0.4-0.1-0.9-0.3-1.4-0.3c-2-0.4-3.9-0.8-5.8-1.3c-0.2-0.1-0.4-0.1-0.6-0.1c-1.2,0.1-2.3-0.4-3.3-0.8c-2.7-0.9-5.4-1.8-8-2.7
		c-0.8-0.3-1.6-0.7-2.5-1c-1.1-0.4-2.1-0.9-3.1-1.4c-1.3-0.7-2.6-1.2-3.9-1.8c-0.8-1-2.1-0.9-3.1-1.4c-1-0.5-2.1-0.9-3.2-1.4
		c-0.2-0.1-0.5-0.2-0.8-0.1c-0.7,0.1-1.5,0-2.1-0.4c-1.5-0.7-3.1-1-4.6-1.6c-0.9-0.3-1.8-0.7-2.6-1c-0.3-0.1-0.7-0.1-1-0.2
		c-0.2-0.4-0.6-0.7-1.1-0.8c-0.2-0.1-0.4-0.1-0.4,0.3c0.4,0.3,1,0.5,1.5,0.4c0.6,0.4,1.2,0.8,1.8,1.1c1.4,0.8,3,1.5,4.6,2
		c0.7,0.2,1.4,0.6,1.8,1.2c1,1.4,2.4,2.1,3.8,2.9c2.2,1.1,4.3,2.4,6.4,3.7c1.9,1.3,3.6,2.8,5.2,4.5c1.5,1.6,2.9,3.3,4.5,4.8
		c0.4,0.5,0.8,1,1.1,1.5c0.2,0.3,0.5,0.7,0.7,1c1.1,1.4,2.8,1.7,4.4,1.5c1.7-0.2,3.5,0,5.2-0.2c2.1-0.2,4.2-0.1,6.3,0
		c1.7,0,3.4,0.2,5.2,0.3c1.1,0.1,2.3,0,3.4,0c2,0,3.9,0.3,5.9,0.5c0.4,0,0.7,0,1.1,0c0.8,0.1,1.7,0.1,2.5,0.2c1.7,0.3,3.5,0.7,5.2,1
		c0.2,0.1,0.4,0.1,0.6,0.1c2.5,0.1,4.9,0.5,7.3,1c0,0,0.1,0,0.2,0c2.5,0,4.7,1.2,7.1,1.7c2,0.5,4,1.1,5.9,2c1.4,0.7,2.8,1.2,4.3,1.5
		c0.3,0,0.5,0.1,0.8,0.2c0.4,0.1,0.7,0.5,0.7,1c0,0.3,0,0.5-0.1,0.8c0,0.3-0.2,0.6-0.5,0.7c-0.7,0.2-1.2,0.6-2,0.4
		c-0.2-0.1-0.5-0.1-0.7,0c-1.2,0.5-2.5,1.1-3.7,1.7c-0.2,0.1-0.2,0.4-0.4,0.7l-0.7-0.3c-0.4,0.6-0.9,1.1-1.7,0.9
		c-1,0.3-1.9,0.9-2.7,1.6c-0.6,0.6-1.3,1-2.1,1.2c-0.4,0.1-0.7,0.1-1.1,0.1c-0.1,0-0.4,0-0.4,0.1c-0.3,0.6-1,0.5-1.4,0.9
		c-0.2,0.2-0.6,0.3-0.9,0.2c-0.4-0.1-0.9,0-1.2,0.2c-1.9,1.3-4,1.3-6.2,1.1c-0.8-0.1-1.6-0.1-2.3,0c-1.9,0.1-3.8,0.1-5.6,0.2
		c-0.5,0-1,0.1-1.6,0.1c-0.4,0-0.7,0-1.1,0c-0.2,0-0.5-0.2-0.6-0.1c-0.9,0.4-1.8,0-2.8,0c-0.9,0-1.9,0-2.8-0.1
		c-1.5-0.2-3-0.4-4.5-0.7c-0.6-0.1-1.2-0.2-1.8-0.4c-0.2,0-0.3-0.1-0.5-0.1c-1,0.5-2,0-2.9-0.1l0.1,0L354.1,206.7L354.1,206.7z
		 M282.1,200.7c-0.1,0-0.2-0.3-0.2,0H282.1c0.2,0.1,0.3,0.2,0.1,0L282.1,200.7z M236.5,140.4c-2.1-0.5-4-0.9-5.9-1.2
		c-0.7,0.2-1.2-0.1-1.8-0.4c-0.8-0.4-1.7-0.6-2.6-0.7c-2-0.1-4-0.2-6-0.3c-0.2,0-0.3,0-0.5,0c-0.7-0.1-1.4-0.3-2.1,0
		c-0.2,0.1-0.6-0.1-0.9-0.1c-0.3-0.1-0.7-0.2-1-0.3l-2.7,3.1c0,2.2,0,4.5,0,6.8c0,0.6,0,1.3,0.1,1.9c0.4,1.8-0.2,3.4-1.1,4.9
		c-0.7,1.2-1.5,2.2-2.2,3.4c-0.7,1.2-1.2,2.3-1.8,3.5c-0.1,0.4-0.2,0.8-0.2,1.2c0,0.4,0.4,0.7,0.7,0.7c0.3,0,0.5-0.1,0.8-0.1
		c0.9-0.4,1.8-0.8,2.7-1.2c1.5-0.8,3.1-1.2,4.8-1.4c2.1-0.2,4.2-0.5,6.2-1c1.5-0.3,3-0.3,4.5,0c1.1,0.2,2.2,0.4,3.3,0.5
		c0.1,0,0.3-0.2,0.4-0.4c0.1-0.1,0-0.3,0-0.4c-0.2-0.2-0.4-0.4-0.6-0.5c-1-0.7-1.9-1.4-2.9-2.1c-0.7-0.5-1.2-1.1-1.6-1.9
		c-0.2-0.3-0.3-0.6-0.3-0.9c-0.1-0.9-0.1-1.8-0.2-2.7c-0.1-1.2-0.1-1.2-0.9-2.1c0-0.2,0-0.3,0-0.5c0.2-1,0.2-1.9-0.6-2.6
		c-0.1-0.2-0.2-0.4-0.2-0.6c0-0.7-0.5-1-1.1-1.1c-0.5-0.1-1-0.3-1.4-0.7c-0.5-0.5-0.7-1.3-0.5-2c0.3-0.6,1-1,1.7-0.9
		c0.7,0,1.4,0.1,2,0.2c2.3,0.5,4.6,1,6.9,1.5c1.2,0.3,2.5,0.3,3.7-0.1L236.5,140.4z M210.3,173.1c-0.3,0.4-0.5,0.8-0.9,1
		c-1.2,0.6-2.3,1.4-3.2,2.5c-0.2,0.2-0.4,0.4-0.6,0.5c-1.6,1.2-2.9,2.7-3.9,4.5c-0.3,0.5-0.6,1-0.9,1.4c-0.7,0.8-1.3,1.8-1.7,2.8
		c-0.2,0.6-0.6,1.1-0.8,1.7c-0.3,0.6-0.7,1.1-1.2,1.6c-0.3,0.6-0.5,1.2-0.7,1.9c-0.2,0.4-0.5,0.7-0.6,1.1c-0.5,1.4-1.2,2.8-2,4.1
		c-0.2,0.3-0.3,0.7-0.5,1c-0.1,0.3-0.1,0.5,0.3,0.6c0.6-0.4,1.1-1,1.4-1.7c0.9-1.3,1.8-2.7,2.8-3.9c1.1-1.5,2.1-3.1,3-4.8
		c0.7-1.1,1.6-2.2,2.5-3.1c0.7-0.7,1.3-1.3,1.9-2c0.9-1,2-1.7,3.2-2.3c0.3-0.1,0.6-0.2,0.8-0.4c1.7-1,3.4-2.1,5.1-3.1
		c0.7-0.4,1.3-0.7,1.9-1.1c0.5-0.3,1-0.7,1.4-1.2c0.5-0.4,0.9-1,1.2-1.6c-0.4-0.4-1-0.5-1.5-0.5c-1,0.1-2,0-3-0.1
		c-0.4-0.1-0.8,0-1.2,0.2C212.4,172.9,211.4,172.8,210.3,173.1L210.3,173.1z M80.4,218.2c0,1,0,1.2,0.1,1.2c0.6,0.3,1.2,0.6,1.7,1
		c0.2,0.1,0.4,0,0.7,0C82.6,218.9,81.4,218.7,80.4,218.2L80.4,218.2z M79.2,217.4l0.3,0.2c0-0.1,0.1-0.2,0-0.2s-0.1-0.1-0.2-0.2
		L79.2,217.4z M136.7,243.9l0.2-0.1c0,0,0-0.1-0.1-0.1c-0.1,0-0.2,0-0.2,0C136.7,243.7,136.7,243.8,136.7,243.9L136.7,243.9z"/>
	<path d="M385.2,62.3c-1.1-0.8-2.3-1.5-3.6-2.1c-2-0.9-3.9-1.8-5.8-2.9c-1.2-0.6-2.4-1.1-3.7-1.5c-1.4-0.4-2.8-1-4.2-1.3
		c-1.6-0.4-3.2-0.7-4.8-0.9c-0.2,0-0.3,0-0.5,0c-1.4-0.4-2.9-0.3-4.3-0.4c-1.7-0.1-3.3,0.1-5-0.4c-0.2,0-0.4,0-0.7,0
		c-1.7-0.1-3.4-0.3-5.1-0.7c-0.9-0.2-1.8-0.2-2.6-0.4c-1-0.2-2-0.6-3-0.9c-1.3-0.4-2.5-0.9-3.8-1.5c-1.2-0.6-2.4-1-3.6-1.6
		c-0.4-0.2-0.8-0.3-1.2-0.4c-0.7-0.1-1.2-0.6-1.4-1.3c-0.1-0.4-0.3-0.8-0.4-1.2c-0.5-1.3,0.2-2.7,1.4-3.2c0,0,0.1,0,0.1,0
		c1.8-0.8,3.5-1.5,5.3-2.3c0.7-0.3,1.4-0.6,2.1-1.1c0.7-0.5,1.5-0.8,2.3-0.9l3.4-0.6l4.8-0.8c0.3-0.1,0.5-0.1,0.8-0.1
		c2.3,0,4.6-0.6,6.8-0.9c1-0.1,2.1-0.4,3.1-0.7c0.7-0.1,1.3-0.1,2,0c0.4,0.6,1,1.1,1.7,1.3c0.6,0.2,0.9,0.7,1.2,1.2
		c0.2,0.3,0.3,0.6,0.5,0.8c0.8,0.6,1.7,1.1,2.7,1.6c1.2,0.5,2.4,0.7,3.7,0.7c1.7,0,3.5,0,5.2,0.1c1.9,0.1,3.8,0.3,5.6,0.6
		c2.3,0.5,4.7,0.7,6.9,1.5c0.5,0.2,1.1,0.3,1.7,0.4c0.8,0.2,1.6,0.6,2.2,1.1c0.4,0.3,0.8,0.7,1,1.1c0.6,1.2,1.4,2.2,2.5,3
		c0.4,0.3,0.7,0.7,1,1c1.4,1.5,2.9,3.1,4.3,4.6c0.4,0.5,0.8,1.1,1.1,1.7c0.3,0.5,0.3,1.1,0.1,1.6c-0.7,0.1-1.5-0.2-2-0.8
		c-0.6-0.5-1.2-0.9-1.8-1.2c-1-0.5-1.9-1.1-2.8-1.7c-1.5-0.8-3.1-1.4-4.7-1.9c-1.3-0.5-2.6-0.9-3.9-1.3c-0.6-0.3-1.2-0.4-1.8-0.3
		c-0.2,0-0.4-0.1-0.6-0.2c-1.4-0.7-2.8-0.7-4.3-0.7c-0.1,0-0.2,0.2-0.3,0.3c-0.1,0.1,0,0.2,0.1,0.3c0.3,0.3,0.8,0.6,1.2,0.7
		c3,1,5.9,2,8.9,3.1c0.7,0.3,1.4,0.7,2,1.2c1.7,1.1,3.4,2.1,5.2,2.9c1.8,0.8,3.4,1.9,4.8,3.3c1.5,1.5,3,2.9,4.6,4.3
		c0.1,0.1,0.1,0.2,0.2,0.2c1.5,0.8,2.2,2.4,3,3.7c0.5,0.8,0.8,1.7,1.1,2.6c0.5,1.3,0.9,2.6,1.3,3.8c0.4,1,0.8,1.9,1.3,2.9
		c1.3,2.7,2.7,5.3,4,8c0.4,0.9,0.8,1.8,1.1,2.8c0.5,1.8,1.3,3.5,1.6,5.4c0.3,1.4,0.4,2.8,0.2,4.2c0,0.2,0,0.4-0.1,0.7
		c-0.7,2-0.9,4.1-1.6,6.1c-0.8,1.8-1.9,3.5-3.2,5c-0.7,0.8-1.4,1.4-2,2.2c-0.3,0.3-0.5,0.7-0.8,1c-0.2,0.2-0.4,0.5-0.7,0.7
		c-1.1,0.7-1.9,1.8-2.9,2.6c-0.1,0.1-0.1,0.2-0.1,0.4c0.4,0.4,1,0.5,1.6,0.3c1.6-0.6,3.2-1.3,4.8-2c1.4-1.3,3.4-1.6,5-2.5
		c0.9-0.5,1.9-0.5,2.8-0.9c1-0.3,1.8-0.8,2.5-1.5c0.4-0.3,0.6-0.7,0.7-1.2c0.1-0.3,0.2-0.6,0.2-0.9c0.2-1.4,0.4-2.8,0.8-4.1
		c0.2-1.1,0.4-2.2,0.4-3.3c0-0.3,0.1-0.5,0.2-0.8c0.2-0.3,0.6-0.5,1-0.3c0,0,0.1,0,0.1,0.1c1.2,1.2,2.5,2.3,3.1,3.9
		c0.3,0.7,0.6,1.3,0.9,2c0.1,0.5,0.4,0.9,0.8,1.1c0.2,0.1,0.4,0.4,0.5,0.6c0.4,1.1,1.3,1.9,2.1,2.7c0.4,0.3,0.8,0.5,1.2,0.7
		c0.6,0.1,1,0.5,1.3,1c0.1,0.2,0.2,0.3,0.4,0.5c1.1,0.7,1.9,1.8,2.8,2.8c0.8,0.8,1.6,1.7,2.4,2.5c0.3,0.2,0.5,0.5,0.7,0.8
		c0.5,1,0.9,2,1.3,3c0.4,1.1,0.8,2.2,1.1,3.3c0.3,1.1,0.6,2.1,0.8,3.2c0.1,0.4,0.2,0.7,0.3,1.1c0.3,0.8,0.3,1.7,0.2,2.6
		c-0.2,0.7-0.1,1.4-0.2,2c0,0.6-0.2,1.1-0.5,1.6c-1.3,1.8-2.9,3.3-5.2,3.9c-1.2,0.3-2.5,0.4-3.6,0.9c-0.3,0.1-0.7,0.1-1.1-0.1
		c-1.6-0.5-3.3-0.8-4.9-0.8c-1,0-2.1-0.1-3.1-0.2c-1-0.1-2.3-0.2-3.4-0.4c-0.5-0.1-1-0.2-1.5-0.3c-1.2-0.4-2.4-1-3.8-0.8
		c-0.7,0-1.4-0.1-2-0.3c-0.5-0.1-0.9-0.1-1.4-0.2c-1.6-0.3-3.1,0.1-4.6,0.5c-0.8,0.2-1.5,0.7-2.4,0.7c-0.2,0-0.5,0.2-0.7,0.3
		c-0.2,0.1-0.5,0.3-0.7,0.3c-1,0-1.9,0.5-2.8,0.8c-1.5,0.4-2.9,0.7-4.4,1.2c-1.9,0.7-3.8,1-5.7,1.6c-2.3,0.8-4.5,1.5-6.8,2.3
		c-1.2,0.4-2.4,0.7-3.6,1.1l-4.3,1.3c-1.1,0.3-2.1,0.5-3.2,0.8c-1.6,0.4-3.2,0.6-4.8,0.9c-0.6,0.1-1.3,0.1-1.8-0.2
		c-2.4-0.8-4.8-1.4-7.3-1.9c-2.3-0.5-4.5-1.1-6.6-2c-2.2-0.9-4.5-1.7-6.8-2.4c-1.8-0.6-3.6-1-5.4-1.8c-1.3-0.5-2.6-0.9-3.9-1.2
		l-3.1-0.9c-1-0.3-2-0.7-3-0.9c-1.4-0.4-2.7-0.8-4.1-1.1c-0.3-0.1-0.6-0.2-0.9-0.3c-0.5-0.2-1-0.3-1.5-0.5c-1.3-0.4-2.6-0.8-3.9-1.1
		c-0.5-0.1-1-0.3-1.5-0.4c-1.3-0.3-2.5-0.7-3.8-1c-1.5-0.5-3.1-0.9-4.7-1.1c-0.3,0-0.5-0.1-0.7-0.2c-0.3-0.1-0.6-0.2-0.9-0.3
		c-1.8-0.4-3.6-0.9-5.4-1.7c-0.7-0.3-1.4-0.4-2.1-0.7c-2.5-0.7-4.9-1.4-7.4-2.2c-0.9-0.4-1.8-0.9-2.6-1.4c-1.7-0.8-3.5-1.6-5.3-2.4
		c-0.7-0.2-1.4-0.6-2-1c-1.3-1-2.7-2-4-3c-0.6-0.5-0.7-0.6-1.1-1.6c0.8-0.7,0.9-1.7,0.9-2.7c0-0.8,0.1-1.7,0.2-2.5
		c-1.1-0.6-2.1-1-3.3-0.4c-0.6,0.3-0.9,0.1-1-0.5c-0.1-1.1-0.3-2.3-0.7-3.4c-0.5-1.6-0.9-3.3-1.3-5c-0.3-1-0.3-2.1,0-3.1
		c0.1-0.3,0.1-0.7,0.2-1.1c0.2-0.5,0.4-1.1,0.7-1.6c0.4-0.6,0.9-1.3,1.5-1.8c1.1-1.2,2.3-2.2,3.4-3.4c0.7-0.8,1.3-1.6,2-2.4
		c0.3-0.3,0.6-0.6,0.9-0.8c0.3-0.3,0.7-0.2,1,0c0.1,0.1,0.1,0.2,0.2,0.3c0.1,0.1,0.2,0.3,0.2,0.4c-0.3,1.5,0.6,2.9,0.3,4.4
		c0,0.2,0.2,0.5,0.4,0.6c0.2,0,0.5,0,0.7-0.2c0.5-0.6,0.9-1.2,1.2-1.8c1-2.1,2.1-4.1,3.5-6c1.5-2,3-3.9,4.6-5.8c0.9-1,1.9-2,2.9-2.9
		l3.4-3.5c0-0.5,0-1,0-1.5c0-0.4-0.4-0.8-0.8-0.8c-0.3,0-0.6,0-0.9,0c-2.8,0.2-5.5,0.4-8.3,0.6c-1.9,0.2-3.9,0.3-5.8,0.6
		c-1.2,0.2-2.5,0.5-3.6,0.9c-0.6,0.2-1.2,0.3-1.8,0.1c-0.7-0.2-1.4-0.4-2.1-0.7s-1-0.6-0.8-1.5c0.1-0.8,0.3-1.5,0.5-2.3
		c0.2-0.5,0.6-0.9,1.1-1.1c0.8-0.3,1.6-0.7,2.3-1.2c0.8-0.5,1.7-0.8,2.6-0.8c2,0,4,0.1,6,0.3c1.3,0.2,2.7,0.4,4,0.7
		c1,0.2,2,0.1,2.9-0.2c0.2-0.4-0.1-0.9-0.5-1.1c-0.8-0.4-1.5-1-2.1-1.6c-0.7-0.6-1.5-1-2.4-1.2c-1.3-0.2-2.7-0.5-4-0.8
		c-0.6-0.1-0.6-0.1-1-0.9c0.4-0.4,0.9-0.6,1.5-0.6c0.6,0,1.2,0,1.8-0.2c0.7-0.2,1.5-0.2,2.1,0.2c0.3,0.2,0.7,0.3,1.1,0.3
		c1.4,0.1,2.6,0.7,3.9,1.2c1.6,0.5,3.1,1.3,4.7,1.8c0.7,0.2,1.4,0.4,2.1,0.5c0.8,0.1,1.7,0.3,2.5,0.3c2.4,0.2,4.6,1.6,5.9,3.7
		c0.5,0.7,0.8,1.5,1.2,2.1c0.1,0.8-0.4,1.5-1.1,1.8c-0.7,0.3-0.7,1-1.1,1.5c-0.1,0.1-0.2,0.2-0.3,0.1c-1.2-0.2-1.9,0.5-2.3,1.5
		c-0.2,0.5-0.4,0.8-1,0.9c-0.2,0.1-0.4,0.2-0.5,0.3c-1,1.3-2.2,2.4-2.9,3.9c-0.2,0.3-0.4,0.6-0.7,0.9l-1.8,2.3
		c-0.1,0.2-0.3,0.4-0.5,0.6c-1,1-1.9,2.1-2.7,3.3c-0.4,0.6-0.8,1.2-1.2,1.8l-1.3,2c-0.5,0.8-0.9,1.7-0.9,2.6c0,1.1-0.2,2.3-0.3,3.4
		c0,0.6,0,1.1,0,1.7c0.1,0.8,0.2,1.7,0.3,2.5c0.1,0.6,0.3,1.1,0.7,1.6c0.8,1,1.6,2.1,2.5,3c0.7,0.6,1.2,1.4,1.5,2.3
		c0.1,0.2,0.2,0.4,0.3,0.6c1.2-0.1,2.4,0,3.5,0.5c0.2,0.1,0.5,0.1,0.8,0.1c1.9,0.1,3.8,0.2,5.6,0.2c0.5,0,0.9-0.1,1.4-0.1
		c1.5,0,3,0.2,4.5,0.6c0.9,0.2,1.9,0.3,2.8,0.4c1.5,0.1,3,0.1,4.6,0.1c1.8,0,3.5-0.2,5.3-0.3c0.6,0,1.1,0,1.7,0
		c1.9,0.2,3.9,0.1,5.8-0.3c2.1-0.4,4.1-0.7,6.2-0.9c1.8-0.2,3.5-0.5,5.3-0.9c1.5-0.2,3-0.3,4.5-0.3c0.6,0,1.2,0,1.7,0
		c0.4,0,0.8-0.2,1.2-0.4c0.8-0.4,1.5-0.9,2.3-1.4c1.2-0.6,2.2-1.4,3.2-2.3c0.3-0.3,0.6-0.6,1-0.8c1.5-0.9,2.9-2,4.1-3.3
		c2.1-2.1,4.2-4.3,6.2-6.6c2.6-3,5-6.1,7.4-9.1c0.2-0.3,0.4-0.7,0.6-0.9c0.3-0.6,1.1-0.8,1.7-0.5c0.1,0.1,0.2,0.2,0.3,0.3
		c1.2,1.2,2.6,2.3,3.9,3.4c0.8,0.7,1.5,1.6,2.3,2.4c1.3,1.3,2.7,2.7,4,4c0.4,0.3,0.8,0.5,1.2,0.7c1,0.5,1.6,1.5,1.7,2.7
		c0.1,1.3,0.2,2.6,0.2,3.9c0,1-0.3,2-0.9,2.8c-0.9,1.3-1.8,2.6-2.7,3.8c-0.3,0.4-0.6,0.8-0.9,1.1c-1.8,2-3.8,3.9-5.9,5.7
		c-1.1,1-2.3,2-3.4,3c-0.8,0.8-1.4,1.6-2.1,2.5c-0.4,0.4-0.7,0.9-1.1,1.3c-0.2,0.2-0.2,0.4,0,0.6c0,0,0,0,0,0c0.1,0,0.2,0,0.3,0
		c1.3-1,2.7-2,4-3c1.3-1,2.3-2.1,3.5-3.2c0.7-0.7,1.4-1.4,2.3-2c0.8-0.5,1.3-1.4,1.9-2.1c0.3-0.3,0.5-0.7,0.8-0.9
		c1.9-2,3.8-4.1,5.7-6.1c0.9-1,1.7-2,2.5-3c0.3-0.4,0.6-0.9,0.8-1.4c0.1-0.2,0.1-0.4,0.2-0.6c0.2-0.3,0.6-0.5,1-0.3
		c0.3,0.1,0.5,0.3,0.5,0.7c0,0.5-0.1,1-0.2,1.5c-0.1,0.6-0.3,1.2-0.5,1.8c-0.3,0.7-0.7,1.4-1.1,2.1c-1.1,1.5-2.1,3.1-3.1,4.7
		c-1,1.7-2,3.3-3.1,4.9c-0.3,0.4-0.7,0.8-1.1,1.1c-0.6,0.4-1.1,1-1.4,1.6c-0.3,0.5-0.7,0.9-1,1.4c-0.3,0.3-0.3,0.7,0,1
		c0,0,0.1,0.1,0.1,0.1c0.1,0,0.1,0,0.2,0c0.9-0.5,1.3-1.5,2.2-2c0.8-0.4,1.6-1,2.2-1.7c0.7-0.8,1.4-1.7,2.1-2.6
		c0.8-1.1,1.7-2.3,2.5-3.4c0.4-0.6,0.8-1.2,1.1-1.9c0.1-0.2,0.2-0.5,0.4-0.7c0.5-0.4,0.9-1,1.2-1.6c0.4-0.7,1.1-1.3,2-1.5
		c1.2-0.4,1.5-1.4,1.6-2.4c0.1-0.9,0.4-1.8,0.9-2.6c0.2-0.2,0.3-0.5,0.3-0.9c0-1,0-2.1,0.2-3.1c0.1-0.5,0-0.9-0.2-1.3
		c-0.3-0.6-0.4-1.2-0.4-1.8c0-0.5-0.2-1-0.6-1.4c-0.8-0.9-1.7-1.6-2.6-2.3c-0.4-0.3-0.7-0.6-1.1-0.9c-1.2-1.1-2.6-2-4.1-2.6
		c-0.3-0.1-0.5-0.2-0.7-0.4c-1.1-1.2-2.6-2-3.7-3.3c-0.7-0.8-1.5-1.5-2.4-2.1c-1.4-1.1-2.6-2.2-4-3.3c-0.6-0.6-1.2-1-2-1.3
		c-0.2-0.1-0.4-0.2-0.5-0.4c-0.5-0.5-1-0.9-1.6-1.2c-2.2-1.4-4.6-2.6-7-3.6c-1-0.4-2-0.6-3-1c-1.5-0.7-3.3-0.8-4.8-1.4
		c-1.5-0.6-3-1-4.5-1.4c-1.8-0.5-3.6-0.8-5.4-1.2c-2.1-0.5-4.2-0.9-6.3-1.2c-2-0.3-4.1-0.5-6.1-0.5c-1.8,0.1-3.5-0.1-5.3-0.2L343,63
		c-1.4-0.1-2.8-0.1-4.2-0.2c-0.4,0-0.7-0.1-1.1-0.2c-2.3-0.8-4.7-1.4-7.1-1.9c-1-0.2-2-0.4-2.9-0.7c-1.2-0.3-2.4-0.7-3.6-1
		c-0.6-0.2-1.2-0.4-1.7-0.7c-1.5-0.8-2.9-1.6-4.4-2.4c-0.4-0.2-0.8-0.5-1-0.9c-0.4-0.4-0.4-1,0-1.4c0.5-0.6,1-1.1,1.6-1.6
		c0.7-0.6,1.4-1.1,2.1-1.7c1.1-0.8,2.3-1.3,3.6-1.4c0.5-0.1,1-0.1,1.6-0.1c0.4,0,0.7,0,1.1,0.2c1,0.5,2.1,0.9,3.2,1.3
		c1.3,0.6,2.6,1,3.9,1.5c1.4,0.6,2.8,1.1,4.3,1.6c2.8,1,5.6,1.7,8.4,2.4c0.6,0.1,1.2,0.2,1.8,0.2c4,0.4,7.9,0.9,11.9,1.3
		c0.7,0.1,1.4,0.3,2.1,0.5c2.2,0.7,4.4,1.5,6.5,2.2c1.3,0.4,2.6,0.7,3.9,1.1c0.8,0.2,1.6,0.6,2.4,0.7c1.9,0.4,3.7,1,5.7,0.9
		c0.3,0,0.6,0,0.9,0.1c0.6,0.1,1.2,0.2,1.9,0.2C384.4,63,384.9,62.8,385.2,62.3z M361,128.6c0.1-0.3-0.1-0.6-0.3-0.7
		c-0.6-0.3-1.3-0.7-2-0.9c-0.9-0.3-1.7-0.7-2.5-1.2c-0.7-0.4-1.4-0.7-2.2-0.9c-1.1-0.3-2.2-0.5-3.4-0.8c-0.4-0.1-0.8-0.2-1.2-0.3
		c-0.9-0.3-1.8-0.7-2.7-1c-0.5-0.2-1.1-0.3-1.7-0.3c-1.1,0.2-2.1-0.1-3.1-0.3c-0.3-0.1-0.5-0.1-0.8-0.1c-1.8-0.1-3.5-0.1-5.3-0.3
		c-2.8-0.2-5.6-0.3-8.5-0.4c-0.7,0-1.4-0.1-2-0.2c-2.4-0.3-4.8-0.6-7.2-0.9c-0.8,0-1.7-0.1-2.5-0.3c-1.1-0.3-2.3-0.7-3.5-0.9
		c-0.8-0.2-1.5-0.5-2.2-0.9c-0.7-0.5-1.5-0.8-2.2-1.1c-0.7-0.3-1.3-0.6-1.9-1.1c-0.7-0.6-1.5-1.1-2.3-1.6c-0.6-0.3-1.1-0.8-1.6-1.3
		c-1.3-1.5-2.6-3-3.9-4.5c-0.3-0.5-0.8-0.8-1.4-0.8c-0.1,0-0.1,0.1-0.2,0.1c-1,1.2-1.1,1.6-0.3,2.9c0.3,0.5,0.7,0.9,1,1.4
		c0.8,1.2,1.9,2.2,3.1,3.1c1.8,1.4,3.6,2.8,5.7,3.8c0.1,0.1,0.3,0.2,0.4,0.3c0.7,0.7,1.4,1.2,2.3,1.6c0.7,0.4,1.4,0.7,2.1,1.1
		c1,0.6,2.2,1,3.4,1c1.9,0.2,3.8,0.4,5.8,0.7c1.5,0.2,3,0.4,4.5,0.5c2.3,0.2,4.6,0.1,6.9,0.4c0.7,0.1,1.5,0.2,2.2,0.2
		c2.7,0.1,5.4,0.3,8.1,0.4c1.1,0.1,2.2,0.1,3.3,0.2c1.9,0.2,3.7,0.5,5.6,0.7c0.9,0.1,1.8,0.2,2.6,0.6c1.4,0.6,2.8,1.1,4.3,1.6
		C358.8,128.7,359.9,128.8,361,128.6z"/>
	<path d="M208,18.3c0.2,0.1,0.3,0.2,0.5,0.2c0.9,0.2,1.1,0.7,0.9,1.6l-0.8,0.4c0,0.1,0.1,0.2,0.1,0.3c0.7,0.6,1.4,1.1,2.1,1.7
		c0.4,0.3,0.7,0.6,1.1,0.8c1.3,0.8,2.5,1.7,3.7,2.7c0.5,0.4,1.1,0.8,1.6,1.2c0.4,0.4,0.9,0.9,1.2,1.4c0.6,0.7,1.1,1.4,1.6,2.1
		c0.2,0.2,0.3,0.4,0.4,0.7c0.3,1.1,0.8,2.2,1.4,3.1c0.3,0.4,0.4,0.8,0.5,1.3c0,0.2,0,0.4,0.1,0.6c0.6,1.6,0.9,3.3,1,5.1
		c0.1,1.7-0.1,3.4-0.8,4.9c-1,2.2-1.9,4.4-2.8,6.7c-0.3,0.9-0.4,1.8-0.9,2.7c-0.9,1.4-1.7,2.7-2.5,4.2c-0.4,0.7-0.7,1.5-1,2.3
		c-0.2,0.5-0.5,0.9-0.8,1.4c-0.6,0.9-1.1,1.8-1.5,2.7c-0.7,1.3-1.4,2.7-1.9,4.1c-0.5,0.5-0.7,1.2-0.7,1.9c0.1,1.5-0.6,2.3-2,2.6
		c-0.3-0.2-0.6-0.4-0.8-0.6c-0.2-0.2-0.4-0.4-0.5-0.7c-0.6-2.1-1.5-4.1-1.9-6.3c-0.1-1-0.6-1.9-1.3-2.6c-0.3-0.3-0.5-0.7-0.6-1.1
		c0.4-0.6,0.7-1.1,1-1.7c0.1-0.2,0.2-0.4,0.3-0.5c0.1-0.3,0.1-0.5-0.1-0.7c-0.2-0.1-0.4-0.1-0.6,0c-1.1,0.6-2.1,1.4-2.8,2.4
		c-0.4,0.6-0.9,1.1-1.5,1.6c-0.9,0.6-1.3,1.5-1.9,2.3c-0.3,0.5-0.7,0.9-1.2,1.1c-0.4,0.2-0.7,0.5-0.9,0.8c-1.3,1.6-2.6,3.1-4,4.8
		c-0.3-0.1-0.7-0.2-1.1-0.3c-0.4-0.1-0.6-0.4-0.7-0.8c-0.1-1.3-0.8-2.4-1-3.6c-0.2-1-0.3-2.1-0.2-3.1c0.1-1.5,0-3,0-4.6
		c0-0.4,0.1-0.7,0.2-1c0.5-1.3,1-2.6,1.6-3.9c0.5-1.2,1-2.4,1.5-3.6c0.1-0.2,0.2-0.4,0.2-0.6c0-0.2-0.2-0.5-0.3-0.5
		c-0.9-0.2-2-0.2-2.5,1c-0.3,0.8-0.7,1.5-1.1,2.3c-0.3,0.6-0.7,1.1-1.1,1.5c-0.8,0.8-1.6,1.6-2.3,2.5c-0.8,1-1.7,2-2.4,3.1
		c-0.4,0.6-1,1.1-1.7,1.3c-0.9,0.2-1.8,0.5-2.6,1c-0.3,0.1-0.6,0.2-0.9,0.3c-0.5,0.3-1.1,0.2-1.5-0.1c-1.2-0.6-2.4-1.2-3.7-1.7
		c-1-0.5-2.1-0.8-2.7-1.8c-0.3-0.4-0.5-0.8-0.6-1.2c-0.1-0.6-0.2-1.2-0.4-1.8c-0.1-0.2-0.1-0.5,0-0.8c0.1-0.5,0.2-0.9,0.3-1.4
		c0.1-1.9,0.7-3.7,0.9-5.6c0.2-0.5,0.2-1,0.1-1.5c-0.1-0.2,0.1-0.6,0.2-0.9c0.3-0.5,0.6-1,0.9-1.5c0.1-0.3-0.2-0.7-0.5-0.7
		c-1.1,0-2.1,0.5-2.5,1.6c-0.3,0.9-1,1.6-1.8,2.1c-1.5,1-2.8,2.3-3.9,3.8c-1.1,1.5-2.6,2.7-4.2,3.7c-1.1,0.6-2.3,1-3.5,1.3
		c-0.5,0.1-1.1,0.2-1.7,0.3c-0.3,0.1-0.7-0.1-0.8-0.5c0-0.1,0-0.3,0-0.4c0.1-0.3,0.3-0.7,0.5-1c0.7-1.2,1.2-2.5,1.4-3.8
		c0.4-1.8,0.6-3.7,1-5.6c0.2-0.9,0.2-1.9,0.1-2.8c-0.1-0.3-0.2-0.6-0.4-0.8c-0.2-0.2-0.4-0.4-0.5-0.6c0.7-1.7,0.6-3.4,0.6-5.1
		c0-0.7,0.1-1.4,0.1-2c0-0.4,0-0.7,0-1.1c-0.1-0.6-0.6-0.8-1.1-0.4c-0.2,0.1-0.3,0.2-0.4,0.4c-0.7,1.4-1.5,2.7-1.3,4.3
		c0.1,0.8-0.1,1.7-0.6,2.4c-0.8,1.4-1,3-2,4.2c-0.2,0.3-0.3,0.7-0.3,1c-0.2,0.8-0.9,1.4-1.7,1.3c-0.2,0-0.5,0-0.6,0.1
		c-0.7,0.7-1.7,0.7-2.6,1.1c-0.8,0.5-1.7,0.9-2.6,1.2c-1.5,0.5-2.8,1.3-4.4,1.7c-1.1,0.4-2.3,0.9-3.3,1.4c-1,0.4-2,0.8-3.1,1.2
		c-1.4,0.6-2.9,0.9-4.2,1.7c-0.5,0.3-0.9,0.5-1.4,0.7l-2,0.8c-0.3,0.7,0.5,0.9,0.3,1.4c0,0-0.1,0.1-0.2,0.2l-1.1-1.1
		c-1.8,0.8-3.6,1.4-5.2,2.5c-1.1,0.7-2.3,1.3-3.5,1.7c-0.5,0.2-1,0.3-1.5,0.5c-1.1,0.3-2.1,0.8-3,1.4c-0.9,0.7-2,1.2-2.9,1.9
		c-0.8,0.6-1.5,1.2-2.2,2c-0.5,0.5-1.1,1-1.8,1.3c-1.8,0.9-3.4,2.1-4.7,3.6c-0.5,0.5-1,1.1-1.6,1.5c-1.4,1.3-2.6,2.8-3.5,4.4
		c-1.3,2.2-2.7,4.2-4,6.4c-0.2,0.4-0.5,0.8-0.7,1.2c-0.2,0.5-0.6,0.8-1.2,0.9c-0.6,0-1-0.4-1.1-1c-0.3-1-0.1-2.1,0.6-3
		c0.4-0.5,0.7-1.1,0.8-1.8c0.3-1.1,0.8-2.2,1.3-3.3c0.2-0.5,0.4-1,0.6-1.4c0.7-1.7,1.3-3.5,2.2-5.2c0.5-0.9,1.1-1.8,1.8-2.7
		c0.8-1.1,1.8-2.2,2.9-3.1c0.7-0.6,1.5-1.2,2.2-1.7c1.1-0.7,2-1.5,2.8-2.5c0.5-0.6,1.2-1.1,2-1.5c1.4-0.8,2.9-1.5,4.3-2.2
		c0.9-0.5,1.9-0.9,2.8-1.3c0.9-0.5,1.8-0.9,2.7-1.4c1.9-1.1,3.7-2.1,5.6-3.2c0.1-0.1,0.3-0.1,0.4-0.2c1.7-0.3,3.1-1.2,4.6-1.9
		c0.7-0.4,1.4-0.7,2-1.2c0.7-0.4,1.4-0.7,2-1.2c0.7-0.5,1.5-0.9,2.4-1.1c2.5-0.9,4.8-2.5,6.5-4.5c0.5-0.6,1.1-1.1,1.8-1.4
		c0.3-0.1,0.5-0.3,0.8-0.5c0.2-0.1,0.2-0.4,0.4-0.5c1.3-0.5,1.7-1.8,2.4-2.8c0.5-0.8,0.3-1.2-0.5-1.7c-0.2-0.1-0.4-0.2-0.7-0.4
		c-0.4-0.3-0.9-0.4-1.3-0.3c-1.8,0.1-3.4,1.1-4.3,2.5c-0.2,0.3-0.4,0.5-0.5,0.8c-0.5,1-1.4,1.8-2.5,2.2c-0.5,0.2-0.9,0.5-1.3,0.8
		c-0.6,0.4-1.2,0.8-1.8,1.2c-0.7,0.5-1.5,0.7-2.4,0.5c-0.6-0.1-1.2,0-1.9,0.1c-0.6,0.1-1.1-0.2-1.3-0.7c-0.3-0.7-0.9-1.3-1.6-1.6
		c-1.1-0.5-1.9-1.5-2.1-2.8c-0.2-1.1-0.4-2.1-0.5-3.2c0-1.8,0.3-3.6,0.9-5.2c0.4-1,0.5-2,0.4-3.1c-0.1-0.6,0-1.3,0.4-1.8
		c0.1-0.1,0.1-0.2,0.1-0.3c0.2-0.3,0.1-0.7-0.1-1c-0.3-0.3-0.7-0.4-1-0.2l-3,1c-0.8,0.4-1.5,0.8-2.1,1.4c-0.3,0.2-0.5,0.3-0.8,0.5
		c-0.4-0.3-0.5-0.8-0.4-1.3c0.1-1,0.1-2,0.1-3c0-0.4-0.2-0.7-0.6-0.7c0,0,0,0,0,0c-0.2,0.3-0.4,0.7-0.6,1c-0.2,0.3-0.5,0.5-0.7,0.8
		c-0.2,0.3-0.4,0.6-0.4,1c-0.3,1.3-0.5,2.7-0.7,4c0,0.9,0.2,1.9,0.7,2.7c0.6,1.3,1.1,2.7,1.3,4.2c0.1,0.4,0.2,0.8,0.3,1.2
		c0.3,0.7,0.3,1.4,0.1,2.1c-0.2,0.5-0.1,1.1-0.4,1.5c-0.7,0.8-1.2,1.8-1.5,2.8c-0.5,0.2-0.5,0.7-0.7,1.2c-0.2,0.4-0.4,0.7-0.7,1
		c-0.7,0.7-1.5,1.3-2.3,1.9c-1.3,1.1-2.6,2.1-3.9,3.2c-0.3,0.2-0.5,0.4-0.6,0.7c-0.3,1-1,1.4-1.8,1.9s-1.6,0.9-2.5,1.4
		c-0.2-0.1-0.4-0.2-0.6-0.3c-0.3-0.2-0.5-0.5-0.9-0.8c0.2-1.1,0.7-2.1,1.3-3.1c-0.3-1.1-0.2-2.3,0.4-3.3c0.4-0.9,0.6-1.9,0.7-2.9
		c0-0.5,0-1,0.2-1.6c0.3-0.9,0.5-1.8,0.5-2.8c0-0.4,0.1-0.7,0.3-1c0.6-1.2,1.2-2.3,1.8-3.5c0.2-0.3,0.3-0.7,0.4-1
		c0.3-1.2,0.7-2.3,0.9-3.5c0.3-1.2-0.2-2.3-0.8-3.3c-0.2-0.3-0.6-0.5-0.9-0.3c-0.1,0-0.1,0.1-0.2,0.2c-0.3,0.3-0.4,0.6-0.7,0.8
		c-1.8,1.9-3.3,3.9-4.9,6c-0.5,0.8-1.1,1.5-1.8,2.1c-0.8,0.8-1.4,1.8-1.7,3c-0.7,2.3-1.6,4.6-2.1,6.9c-0.3,1-0.7,2-1.2,2.9
		c-0.2,0.5-0.5,0.9-0.7,1.4c-0.3,1-0.8,1.9-1.5,2.7c-0.6,0.8-1.2,1.6-1.7,2.5c-0.9,1.5-1.8,2.9-2.9,4.3c-0.7,0.8-1.3,1.8-2,2.6
		C80.1,61.9,80,62,80,62.1c-1,1.2-2.1,2.2-2.9,3.5c-0.3,0.5-1,0.6-1.5,0.3c-0.4-0.2-0.6-0.6-0.7-1c-0.1-0.6-0.1-1.2-0.2-1.7
		c-0.1-0.8-0.4-1.6-0.7-2.4c-0.4-1-0.6-2-0.6-3c0-1.2-0.1-2.4-0.2-3.6c-0.1-0.6,0-1.1,0.2-1.7c0.4-1.2,0.8-2.4,1.3-3.5
		c0.2-0.5,0.4-1,0.7-1.4c0.7-1,1.4-2,2-3c1-1.5,1.8-3,2.8-4.5c0.7-1.1,1.3-2.4,2.3-3.3c0.1-0.2,0.2-0.3,0.3-0.5
		c0.4-0.6,0.8-1.2,1.2-1.8c0.3-0.4,0.5-0.8,0.6-1.3c0-0.6,0.4-1.2,0.9-1.6c0.2-0.1,0.3-0.3,0.3-0.5c0.3-0.9,0.5-1.8,0.8-2.7
		c0.1-0.3,0.2-0.6,0.4-0.9c0.6-0.9,1.2-1.7,1.7-2.6c0.2-0.3,0.3-0.6,0.4-1c0.1-0.3,0.1-0.7-0.2-0.8c-0.3-0.1-0.6-0.1-0.9,0
		c-1.3,1.1-2.6,2.2-3.3,3.9c-0.1,0.2-0.2,0.5-0.4,0.7c-0.9,0.8-1.6,1.6-2.2,2.6c-0.2,0.3-0.4,0.6-0.7,0.8c-0.3,0.3-0.5,0.5-0.7,0.9
		c-0.3,0.9-0.9,1.7-1.7,2.2c-0.2,0.1-0.3,0.4-0.4,0.7c-0.2,0.4-0.5,0.7-0.8,1c-0.9,0.8-1.6,1.8-1.9,3c-0.1,0.4-0.3,0.8-0.7,1
		c-0.6,0.8-1.4,1.5-2.2,2c-0.3-0.1-0.3-0.4-0.3-0.7c-0.1-1.3-0.1-2.6-0.2-3.9c-0.1-1.2,0.3-2.4,0.9-3.5c0.5-0.8,1-1.7,1.4-2.6
		c0.3-0.9,0.9-1.7,1.3-2.5c0.1-0.2,0.3-0.5,0.3-0.7c-0.1-1.2,0.7-2,1.1-3c0.1-0.3,0.1-0.6,0.2-0.9c0.1-0.8,0.4-1.6,0.8-2.4
		c0.1-0.3,0.2-0.6,0.2-0.9c0.1-0.3,0.2-0.7,0.3-1c0.5-1.8,1.2-3.5,2-5.1c0.2-0.3,0.1-0.7,0.2-0.9c0.1-0.5,0.5-0.8,1-0.9
		c0.3,0,0.6-0.2,0.8-0.4c0.7-0.6,1.4-1,2.3-1.4c0.5-0.3,1-0.6,1.5-0.9c1.5-1.1,3.1-2.1,4.8-2.9l2.8-1.3c0.6-0.3,1.2-0.7,1.6-1.2
		c0.3-0.3,0.7-0.6,1.2-0.7c0.9-0.2,1.7-0.6,2.3-1.2c0.6-0.4,1.3-0.8,2-1c0.1-0.1,0.2-0.1,0.3,0c1.2,0.4,2.2-0.3,3.3-0.5
		c0.5-0.2,1-0.2,1.5-0.1c2,0.8,3.9,0.5,5.9,0.4c0.2,0,0.5-0.2,0.7-0.3c0.5-0.4,1.2-0.7,1.9-0.7c0.9-0.2,1.8-0.3,2.8-0.3
		c0.1,0,0.2,0,0.3,0c0.7-0.8,1.4-0.3,2.2-0.1s1.4,0.2,2.2,0.4c1,0.2,1.9,0.5,2.9,0.7c0.6,0.1,1.1,0.2,1.7,0.2c1.1,0,2.1,0.3,2.9,0.9
		c0.2,0.1,0.4,0.2,0.6,0.3c1.2,0.5,2.4,0.9,3.6,1.4c0.2,0.1,0.5,0.1,0.7,0.1c0.3-0.1,0.6,0,0.8,0.3c0.2,0.1,0.4,0.2,0.6,0.2
		c0.9-0.3,1.5,0.2,2.1,0.7c0.2,0.3,0.5,0.5,0.9,0.6c0.7,0.2,1.3,0.6,1.9,1.1c2.1,1.4,3.9,3.2,5.9,4.7c1,0.8,2,1.5,3.2,2
		c0.9,0.2,1.7,0.9,2.1,1.7c0.2,0.4,0.7,0.7,1.1,0.7c1.3,0.2,2.6,0.1,3.9-0.1c2-0.4,3.9-0.5,5.9-0.5c0.1,0,0.2,0,0.3,0
		c1-0.4,2-0.5,3-0.1c0.3,0,0.5,0,0.8-0.1c1.3-0.4,2.6-0.2,3.9-0.4c0.3-0.1,0.6-0.1,0.9,0c0.9,0.5,1.8,0.4,2.7,0.7
		c0.5,0.1,0.9,0,1.4-0.1c0.4-0.1,0.8-0.1,1.2,0l2.9,1.2c0.2,0.1,0.5,0.3,0.7,0.4c1.5,0.5,2.9,1.4,4,2.7c0.2,0.2,0.5,0.4,0.7,0.7
		c1.1,0.9,2,1.9,2.8,3c0.2,0.3,0.5,0.6,0.8,0.8c0.3,0.3,0.7,0.5,0.9,0.8c0.6,0.5,0.8,1.3,0.4,2c-0.2,0.3-0.2,0.7-0.1,1.1
		c0.1,0.4,0.6,0.6,1,0.5c0.1,0,0.1,0,0.2-0.1c0.3-0.2,0.7-0.5,1-0.8c1.3-1.2,2.8-2.2,4.4-3.1c0.3-0.2,0.5-0.4,0.7-0.7
		c1.7-1.7,3.6-3.2,5.7-4.3c0.5-0.4,1.2-0.5,1.8-0.2c0.7,0.4,1.5,0.1,1.9-0.5c0,0,0,0,0-0.1C207.8,18.4,207.9,18.4,208,18.3z"/>
	<path d="M71.2,78.9c1.2-0.2,1.3-0.2,1.7,0.8c0.5,0.9,0.7,2,0.7,3c0,0.4,0,0.8,0,1.3c0.1,1.5,0.1,2.9,0.2,4.4
		c0.1,1.1,0.3,2.2,0.4,3.3c0.1,1.5,0.2,2.9,0.2,4.4c-0.1,0.6-0.3,1.2-0.6,1.8c-0.2,0.5-0.2,1.1,0,1.7c0.6,1.6,1.2,3.1,1.8,4.7
		c0.3,0.7,0.7,1.4,1.2,2c1,1.1,1.6,2.4,2,3.9c0.1,0.5,0.3,0.9,0.6,1.3c0.7,0.8,1,1.8,1.1,2.9c0.1,0.8,0.3,1.5,0.5,2.3
		c0.1,0.2,0.4,0.4,0.6,0.7c0.7-0.7,1.2-1.5,1.8-2.3c0.3-0.4,0.6-0.8,1-1.2c0.4-0.5,0.8-0.9,1.3-1.3c1.4-1,1.8-2.6,2.6-4
		c0.1-0.2,0.1-0.4,0.2-0.6c0.1-0.2,0.1-0.6,0.3-0.7c1-0.5,1.2-1.7,1.8-2.5c0.2-0.3,0.4-0.6,0.7-0.8c1.1-0.9,2.1-2.1,2.7-3.4
		c0.1-0.2,0.2-0.4,0.4-0.5c0.5-0.3,0.8-0.8,0.9-1.4c0.2-0.7,0.7-1.4,1.3-1.8c0.7-0.5,1.2-1.2,1.5-2c0.7-1.7,1.7-3.2,3-4.5
		c1.2-1.2,2.3-2.5,3.2-3.9c0.3-0.5,0.7-0.9,1.1-1.3c0.9-0.8,1.8-1.6,2.8-2.3c0.9-0.6,1.6-1.4,2.1-2.4c1.3-0.2,2.4-1,3.6-1.7
		c1.8-0.9,3.7-1.6,5.6-1.8c0.6-0.1,1.2-0.2,1.9-0.3c2.7-0.8,5.6-1.1,8.4-0.9c1.1,0.1,2.2,0,3.3-0.3c1-0.2,2-0.1,3,0.2
		c1.5,0.4,2.9,0.8,4.4,1.2c1.4,0.4,2.8,0.5,4.1,1.1c0.1,0.1,0.2,0.1,0.3,0.1c1.1-0.2,2.2,0.3,3.2,0.5c0.3,0,0.6,0.1,0.9,0.3
		c0.5,0.3,0.9,0.7,1.1,1.3c0.1,0.6-0.1,1.1-0.6,1.5c-1.1,0.1-2.3,0.1-3.4,0c-0.6-0.1-1.1-0.1-1.7,0c-0.6,0.1-1.3,0.1-1.9,0.1
		c-0.6,0-1.3,0-1.9,0.1c-0.6,0.2-1.2,0.1-1.8-0.1c-0.5-0.2-1-0.2-1.5,0c-0.3,0.1-0.7,0.2-1.1,0.2c-1.5-0.3-2.8,0.2-4.2,0.5
		c-1.4,0.2-2.8,0.6-4,1.3c-0.2,0.1-0.4,0.1-0.6,0.1c-0.9,0.2-1.8,0.5-2.6,1c-0.3,0.2-0.6,0.3-0.9,0.4c-0.4,0.1-0.7,0.2-1,0.4
		c-0.9,0.8-2.1,0.9-3.1,1.4c-1.3,0.7-2.7,1.1-3.7,2.2c-0.1,0.1-0.2,0.2-0.2,0.2c-1.4,0.2-2,1.3-2.8,2.2c-1.2,1.3-2,2.8-2.5,4.5
		c-0.3,1.1-0.4,2.2-0.2,3.3c0,0.2,0.1,0.4,0.3,0.5c0.2,0,0.4,0,0.6-0.2c0.3-0.2,0.5-0.5,0.7-0.8c0.9-1.2,1.7-2.4,2.4-3.7
		c0.6-0.9,1.2-1.7,1.9-2.5c0.1-0.1,0.2-0.2,0.4-0.3c1.9-1,3.6-2.3,5.7-3c0.9-0.4,1.8-0.8,2.7-1.3c0.3-0.2,0.8-0.3,1.2-0.2
		c0.5,0.2,1.1,0.1,1.4-0.3c0.4-0.5,1.1-0.6,1.7-0.4c0.2,1.1-0.6,1-1.2,1.2c-0.3,0.4,0.1,1.1-0.5,1.3c-0.1,0-0.1,0.1-0.1,0.1
		c-0.2,1-1.1,1.6-1.6,2.4c-1,1.3-1.8,2.8-2.5,4.3c-0.7,1.4-1.3,2.7-2,4.1c-0.1,0.2-0.2,0.4-0.2,0.6c0,1.4-0.8,2.6-0.5,4
		c-0.1,3.1,0.5,6.1,1.2,9.1c0.3,1.2,0.9,2.2,1.7,3.1c0.1,0.1,0.2,0.1,0.2,0.2c1,1.6,2.6,2.5,4.2,3.4c0.2,0.1,0.5,0.3,0.7,0.4
		c2.1,1.3,4.4,2,6.8,2c0.3,0,0.6,0,0.9,0.1c0.4,0.2,0.8,0.4,1.2,0.1c0.1-0.1,0.2-0.1,0.3,0c1.3,0.5,2.5,0,3.8-0.3
		c0.6-0.1,1.1-0.2,1.7-0.3c0.3-0.1,0.6-0.1,0.9-0.2c0.8-0.3,1.6-0.9,2.5-0.8c0.2,0,0.3-0.1,0.4-0.2c1.5-1.1,3.2-1.8,4.6-3
		c0.2-0.1,0.3-0.3,0.5-0.4c0.7-0.9,1.5-1.7,2.4-2.5c0.5-0.6,1-1.2,1.4-1.9c0.8-1.6,1.5-3.2,2.1-4.9c0.2-0.5,0.3-1.1,0.3-1.7
		c0.1-1,0.3-2.1,0.6-3.1c0.1-0.5,0.2-1,0.2-1.5c0-0.2-0.1-0.5,0-0.6c0.5-0.8,0.2-1.6,0.3-2.4c0-0.8-0.1-1.6-0.2-2.3
		c0-0.9-0.2-1.8-0.5-2.6c-0.2-0.7-0.5-1.3-0.8-2l0.7-1.1c1-0.2,2.1,0.2,2.8,1c0.9,0.9,1.9,1.8,2.8,2.7c0.7,0.8,1.4,1.6,2,2.5
		c0.5,0.6,0.9,1.3,1.4,1.9c0.6,0.7,1,1.6,1.2,2.5c0.1,0.5,0.2,1,0.5,1.5c0.1,0.3,0.1,0.6,0.1,0.9c-0.1,0.8-0.3,1.5-0.5,2.3
		c-0.1,0.7-0.3,1.3-0.4,2c-0.1,0.3-0.1,0.6-0.2,0.9c-0.2,0.7-0.5,1.4-0.6,2.1c-0.2,1-0.5,1.9-1,2.8c-0.8,1.5-1.8,2.8-2.9,4.1
		c-0.6,0.5-1.2,1-1.8,1.5c-0.7,0.4-1.3,1-1.9,1.7c-0.1,0.1-0.2,0.3-0.3,0.4c-1.5,0.8-2.4,2.3-3.6,3.4c-0.6,0.6-1.3,1-2.1,1.3
		c-1.9,0.5-3.8,1.2-5.7,1.8c-1.7,0.5-3.5,0.5-5.3,0.6c-0.6,0-1.1,0.1-1.7,0.1c-0.9,0-1.7,0.6-2.8,0.4s-2,0.2-2.9,0.2
		c-0.9,0-1.9,0-2.8,0c-1,0-2-0.3-2.8-0.8c-0.5-0.3-1-0.5-1.6-0.5c-2.2-0.5-4.4-1.1-6.5-1.7c-1.3-0.4-2.5-1-3.7-1.8
		c-0.5-0.3-0.9-0.7-1.2-1.2c-1-1.1-2-2.2-2.9-3.3c-0.1-0.1-0.1-0.2-0.2-0.2c-0.5-0.1-1-0.4-1.3-0.8c-0.7-1.1-1.7-2-2.1-3.3
		c-0.3-1-0.8-1.9-1.4-2.8c-0.4-0.6-1-1.1-1.8-1.2c-0.3,0.3-0.4,0.9-0.3,1.3c0.1,0.6,0.3,1.2,0.5,1.8c0.4,0.9,0.7,1.8,0.8,2.7
		c0.1,0.8,0.4,1.5,1,2.1c0.5,0.5,0.9,1.1,1.2,1.8c0.6,1.5,1.7,2.7,3.1,3.4c1.1,0.6,2.1,1.4,3.1,2.1c0.9,0.7,2,1.2,3.1,1.5
		c0.3,0,0.5,0.1,0.8,0.2c2,1.1,4.2,1.3,6.3,1.6c0.3,0,0.6,0.1,0.9,0.2c0.3,0.1,0.6,0.2,0.9,0.2c2.6,0,5,1.2,7.5,1.2
		c1.2,0.5,2.5,0.2,3.7,0.5c0.9,0.1,1.8,0.1,2.7,0c1-0.1,2.1,0,3.1-0.1c1-0.1,2.1-0.2,3.1-0.3c0.3,0,0.5,0,0.8,0
		c1.5,0.2,3,0.2,4.5,0.1c1.2-0.1,2.4,0,3.6,0c0.3,0,0.6,0,0.9,0c1-0.1,1.8-0.7,2.9-0.5c0.9,0.2,1.9-0.1,2.8-0.2c0.2,0,0.3,0,0.5,0
		c2.1,0.3,4-0.2,6.1-0.4c1.3-0.1,1.7,0,2.9,1c-0.1,1.3-1.1,2.3-2.3,2.6c-1.6,0.5-3.3,1.2-4.8,1.8c-1.5,0.5-3,1-4.4,1.6
		c-2.8,1.1-5.6,2-8.5,2.8c-1.4,0.5-2.8,0.8-4.3,0.9c-1.5,0-2.9,0.7-4.5,0.6c-0.1,0-0.2,0-0.3,0c-2.1,0.7-4.2,0.5-6.4,0.7
		c-1.7,0.1-3.4,0-5.2-0.1c-2-0.1-3.8-0.5-5.8-0.7c-1-0.1-1.9-0.5-2.7-1.1c-2-1.5-3.9-3-5.8-4.6c-0.4-0.4-0.8-0.8-1.2-1.2
		c-0.3-0.3-0.5-0.7-1.2-0.5c0.1,0.3,0.3,0.6,0.4,0.8c0.6,0.8,1.1,1.5,1.7,2.3c0.5,0.7,1.1,1.4,1.9,1.9c0.8,0.6,1.4,1.3,1.9,2
		c0.3,0.4,0.2,0.8-0.2,1.1c-0.5,0.1-0.9,0.1-1.4,0c-1-0.4-2.1-0.3-3.1-0.5c0,0-0.1,0-0.2,0c-1.3,0.2-2.5-0.4-3.7-0.6
		c-1.5-0.3-2.9-0.9-4.2-1.8c-1.5-0.9-2.5-2.2-3.4-3.6c-0.5-0.6-1-1.3-1.4-2c0-0.1-0.3-0.1-0.5-0.2c0,0.3,0,0.6,0,1
		c0.3,1.3,0.9,2.5,1.8,3.4c0.6,0.7,1.2,1.4,1.9,2.1c1.4,1.2,2.8,2.2,4.7,2.4c1,0.1,2,0.4,2.9,0.6c2.2,0.5,4.5,0.8,6.8,0.8
		c1.1,0,2.2,0.1,3.3,0.3c3,0.4,6,0.6,9,0.7c1,0,2.1,0.1,3.1,0.2c1.4,0.1,2.7,0.1,4.1-0.1c0.5,0,1-0.2,1.6-0.2
		c2.2-0.1,4.4-0.3,6.5-0.7c0.4-0.1,0.7-0.1,1.1-0.1c1.1,0,2.1-0.1,3.1-0.5c1.4-0.5,2.9-0.9,4.4-1.1c0.4-0.1,0.7-0.2,1-0.3
		c0.5-0.2,1.1-0.4,1.6-0.6c0.8-0.1,1.6-0.3,2.4-0.5c0.5-0.2,1.1,0.1,1.3,0.6c0,0,0,0.1,0,0.1c0.1,0.3,0.1,0.6-0.1,0.9
		c-0.8,1.2-1.5,2.4-2.4,3.5c-0.4,0.4-0.8,0.8-1.3,1c-2.3,1.3-4.7,2.6-7,3.8c-0.4,0.2-0.9,0.4-1.3,0.6c-0.4,0.2-0.8,0.4-1.1,0.7
		c-0.9,0.8-2,1.4-3.1,1.8c-1.4,0.7-2.9,1.3-4.3,1.8c-0.6,0.2-1.2,0.2-1.8,0.1c-1.1-0.2-2.3-0.2-3.4,0.1c-1.5,0.2-3,0.5-4.5,0.7
		c-0.5,0.1-1,0.2-1.5,0.4c-1.5,0.4-3.1,0.7-4.6,1c-0.5,0.1-1,0.1-1.6,0.1c-2.2-0.1-4.4-0.4-6.5-0.9c-1.8-0.5-3.6-0.7-5.4-0.9
		c-1.6-0.1-2.9-0.8-4.3-1.3c-2.1-0.7-4.2-1.6-6.1-2.8c-0.2-0.1-0.5-0.2-0.7-0.2c-0.5,0-0.9-0.2-1.2-0.6c-0.2-0.2-0.4-0.4-0.7-0.4
		c-1-0.2-1.9-0.8-3-0.9c-0.7-0.1-1.3-0.3-2-0.6c-0.7-0.3-1.4-0.7-2.2-0.8c-1.7-0.4-3.2-1.4-4.7-2.1c-0.1-0.1-0.3-0.1-0.4-0.2
		c-1.3-1.5-3.2-2.5-4.5-4.1c-0.5-0.7-1-1.3-1.6-2.1c-0.4-0.2-1-0.2-1.4,0.1c-0.1,1.1,0.1,2.2,0.7,3.1c0.7,1.3,1.3,2.6,2,3.9
		c0.1,0.3,0.3,0.6,0.6,0.9c0.5,0.6,0.9,1.4,1,2.2c0.3,1.5,0.5,3,0.5,4.5c0.1,0.8-0.2,1.6-0.6,2.3c-0.5,0.3-1.2,0.2-1.7-0.2
		c-0.9-0.7-1.9-1.3-2.5-2.4c-0.2-0.3-0.4-0.5-0.7-0.7c-0.1-0.1-0.3-0.2-0.4-0.3c-0.6-1.4-1.9-2.4-2.7-3.6c-0.1-0.1-0.3-0.2-0.3-0.4
		c-0.1-0.8-0.8-1.2-1.4-1.6l-0.4-0.2c-0.1-0.6-0.3-1.1-0.5-1.6c-0.4-0.5-0.8-0.9-1.4-1.2c-0.5-0.3-0.8-0.6-0.8-1.2
		c0-0.2-0.1-0.3-0.2-0.4c-0.7-1.2-1.3-2.5-1.8-3.8c-0.3-0.7-0.5-1.5-0.4-2.3c0-0.4,0.1-0.7,0.1-1.1c0.1-1.3,0.3-2.6,0.7-3.8
		c0.1-0.5,0.1-1.1-0.2-1.6c-0.4,0-0.7,0.3-0.9,0.7c-0.6,1.5-0.9,3.1-0.9,4.8c0,0.8,0,1.7-0.1,2.5c-0.1,1.3,0.2,2.5,0.7,3.7
		c0.4,0.7,0.7,1.4,0.8,2.2c0.4,1.9,1.4,3.6,2.1,5.4c0.1,0.3,0.3,0.6,0.5,0.8c0.7,0.8,1.3,1.7,1.6,2.7c0.9,1.9,0.8,3.1-0.7,4.7
		c-0.8,0.8-1.5,1.8-2.3,2.6c-0.3,0.2-0.5,0.5-0.7,0.8c-0.4,0.7-1,1.3-1.7,1.7c0,0.9-0.1,1.1-0.8,1.1c-1.9,0-3.8,0.6-5.5,1.6
		c-1,0.5-2.1,0.8-3.3,1c-0.3,0-0.6,0.1-0.9,0.1c-0.7,0.2-1.5-0.1-1.9-0.7c-0.2-0.3-0.4-0.6-0.8-0.7c-1.2-0.4-1.3-0.6-1.4-1.9v-0.6
		c-0.6-0.5-1.1-1-1.8-1.5c-0.7-0.5-1.1-1.2-1.3-2.1c-0.2-0.5-0.4-1.1-0.7-1.6c-0.8-1.3-1.5-2.7-2.1-4.2c-0.2-0.9-0.7-1.7-1.4-2.3
		c-0.2-1.5,0.2-2.9-0.1-4.4c0-0.6,0.1-1.1,0.4-1.7c0.4-0.9,0.9-1.8,1.4-2.6c1.1-1.6,2.3-3.2,3.5-4.8c0.2-0.3,0.4-0.5,0.7-0.7
		c1.2-0.7,2.2-1.6,2.9-2.8c0.8-1,1.4-2.1,1.8-3.2c0.1-0.4,0.7-0.8,0.7-1.2c0-0.8,0.3-1.5,0.8-2.1c0.1-0.2,0.1-0.4,0.1-0.6
		c-0.1-1.1,0.5-2.1,0.9-3.1c0.8-1.7,1.5-3.3,1.2-5.2c0-0.2-0.1-0.4,0-0.7c0.1-0.7,0.2-1.4,0.3-2.2c0-0.7-0.7-1.3-0.4-2.1
		c0-0.2,0-0.3-0.1-0.5c-0.7-1.5-0.7-3.1-1.5-4.7l-1.1-0.3c-0.1-0.2-0.1-0.4-0.1-0.6c0.2-0.8-0.2-1.7-0.9-2.2
		c-0.7-0.5-0.7-1.2-0.9-1.9c0-0.2,0-0.4,0.2-0.6c0.8-0.4,0.9-1.4,1.8-1.7c0.2-0.1,0.3-0.2,0.3-0.3c0.4-1.1,1.5-1.9,1.9-3.1
		c0-0.2,0.1-0.3,0.2-0.4c1-1.1,1.5-2.5,2.2-3.8c0.8-1.4,1.4-2.9,1.8-4.5c0.1-0.4,0.1-0.8,0-1.2c-0.1-1.5-0.2-3.1-0.5-4.6
		c-0.1-0.7-0.2-1.3-0.4-2c-0.2-0.8-0.4-1.6-0.7-2.4c-0.5-1.1-0.8-2.3-0.9-3.5c-0.1-1.3-0.6-2.6-0.4-3.9c-0.3-0.9-0.8-1.7-1.4-2.4
		c-0.6,0.1-0.9,0.5-0.8,1c0.1,0.4-0.1,0.8-0.4,1.1c-0.3,0.4-0.6,0.9-0.7,1.4c-0.1,0.6-0.3,1.1-0.6,1.6c-0.4,0.4-0.3,1.1,0.1,1.4
		c0.1,0.1,0.2,0.1,0.2,0.1c0.6,0.3,1.1,0.8,1.4,1.5c-0.2,0.1-0.4,0.3-0.6,0.4c-0.4,0.2-0.6,0.7-0.5,1.2c0.1,0.5,0,1-0.4,1.4
		c-0.5,0.7-0.2,1.5,0.3,2.3l1.7-0.2c-0.2,0.5-0.4,0.7-0.8,0.7s-0.6-0.2-0.9-0.2c-0.2,0-0.4,0.1-0.5,0.3c-0.1,0.3,0.1,0.5,0.3,0.6
		c0,0,0.1,0.1,0.2,0.1l-0.1,1.5l-0.9,0.4c0,0.3-0.1,0.7-0.2,1c-0.1,0.3-0.3,0.5-0.5,0.8c-0.2,0.2-0.5,0.1-0.6,0
		c-0.1-0.1-0.1-0.1-0.1-0.2c-0.1-0.4-0.1-0.7-0.2-1.1c-0.1-0.2-0.2-0.4-0.3-0.6c-0.3,0-0.5,0-0.8-0.1c-0.6-0.1-1.2,0.3-1.3,0.8
		c-0.2,0.5-0.5,1-0.8,1.5c-0.2,0.2-0.4,0.4-0.7,0.6c-0.5-0.8-0.7-1.7-0.7-2.6c0.1-1-0.3-2-1.2-2.6c0-0.5,0-1-0.1-1.5
		c-0.2-0.6-0.1-1.3,0.2-1.8c0.1-0.4,0.2-0.9,0.2-1.4c0.1-0.6-0.5-0.8-0.6-1.2c0.5-1,0.5-2.1,0.2-3.2c-0.1-0.2-0.2-0.5-0.1-0.6
		c0.4-0.7,0.2-1.5,0.4-2.3c0.2-0.4,0.2-0.9,0.1-1.4c0-0.3,0-0.5,0.1-0.8c0.2-1.4,0.6-2.7,0.7-4.2c0.2-1.3,0.5-2.6,0.9-3.8
		c0-0.1,0.1-0.2,0.1-0.3c0.7-1,1.1-2.2,1.1-3.4c0-0.3,0.1-0.5,0.3-0.8c0.6-1.2,1.3-2.4,2-3.5c0.7-1,1.6-1.9,2.5-2.9
		c0.4-0.6,0.9-1.1,1.4-1.6c0.2-0.2,0.3-0.5,0.4-0.8c0.1-0.2,0.1-0.5,0.2-0.6c1-0.4,0.6-1.2,0.7-1.9c0-0.4,0.2-0.8,0.4-1.1
		c0.5-0.5,0.9-1.2,1-2c0.1-1,0.8-1.5,1.6-2.1c-0.2,1.5-0.9,2.9,0.2,4.2c1.7,0.2,3.4,0.4,5.1,0.6c0.3,0,0.6,0.1,0.9,0.3
		c0.1,0.1,0.2,0.2,0.2,0.4c0,0.2-0.1,0.3-0.2,0.4c-0.6,0.2-1.3,0.4-2,0.4c-1.1-0.1-1.9,0.5-2.8,0.8c-0.3,0.2-0.4,0.5-0.4,0.8
		c0.1,0.6,0.2,1.1,0.4,1.7c0.1,0.3,0.3,0.5,0.5,0.8c0.4,0.7,0.5,0.7,1.4,0.6c0.1,0,0.2,0,0.3-0.1c0.3,0,0.5,0.3,0.3,0.5
		c-0.3,0.4-0.5,0.8-0.1,1.2l-0.3,1.2c0.7,0,0.5,0.7,0.9,1.2c-0.2,0.3-0.5,0.7-0.7,1c-0.6,0.8-0.8,1.8-0.7,2.8
		c0.3,1.7,0.3,3.5,0.5,5.3c0.1,0.9,0.2,1.9,0.4,2.8c0.1,0.7,0,1.4-0.1,2c-0.2,1.3-0.3,2.7-0.4,4.1c0,0.4-0.1,0.7,0,1.1
		c0,0.7,0,1.5,0.1,2.2c0,0.8,0.6,1.5,1.4,1.8C71.3,79.5,71.5,79.3,71.2,78.9L71.2,78.9z M57.9,59.1c0.4-0.4,0.2-0.7-0.3-1.1
		l-0.4,0.8c-0.7,1-1.2,2-1.5,3.2c-0.2,0.6-0.3,1.2-0.5,1.8c-0.6,2.2-1,4.4-1.2,6.6c0,0.2-0.1,0.5,0.2,0.7c0.5-0.4,0.7-1.1,0.6-1.7
		c-0.1-0.2,0.1-0.5,0.1-0.8c0.2-1.4,0.7-2.7,0.7-4.1c0-0.5,0.2-0.9,0.4-1.3c0.6-0.9,1-1.9,1.1-2.9C57.4,59.9,57.7,59.5,57.9,59.1z
		 M51.2,147.5c-0.7,0.6-0.7,0.7-0.6,1c0.2,0.7,0.4,1.4,0.4,2.1c0,0.3,0.2,0.6,0.3,0.9c0.1,0.1,0.2,0.2,0.4,0.2
		c0.2-0.1,0.4-0.3,0.4-0.4C52,150,51.9,148.8,51.2,147.5z M54,82.8c0,1.2,0,1.2,0.5,1.6C54.8,83.8,54.6,83.4,54,82.8z M54.2,80.6
		c-0.5,0.4-0.6,0.7-0.3,1.1c0,0.1,0.2,0,0.4,0.1L54.2,80.6z M69.1,54.9l-0.2-0.2c-0.1,0.1-0.2,0.2-0.2,0.3c0,0,0.1,0.1,0.2,0.2
		L69.1,54.9z M53.6,77.6v0.3c0,0,0.1-0.1,0.1-0.1C53.7,77.7,53.7,77.6,53.6,77.6C53.7,77.6,53.7,77.6,53.6,77.6z M69.7,56.2
		c0,0,0-0.1,0-0.1s-0.1,0-0.1,0v0.2L69.7,56.2z M57.3,82.6l0.1,0c0,0,0-0.1,0-0.1C57.4,82.5,57.4,82.5,57.3,82.6
		C57.3,82.5,57.3,82.5,57.3,82.6z"/>
	<path d="M300.2,5.7l0.7,1.8c0.1,0.1,0.3,0.1,0.4,0.2c1.6,0.1,3.3,0.1,4.9,0.2c3.7,0.3,7.3,0,11,0.1c1.1,0,2.3-0.1,3.3,0.7
		c1,0,1.7,0.7,2.6,0.9c1.1,0.3,2,0.8,2.9,1.5c0.6,0.4,1,1,1,1.7c0.1,0.5,0.2,0.9,0.3,1.4c0.2,0.9,0.6,1.2,1.4,1.2
		c0.8,0,1.6,0.3,2.1,0.8c0.5,0.4,1,0.8,1.5,1.1c0.8,0.6,1.5,1.5,2,2.4c0.4,0.7,0.7,1.5,1.1,2.3c0.5,1.1,0.4,1.6-0.5,2.3
		c-1,0.8-2.1,1.6-3.3,2.1c-0.8,0.4-1.5,0.9-2.3,1.4c-1.7,1-3.5,2-5.3,2.8c-1.1,0.6-2.2,1.2-3.3,1.8c-0.9,0.6-1.9,1.1-2.8,1.7
		c-2.2,1.4-4.2,2.9-6.1,4.6c-0.2,0.1-0.3,0.3-0.5,0.4c-0.8,0.7-1.6,1.2-2.3,1.9c-2,1.9-3.9,3.8-5.6,6c-1.2,1.3-2.4,2.6-3.8,3.8
		c-1,0.9-1.9,1.8-2.8,2.7c-0.7,0.6-1.4,1.2-2.2,1.8c-0.3,0.1-0.6,0.2-0.9,0.3c-1,0.2-2.1,0.3-3.1,0.2c-0.6,0-1.1-0.4-1.2-1.1
		c0-0.1,0-0.3,0.1-0.4c0.2-0.7,0.5-1.4,0.9-2c0.7-1.1,1.6-2.2,2.6-3.1c0.8-0.7,1.4-1.5,2-2.4c0.5-0.8,1.1-1.4,1.8-2
		c0.2-0.2,0.5-0.4,0.7-0.7c1-1,2-1.8,3.1-2.6c0.7-0.4,1.3-0.9,1.7-1.6c0.4-0.8,0.1-1.3-0.8-1.3c-0.1,0-0.2,0-0.3,0
		c-0.5,0-0.7-0.2-0.8-0.7c0-0.2,0-0.3,0-0.5c0-0.1-0.1-0.2-0.1-0.4c-0.6-0.3-1.3-0.4-1.9-0.3c-1.6,0.2-3.3,0-4.8,0.6
		c-1.9,0-3.7,0.2-5.5-0.7c-1.4-0.6-2.7-1.4-3.9-2.3c-0.1-0.1-0.2-0.2-0.4-0.3c-1.1-0.2-1.8-1-2.5-1.9c-0.7,0.9-1,2-0.8,3.1
		c0.2,2,0.4,3.9,0.7,5.8c0.4,3.1,0.8,6.2,1.1,9.3c0.2,2.3,0.3,4.7,0.3,7.1c0,0.4-0.1,0.7-0.1,1.1c-0.3,1.8-0.6,3.6-0.7,5.4
		c-0.1,0.8-0.3,1.6-0.5,2.4c-0.1,0.3-0.4,0.5-0.7,0.5l-1.8,0.2c-0.5-0.2-0.7-0.7-0.8-1.1c-0.6-1.7-1.2-3.3-1.9-5
		c-0.3-0.5-0.3-1.1-0.2-1.7c0.1-0.4,0.1-0.7,0.1-1.1c-1.6-1.8-2.7-4-4-6c-0.2-0.3-0.3-0.6-0.3-0.9c0-0.8-0.2-1.7-0.7-2.4
		c-0.7-1.1-1.3-2.3-2-3.4c-0.3-0.4-0.7-0.8-1.1-1.1c-0.4-0.3-0.9-0.3-1.3,0.1c0,0,0,0,0,0.1c0,0.3-0.1,0.7-0.1,1.1
		c-0.2,0.1-0.3,0.2-0.4,0.3c-0.5,0.3-1,0.6-1.5,0.9c-0.4,0.2-0.7,0.6-0.9,1c-0.2,0.6-0.8,1.1-1.5,1.2c-0.3-0.2-0.6-0.4-0.8-0.7
		c-0.6-0.6-1.4-1.1-2.3-1.2c-1.1-0.3-2.1-0.5-3.2-0.8c-1.3-0.4-2.7-0.2-3.9,0.3c-1,0.4-1.9,1.1-3,1.4c-1.5,1.3-3.3,2.2-4.1,4.2
		c-0.6,1.3-1.4,2.5-2.4,3.5c-0.8,0.9-1.5,1.9-2.1,2.9c-0.6,1-1.1,2-1.7,3c0,0,0,0.1,0,0.1c-0.3,0.3-0.6,0.6-0.8,0.9
		c-0.1,0.3,0,0.7-0.1,1.1c-0.1,0.2-0.2,0.5-0.4,0.6c-0.6,0.5-1.2,1-1.8,1.5c-0.5,0.4-1,0.7-1.5,0.1c-0.3-0.3-0.8-0.3-1.2-0.1
		c-0.8,0.4-1.3,0-1.8-0.6c-0.1-0.2-0.2-0.4-0.3-0.5c-0.4-1-1-1.9-1.7-2.8c-0.5-0.4-0.6-1.2-0.2-1.7c0.5-0.7,0.6-1.6,0.3-2.4
		c-0.4-1.7,0.2-3.1,0.7-4.6c0.7-2.2,1.9-4.2,2.2-6.5c0.3-1.1,0.4-2.1,0.3-3.2c0-0.2,0-0.3,0-0.5c0.5-2.5-0.1-4.9-0.9-7.2
		c-0.4-0.9-0.6-1.9-0.8-2.8c-0.2-0.8-0.5-1.6-1.1-2.2c-0.7-0.8-1.2-1.7-1.6-2.7c-0.5-1.1-1.2-2.2-2-3.2c-1-1.3-2-2.6-2.9-4
		c-0.8-1.1-1.8-2.2-2.9-3.1c-0.5-0.4-1-0.8-1.5-1.2c-1.4-1.1-2.9-2.1-4.5-2.8c-0.3-0.2-0.7-0.3-1.1-0.3c-1.4-0.1-2.5-0.9-3-2.2
		c0.6-2.2,1.6-2.3,3.4-1.5c0.4,0.1,0.8,0.3,1.2,0.3c1.3,0.2,2.5,0.7,3.9,0.7c0.6,0.1,1.2,0.2,1.8,0.4c0.9,0.2,1.7,0.5,2.6,0.6
		c1.5,0.2,2.9,0.4,4.4,0.5c0.3,0,0.7-0.1,1-0.2c0-0.7-0.7-0.5-0.8-0.9c-0.1-0.3-0.3-0.7-0.6-0.9c-0.1-0.2-0.3-0.3-0.5-0.4
		c-1.1-0.3-2-1.1-3.2-1.3c-0.7-0.1-1.4-0.5-1.7-1.1c0.4-0.6,1.1-0.9,1.8-1c1.4,0.1,2.7-0.2,3.9-0.8c0.5-0.2,1.1-0.2,1.6-0.1
		c0.3,0,0.6,0.1,0.9,0.2c0.4,0.1,0.9-0.1,1.1-0.4c0.6-0.8,1.7-1.1,2.7-0.7c0.7,0.3,1.3-0.2,2,0c0.7,0.2,1.2,0.5,1.9,0.7
		c0.1,0.1,0.3,0.1,0.5,0.1c1.2-0.3,2.4,0.3,3.6,0.1c1,0.5,2.3,0.4,3.2,1.4c0.8,0.8,1.8,1.4,2.9,1.9c1.1,0.5,2,1.4,2.5,2.5
		c0.2,0.5,0.4,1,0.6,1.5c0.4,0,0.8,0.1,1.2,0.1c0.3,0,0.6-0.1,0.8,0c1.2,0.7,2.3,0.4,3.5,0.1c0.2,0,0.3-0.1,0.5-0.1
		c1.1-0.1,1.5,0.1,1.8,1.2c0,0.1,0,0.2,0.1,0.3c0.4,1,0.3,2.1-0.5,2.9c-0.3,0.4-0.5,0.8-0.7,1.2c0,0.2,0,0.4,0.2,0.5
		c0.2,0.1,0.4,0.1,0.6,0c1.3-0.7,2.5-1.6,3.8-2.3c1.8-1,3.7-1.8,5.5-2.7c1-0.5,2-0.8,3.1-1c0.8-0.2,1.6-0.6,2.3-1
		c0.6-0.3,1-0.9,0.9-1.5c-0.5-0.4-1.2-0.6-1.8-0.6c-2.6-0.3-5.2-0.5-7.8-0.5c-0.8,0-1.6-0.1-2.3-0.3c-0.5,0-0.9-0.4-0.9-0.9
		c0-0.3,0-0.5,0.2-0.7c0.2-0.3,0.5-0.2,0.7-0.1c0.2,0.1,0.4,0.3,0.7,0.4c0.4,0.2,0.8,0.2,1.2,0c0.3-0.2,0.6-0.2,0.9-0.4
		c1.1-0.7,2.3-0.7,3.5-0.8c0.3,0,0.7,0.1,0.9,0c1.4-0.6,2.9-0.4,4.3-0.7c0.1,0,0.2,0,0.3-0.1c1.2-0.7,2.7-0.8,4-1.4
		c1.1-0.5,2.2-1,3.4-1.3c0.4-0.1,0.8-0.2,1.2-0.2c1.2,0,2.4-0.3,3.5-0.9c0.6-0.3,1.2-0.4,1.8-0.4c1.2-0.1,2.5-0.1,3.7-0.2
		c1-0.1,2-0.3,2.9-0.5c0.7-0.1,1.4-0.1,2,0c0.7,0,1.3,0.2,2,0.2c0.7,0,1.5,0,2.2,0.2c0.4,0.1,0.8-0.1,1.2-0.2
		c0.5-0.1,1.1-0.2,1.4,0.4c0.2,0.4,0.1,1-0.3,1.3C302.1,3.9,301.5,5.1,300.2,5.7z"/>
	<path d="M366.7,67.4c0.9-0.1,1.7,0.1,2.5,0.5c0.7,0.3,1.3,0.5,2,0.8c0.6,0.2,1.3,0.4,2,0.5c0.8,0.2,1.6,0.5,2.3,0.9
		c0.7,0.3,1.3,0.6,2,0.8c1,0.3,2,0.7,2.9,1.2c0.4,0.2,0.8,0.6,1,1c0.5,0.9,1.1,1.8,1.6,2.7c0.4,0.8,0.6,1.7,0.4,2.6
		c-0.2,0.8-0.3,1.5-0.5,2.3c-0.2,0.6-0.4,1.3-0.4,2c0,0.4-0.2,0.8-0.4,1.1c-1.7,3-3.8,5.8-5.7,8.7c-0.3,0.5-0.7,1.1-1,1.6
		c-0.7,1.3-1.7,2.4-2.7,3.5c-0.8,0.8-1.5,1.6-2.1,2.5c-0.4,0.6-0.9,1-1.5,1.3c-0.5,0.3-0.9,0.7-1.3,1.1c-0.2,0.3-0.5,0.5-0.8,0.7
		c-1.6,0.8-3.3,1.6-4.9,2.4c-2.5,1-5.2,1.6-7.9,1.7c-2.1,0.2-4.2,0.3-6.3,0.3c-1.1,0.1-2.2,0.2-3.3,0.3c-0.4,0.1-0.8,0.2-1.2,0.2
		c-1.3-0.2-2.6,0.1-3.9,0c-1.6,0-3.1-0.2-4.7-0.4c-1.9-0.3-3.7-0.3-5.6-0.5c-1.9-0.1-3.8-0.3-5.7-0.7c-1.2-0.2-2.5-0.5-3.7-0.9
		c-1-0.3-2.1-0.8-3-1.3c-2-1-3.8-2.2-5.5-3.6c-1.2-1-2-2.4-2.3-3.9c-0.3-1,0.1-2.1,1-2.6c0.6-0.4,1.2-0.8,1.9-1
		c1.1-0.4,2.2-1,3.2-1.6c0.7-0.4,1.3-1.1,1.7-1.8l0.1-0.1c1.3-1.8,2.5-3.6,3.8-5.4c1.1-1.6,2.3-3.1,3.1-4.9c0.4-0.8,1-1.6,1.6-2.3
		c0.3-0.4,0.7-0.7,1.1-0.9c1.8-1,3.7-2,5.6-2.9c0.1,0,0.2-0.1,0.3-0.1c0.9-0.4,1.6,0.1,1.5,1c0,0.3-0.1,0.5-0.2,0.7
		c-0.6,1.4-0.9,2.9-0.9,4.4c0,0.9-0.2,1.9-0.2,2.8c-0.1,0.5-0.1,1-0.1,1.6c0.2,1.8,0.7,3.6,1.5,5.2c1,2.1,2.2,4,3.5,5.9
		c0.8,1.1,1.7,2.1,2.6,3.1c0.6,0.6,1.2,1,2,1.3c1,0.4,2,0.7,2.9,1.1c1,0.5,2.2,0.5,3.2,0.2c0.4-0.2,0.9-0.2,1.4-0.1
		c0.2,0.1,0.4,0.1,0.7,0.1c2.7-0.2,5.4-0.4,7.9-1.8c0.9-0.5,1.9-1.1,3.1-1c0.2,0,0.6-0.2,0.8-0.4c1.2-1.2,2.5-2.4,3.7-3.6
		c0.2-0.2,0.4-0.5,0.6-0.7c0.7-1.6,1.6-3,2.3-4.6c1.1-2.2,1.7-4.5,1.9-6.9c0-0.3,0-0.5,0-0.8c0.2-1.6,0-3.2-0.7-4.7
		c-0.8-1.9-1.4-3.8-2-5.8c-0.2-0.7-0.6-1.3-0.8-2C366.7,68,366.7,67.7,366.7,67.4z"/>
	<path d="M349.9,97.9c-0.5,0-0.9,0-1.4,0c-0.5,0-0.9-0.1-1.3-0.5c-0.3-0.2-0.6-0.4-0.9-0.6c-1.5-0.9-3.1-1.8-4.6-2.7
		c-0.2-0.2-0.4-0.3-0.5-0.5c-0.6-0.7-1.2-1.4-1.7-2c-0.2-0.2-0.3-0.4-0.4-0.7c-0.2-0.6-0.4-1.2-0.5-1.8c-0.2-1-0.5-1.9-1-2.8
		c-0.2-0.3-0.3-0.7-0.4-1c-0.1-0.8-0.2-1.6-0.2-2.3c0-0.7,0.1-1.3,0.3-2c0.4-1,0.7-2.1,0.8-3.2c0.1-1.7,1.1-2.9,2.4-3.9
		c0.9-0.7,1.7-1.5,2.5-2.4c0.8-1,2-1.3,3-2c0.3-0.2,0.7-0.2,0.9-0.4c1-0.8,2.1-1,3.3-1.3c0.5-0.1,1-0.1,1.5,0.1
		c0.3,0.1,0.6,0.1,0.9,0c0.6,0,1.2-0.1,1.9-0.2c0.2,0,0.3,0,0.5,0.1c0.9,0.7,2,0.7,2.9,1.1c1.2,0.4,2.3,0.9,3.3,1.7
		c1.2,0.9,2.3,1.9,3.3,2.9c0.5,0.6,0.9,1.2,1.3,1.9c0.4,0.7,0.6,1.3,1,2c0.5,0.8,0.7,1.8,0.6,2.7c-0.1,1.5-0.3,3-0.8,4.5
		c-0.2,0.6-0.4,1.2-0.5,1.8c-0.4,2-1.4,3.8-2.8,5.2c-1.8,2.1-4.1,3.7-6.7,4.8c-1.7,0.7-3.6,1.1-5.5,1.3
		C350.7,97.8,350.3,97.8,349.9,97.9L349.9,97.9z M352.1,78.5c0.1,0.5,0.3,0.9,0.3,1.3c0.2,0.7,0.2,1.3,0.3,2c0.1,0.6-0.4,1.2-1,1.3
		c0,0,0,0-0.1,0c-0.4,0.1-0.9,0.2-1.4,0.2c-0.8-0.1-1.7,0-2.4,0.4c-0.3,0.2-0.7,0.2-1,0.1c-0.6-0.2-1.3-0.1-1.7,0.4
		c0.2,1,0.4,1.9,0.6,2.8c0.1,0.4,0.4,0.8,0.7,1c0.5,0.3,1.1,0.5,1.8,0.6c0.4,0,0.8,0.1,1.2,0.2c1.2,0.4,2.4,0.2,3.5-0.4
		c0.8-0.4,1.6-0.9,2.5-0.8c0.1-0.2,0.2-0.2,0.3-0.3c0.2-1.1,0.6-2.2,1.2-3.2c0.1-0.2,0.1-0.5,0.1-0.8c0-0.7,0.2-1.4,0.8-1.8
		c-0.1-0.7-0.1-1.3-0.2-1.8c0-0.3-0.2-0.6-0.4-0.8c-1-0.7-2-1.6-3.4-1.1l-0.7,1L352.1,78.5z M338.9,76.9l0.1-0.1h-0.1L338.9,76.9z"
		/>
	<path d="M152.9,101.9c0.4,1.5,0.6,3.1,0.4,4.7c0.1,0.2,0.3,0.3,0.5,0.5c0.6,0.5,0.9,1.4,0.6,2.1c-0.2,0.8-0.3,1.5-0.3,2.3
		c0,0.5-0.2,0.9-0.5,1.3c-0.7,1-1.3,2-2.1,3c-0.2,0.3-0.5,0.5-0.8,0.7c-1.1,0.7-2.2,1.2-3.3,1.9c-1,0.6-2.2,1-3.4,1.2
		c-2.5,0.3-5.1,0.9-7.5,1.6c-1.4,0.4-2.8,0.2-4.1-0.5c-1.4-0.6-2.7-1.4-4-2.2c-2.1-1.3-3.7-3.2-4.6-5.4c-0.1-0.3-0.1-0.6-0.1-0.9
		c0.1-0.9,0-1.8-0.2-2.6c-0.1-0.5-0.2-0.9-0.2-1.4c-0.3-1.4-0.1-2.9,0.6-4.1c0.3-0.7,0.7-1.3,1-2c0.1-0.2,0.2-0.5,0.3-0.7
		c0-1.1,0.7-1.7,1.5-2.3c0.9-0.8,1.9-1.5,2.9-2.1c0.5-0.3,0.9-0.7,1.3-1.1c0.6-0.7,1.5-1,2.4-1c2.4-0.1,4.7,0.1,7.1,0.3
		c0.1,0,0.1,0,0.2,0c2.6-0.4,4.4,1.3,6.4,2.5c0.4,0.2,0.7,0.5,1,0.8c0.8,0.9,1.7,1.5,2.8,1.8C151.5,100.5,152.1,101.3,152.9,101.9z
		 M140.4,105.1l-1,1.2c-1.2,1.5-2.8,2.6-4.6,3.2c-0.6,0.2-0.9,0.8-0.9,1.3c1,0.7,2,1.2,2.9,1.8c0.3,0.2,0.6,0.3,0.9,0.3
		c0.7,0,1.5-0.2,2.1-0.7c0.8-0.7,1.8-1.3,2.8-1.7c0.5-0.2,0.9-0.6,1.2-1c0.6-0.9,1-1.9,1.3-3c0.1-0.6,0-1.2-0.3-1.7
		c-0.1-0.5-0.5-0.9-1-1l-2.1,1.2L140.4,105.1z"/>
	<path d="M429.7,83.5c-1.5-0.2-2.2-1.2-2.8-2.2c-0.3-0.5-0.7-1.1-1-1.6c-0.7-0.9-1.4-1.8-2-2.8c-0.8-1.4-1.8-2.7-2.7-4
		c-0.8-0.4-1-1.3-1.5-2c-0.2-0.3-0.5-0.6-0.7-0.8c-1-1-1.8-2.2-2.2-3.5c-0.1-0.3-0.2-0.6-0.4-0.8c-0.5-0.7-0.9-1.5-1.1-2.4
		c-0.9-2.9-2-5.7-3.3-8.5c-0.4-1.1-1-2.2-1.7-3.2c-0.7-0.8-1.1-1.9-1.1-3c0.1-0.9,0.4-1.3,1.3-1c0.7,0.2,1.4,0.5,2,0.8
		c1.4,0.6,2.8,0.9,4.3,0.9c1.2,0.1,2.2,0.6,3,1.5c1.4,1.5,3.1,2.6,4.7,4c0.9,0.8,1.8,1.5,2.6,2.3c0.5,0.6,1,1.3,1.4,2
		c0.3,0.4,0.6,0.8,0.9,1.2c0.5,0.6,0.7,1.3,0.6,2c-0.2,1.8-0.3,3.6-0.4,5.5c0,0.1,0,0.2,0,0.3c-0.5,1.7-0.1,3.4-0.2,5.1
		c0,0.9,0,1.8-0.1,2.7c-0.1,1.8,0,3.7,0.5,5.4C430.1,82.2,430.1,82.9,429.7,83.5z"/>
	<path d="M447.1,80.1c-0.4,0.8-0.7,1.4-0.9,2c-0.1,0.2-0.2,0.4-0.2,0.6c0.1,1.5-0.4,3-0.4,4.5c0.5,0.7,1.3,1.2,2.1,1.2
		c0.8,0,1.6,0.4,1.9,1.1c0.1,0.1,0.2,0.2,0.4,0.3c0,0.5,0,1,0,1.6c0,0.4-0.2,0.7-0.6,0.8c-0.3,0.1-0.4,0.3-0.3,0.6
		c0.1,0.3,0.4,0.3,0.7,0.4c0.1,0,0.1,0.1,0.2,0.1c0,0.3,0.1,0.6,0.1,0.9c0,0.2-0.2,0.4-0.4,0.4c-0.1,0-0.3-0.2-0.4-0.3
		c0,0.7,0,0.7,0.6,1.2c0.3,0.2,0.3,0.5,0.2,0.8c0,0-0.1,0.1-0.1,0.1c-0.2,0.2-0.4,0.4-0.7,0.5l0.7,1c-0.2,0.2-0.3,0.4-0.5,0.6
		c-0.1,0.2-0.1,0.5,0.1,0.6c0,0,0.1,0,0.1,0.1c0.3,0.1,0.7,0,0.6,0.5c-0.1,0.2-0.4,0.3-0.5,0.5c0,0,0,0.1-0.1,0.2
		c0.3,0.3,0.6,0.7,0.8,1c0.2,0.2,0.2,0.5,0.3,0.7c0,0.2-0.1,0.4-0.3,0.5c-0.2,0.1-0.4,0.1-0.6,0c-0.4-0.3-0.8-0.7-1-1.1
		c-0.2-0.5-0.6-1-1.1-1.2c-0.3-0.2-0.5-0.3-0.7-0.6c-0.5-0.6-1.1-1-1.8-1.1c-0.6-0.1-1.1-0.5-1.3-1.1c-0.2-0.3-0.5-0.5-0.9-0.6
		c-0.4-0.1-0.7-0.3-0.9-0.5c-1-1-1.9-2-2.9-3.1c-0.1-0.2-0.3-0.4-0.5-0.4c-0.9-0.3-1.4-1.1-2.1-1.5c-0.7-0.4-1-1.3-0.7-2.1
		c0.2-0.9,0.4-1.8,0.5-2.8c0.4-2.2,0.1-4.3-0.3-6.4c-0.1-0.4-0.2-0.8-0.4-1.2c-0.1-0.3-0.3-0.6-0.3-0.9c0.1-0.7-0.4-0.8-0.7-1.1
		c0.4-1.5-0.3-2.7-0.8-4c-0.2-0.4-0.3-0.8-0.3-1.2c-0.1-0.7-0.3-1.4-0.5-2.1c-0.4-1.2-0.9-2.3-1.3-3.5c-0.1-0.5-0.1-1,0-1.5
		c0.3,0,0.7-0.1,0.9,0c1.1,0.5,2.1,1.3,2.8,2.4c0.6,0.7,1.2,1.4,2,2c0.5,0.5,1.1,1,1.6,1.5c0.6,0.7,1.2,1.3,2,1.8
		c0.2,0.2,0.4,0.3,0.6,0.5c1,1.2,2.2,2.4,3.3,3.5c0.7,0.8,1.2,1.7,1.7,2.6C446.8,79.3,447,79.7,447.1,80.1z"/>
	<path d="M47.3,133.8l0.2,1.6c-0.3,0.6-0.8,1.1-1.3,1.6c-0.9,0.8-1.6,1.7-2.1,2.7c-0.7,1.4-1.6,2.7-1.9,4.3
		c-0.2,0.7-0.3,1.4-0.5,2.1c0,0.1,0,0.2,0,0.3c0.5,1.2,0,2.5,0.3,3.7c0.2,0.9,0,1.9-0.5,2.7c-0.1,0.2-0.3,0.3-0.4,0.4
		c-0.1-0.1-0.2-0.2-0.2-0.3c-0.3-1.5-0.7-3-0.8-4.5c-0.2-1.6-0.1-3.3-0.1-4.9c0-0.5,0.1-0.9,0.3-1.4c0.3-0.5,0.2-1.1,0-1.6
		c-0.4-0.7-0.5-1.5-0.4-2.3c0.1-0.7-0.1-1.4-0.4-2c-0.5-0.9-0.7-1.9-0.7-2.9c0-0.5,0.2-0.9,0.5-1.3c1-0.9,1.5-2.1,1.6-3.4
		c0.1-0.7,0.3-1.4,0.5-2.1c0.2-0.7,0.4-1.3,0.6-2c0.1-0.5,0.3-1,0.8-1.3c0,0.3,0.1,0.6,0,0.9c-0.3,1.5-0.6,3-0.9,4.4
		c-0.2,0.9-0.4,1.7-0.6,2.6c-0.3,1.3,0.1,2.6,0.1,3.9c0.1,0.2,0.2,0.5,0.3,0.7c0.5,0.7,0.8,0.8,1.5,0.3
		C44.5,135.6,45.8,134.7,47.3,133.8z"/>
	<path d="M270.4,155.7c0,0.1,0,0.2,0,0.2c-0.1,0.8-0.5,1.5-1,1.4c-0.6-0.2-0.7-0.8-0.8-1.3c-0.1-0.4-0.1-0.7-0.1-1.1
		c0-0.3,0.1-0.6-0.1-0.8c-0.7-1-0.6-2.2-0.8-3.3c-0.4-1.6-0.9-3.1-1.5-4.6c-0.4-1.2-0.6-2.4-1-3.6c-0.3-1.2-0.7-2.3-1.1-3.4
		c-0.2-0.5-0.3-1-0.4-1.5c-0.4-1.8-0.7-3.6-1.3-5.3c-0.3-1.2-0.5-2.5-0.5-3.7c-0.1-1.3-0.4-2.6-0.9-3.8c0-0.1-0.1-0.2-0.1-0.3
		c-0.1-0.5,0-0.8,0.3-0.9c0.4-0.1,0.9,0.2,1,0.6c0,0.2,0.1,0.3,0.1,0.5c0.1,0.9,0.3,1.9,0.7,2.7c0.3,1.1,0.5,2.1,0.8,3.2
		c0.7,2.8,1.4,5.6,2.1,8.3c0.3,1.3,0.6,2.5,0.9,3.8c0.1,0.6,0.3,1.1,0.4,1.7c0.3,1.2,0.9,2.3,0.7,3.6c0,0.2,0,0.3,0.1,0.4
		c0.7,1.2,1.1,2.5,1.4,3.8c0.2,0.9,0.5,1.8,0.8,2.7C270.2,155.3,270.3,155.6,270.4,155.7z"/>
	<path d="M333.7,36.9c1.6-0.9,2.8-1.8,4.5-1.8c0.8,0,1.7-0.2,2.5-0.4c2-0.4,3.9-0.7,5.8-1.1c0.1,0,0.2,0,0.3-0.1
		c2.6-0.8,5.2-0.8,7.8-1.3c1.3-0.3,2.7-0.6,4-0.9c0.9-0.2,1.7-0.2,2.6-0.1c0.3,0,0.6,0.2,0.7,0.5c0.1,0.4,0,0.8-0.3,1
		c-0.4,0.3-0.8,0.4-1.3,0.5c-1.3,0.3-2.7,0.4-4,0.4c-0.3,0-0.5,0-0.8,0.1c-1.7,0.2-3.3,0.5-5,0.7c-0.7,0.1-1.5,0.1-2.2,0.1
		c-0.2,0-0.3,0-0.5,0c-2.2,0.5-4.5,0.4-6.7,0.9c-1.1,0.3-2.1,0.4-3.2,0.7c-1.3,0.3-2.5,0.6-3.8,0.7C334.2,37,334.1,37,333.7,36.9z"
		/>
	<path d="M436.8,141.8c-0.1,0.4-0.4,0.4-0.7,0.4c-1.2-0.1-2.5,0-3.7,0.2c-0.9,0.1-1.9,0.1-2.8,0.1c-0.7,0.1-1.5,0.1-2.2,0
		c-0.2-0.1-0.4-0.1-0.7,0c-1.7,0.5-3.4,0.2-5.1-0.1c-0.5-0.1-0.9-0.1-1.4,0.1c-0.8,0.2-1.6-0.1-2.3-0.3c-0.5-0.1-0.8-0.6-0.7-1.1
		c0,0,0,0,0,0c0.8-0.6,1.9-0.9,2.9-0.9c2.4-0.1,4.7,0.2,7,0.4c1.3,0.1,2.6,0.2,3.9,0.1c0.7,0,1.4,0.1,2,0.3
		C434.3,141.1,435.5,141.4,436.8,141.8z"/>
	<path d="M448.4,141.1c-0.6,0.1-1.2,0.4-1.6,0.9c-0.1,0.1-0.2,0.2-0.3,0.3c-0.8,0.4-1.3,1-1,2h-2.7c-0.1-0.3-0.2-0.7-0.3-1.1
		l-2.4,0.1l-0.5-1.6c0.3-0.3,0.8-0.5,1.2-0.4c1.3,0.1,2.6-0.1,3.8-0.7c1.2-0.5,2.4-0.6,3.6-1.1c0.8-0.2,1.5-0.6,2.1-1.1
		c0.3-0.3,0.8-0.5,1.1-0.8c0.5-0.4,0.9-0.9,1.3-1.3c0.5-0.4,0.9-0.7,1.4-1.1l0.7,0.7c-0.5,0.8-1.5,1.2-1.3,2.2
		c-0.4,0.4-0.8,0.7-1.2,1.1c-0.3,0.4-0.7,0.8-1.3,0.5c-0.3-0.1-0.7,0.1-1,0.3C449.4,140.4,448.9,140.7,448.4,141.1L448.4,141.1z
		 M445,143.8l-0.1-0.1c-0.1,0-0.1,0.1-0.2,0.2c0,0,0.1,0.1,0.1,0.1L445,143.8z"/>
	<path d="M284.4,134.8c0.4-0.4,1-0.4,1.4-0.1c0.4,0.3,0.7,0.6,1.1,0.9c0.3-0.2,0.5-0.3,0.8-0.5c0.9-0.4,1.9-0.3,2.6,0.3
		c0.8,0.5,1.5,1.1,2.3,1.7c0.1,0.1,0.2,0.2,0.4,0.2c1.5,0.3,2.6,1.5,4,2c0.1,0,0.2,0.1,0.3,0.2c0.7,1.1,1.8,1.7,2.8,2.6
		c-0.4,0.1-0.8,0-1.1-0.2c-0.8-0.4-1.6-0.7-2.5-0.8c-0.3,0-0.6-0.2-0.9-0.3c-1.4-0.7-2.8-1.4-4.2-2.1c-0.8-0.5-1.7-0.9-2.6-1.1
		c-0.4-0.1-0.7-0.3-0.9-0.6c-0.4-0.8-1.3-1.3-2.2-1.3C285,135.8,284.5,135.4,284.4,134.8z"/>
	<path d="M414.5,158.8l1.1-0.8c1,0.4,2.2,0.3,3.1-0.4c0.1-0.1,0.3-0.2,0.4-0.2c1.4,0.1,2.9-0.5,4.3,0.4c0.3,0.6,0.1,1.3-0.5,1.6
		c-0.1,0-0.1,0.1-0.2,0.1c-0.9,0.5-1.8,1.1-2.4,1.9c-0.6,0.8-1.6,1-2.4,0.5c-0.5-0.3-1-0.5-1.5-0.8c-0.3-0.2-0.5-0.5-0.7-0.5
		c-0.7,0-1.3-0.7-1.2-1.4C414.4,159,414.5,158.9,414.5,158.8z"/>
	<path d="M236.4,75.8c0.4-0.7,0.8-1.3,1.2-1.9c0.2-0.3,0.4-0.5,0.7-0.6c1.6-0.7,2.7-2,4-3c0.6-0.5,1.1-1.1,1.5-1.8
		c0.3-0.3,0.7-0.6,1.1-0.9c0.3-0.2,0.8,0.1,0.8,0.5c0,0.5-0.2,1-0.6,1.4c-1.1,1.4-2.2,2.8-3.3,4.2c-0.6,0.7-1.5,1.2-2.4,1.3
		c-0.5,0-0.9,0.2-1.3,0.5C237.6,76,237,75.8,236.4,75.8z"/>
	<path d="M264.9,151.7c-0.5-0.5-0.8-1.1-1-1.8c-0.4-1.1-0.6-2.3-1.3-3.3c-0.1-0.2-0.2-0.4-0.2-0.6c-0.4-2.4-1.4-4.6-2.1-6.8
		c-0.4-1-0.2-2.1,0.5-2.8c0.2,0.2,0.4,0.3,0.5,0.5c0.5,0.9,0.8,1.8,1,2.8c0.6,3.3,1.5,6.6,2.5,9.8
		C265.1,150.1,265.1,150.9,264.9,151.7z"/>
	<path d="M246.1,79.7c0.1,0.6,0.2,0.8,0.1,0.9c-0.4,0.6-0.8,1.2-1.3,1.8c-1.1,1.4-2.2,2.7-3.5,4c-1.1,1.2-2,2.5-3,3.8
		c-0.7,0.8-1.3,1.6-2,2.4c-0.7,0.8-1.2,1.5-1.7,2.2c-0.3,0.4-0.7,0.7-1.1,0.8c-0.2,0-0.4,0-0.5-0.2c-0.1-0.2-0.1-0.4,0-0.6
		c0.4-0.6,0.8-1.2,1.3-1.7c1-1,2.1-1.9,2.9-3c0.9-1.1,2.1-2.1,2.8-3.5c0.2-0.3,0.4-0.5,0.6-0.7c0.3-0.3,0.6-0.7,0.9-1.1
		c0.9-1.4,2-2.7,3.3-3.8C245.4,80.6,245.8,80.2,246.1,79.7z"/>
	<path d="M268.9,69.8c0.3,0.5,0.2,0.9-0.2,1.2c-0.3,0.3-0.7,0.5-1,0.7c-0.7,0.2-0.7,0.9-1.2,1.2c-0.5,0.3-1,0.5-1.3,0.9
		c-0.6,0.7-1.4,1.4-2.1,2.1c-0.6,0.5-0.9,0.4-1.3-0.4c0.3-0.6,0.6-1.1,0.8-1.7c0.2-0.6,0.6-1,1.2-1.1c0.3-0.1,0.7-0.3,1-0.5
		c0-0.4,0-0.8,0.1-1.1c0.1-0.9,0.4-1.1,1.3-1.3C267.1,69.4,268,69.5,268.9,69.8z"/>
	<path d="M246.1,82.6c0-1.1,0.8-1.7,1.3-2.5l-0.7-0.7c0.1-0.5,1-1.2,2.1-1.5c0.8-1.4,1.7-2.7,2.8-3.9c0.4-0.4,0.8-0.6,1.3-0.9
		c0.4-0.1,0.7,0,1,0.3c0.2,0.3,0.3,0.7,0.1,1c-0.1,0.2-0.3,0.3-0.4,0.5c-1.7,1.9-3.4,3.8-5.2,5.7C247.7,81.3,246.9,81.9,246.1,82.6z
		"/>
	<path d="M423.1,162.3c0.2-0.3,0.4-0.7,0.7-0.8c1-0.5,2.1-1,3.2-1.2c1.6-0.3,3.3-0.5,4.9-0.9c0.5-0.1,0.9-0.2,1.4-0.2
		c0.5,0,0.9,0.1,1.4,0.1c0.1,0.2,0.1,0.6-0.2,0.7c0,0-0.1,0-0.1,0.1c-0.6,0.2-1.3,0.5-1.9,0.7c-0.7,0.2-1.3,0.2-1.8,0.8
		c-0.1,0.1-0.4,0.2-0.6,0.2c-0.7,0-1.3,0.1-2,0.4c-0.6,0.1-1.2,0.2-1.9,0.2c-0.7,0-1.3-0.1-2,0.3
		C423.9,162.7,423.4,162.6,423.1,162.3C423.2,162.2,423.2,162.2,423.1,162.3L423.1,162.3z"/>
	<path d="M253.7,115.3c-0.1-0.1-0.3-0.3-0.4-0.5c-0.8-1.4-1.5-2.7-2.3-4.1c-0.5-1-0.9-2-1.3-3c-0.4-0.8-0.1-1.9,0.7-2.4
		c0.3-0.3,0.9-0.3,1.2,0.1c0.1,0.1,0.1,0.1,0.1,0.2c0.2,0.3,0.3,0.7,0.3,1c0.2,1.1,0.4,2.2,0.7,3.4c0,0.2,0.1,0.4,0.2,0.6
		c0.6,1.2,0.7,2.5,0.9,3.8C253.8,114.7,253.8,115,253.7,115.3z"/>
	<path d="M239.9,96.8c0.5-0.8,1-1.6,1.7-2.3c0.6-0.6,1-1.3,1.3-2c0.2-0.7,1-1.2,1.8-1l0.6,1.5c-0.6,0.7-0.2,2-1.5,2.4
		c0,0.8-0.2,1.5-0.7,2.2c-0.4,0.5-0.7,0.7-1.3,0.5C241.1,97.9,240.3,97.8,239.9,96.8z"/>
	<path d="M286.3,127.4c-0.3,0.3-0.8,0.5-1.3,0.4c-1.2-0.2-2.4-0.3-3.6-0.4c-0.3,0-0.6,0-0.9,0.1c-0.7,0.1-1.3,0.3-2,0.4
		c-1,0.1-2.1-0.3-2.9-0.9c-0.3-0.2-0.4-0.6-0.3-1c0.2-0.4,0.6-0.6,1-0.6c0.8,0.1,1.6,0.1,2.3,0.2c1.9,0.3,3.8,0.6,5.7,0.9
		C285.1,126.6,285.8,126.9,286.3,127.4z"/>
	<path d="M172.4,137.5c0-0.5,0.1-0.9,0.3-1.3c0.4-0.7,0.8-1.3,1.3-1.9c0.9-1,1.7-2.1,2.4-3.3c0.5-1,1.6-1.1,2.5-1.6
		c0.2-0.1,0.4,0,1.1,0.6c-0.4,1.4-1.3,2.5-2.6,3.1c-0.4,0.3-0.8,0.6-1.2,1C175.1,135.2,174.1,136.6,172.4,137.5z"/>
	<path d="M342.3,21l-0.8,1.4c-1,0-2-0.3-2.9,0.1c-0.7,0.2-1.4-0.1-1.7-0.8c-0.2-0.4-0.4-0.8-0.5-1.3c-0.2-0.8,0.2-1.6,1-1.9
		c0.3-0.1,0.6-0.1,0.9,0c0.3,0.1,0.7,0.3,1,0.5c0.5,0.5,1.2,0.8,2,0.9C341.8,20,342.2,20.4,342.3,21z"/>
	<path d="M433.2,164.1l-1.4,0.9l0.6,0.4c-1.2,0.2-2.1,0.3-3,0.4c-0.3,0-0.5,0-0.8-0.1c-0.4-0.2-0.9-0.2-1.3,0.1
		c-0.2,0.2-0.5,0.3-0.9,0.3c-0.7-0.1-1.5,0.2-2,0.8c-0.2,0.2-0.4,0.3-0.7,0.5l-1.6-0.6c-0.4-0.2-0.8-0.6-0.9-1
		c-0.2-0.7-0.6-1.3-1.2-1.7c-0.1-0.1-0.1-0.3,0-0.4c0.1-0.1,0.3-0.1,0.4-0.1c0.5,0.4,1.1,0.6,1.7,0.5c0.5-0.1,1.1,0.1,1.5,0.4
		c1.6,1.1,3.4,1.1,5.3,0.7c0.3-0.1,0.6-0.1,0.9-0.1c0.4,0.1,0.8,0,1.1-0.3c0.4-0.3,0.9-0.4,1.3-0.3
		C432.6,164.3,432.9,164.2,433.2,164.1L433.2,164.1z"/>
	<path d="M273.1,112.4c-0.1-0.2-0.2-0.3-0.3-0.5c-0.2-1.1-0.7-2.1-1.3-3c-0.2-0.3-0.2-0.7-0.3-1c0-0.5-0.2-1-0.3-1.5
		c-0.6-0.9-0.3-2.2,0.6-2.8l1,0.1c0.1,0.1,0.2,0.2,0.2,0.2c0.1,0.2,0.2,0.5,0.3,0.7c0.8,1.2,0.7,2.5,0.4,3.8
		c-0.1,0.3-0.3,0.5-0.2,0.7c0.3,0.8-0.2,1.5,0.1,2.3C273.5,111.8,273.5,111.8,273.1,112.4z"/>
	<path d="M247,108.7c0.3,0,0.3,0,0.4,0c0.5,0.8,0.9,1.5,1.4,2.3c0.6,1,1.1,2.2,1.7,3.2c0.5,0.7,0.9,1.6,1.1,2.4
		c0.1,0.4,0.2,0.8,0.4,1.2c0.2,0.6,0.3,1.2,0.1,1.8c-0.8-0.2-1.3-0.9-1.5-1.7c-0.1-0.5-0.5-0.9-0.5-1.4c-0.2-1.3-1-2.2-1.7-3.3
		c-0.2-0.3-0.3-0.6-0.4-0.9c-0.3-1-0.6-1.9-0.8-2.9C247.1,109.1,247.1,108.9,247,108.7z"/>
	<path d="M261.3,150.7c-0.9-0.7-1.4-1.8-1.3-3c0-1.2-0.2-2.4-0.4-3.6c-0.1-0.4-0.3-0.9-0.4-1.3c-0.1-0.4-0.2-0.8-0.3-1.2
		c-0.2-1.2-0.5-2.4-0.7-3.5c-0.1-0.1-0.1-0.3-0.1-0.5c0.1-0.3,0.2-0.5,0.4-0.7c0.3-0.2,0.5,0.1,0.7,0.3c0.3,0.5,0.5,1,0.6,1.6
		c0.2,1.2,0.3,2.4,0.3,3.6c0,1,0.2,2,0.5,2.9c0.1,0.2,0.2,0.5,0.2,0.7C261,147.7,261.2,149.2,261.3,150.7z"/>
	<path d="M181.3,139.4c-0.1,0.7-0.7,1-1.1,1.4c-0.7,0.7-1.5,1.3-2.3,1.8c-0.7,0.5-1.3,1-1.8,1.7c-0.4,0.6-1.1,0.8-1.8,0.5
		c-0.4-0.6-0.1-1.4,0.5-1.8c0,0,0,0,0,0c0.9-0.5,1.6-1.1,2.2-1.9c0.2-0.2,0.5-0.3,0.8-0.4c0.6-0.3,1.2-0.6,1.7-1
		C180,139.2,180.8,139.1,181.3,139.4L181.3,139.4z"/>
	<path d="M268.4,131.7c0.3-0.1,0.5,0,0.7,0.3c0.2,0.5,0.4,1,0.6,1.5c0.4,1.5,0.8,3,1.3,4.5c0.3,1,0.6,2,1,2.9
		c-0.1-0.6-0.2-1.2-0.2-1.8c0-0.2,0.2-0.3,0.3-0.5c0.1,0.1,0.4,0.2,0.4,0.4c0.2,0.9,0.3,1.8,0.4,2.7l-1.4,1
		c-0.1-0.1-0.3-0.2-0.4-0.4c-0.9-3.4-2-6.8-2.7-10.3C268.4,131.9,268.4,131.8,268.4,131.7L268.4,131.7z"/>
	<path d="M261.5,65.3c0.5-0.2,1-0.3,1.4-0.5c0.5-0.1,0.9,0.1,1.1,0.6c0,0.2,0,0.3,0,0.5c-0.1,0.4-0.3,0.8-0.6,1
		c-0.8,0.7-1.8,1.2-2.3,2.3c-1,0.6-1.6,1.6-2.6,2.1c-0.1-0.2-0.2-0.3-0.2-0.3C259.2,69,260.6,67.2,261.5,65.3z"/>
	<path d="M295.8,74.8L295.8,74.8c0.5,0,0.8,0,1,0.5c0.1,0.4-0.1,0.8-0.5,1c-0.5,0.2-0.9,0.5-1.5,0.2c-0.9-0.3-1.8-0.1-2.4,0.7
		c-0.7,0.6-1.4,1.1-2.3,1.4c-0.3,0.2-0.7,0.1-1-0.1c-0.3-0.2-0.4-0.6-0.2-0.9c0-0.1,0.1-0.1,0.2-0.2C291,75.9,293.3,75,295.8,74.8z"
		/>
	<path d="M286.6,130.4c0.4-0.5,1-0.6,1.5-0.4c1.3,0.3,2.6,0.7,4,0.8c1.2,0.1,2.3,0.4,3.4,0.9c-0.2,0-0.5,0.1-0.7,0.1
		c-1-0.1-2.1,0.1-3.1,0.4c-1.5,0.6-2.9-0.1-4.3-0.4C287.1,131.7,287.1,131.6,286.6,130.4z"/>
	<path d="M421.1,173.5c-0.7-1-0.9-2.2-0.5-3.4c1.1-0.7,2.2-0.1,3.3-0.2c0.1,0,0.1,0,0.1,0.1c0.4,0.2,0.8,0.3,0.8,0.8
		c0,0.5-0.4,0.7-0.9,0.7c-0.6,0.1-1.1,0.4-1.4,0.9C422.2,172.9,421.9,173.4,421.1,173.5z"/>
	<path d="M203.4,122.5c0.5-0.2,1.1-0.2,1.5,0.1c0.4,0.2,0.8,0.5,1.2,0.8c0.7,0.4,0.9,1.2,0.5,1.9c-0.1,0.3-0.2,0.6-0.4,0.8
		c-0.1,0.2-0.3,0.3-0.5,0.3c-0.7,0.1-1.4-0.2-1.8-0.8c-0.2-0.3-0.3-0.7-0.5-1C202.8,124.1,202.9,123.2,203.4,122.5z"/>
	<path d="M341,234.3c1.4-0.2,1.4-0.2,2.2-1l8.5,1.8v0.2c-0.2,0.1-0.4,0.2-0.7,0.2c-0.9,0-1.8,0.1-2.7,0.3c-0.3,0-0.6-0.1-0.8-0.3
		c-0.5-0.4-1-0.5-1.6-0.4c-0.5,0.1-0.9-0.4-1.3-0.3c-1,0.2-1.8-0.2-2.8-0.2C341.5,234.5,341.2,234.4,341,234.3z"/>
	<path d="M272.4,166c-1.1-0.3-1-1.2-1.3-1.9c-0.2-0.7-0.4-1.4-0.5-2.2c-0.2-0.1-0.3-0.2-0.5-0.4c-0.8-0.4-1-1.4-0.6-2.2c0,0,0,0,0,0
		c0.1-0.3,0.5-0.6,0.9-0.5c0.4,0,0.7,0.3,0.7,0.7c0,0,0,0,0,0c0,0.6,0.2,1.1,0.5,1.6c0.3,1.1,1,2.2,0.8,3.4
		C272.4,165.1,272.4,165.4,272.4,166z"/>
	<path d="M274,81c0.6,0.3,0.9,1,0.8,1.7c-0.1,1.1,0,2.2-1.1,3c-0.6,0-1-0.5-1.1-1.1c-0.2-0.8-0.2-1.5,0-2.3
		C272.8,81.5,273.3,81,274,81z"/>
	<path d="M275.9,131c0.8,0.2,1.5,0.6,2.1,1.2c0.5,0.4,0.6,1.1,0.2,1.7c0,0-0.1,0.1-0.1,0.1c-0.6,0.7-1.6,0.8-2.3,0.2
		c-0.1-0.1-0.2-0.2-0.3-0.4c-0.4-0.5-0.5-1.2-0.4-1.8C275.2,131.6,275.5,131.2,275.9,131z"/>
	<path d="M138.8,63.1c-0.4,0.1-0.7,0.1-1.1,0.1c-1.4,0-2.7,0.1-4,0.3c-0.2,0.1-0.4,0.1-0.6,0.1c-0.3,0-0.5-0.2-0.7-0.4
		c-0.2-0.3-0.1-0.6,0.1-0.8c0.3-0.4,0.8-0.6,1.4-0.7c0.7-0.1,1.4,0,2.2,0.1c0.5,0.2,1.1,0.2,1.7,0.2
		C138.3,62.1,138.6,62.4,138.8,63.1z"/>
	<path d="M270.6,101.4c-0.6,0-1.1-0.5-1.1-1.1c0-0.1,0-0.1,0-0.2c0-0.5,0-1,0-1.6c0.7-0.4,1.2-1.1,1.3-1.8c0-0.5,0.4-0.8,0.9-0.9
		c0.3,0.6,0.4,1.3,0.2,1.9c-0.2,0.5-0.2,1-0.2,1.5C271.7,100.1,271.3,101,270.6,101.4z"/>
	<path d="M265,111.1c0.2,0.2,0.4,0.4,0.5,0.6c0.4,1.2,0.9,2.3,1.6,3.4c1,1.8,1.8,3.7,2.7,5.5c0.3,0.6,0.6,1.2,0.8,1.9
		c0.2,0.4,0.1,0.6-0.7,0.7c-0.1-0.5-0.3-1.1-0.5-1.6c-0.2-0.5-0.5-0.9-0.8-1.4c-0.1-0.2-0.2-0.5-0.3-0.7c-0.1-0.4-0.2-0.7-0.4-1
		c-1.3-2-1.9-4.3-2.9-6.4C265,111.7,265,111.4,265,111.1L265,111.1z"/>
	<path d="M153.2,65.2c0.3-0.1,0.7-0.2,1-0.3c1.2,0,2.4-0.3,3.5-0.8c0.4-0.2,0.8-0.1,1.2,0.1c0.3,0.2,0.5,0.4,0.8,0.7
		c-0.1,0.3-0.2,0.6-0.3,0.8c-0.2,0.5-0.8,0.8-1.3,0.6c0,0-0.1,0-0.1-0.1c-0.6-0.4-1.3-0.5-1.9-0.3C155.2,65.3,154.1,65.8,153.2,65.2
		z"/>
	<path d="M228.8,74.8c0.4-2,1.4-2.9,3.2-3c0.8,1.2-0.3,2.1-0.5,3.1c-0.6,0.4-1,0.1-1.5,0C229.6,74.8,229.3,74.8,228.8,74.8z"/>
	<path d="M404,45.3c0.9,0.4,1.8,0.7,2.7,1.1c0.8,0.5,1,1.5,0.6,2.3c-0.1,0.1-0.2,0.2-0.4,0.2c-0.7,0.2-1.5-0.1-1.9-0.8
		c-0.4-0.7-0.8-1.5-1.1-2.2C403.9,45.8,404,45.6,404,45.3z"/>
	<path d="M405,97.3c0.2-0.1,0.4-0.1,0.7-0.1c0.6,0.2,1.2,0.4,1.8,0.7c0.3,0.1,0.5,0.5,0.4,0.8c0,0,0,0,0,0.1c-0.3,0.7-0.7,1.3-1,1.9
		c-0.2,0.3-0.6,0.4-1,0.2c-0.2-0.2-0.5-0.4-0.6-0.7c-0.1-0.1-0.1-0.3-0.1-0.5C405.1,99,405,98.2,405,97.3z"/>
	<path d="M265,111c-0.4-0.1-0.8-0.2-0.9-0.8c0-0.1,0-0.1,0-0.2c-0.7-1.7-1.5-3.4-2.2-5.2c-0.6-1.4-1.4-2.8-1.7-4.3
		c0-0.1-0.1-0.3-0.1-0.5c0-0.1,0.1-0.2,0.2-0.2c0.1,0,0.3,0,0.4,0.1c0.1,0.1,0.2,0.3,0.2,0.4c0.4,1.6,1.3,2.9,1.6,4.6
		c0.7,1,0.8,2.1,1.3,3.2c0.3,0.8,0.8,1.5,1.4,2L265,111L265,111z"/>
	<path d="M275,158.4c0.3,0,0.5-0.1,0.6,0c0.2,0.1,0.3,0.3,0.4,0.4c0.6,1.4,0.9,3,1,4.5c0,0.2,0,0.3-0.1,0.4
		c-0.1,0.2-0.3,0.4-0.4,0.4c-0.2,0-0.4-0.1-0.5-0.2c-0.2-0.2-0.3-0.4-0.3-0.7c-0.1-0.8-0.3-1.6-0.5-2.4c-0.2-0.5,0-1.1,0-1.7
		L275,158.4z"/>
	<path d="M52.8,63.4c0.5,0.4,0.7,1.1,0.5,1.7c-0.1,0.3-0.2,0.7-0.3,1.1c-0.3,0.7-0.4,1.5-0.3,2.3c0,0.6-0.1,1.1-0.3,1.7
		c0,0.1-0.2,0.2-0.4,0.2c-0.1,0-0.3-0.1-0.3-0.3c0-0.2,0-0.4,0-0.7c0-1.6,0.1-3.2,0.1-4.8C51.8,63.9,52.2,63.6,52.8,63.4z"/>
	<path d="M255.6,109.5c-0.2-0.5-0.4-0.8-0.6-1.2c-0.3-0.7-0.6-1.3-0.8-2c-0.1-0.4-0.2-0.8-0.2-1.2c0-0.4,0.3-0.8,0.8-0.9
		c0.4-0.1,0.9,0.1,1.1,0.5c0.4,0.6,0.5,1.4,0.4,2.1C255.9,107.7,255.8,108.5,255.6,109.5z"/>
	<path d="M219.6,106c1-0.2,1.6,0.4,2.4,0.7c-0.1,1-0.7,1.9-1.5,2.5c-0.4,0.3-0.9,0.3-1.3-0.1c-0.1-0.1-0.1-0.2-0.2-0.2
		c-0.3-0.4-0.3-1,0-1.5C219.3,107,219.5,106.5,219.6,106z"/>
	<path d="M79.1,159.8c-0.6,0.7-1,1.5-1.3,2.4c-0.1,0.4-0.3,0.7-0.7,0.8c-0.4,0.2-0.8,0.2-1.2,0c0-0.4-0.1-0.8-0.1-1.2
		c-0.1-0.4,0.6-0.6,0.2-1c0-0.1,0-0.3,0.1-0.4c0.3-0.2,0.6-0.4,0.9-0.5C77.7,159.9,78.4,159.9,79.1,159.8z"/>
	<path d="M319.8,43.5c-1,1-2.1,1.8-3.4,2.3c-1.1,0.4-2.1,1.2-3.4,1.5c0-0.2,0-0.3,0.1-0.3c0.8-0.6,1.6-1.3,2.3-2
		c0.7-0.8,1.9-0.9,2.8-1.2C318.7,43.5,319.3,43.5,319.8,43.5z"/>
	<path d="M411.7,182.7c0.2,0.5,0.2,1,0,1.5c-0.4,1-1.4,1.4-2.6,1.4c-0.5,0-0.7-0.3-0.7-1.1c0.4-0.3,0.7,0.6,1.1,0.2
		c0-0.1,0-0.2,0-0.3c-0.2-0.2-0.4-0.3-0.6-0.5c-0.2-0.2-0.2-0.4,0-0.6c0,0,0,0,0.1,0c0.5-0.4,1.1-0.6,1.7-0.6
		C411.1,182.8,411.4,182.8,411.7,182.7L411.7,182.7z"/>
	<path d="M10.6,161.3c-0.2-0.3-0.4-0.7-0.5-1.1c0-0.8,0-1.6-0.2-2.3c-0.1-0.4,0.5-0.8,0.9-0.6c0,0,0.1,0.1,0.1,0.1
		c1.5,0.7,1.7,1.1,0.9,2.7C11.6,160.5,11.5,161.1,10.6,161.3z"/>
	<path d="M316.4,86.1c-0.3,0.7-0.7,1.4-1.1,2c-0.3,0.4-0.7,0.8-1.1,1.1c-0.7,0.4-1.4,0.7-2.1,1c-0.3,0.1-0.6,0-0.8-0.2
		c-0.2-0.3,0-0.6,0.5-0.8c0.1,0,0.2-0.1,0.3-0.1c0.7-0.2,1.3-0.5,1.8-0.9C314.7,87.5,315.6,86.8,316.4,86.1z"/>
	<path d="M418.2,177.6c0-1.3,0.5-2.6,1.4-3.5c0.6,0,1.2,0.5,1.3,1.1c-0.7,0.9-1.1,2-2.2,2.5C418.6,177.7,418.4,177.6,418.2,177.6z"
		/>
	<path d="M277,209.3c-0.2-0.7,0-1.4,0.6-1.8c0.3-0.4,0.8-0.4,1.2-0.1c0,0,0,0,0,0c0.1,0.1,0.2,0.2,0.3,0.3c0.2,0.3,0.3,0.6,0.4,0.8
		c-0.1,0.4-0.3,0.9-0.5,1.3c-0.2,0.4-0.6,0.5-1,0.3c-0.1,0-0.1-0.1-0.2-0.1C277.6,209.9,277.3,209.6,277,209.3z"/>
	<path d="M363.9,209.6c1.1,0,2.1,0,3.1,0c0.2,0,0.3,0,0.5,0.1c0.3,0.1,0.5,0.5,0.4,0.8c-0.1,0.2-0.2,0.5-0.4,0.6
		C366.2,211.8,364.7,211.2,363.9,209.6z"/>
	<path d="M268.9,108.1c-0.7-0.8-1.1-1.4-1.5-2c-0.3-0.4-0.4-1-0.3-1.5c0.1-0.4,0.4-0.6,0.7-0.7c0.4-0.1,0.7,0.1,0.9,0.5
		C269.3,105.5,269.3,106.9,268.9,108.1z"/>
	<path d="M325.3,70.2c-0.1,1.3-0.4,2.3-1.3,3c-0.5-0.1-0.4-0.5-0.6-0.7c-0.2-0.2-0.4-0.5-0.5-0.8c-0.1-0.3-0.2-0.7-0.1-1.1
		c0.1-0.2,0.2-0.4,0.5-0.5C323.9,70.1,324.6,70.1,325.3,70.2z"/>
	<path d="M326.6,43.1c0.1-0.3,0-0.5,0.1-0.6c0.5-0.6,1.2-1,2-1c0.4,0,0.8,0.3,0.9,0.7c0.1,0.6-0.1,1.2-0.5,1.7
		c-0.2,0.1-0.5,0.2-0.7,0.1C327.7,43.8,327.2,43.5,326.6,43.1z"/>
	<path d="M191.1,118c0.8-0.5,1.5-0.9,2.2-1.2c0.3-0.1,0.6,0,0.7,0.3c0,0,0,0,0,0.1c0.3,0.9,0,1.8-0.8,2.3c-0.4,0.2-0.8,0.1-1.1-0.2
		C191.8,118.8,191.5,118.5,191.1,118z"/>
	<path d="M84.9,111.2c0,0.8-1.2,2.3-1.9,2.5c-0.2,0-0.3,0-0.4-0.1c-0.3,0-0.5-0.3-0.4-0.6c0-0.1,0-0.1,0.1-0.2
		c0.4-0.8,0.8-1.5,1.3-2.3c0.1-0.3,0.4-0.5,0.8-0.4C84.6,110.4,84.9,110.7,84.9,111.2z"/>
	<path d="M93.7,154.8l-1.3-0.5c-0.1-0.3-0.2-0.7-0.2-1c0.1-0.3,0.2-0.6,0.3-0.8c0.3-0.7,0.8-0.8,1.3-0.4c0.6,0.4,0.8,1.3,0.4,1.9
		c0,0-0.1,0.1-0.1,0.1C94.1,154.3,93.9,154.5,93.7,154.8z"/>
	<path d="M175.6,239.7c0-0.7,0.2-1.4,0.6-2c0.4-0.5,0.9-0.5,1.2,0.1c0.1,0.2,0.2,0.5,0.3,0.7c0.3,0.8,0.1,1.3-0.8,1.5
		C176.5,240.2,175.9,240.1,175.6,239.7z"/>
	<path d="M288.7,141.8l-5.3,0.2c0.2-0.2,0.2-0.4,0.3-0.4c0.4-0.1,0.7-0.1,1.1-0.2c0.5,0,0.9-0.2,1.3-0.5c0.2-0.1,0.3-0.2,0.5-0.3
		c0.8-0.4,1.2-0.3,1.7,0.4C288.5,141.3,288.6,141.6,288.7,141.8z"/>
	<path d="M48.9,184.2c0.2,0.1,0.4,0.1,0.4,0.2c0.1,0.4,0.1,0.7,0.2,1.1c0,1.6,0,3.3,0,4.9c0,0.2-0.1,0.4-0.3,0.5
		c-0.2,0.1-0.5-0.1-0.6-0.4c-0.1-0.4,0.1-0.8-0.2-1.2c-0.1-0.1,0-0.3,0.1-0.4c0.6-0.7,0.5-1.4,0.4-2.2
		C48.8,185.8,48.9,185,48.9,184.2z"/>
	<path d="M409.8,55.5c-1-0.5-1.2-1.5-2.1-1.8c0.1-0.7,0.2-1.3,0.3-1.9C409.6,52.5,410,53.2,409.8,55.5z"/>
	<path d="M249.9,50.2c0.1-1.1,0.3-1.5,1.1-1.4c0.6,0.1,1.1,0,1.7-0.2c0.6-0.2,1.3-0.2,2,0.1c0.1,0,0.1,0,0.1,0.1
		c0.1,0.2,0.2,0.4,0.2,0.5c-0.1,0.2-0.3,0.3-0.5,0.3c-0.4-0.1-0.7-0.1-1.1-0.3c-0.7-0.3-1.5-0.1-2,0.4
		C251,50.1,250.5,50.3,249.9,50.2z"/>
	<path d="M211.1,120.9c-0.2,0.2-0.3,0.5-0.5,0.6c-0.5,0.2-1,0.5-1.3,1c-0.1,0.2-0.5,0.2-0.8,0.2c-0.1-0.7-0.2-1.2-0.2-1.8
		c0-0.1,0-0.1,0-0.2C209.1,120.2,210.3,120.2,211.1,120.9z"/>
	<path d="M166.6,140.3c-0.5,0.1-1-0.3-1.1-0.9c0-0.2,0-0.3,0.1-0.5c0.3-0.7,1.2-1,1.9-0.7c0.2,0.1,0.4,0.3,0.6,0.5
		c0.3,0.4,0.1,0.9-0.2,1.2c0,0,0,0,0,0C167.4,140.1,167,140.2,166.6,140.3z"/>
	<path d="M276.9,94.5c0.4,0,0.8,0.3,0.8,0.7c0,0.1,0,0.1,0,0.2c-0.4,0.7-1,1.2-1.8,1.4c-0.2,0-0.4,0-0.6-0.2
		c-0.5-0.4-0.3-1.7,0.3-1.8C276.1,94.8,276.5,94.7,276.9,94.5z"/>
	<path d="M280.3,142.7c-0.7,0.9-1.2,1.9-2.4,2.3c-0.2-0.2-0.3-0.5-0.4-0.8c-0.2-0.8,0.6-1.1,0.8-1.8
		C278.9,142.3,279.7,142.4,280.3,142.7z"/>
	<path d="M247.3,87.5c0.5-1.2,0.7-2.4,1.8-3.2c0.1-0.1,0.2-0.1,0.2-0.2c0.5-0.3,0.9-0.4,1.1-0.1c0.2,0.2,0.1,0.8-0.5,1.1
		c-1,0.5-1.8,1.3-2.3,2.2C247.6,87.5,247.5,87.5,247.3,87.5z"/>
	<path d="M355.1,207l0.9,1.4c-0.3,0.1-0.5,0.3-0.7,0.2c-0.6-0.1-1.2-0.3-1.8-0.5c-0.4-0.2-0.7-0.6-0.8-1l1.5-0.4h0L355.1,207
		L355.1,207z"/>
	<path d="M232.1,89.3c-0.2-0.1-0.4-0.3-0.6-0.5c-0.2-0.2-0.1-0.5,0.1-0.7c0.3-0.5,0.7-0.9,1.1-1.3c0.2-0.2,0.5-0.3,0.8-0.3
		c0.3,0,0.5,0.3,0.5,0.5c0,0,0,0.1,0,0.1c-0.1,0.2-0.2,0.5-0.4,0.7C233.2,88.3,232.7,88.8,232.1,89.3z"/>
	<path d="M270.2,169.2c0.3,0.2,0.5,0.4,0.7,0.6c0.3,0.3,0.4,0.8,0.2,1.1c-0.6,1.2-1,1.3-1.8,0.2c-0.4-0.4-0.3-1,0.1-1.3
		c0,0,0,0,0.1,0c0.1-0.1,0.2-0.1,0.3-0.2L270.2,169.2z"/>
	<path d="M275.4,75.1c0.2-0.4,0.5-0.8,0.7-1.2c0.2-0.4,0.6-0.6,1-0.7c0.2,0,0.6,0.2,0.6,0.4c-0.1,0.7-0.2,1.4-0.8,2
		C276.1,76.1,275.9,75.9,275.4,75.1z"/>
	<path d="M403.3,190.1c-0.2-0.9,0.7-1,0.8-1.6l1.3,0.1c0.2,0.4,0.4,0.8,0.6,1.3c0.1,0.3-0.5,0.8-0.7,0.5
		C404.7,189.7,404.1,190.2,403.3,190.1z"/>
	<path d="M146.1,59.5c-0.2-0.1-0.5-0.2-0.5-0.4c0-0.2,0-0.5,0.2-0.7c0.4-0.5,1-0.8,1.6-0.8c0.4,0,0.7,0.2,0.8,0.6
		c0.1,0.4-0.1,0.9-0.5,1C147.2,59.3,146.7,59.4,146.1,59.5z"/>
	<path d="M247.8,65.6c-0.3-0.3-0.3-0.7,0-1c0,0,0.1-0.1,0.1-0.1c1-1.1,2.1-2.1,3.2-3.2c0,0,0.1,0,0.2,0c0,0.1,0,0.3,0,0.4
		c-0.9,1.1-1.8,2.3-2.7,3.4C248.3,65.3,248,65.5,247.8,65.6z"/>
	<path d="M433.8,88l-1.8-0.1c0-0.3-0.1-0.5-0.1-0.8c0-1.2,0.5-1.5,1.5-1c0.3,0.2,0.4,0.4,0.5,0.7C434,87.3,433.9,87.7,433.8,88z"/>
	<path d="M262.3,171.9c0.2-0.2,0.2-0.5,0.4-0.5c0.6-0.2,1.1-0.6,1.4-1.2c0.1-0.1,0.5-0.2,0.7-0.2s0.3,0.3,0.3,0.6
		c-0.1,0.8-0.8,1.1-1.4,1.5S262.8,172.1,262.3,171.9z"/>
	<path d="M195.9,20.3c0.2-0.1,0.5-0.2,0.8-0.2c0.4-0.1,0.9,0.1,1,0.5c0.2,0.5-0.1,1.1-0.6,1.3c0,0,0,0,0,0c-0.4,0.1-0.8,0.1-1.2,0.2
		C195.5,21.3,195.9,20.8,195.9,20.3z"/>
	<path d="M243.4,103.9c-0.5-0.2-0.9-0.4-1.3-0.6c-0.3-0.2-0.4-0.5-0.3-0.8c0,0,0,0,0,0c0.1-0.2,0.3-0.4,0.5-0.5c0.1-0.1,0.2,0,0.3,0
		c0.4-0.1,0.9,0.1,1.1,0.4C244.1,102.9,244,103.4,243.4,103.9z"/>
	<path d="M274.4,122.9c-0.5-0.1-0.8-0.2-0.8-0.6c-0.1-0.7,0.1-1.4,0.6-2l1,0.4C275.4,121.6,274.8,122.2,274.4,122.9z"/>
	<path d="M254.9,61.1c-0.3,0.3-0.6,0.7-0.8,1c-0.3,0.3-0.5,0.7-0.7,1.1c-0.2,0.5-0.5,0.9-0.9,1.3c-0.2,0.2-0.4,0.3-0.7,0.1
		c-0.2-0.1-0.3-0.4-0.1-0.7c0.3-0.5,0.6-0.9,1.1-1.3c0.6-0.4,1.1-0.9,1.5-1.5C254.5,60.9,254.7,60.8,254.9,61.1z"/>
	<path d="M261.8,162.3c0.3,0.2,0.6,0.5,0.8,0.8c0.1,0.2,0.1,0.5,0,0.7c-0.1,0.5-0.7,0.8-1.2,0.7c-0.5-0.2-0.6-1.1-0.2-1.6
		C261.3,162.7,261.5,162.5,261.8,162.3z"/>
	<path d="M280.1,136.6c-0.7,0-1-0.3-1-0.7c0-0.4,0.3-0.7,0.6-0.8c0.2-0.1,0.5-0.1,0.8-0.1c0.3,0,0.6,0.2,0.7,0.5
		c0.1,0.3,0,0.7-0.3,0.8C280.6,136.4,280.4,136.5,280.1,136.6z"/>
	<path d="M246.9,71.1c0.1-1.4,1-2.6,2.2-3.2c0.1,0.2,0.2,0.3,0.2,0.4c0,0.2-0.1,0.4-0.3,0.5c-0.6,0.7-1.1,1.3-1.7,2
		C247.1,71,247,71,246.9,71.1L246.9,71.1z"/>
	<path d="M254.4,65.9c-0.4,1.4-1,2.7-2.4,3.5c0-0.3-0.1-0.5,0-0.5C252.8,67.8,253.6,66.9,254.4,65.9z"/>
	<path d="M431.3,188l0.1,0.7l1.5,0.2c-0.7,0.3-1.4,0.5-2.1,0.4c-0.1,0-0.2-0.2-0.3-0.3c0,0-0.1,0.1-0.1,0.1c0,0-0.1,0-0.1,0l0.3,0
		c-0.3,0.4-0.9,0.4-1.3,0.1c0,0,0,0-0.1-0.1C429.7,188.1,430.7,188.5,431.3,188L431.3,188z"/>
	<path d="M257.4,116.9c0.1,0.2,0.3,0.3,0.4,0.4c0.1,0.7,0.2,1.3,0.5,2c0.1,0.4,0.1,0.9-0.1,1.3c-0.3,0.1-0.5-0.1-0.6-0.4
		c0,0,0,0,0-0.1c-0.1-1-0.2-2.1-0.3-3.1C257.3,117.1,257.3,117,257.4,116.9z"/>
	<path d="M113.6,230.8c0.2,0.6-0.1,1.2-0.6,1.5c-0.5,0.3-0.9,0.1-1.4-0.2C111.9,231.3,112.7,230.8,113.6,230.8z"/>
	<path d="M146.1,9c0.5,0,1.1,0,1.6,0c0.3,0.1,0.5,0.2,0.7,0.4c0.2,0.2,0.2,0.4,0,0.6c-0.1,0.1-0.1,0.1-0.2,0.1c-0.2,0-0.4,0-0.6,0
		C146.9,10,146.4,9.6,146.1,9z"/>
	<path d="M261.9,116.2c-0.7-1.2-0.7-1.2-0.6-3.1c0.6,0.5,0.9,1.3,0.9,2.1C262.3,115.4,262.1,115.7,261.9,116.2z"/>
	<path d="M258.4,102.7c-0.3-0.1-0.6-0.2-0.8-0.3c-0.2-0.2-0.3-0.4-0.4-0.7c-0.1-0.3,0-0.6,0.3-0.8c0,0,0,0,0,0
		c0.3-0.2,0.7-0.1,1,0.2C258.8,101.7,258.8,102.3,258.4,102.7z"/>
	<path d="M374.9,232.1c-0.1-0.4,0.1-0.7,0.5-0.8c0.8-0.2,1.6-0.3,2.5-0.2c-0.1,0.2-0.1,0.4-0.2,0.4c-0.9,0.1-1.7,0.3-2.5,0.6
		C375.1,232.2,375,232.1,374.9,232.1z"/>
	<path d="M273.5,145.2c0,0.1,0,0.2,0,0.2c0,0.3,0,0.7-0.3,0.8c-0.2,0.1-0.7-0.2-0.7-0.7c0-0.4,0-0.7,0.1-1c0.1-0.2,0.2-0.3,0.4-0.4
		c0.3,0,0.4,0.3,0.5,0.5C273.5,144.9,273.5,145.1,273.5,145.2z"/>
	<path d="M56.6,54.4l1.7-1.9c0.5,0.3,0.2,0.6,0.1,0.8c-0.1,0.6-0.5,1.1-1,1.3c-0.2,0.1-0.5,0.1-0.7,0.1L56.6,54.4z"/>
	<path d="M147.1,94.3c-0.3-0.3-0.5-0.6-0.7-0.9c0.1-0.1,0.2-0.3,0.3-0.4c0.4-0.2,0.8-0.3,1.2-0.1c0.3,0.1,0.4,0.4,0.3,0.7
		c0,0.1-0.1,0.2-0.2,0.3C147.7,94.1,147.4,94.2,147.1,94.3z"/>
	<path d="M193.8,23.7c0,0.7-0.3,1-0.9,0.9c-0.1,0-0.2-0.1-0.3-0.1c-0.3-0.5-0.1-1.1,0.3-1.5C193.4,22.7,193.8,23.1,193.8,23.7z"/>
	<path d="M263.5,88.5c0.2-0.6,0.3-0.9,0.5-1.2c0.1-0.1,0.2-0.2,0.3-0.3c0.3-0.2,0.6-0.1,0.9,0.1c0.2,0.3,0.1,0.7-0.2,1
		C264.5,88.2,264,88.3,263.5,88.5z"/>
	<path d="M454.5,132.1c-0.1-1-0.8-1.9,0.2-2.7c0.1,0.1,0.2,0.2,0.3,0.3c0,0.3,0,0.5,0,0.8c0,0.3-0.2,0.6-0.2,0.9
		C454.8,131.6,455.1,131.9,454.5,132.1z"/>
	<path d="M379.8,161.4c-0.2,0-0.5-0.1-0.7-0.2c-0.1-0.1-0.2-0.2-0.2-0.3c0-0.1,0.1-0.3,0.2-0.4c0.3-0.1,0.7-0.2,1-0.2
		c0.3,0,0.6,0.3,0.6,0.6c0,0,0,0,0,0C380.6,161.2,380.3,161.4,379.8,161.4z"/>
	<path d="M269.3,128c-0.4-0.4-0.7-0.7-0.9-1.1c-0.1-0.2,0-0.5,0.1-0.7c0.2-0.3,0.6-0.3,0.8-0.2c0.2,0.1,0.3,0.3,0.3,0.5
		C269.5,126.9,269.4,127.4,269.3,128z"/>
	<path d="M276.3,188.8c0.9-0.7,1.4-1.4,2.3-1.6C278.2,188.3,277.9,188.5,276.3,188.8z"/>
	<path d="M226.1,105.3c-0.9,0.4-1.4,1-2.2,0.3l0.2-0.6C224.8,104.7,225.3,104.9,226.1,105.3z"/>
	<path d="M264.5,83.1c0.1,0.3,0.3,0.5,0.4,0.8c0.1,0.3-0.1,0.7-0.4,0.8c0,0,0,0-0.1,0c-0.2,0-0.5,0-0.7-0.1
		c-0.2-0.1-0.2-0.4-0.1-0.6c0,0,0,0,0.1-0.1C263.9,83.7,264.2,83.4,264.5,83.1z"/>
	<path d="M295.7,87.1c0.1-0.9-0.4-1.7,0.6-2.1C297,85.9,297,85.9,295.7,87.1z"/>
	<path d="M252.2,52.3c-0.3,0.8-0.9,0.9-1.6,0.7C251.3,51.8,251.3,51.7,252.2,52.3z"/>
	<path d="M421.5,190.6c0.3-1.2,1.2-1.2,2-1.3C423,190.2,422.9,190.2,421.5,190.6z"/>
	<path d="M266.2,124.1c0.6,0,1,0.4,1,0.7c-0.1,0.3-0.3,0.5-0.7,0.5c-0.3,0-0.7-0.3-0.7-0.6C266,124.5,266.1,124.3,266.2,124.1z"/>
	<path d="M270.2,85.3c0.5,0,0.9,0.4,0.9,0.9c0,0,0,0,0,0c0,0.1,0,0.1-0.1,0.1c-0.3,0.2-0.7,0.2-1,0c-0.2-0.2-0.2-0.4-0.2-0.7
		C269.9,85.5,270.1,85.4,270.2,85.3z"/>
	<path d="M283,73.9c0.4,0.3,0.5,0.4,0.6,0.5c0.1,0.1,0.3,0.5,0.2,0.7c-0.1,0.3-0.4,0.4-0.7,0.4c-0.6,0-0.8-0.4-0.5-0.9L283,73.9z"/>
	<path d="M425.8,108.1c0,0.2,0,0.5-0.1,0.7c-0.3,0.2-0.6,0.4-0.9,0.5c-0.1,0-0.3-0.2-0.4-0.4c-0.1-0.2,0-0.5,0.2-0.7
		C424.9,107.9,425.4,107.9,425.8,108.1z"/>
	<path d="M262.9,112.9c-0.9-0.6-0.9-1.3-1-2.3C263,111.2,262.8,112.1,262.9,112.9z"/>
	<path d="M268.1,88.7c0,0.6-0.7,1.1-1.2,0.9c-0.1,0-0.2-0.2-0.2-0.2c0-0.3,0.1-0.6,0.3-0.8c0.3-0.1,0.6-0.2,0.8-0.2
		C267.9,88.4,268,88.6,268.1,88.7z"/>
	<path d="M433.2,164.1c0.6-0.1,1.1-0.3,1.7-0.3c0.4,0,0.7,0,1.1,0c0.1,0,0.2,0.3,0.5,0.6c-0.7-0.1-1.2-0.2-1.7-0.2
		S433.7,164.1,433.2,164.1L433.2,164.1z"/>
	<path d="M266,90.9c-0.2,0.4-0.5,0.6-1,0.5c-0.3-0.2-0.4-0.5-0.3-0.8c0.1-0.3,0.5-0.5,0.7-0.4C265.7,90.4,265.9,90.6,266,90.9z"/>
	<path d="M186.5,123.6c-0.2,0.5-0.3,0.9-0.9,0.9c-0.1-0.1-0.2-0.1-0.2-0.2c-0.1-0.3-0.3-0.8,0-1
		C185.7,123.1,186.2,123.3,186.5,123.6z"/>
	<path d="M132.7,93c-0.3,0-0.5-0.3-0.5-0.7c0-0.3,0.2-0.5,0.5-0.5c0,0,0,0,0,0c0.3,0,0.5,0.2,0.6,0.5c0,0,0,0.1,0,0.1
		C133.3,92.7,133,93,132.7,93z"/>
	<path d="M269.6,82.1c0.4-0.5,0.8-1,1.2-1.5c0,0,0.2,0,0.3,0c0.1,0.1,0.1,0.2,0.1,0.3C270.9,81.6,270.3,82.1,269.6,82.1z"/>
	<path d="M0.2,125.8c-0.6-0.5-0.7-1.3-0.2-2c0.1-0.2,0.4-0.2,0.7-0.2c0.4,0.6-0.4,0.5-0.5,1.1L0.2,125.8z"/>
	<path d="M267.4,170.1l0.5,1.2c-0.2,0.1-0.4,0.2-0.6,0.3c-0.2,0.1-0.4,0-0.5-0.3c0-0.1,0-0.1,0-0.2c0.1-0.4,0.2-0.7,0.3-1
		L267.4,170.1z"/>
	<path d="M267.1,84.6c-0.2,0.9-0.5,1.4-1.2,1.6C265.6,85.4,265.6,85.4,267.1,84.6z"/>
	<path d="M78.6,15.3l1.5-1.2c0,0.7-0.2,1.2-0.8,1.4C79.2,15.5,79,15.4,78.6,15.3z"/>
	<path d="M369.7,35c-0.1,0.1-0.3,0.4-0.5,0.4c-0.3,0-0.6-0.4-0.5-0.8c0-0.2,0.2-0.3,0.4-0.4C369.4,34.1,369.7,34.5,369.7,35z"/>
	<path d="M418.3,211.6c0-0.2,0-0.4,0-0.6c0.1-0.2,0.3-0.3,0.5-0.4c0.3-0.1,0.6-0.1,0.9-0.2L418.3,211.6z"/>
	<path d="M431.2,173.1c0-0.8,0.4-1,0.9-1.2C432.2,172.8,432.2,172.8,431.2,173.1z"/>
	<path d="M275.8,120.6c0.4-0.2,0.7-0.4,1.1-0.5c0.3-0.1,0.6,0.3,0.5,0.6c0,0.3-0.3,0.4-0.5,0.4c0,0,0,0-0.1,0
		C276.6,121,276.2,120.8,275.8,120.6z"/>
	<path d="M244.9,112c-0.1,0.2-0.2,0.4-0.3,0.5c0,0-0.2,0-0.3,0c-0.3-0.2-0.4-0.5-0.2-0.8c0,0,0,0,0,0c0.1-0.2,0.3-0.3,0.4-0.4
		C244.7,111.2,244.9,111.6,244.9,112z"/>
	<path d="M115.8,237.4c0.4-0.1,0.7-0.1,1.1-0.1c0.2,0.1,0.3,0.2,0.3,0.4c-0.1,0.2-0.2,0.3-0.4,0.4
		C116.4,238.2,116.1,237.9,115.8,237.4z"/>
	<path d="M14.1,139.9c-0.3,0.3-0.5,0.5-0.7,0.6c-0.2,0-0.4-0.3-0.4-0.5c0-0.3,0.2-0.5,0.4-0.5c0.1,0,0.1,0,0.2,0
		C13.8,139.5,13.9,139.7,14.1,139.9z"/>
	<path d="M432.1,192.1c0.5-1,0.5-1,1.7-0.4c-0.1,0.1-0.1,0.2-0.2,0.2C433.2,192,432.8,192.1,432.1,192.1z"/>
	<path d="M301.6,75.1c-0.2,0.3-0.4,0.5-0.5,0.6c-0.3,0.1-0.6-0.1-0.7-0.4c0,0,0,0,0,0c-0.1-0.3,0.2-0.7,0.4-0.7
		C301.1,74.7,301.3,74.9,301.6,75.1z"/>
	<path d="M182.1,128c-0.2,0.4-0.5,0.7-0.7,1.1c-0.1,0.1-0.4,0-0.5-0.1c-0.1,0-0.1-0.3,0-0.4c0.2-0.4,0.7-0.5,1-0.8L182.1,128z"/>
	<path d="M433.2,165.2c0.5-0.3,1.2-0.4,1.8-0.3C434.6,165.4,433.9,165.5,433.2,165.2z"/>
	<path d="M171.7,70.2c-0.1,0.1-0.2,0.3-0.3,0.3c-0.3,0.1-0.7-0.2-0.7-0.7c0-0.1,0.1-0.3,0.2-0.4C171.2,69.4,171.6,69.7,171.7,70.2z"
		/>
	<path d="M260.6,15.3c-0.3,0-0.6-0.3-0.5-0.6c0,0,0,0,0,0c0-0.3,0.3-0.5,0.5-0.5c0.3,0,0.5,0.2,0.5,0.4
		C261.2,15,261,15.2,260.6,15.3z"/>
	<path d="M439.3,159.7c-0.3,0.3-0.8,0.3-1.2,0.1c-0.1-0.1-0.2-0.2-0.2-0.4c0-0.1,0.2-0.2,0.3-0.3C438.7,159,439.1,159.1,439.3,159.7
		z"/>
	<path d="M46.1,162.1c0.2,0.1,0.5,0.2,0.7,0.4c0.1,0.1,0.3,0.4,0.2,0.5c0,0.1-0.3,0.3-0.4,0.3c-0.2,0.1-0.5-0.1-0.5-0.3
		c0,0,0-0.1,0-0.1C46,162.7,46,162.4,46.1,162.1z"/>
	<path d="M290.4,125c-0.4,0-0.7,0-1.1,0c-0.1,0-0.2-0.2-0.3-0.3c0-0.2,0.1-0.3,0.2-0.4C289.7,124.3,289.9,124.3,290.4,125z"/>
	<path d="M81.7,99.1l-0.8,0.7c-0.4-0.4-0.6-0.7-0.4-1.1c0.1,0,0.2-0.1,0.3,0C81,98.7,81.3,98.8,81.7,99.1z"/>
	<path d="M273.6,188.2c0,0.2-0.1,0.4-0.2,0.6c-0.1,0.1-0.2,0.2-0.4,0.2c-0.1,0-0.2-0.1-0.2-0.2c-0.2-0.3-0.1-0.6,0.1-0.8
		c0.1-0.1,0.3-0.1,0.4-0.1C273.4,187.8,273.5,188,273.6,188.2z"/>
	<path d="M283.2,88.6c-0.7-0.7-0.7-0.7,0.3-1.4C283.6,87.7,283.7,88.2,283.2,88.6z"/>
	<path d="M246.6,98c0.3-0.1,0.6,0.1,0.6,0.4c0,0,0,0,0,0.1c0.1,0.2-0.1,0.5-0.3,0.5c0,0-0.1,0-0.1,0c-0.3,0-0.6,0-0.6-0.3
		C246.2,98.3,246.5,98.2,246.6,98z"/>
	<path d="M246.8,71.1c-0.2,0.6-0.6,1-1.2,1c0-0.3,0-0.5,0.1-0.6C246,71.2,246.4,71,246.8,71.1L246.8,71.1z"/>
	<path d="M433.6,172.1c-0.2-0.1-0.3-0.3-0.4-0.4c-0.2-0.2-0.1-0.5,0.1-0.7c0,0,0,0,0,0c0.2-0.1,0.4-0.1,0.6,0
		c0.2,0.1,0.3,0.4,0.2,0.6c0,0,0,0,0,0C433.9,171.8,433.7,171.9,433.6,172.1z"/>
	<path d="M420.4,192.6c0.4-0.3,0.8-0.1,1.1,0.1c0.1,0,0.1,0.2,0,0.3c-0.1,0.1-0.1,0.1-0.2,0.1C420.9,193.1,420.6,193.1,420.4,192.6z
		"/>
	<path d="M67,42.9c0.1-0.3,0.1-0.7,0.2-1c0.1-0.1,0.2-0.1,0.3-0.1c0.1,0,0.2,0.1,0.2,0.2C67.7,42.4,67.5,42.7,67,42.9z"/>
	<path d="M424.9,190.1c-0.5,0.6-0.9,0.9-1.6,0.4c0.2-0.1,0.3-0.3,0.4-0.3C424,190.1,424.4,190.1,424.9,190.1z"/>
	<path d="M184,233.9c0.3,0,0.6,0.1,0.8,0.1c0.1,0,0.2,0.3,0.1,0.4c0,0.1-0.3,0.2-0.4,0.2c-0.2-0.1-0.4-0.2-0.7-0.4L184,233.9z"/>
	<path d="M262.4,167.9c-0.2-0.5-0.1-0.8,0.3-0.9c0.2,0,0.4,0.1,0.5,0.2c0.1,0.1-0.1,0.3-0.2,0.4
		C262.8,167.7,262.6,167.8,262.4,167.9z"/>
	<path d="M435.9,159.2c0.2-0.1,0.3-0.2,0.5-0.3c0.3-0.1,0.7,0.1,0.6,0.3c-0.1,0.2-0.2,0.3-0.4,0.4
		C436.3,159.7,436,159.6,435.9,159.2C435.9,159.3,435.9,159.3,435.9,159.2z"/>
	<path d="M348.4,231.4c-0.4,0.4-0.7,0.3-1.3-0.1L348.4,231.4z"/>
	<path d="M356,233.2c0.2,0,0.5,0.1,0.7,0.1c0.1,0,0.1,0.2,0.2,0.2c-0.1,0-0.2,0.1-0.3,0.1C356.4,233.6,356.1,233.7,356,233.2z"/>
	<path d="M434.4,188.4c-0.2,0.1-0.5,0.1-0.7,0.2c-0.2,0-0.3-0.2-0.3-0.3c0,0,0-0.1,0-0.1c0-0.1,0.2-0.3,0.3-0.3
		C434,188,434.2,188.2,434.4,188.4z"/>
	<path d="M329.7,212.6c0.4,0.1,0.8,0.2,1.1,0.4c0,0,0,0.2,0,0.6L329.7,212.6L329.7,212.6z"/>
	<path d="M8,137c0.2-0.4,0.4-0.6,0.9-0.5C8.8,137.1,8.5,137.2,8,137z"/>
	<path d="M431.3,188l1.6-0.3C432.3,188.5,431.8,188.1,431.3,188z"/>
	<path d="M370.8,37.6c0.2-0.1,0.3-0.2,0.4-0.2c0.2,0,0.3,0.1,0.5,0.2c-0.1,0.2-0.1,0.4-0.2,0.5c-0.2,0-0.4,0-0.5-0.1
		C370.9,37.9,370.8,37.7,370.8,37.6z"/>
	<path d="M333.3,213.1c0.2,0,0.5,0.1,0.7,0.1c0.1,0,0.1,0.1,0.2,0.2c-0.1,0-0.2,0.1-0.3,0.1c-0.2-0.1-0.5-0.2-0.7-0.2L333.3,213.1z"
		/>
	<path d="M421.1,166.8c0.4,0,0.6,0.2,0.5,0.5c0,0.1-0.3,0.3-0.3,0.2c-0.2-0.1-0.3-0.3-0.4-0.4C420.9,167,421.1,166.9,421.1,166.8z"
		/>
	<path d="M271,125.3c0.2-0.2,0.3-0.3,0.4-0.3c0.2,0.1,0.3,0.2,0.4,0.3c-0.1,0.1-0.2,0.4-0.4,0.4S271.1,125.5,271,125.3z"/>
	<path d="M428,189.2c-0.2,0.2-0.5,0.3-0.7,0.5c-0.1,0-0.2-0.1-0.3-0.2c0.1-0.1,0.1-0.3,0.2-0.3C427.4,189.2,427.7,189.2,428,189.2z"
		/>
	<path d="M268.4,131.7l-0.3-1.2c0.4-0.2,0.4,0.1,0.4,0.3C268.4,131.1,268.4,131.4,268.4,131.7L268.4,131.7z"/>
	<path d="M273,131.2c0,0.1-0.1,0.2-0.1,0.2c-0.1,0-0.3,0-0.4-0.1c-0.1-0.1-0.1-0.3-0.1-0.4c0-0.1,0.2-0.2,0.2-0.1
		c0.1,0.1,0.2,0.2,0.3,0.3C273,131,273,131.1,273,131.2z"/>
	<path d="M265.2,121c0.3,0.1,0.4,0.2,0.5,0.3c0.1,0.1,0.1,0.3,0.1,0.4c0,0.1-0.1,0.2-0.2,0.2c-0.1,0-0.3-0.1-0.3-0.2
		C265.2,121.4,265.2,121.2,265.2,121z"/>
	<path d="M67.3,44.4c0,0.1,0.4,0.3,0.2,0.6C67,44.9,67.4,44.5,67.3,44.4z"/>
	<path d="M277.2,91.8l-0.7,0.4c-0.1-0.1-0.2-0.2-0.1-0.2c0.1-0.2,0.2-0.3,0.4-0.4C276.9,91.6,277,91.7,277.2,91.8z"/>
	<path d="M251.4,70.2c-0.1,0.1-0.2,0.3-0.3,0.3c-0.1,0-0.3,0-0.4,0c0-0.1,0-0.2,0-0.3c0.1-0.1,0.2-0.2,0.3-0.3c0.1,0,0.2,0,0.3,0
		C251.4,70,251.4,70.1,251.4,70.2z"/>
	<path d="M414.9,186.2l0.9-0.6C415.6,186.3,415.6,186.3,414.9,186.2z"/>
	<path d="M275,190.3c-0.2,0-0.3,0.1-0.5,0c-0.1,0-0.1-0.2-0.1-0.3c0.1-0.1,0.2-0.1,0.4-0.1c0.1,0,0.3,0.1,0.4,0.1L275,190.3z"/>
	<path d="M91.2,221.4c-0.3,0.1-0.4,0.2-0.5,0.2c-0.2,0-0.3-0.2-0.3-0.3c0,0,0-0.1,0-0.1c0.1-0.1,0.1-0.1,0.2-0.1
		C90.9,221.1,91,221.3,91.2,221.4z"/>
	<path d="M232.5,92l-0.2,0.3c-0.1-0.1-0.2-0.1-0.2-0.2c0-0.1,0.1-0.2,0.1-0.2C232.3,91.9,232.4,92,232.5,92z"/>
	<path d="M349.9,231.8c-0.1,0.1-0.2,0.2-0.2,0.2c-0.1,0-0.2-0.1-0.2-0.2c0.1,0,0.2-0.1,0.2-0.1S349.9,231.7,349.9,231.8z"/>
	<path d="M325.6,217.8l0.3,0.4c-0.1,0.1-0.2,0.2-0.3,0.2c-0.1,0-0.2-0.2-0.3-0.3L325.6,217.8z"/>
	<path d="M250.6,57.9c-0.1,0.1-0.3,0.2-0.4,0.2s-0.1-0.2-0.2-0.3c0.1-0.1,0.3-0.1,0.4-0.1C250.6,57.6,250.6,57.7,250.6,57.9z"/>
	<path d="M168.2,148.2l0.3,0.2l-0.3,0.2l-0.3-0.3L168.2,148.2z"/>
	<path d="M71.2,78.9c0-0.2,0-0.5,0-0.7c0-0.1,0.1-0.2,0.2-0.2c0.1-0.1,0.3,0.1,0.2,0.3S71.4,78.6,71.2,78.9L71.2,78.9z"/>
	<path d="M402,201.2l0.5,0c0,0.1,0,0.2,0,0.2c-0.1,0.1-0.2,0.1-0.4,0.2C402.1,201.4,402.1,201.3,402,201.2z"/>
	<path d="M261.4,91c-0.1-0.1-0.1-0.1-0.2-0.2c0.1-0.1,0.2-0.2,0.3-0.3c0.1,0.1,0.2,0.1,0.2,0.2C261.5,90.7,261.5,90.8,261.4,91z"/>
	<path d="M181.3,139.4c0.1-0.2,0.2-0.4,0.2-0.5c0,0,0.2,0,0.2,0s0,0.1,0,0.1C181.6,139.1,181.5,139.2,181.3,139.4L181.3,139.4z"/>
	<path d="M415.4,210.6c0.1-0.5,0.5-0.4,1.1-0.3L415.4,210.6L415.4,210.6z"/>
	<path d="M424.4,179.6c-0.1-0.1-0.2-0.2-0.1-0.2c0.1-0.1,0.2-0.2,0.3-0.2c0,0.1,0.1,0.2,0.1,0.2
		C424.6,179.4,424.5,179.5,424.4,179.6z"/>
	<path d="M55.1,176c0.1,0.1,0.1,0.1,0.2,0.2c0,0-0.1,0.1-0.1,0.1c-0.1,0-0.2,0-0.2-0.1L55.1,176z"/>
	<path d="M249.6,54c-0.1,0.1-0.3,0.2-0.5,0.2c-0.1,0-0.2-0.1-0.2-0.1c0.1-0.1,0.2-0.2,0.3-0.3C249.2,53.8,249.3,53.9,249.6,54z"/>
	<path d="M354.7,233.1l-0.1,0c0.1,0,0.1-0.1,0.2-0.1c0,0,0.1,0,0.1,0L354.7,233.1z"/>
	<path d="M418.7,210.1l-0.1,0c0.1,0,0.1-0.1,0.2-0.1c0,0,0.1,0,0.1,0L418.7,210.1z"/>
	<path d="M359.7,234.1l-0.3-0.1c0.1,0,0.2-0.1,0.3-0.1s0.1,0.1,0.1,0.1L359.7,234.1z"/>
	<path d="M429.9,175l0.2-0.2c0,0.1,0,0.2,0,0.2c0,0-0.1,0.1-0.1,0.1C430,175.1,430,175,429.9,175z"/>
	<path d="M280.3,118l-0.2,0.2l-0.2-0.3c0.1,0,0.2-0.1,0.2-0.1C280.3,117.8,280.3,117.9,280.3,118z"/>
	<path d="M265.2,64.1l0.2-0.2l0.2,0.3c-0.1,0-0.2,0.1-0.3,0.1C265.2,64.3,265.2,64.2,265.2,64.1z"/>
	<path d="M255.7,65c-0.1,0.1-0.3,0.1-0.4,0.2c0,0-0.1-0.1-0.1-0.2c0-0.1,0.1-0.2,0.2-0.2C255.3,64.7,255.4,64.8,255.7,65z"/>
	<path d="M451.9,122.6c0,0-0.1,0.1-0.1,0.1c-0.1,0-0.2-0.1-0.2-0.1l0.1-0.2L451.9,122.6z"/>
	<path d="M404.6,95.8c-0.1,0.1-0.1,0.1-0.2,0.2c0-0.1-0.1-0.1-0.1-0.2c0,0,0.1-0.1,0.1-0.1C404.4,95.7,404.5,95.8,404.6,95.8z"/>
	<path d="M222,54.8c-0.1,0.2-0.2,0.3-0.3,0.5c0,0-0.2,0-0.2,0c-0.1,0,0-0.1,0-0.1C221.6,54.9,221.8,54.7,222,54.8L222,54.8z"/>
	<path d="M231.8,93l-0.4,0.2c0-0.1-0.1-0.2-0.1-0.2c0-0.1,0.1-0.1,0.2-0.2C231.6,92.9,231.7,92.9,231.8,93z"/>
	<path d="M229.4,91.3c0.1,0.1,0.1,0.1,0.2,0.2l-0.3,0.2c0-0.1-0.1-0.2-0.1-0.3C229.3,91.4,229.4,91.3,229.4,91.3z"/>
	<path d="M280.1,123.9l-0.4-0.1c0,0,0-0.1,0.1-0.1l0.4,0L280.1,123.9z"/>
	<path d="M248.4,73.5l0.2-0.2c0,0.1,0.1,0.2,0.1,0.2c0,0.1-0.1,0.1-0.2,0.1L248.4,73.5z"/>
	<path d="M267.2,81.5c-0.1-0.3-0.2-0.4-0.2-0.5c0.1-0.1,0.2-0.2,0.3-0.2c0.1,0.1,0.2,0.2,0.1,0.2C267.3,81.2,267.2,81.4,267.2,81.5z
		"/>
	<path d="M45.8,148.2L46,148c0.1,0.1,0.1,0.1,0.1,0.2c0,0-0.1,0.1-0.1,0.1S45.9,148.2,45.8,148.2z"/>
	<path d="M281.6,142.4c0,0.1-0.1,0.2-0.1,0.2c-0.1,0-0.2-0.1-0.3-0.1c0-0.1,0.1-0.2,0.1-0.2C281.4,142.3,281.5,142.3,281.6,142.4z"
		/>
	<path d="M438.1,141.8l-0.2,0.2l-0.2-0.3c0.1,0,0.2-0.1,0.3-0.1C438,141.7,438,141.8,438.1,141.8z"/>
	<path d="M233.4,91c-0.1,0.1-0.1,0.2-0.2,0.2c-0.1,0-0.1-0.1-0.2-0.1c0-0.1,0.1-0.2,0.1-0.2S233.3,90.9,233.4,91z"/>
	<path d="M328.8,218.9C328.9,218.9,328.9,218.8,328.8,218.9c0.2,0,0.2,0,0.3,0.1c-0.1,0-0.2,0-0.2,0.1
		C328.9,219,328.8,218.9,328.8,218.9z"/>
	<path d="M51.9,72.4v0.1l-0.2-0.1C51.7,72.4,51.8,72.4,51.9,72.4C51.8,72.4,51.9,72.4,51.9,72.4z"/>
	<path d="M321,79.4c0,0.1,0,0.2,0,0.3c0,0-0.1,0-0.1,0.1c0-0.1,0-0.2,0-0.3C320.9,79.5,321,79.5,321,79.4z"/>
	<path d="M94.2,195.7l-0.2,0.1c0,0,0-0.1,0-0.1c0.1,0,0.1-0.1,0.2-0.1C94.2,195.6,94.2,195.6,94.2,195.7z"/>
	<path d="M257,95.9l-0.3,0.1c0-0.1-0.1-0.2-0.1-0.2c0.1-0.1,0.2-0.1,0.2-0.1C256.9,95.7,257,95.8,257,95.9z"/>
	<polygon points="427.3,200.2 427.4,200.3 427.3,200.3 	"/>
	<path d="M43.2,84l0.2,0.2c-0.1,0-0.1,0.1-0.2,0.1c0,0-0.1-0.1-0.1-0.1C43.1,84.2,43.1,84.1,43.2,84z"/>
	<path d="M425.7,189.5c0,0,0.1-0.1,0.1-0.1c0,0,0.1,0,0.1,0.1c-0.1,0-0.1,0.1-0.2,0.1C425.7,189.6,425.7,189.6,425.7,189.5z"/>
	<path d="M245.2,84l-0.1,0.1l-0.1-0.1l0.2-0.1L245.2,84z"/>
	<path d="M415.4,210.6h-0.6v0L415.4,210.6L415.4,210.6z"/>
	<path d="M260,129.3l-0.1,0.2c0,0-0.1-0.1-0.1-0.1c0-0.1,0.1-0.2,0.1-0.2L260,129.3z"/>
	<path d="M423.4,51.7l-0.2,0.1c0-0.1,0-0.2,0-0.2c0,0,0.1-0.1,0.1-0.1C423.3,51.6,423.3,51.7,423.4,51.7z"/>
	<path d="M271.5,136.6c0.1-0.1,0.1-0.1,0.2-0.2c0.1,0.1,0.1,0.1,0.1,0.2c0,0-0.1,0.1-0.1,0.1C271.6,136.7,271.5,136.6,271.5,136.6z"
		/>
	<polygon points="426.2,177.6 426.2,177.7 426.1,177.8 	"/>
	<path d="M78.7,179.7c-0.1-0.1-0.2-0.2-0.2-0.4c0,0,0-0.1,0-0.1s0.2,0,0.2,0.1C78.6,179.5,78.6,179.6,78.7,179.7L78.7,179.7z"/>
	<polygon points="15.5,138.4 15.6,138.5 15.5,138.5 	"/>
	<path d="M276.4,123.4c0,0,0.1-0.1,0.1,0c0,0,0.1,0.1,0.1,0.1C276.6,123.5,276.5,123.5,276.4,123.4
		C276.4,123.5,276.4,123.5,276.4,123.4z"/>
	<path d="M279.4,186.4L279.4,186.4l-0.2-0.1C279.3,186.3,279.3,186.2,279.4,186.4C279.4,186.3,279.4,186.3,279.4,186.4z"/>
	<path d="M80.3,240l-0.2,0.1c0-0.1,0-0.2,0-0.3c0,0,0.1,0,0.1-0.1C80.2,239.9,80.2,240,80.3,240z"/>
	<path d="M329.8,212.6l-0.3,0L329.8,212.6L329.8,212.6z"/>
	<polygon points="77.6,235 77.7,235.1 77.6,235 	"/>
	<path d="M417.8,211.9c0,0-0.1,0-0.1,0c0,0,0-0.1,0-0.1C417.7,211.8,417.7,211.8,417.8,211.9C417.8,211.9,417.8,211.9,417.8,211.9z"
		/>
	<path d="M281.7,78.5C281.7,78.5,281.7,78.4,281.7,78.5c0.1-0.1,0.1-0.1,0.2-0.1s0,0.1,0,0.1C281.8,78.5,281.7,78.5,281.7,78.5z"/>
	<path d="M298.5,39.4L298.5,39.4C298.5,39.5,298.4,39.5,298.5,39.4C298.4,39.4,298.4,39.4,298.5,39.4L298.5,39.4z"/>
	<path d="M222,54.8l-0.1-0.3C222.3,54.6,222,54.7,222,54.8L222,54.8z"/>
	<polygon points="76.9,234.2 77,234 77,234.2 	"/>
	<path d="M249.8,72c0,0,0,0.1,0,0.1s0,0.1-0.1,0.1C249.8,72.2,249.7,72.1,249.8,72C249.7,72,249.8,72,249.8,72z"/>
	<polygon points="110.8,232.1 110.9,232 110.9,232.1 	"/>
	<path d="M279.7,163.8L279.7,163.8c-0.1,0.1-0.1,0.1-0.1,0C279.5,163.8,279.5,163.8,279.7,163.8L279.7,163.8z"/>
	<path d="M423.1,162.3L423.1,162.3l-0.3,0L423.1,162.3z"/>
	<polygon points="46.1,149.1 46.2,149.2 46.1,149.2 	"/>
	<path d="M448.3,141.2c0,0.1,0.1,0.2,0.1,0.2c0,0.1,0,0.1-0.1,0.1L448.3,141.2L448.3,141.2z"/>
	<path d="M6.3,137.3c0,0,0,0.1,0,0.1c0,0-0.1,0-0.1,0l0-0.1L6.3,137.3z"/>
	<polygon points="251,125.7 251.1,125.7 251.1,125.8 	"/>
	<path d="M259,124.3l-0.1,0c0,0,0-0.1,0-0.1c0,0,0.1,0,0.1,0L259,124.3z"/>
	<polygon points="428.9,182.2 428.9,182.1 429,182.1 	"/>
	<path d="M411.7,182.8l0.2-0.1C411.9,182.9,411.8,182.8,411.7,182.8L411.7,182.8z"/>
	<path d="M275.7,123l0,0.1c0,0-0.1-0.1-0.1-0.1c0,0,0.1-0.1,0.1-0.1L275.7,123z"/>
	<polygon points="274.1,118.9 274,119 274,118.9 	"/>
	<path d="M260.8,111.2c0,0,0.1,0.1,0.1,0.1s-0.1,0.1-0.1,0.1L260.8,111.2z"/>
	<polygon points="246.3,105.5 246.3,105.4 246.4,105.4 	"/>
	<path d="M462.6,105.1C462.6,105.1,462.5,105.1,462.6,105.1c-0.1-0.1-0.1-0.1,0-0.1c0,0,0.1,0,0.1,0
		C462.6,105.1,462.6,105.1,462.6,105.1z"/>
	<path d="M264.3,98.4c0,0,0.1,0.1,0,0.1c0,0,0,0.1-0.1,0.1L264.3,98.4z"/>
	<polygon points="423,192.9 422.9,193 422.9,192.9 	"/>
	<polygon points="425.2,192.7 425.4,192.7 425.3,192.8 	"/>
	<polygon points="414.5,193 414.6,193 414.5,193.1 	"/>
	<path d="M429.2,194.9c0,0,0,0.1,0,0.1c0,0-0.1,0-0.1,0v-0.2L429.2,194.9z"/>
	<path d="M430.4,195.2C430.4,195.2,430.4,195.3,430.4,195.2c-0.1,0.1-0.1,0.1-0.2,0.1c0,0,0-0.1,0-0.1
		C430.3,195.2,430.3,195.2,430.4,195.2z"/>
	<polygon points="415.5,201.8 415.6,201.9 415.5,201.9 	"/>
	<path d="M57.3,58.8l0.7,0.4L57.3,58.8z"/>
</g>
</svg>
