<?xml version="1.0" encoding="utf-8"?>
<!-- Generator: Adobe Illustrator 22.0.1, SVG Export Plug-In . SVG Version: 6.00 Build 0)  -->
<svg version="1.1" id="Layer_1" xmlns="http://www.w3.org/2000/svg" xmlns:xlink="http://www.w3.org/1999/xlink" x="0px" y="0px"
	 viewBox="0 0 580.1 532.5" style="enable-background:new 0 0 580.1 532.5;" xml:space="preserve">
<g id="EYOeWK">
	<g>
		<g>
			<path d="M237.3,221.2c3.2,3.5,6.7,7.2,10.1,10.9c1.7,1.9,1.7,2.1-0.2,3.8c-6.4,5.7-12.8,11.4-19.3,17c-0.9,0.8-1.2,1.6-0.9,2.7
				c0.2,0.6,0.3,1.4,0.1,1.8c-1.9,3.4-1.3,7.4-2.9,10.9c-0.2,0.5-0.1,1.2-0.1,1.8c0.4,2.7,0.7,5.4,1.2,8.1c0.2,0.9,0.8,1.8,1.5,2.4
				c1,0.8,2.2,1.2,3.3,1.9c0.4,0.3,0.9,0.9,0.8,1.3c-0.2,1.6-0.5,3.3-1.1,4.9c-1.2,3.6-2.5,7.2-3.9,10.8c-0.7,1.6-1.7,3.1-2.6,4.5
				c-0.6,0.8-1.3,1.5-2.1,2.1c-1,0.8-2,1.7-3.2,2.2c-4.1,1.9-7.2,5-10.5,7.9c-1,0.9-1.6,2.6-1.7,4c-0.4,4.4-2.7,7.8-5.3,11
				c-1.8,2.2-2.8,4.6-2.9,7.5c-0.1,2.7-1.7,3.6-4.3,2.5c-7.3-3.1-15-5.1-22.7-6.9c-3.2-0.7-6.6-0.4-9.9-0.6c-1.1-0.1-2.2,0-3.3-0.2
				c-2.3-0.5-3.8,0.2-4.8,2.3c-0.2,0.5-1,0.9-1.6,1.3c-3.7,2-7.5,4-11.2,6c-3.4,1.8-7.1,1.9-10.7,1c-1.2-0.3-2.3-1-3.3-1.8
				c-5.6-4.7-11.1-9.5-16.6-14.3c-1.9-1.6-3.7-3.3-5.6-4.9c-2.3-2.1-3.9-4.5-3.9-7.7c0-1.4-0.7-2.4-1.7-3.5
				c-4.2-4.5-8.9-8.3-13.6-12.2c-3.6-3-3.6-3-7.2,0.1c-1,0.8-1.9,1.7-2.7,2.6c-1,1.2-2,1.1-3.1,0.1c-4.3-3.7-8.6-7.4-12.9-11.1
				c-7.2-6.2-14.5-12.3-21.8-18.5c-2.6-2.2-2.6-2.6-0.4-5.2c0.5-0.6,0.9-1.1,1.5-1.6c1.5-1.5,2.6-3,1.3-5.2
				c-0.3-0.6-0.3-1.5-0.2-2.2c0.5-3-0.9-5.2-3.2-6.8c-1.2-0.9-1.6-1.9-1.3-3.3c0.1-0.4,0.2-1,0.5-1.1c1.2-0.7,0.8-1.7,0.9-2.7
				c0.1-2,0.4-4,0.6-6c0.1-1,0.2-2,0.1-2.9c-0.4-3-0.3-6,1.1-8.8c1.2-2.3,1.5-5,3.7-6.8c1-0.9,1.9-1.9,2.6-3.1
				c1.1-2.1,2.2-4.3,1.1-6.9c-0.6-1.4,0.6-3.2,2.3-3.6c0.9-0.2,1.2-0.6,1.5-1.5c1.2-3.5,0.2-6.7-1.8-9.5c-1.3-1.9-3-3.4-4.7-5.1
				c-1-1-2-2-3.2-2.8c-1.1-0.7-2.4-1.3-3.6-1.3c-2.8,0-7.1-2.2-8.3-4.8c-0.2-0.5-0.1-1.2,0.1-1.7c0.4-2,1.1-3.9,1.3-5.9
				c0.2-2-0.2-4.1-0.3-6.1c-0.1-2.7-0.8-5.1-2.5-7.2c-1.7-2.2-2.7-4.6-2.2-7.5c0.1-0.4-0.5-1.1-1-1.3c-4.1-1.8-8.2-3.7-12.3-5.4
				c-1.4-0.6-2-1.5-2.1-2.9c-2.8-26.1-5.6-52.2-8.4-78.3c-0.5-4.6-0.5-4.7,4-5.9C30,52,56.4,44.7,82.8,37.4c1-0.3,2.3-0.1,3.3,0.3
				c2.3,0.9,4.4,1.9,6.6,3c1.3,0.7,2,0.2,2.2-0.9c0.7-4.6,4.3-7.2,6.9-10.4c1-1.2,2-2.4,2.8-3.7c0.8-1.3,1.6-2.4,3.4-2.2
				c0.7,0.1,1.7-0.3,2.3-0.8c3.1-2.4,6.5-3.5,10.4-2.6c1.5,0.4,2.6-0.1,3.7-1c8.1-6.2,16.2-12.2,24.2-18.4c1.3-1,2.3-1,3.7-0.3
				c10.4,4.9,20.9,9.7,31.4,14.5c0.5,0.2,1,0.6,1.3,1.1c32.6,46.5,65.2,93.1,97.9,139.6c1,1.4,0.2,1.9-0.7,2.6
				c-10,7.4-20,14.9-30,22.3c-1.1,0.8-1.5,1.6-1,2.9c0.1,0.3,0.3,0.6,0.2,0.9c-1,4,1.3,7.5,1.6,11.3c0.1,0.8-0.2,1.7-0.2,2.5
				c0,1.3-0.1,2.6,0,3.8c0.1,1.1-0.1,1.8-1,2.4c-1.9,1.5-3.8,3-5.7,4.6c-1.4,1.1-2.8,2.3-4,3.6c-0.8,0.8-1.3,1.9-1.8,3
				C239.2,217.2,238.3,219.1,237.3,221.2z M76.4,268.1c0,0.6,0,0.8,0,0.9c0.4,0.8,0.7,1.5,1.1,2.3c3,5.5,5.2,11.2,3.9,17.6
				c-0.1,0.5,0.6,1.4,1.1,1.8c1.3,1,2.8,1.8,4.1,2.9c1,0.8,1.7,1.9,2.6,2.9c0.2-0.1,0.3-0.3,0.5-0.4c-0.8-1.1-1.6-2.2-2.4-3.2
				c-0.8-1-1.7-2-2.6-3c0.2-0.2,0.4-0.3,0.5-0.5c2.3,1.9,4.6,3.8,6.9,5.8c-0.1-0.7-0.3-1.3-0.4-2.2c1,0.4,1.6,0.7,2.4,1.1
				c0.5-1.6,1.1-3.1,0.2-4.7c-0.7-1.4-0.5-2.8-0.1-4.2c0.7,0.5,1.3,0.8,2,1.2c-0.2-2.2-0.3-4.1-0.4-6c0.2,0,0.4,0,0.6-0.1
				c0.1,0.7,0.2,1.3,0.3,2c0.1,0.5,0.3,1.1,0.5,1.6c0.2-0.1,0.5-0.1,0.7-0.2c-1.4-3.4,0.3-7.2-1.4-10.6c-0.1,0-0.3,0-0.4,0
				c0.2,1.4,0.4,2.9,0.6,4.3c-0.1,0-0.1,0-0.2-0.1c-2.1-4.5-4.1-9-6.2-13.6c0.3-0.1,0.7-0.2,1.2-0.3c-1.7-3.3-1.4-6.8-1-10.2
				c0.5-3.4,1.4-6.8,2.2-10.6c-2.3,1.5-1.2,3.9-2.3,5.7c-1.3-2.3-0.9-4.5-0.1-6.6c0.3-0.9,0.7-1.7,1-2.6c0.7-2.5,0.2-5-0.5-7.4
				c-0.9-3.2-1.1-6.5-0.7-9.8c0.2-1.2,0.9-2.3,1.3-3.4c0.2,0.1,0.3,0.1,0.5,0.2c0.2,2.3-1.4,4.8,1,7.1c0-2.1-0.1-3.8,0-5.5
				c0.2-2.2,1.6-4.4,2.5-4.1c0.1,0.4,0.1,0.8,0.3,1.6c1.3-2.3,2.4-4.3,3.4-6.2c0.1,0.1,0.2,0.1,0.4,0.2c-0.6,2.7-1.1,5.4-1.7,8.1
				c0.3,0.1,0.5,0.2,0.8,0.2c0.6-1.6,1.2-3.1,1.8-4.7c0.1,0,0.1,0,0.2,0.1c0,3.1,0,6.3,0,9.6c0.7-0.5,1.2-0.8,1.7-1.2
				c0.1,0.1,0.2,0.2,0.3,0.3c-0.4,0.9-0.9,1.8-1.4,3.1c0.7-0.4,1.1-0.6,1.6-0.9c-0.2,1-0.4,1.9-0.6,2.8c0.2,0.1,0.5,0.2,0.7,0.2
				c0.9-2,1.8-3.9,2.7-5.9c0.2,0.1,0.3,0.1,0.5,0.2c-0.2,1.3-0.5,2.6-0.7,3.9c-0.9,4.9-2.8,9.4-6.3,13c-3.6,3.7-5.2,8.2-5.7,13.2
				c-0.4,4.8,0.9,9.3,2.8,13.7c1.3,2.8,2.8,5.6,2.7,8.8c-0.1,3,0.9,5.8,2.2,8.4c1.9,3.9,3,8.1,3.2,12.4c0.1,2.1,0.9,3.4,2.4,4.7
				c1.6,1.3,3,2.7,4.5,4.2c1,1,1.8,1.1,2.6-0.2c0.6-1,1-2.2,1.5-3.3c0.3-0.6,0.7-1.1,1-1.7c0.2,0.1,0.3,0.2,0.5,0.2
				c-0.5,2.5-1,5-2.3,7.3c-0.7,1.3-1.5,2.5-2.1,3.9c-0.9,1.9-1.3,3.9-0.5,6c1.2-2.1,0.4-5,2.9-6.9c0,2.6,0,4.9,0,7.4
				c0.8-0.6,1.3-1,2.2-1.7c-0.1,1.5-0.2,2.5-0.3,3.7c0.7-0.3,1-0.4,1.3-0.5c0.3,1.2,0.5,2.3,0.8,3.5c0.5-0.5,0.9-0.8,1.3-1.1
				c0.7,1.2-0.5,2.8,1,3.6c0.3-0.7,0.5-1.3,0.8-1.9c0.1,0,0.3,0.1,0.4,0.1c0,0.8-0.1,1.5,0,2.3c0.1,0.6,0.3,1.3,0.5,1.9
				c0.1,0,0.3-0.1,0.4-0.1c0.2-0.6,0.5-1.1,0.7-1.7c0.3,0.7,0.2,1.3,0.4,1.8c0.2,0.8,0.5,1.5,0.8,2.2c0.2,0.5,0.5,0.9,0.8,1.4
				c-0.5,0-1.1,0-2.1,0c0.8,0.8,1.5,1.4,2.2,2c0.4,0.4,0.8,0.9,0.8,1.3c-0.3,3.1-0.3,3.4,3.1,5.2c-0.5-1-0.9-1.9-1.4-2.8
				c0.1-0.1,0.3-0.2,0.4-0.2c0.3,0.3,0.6,0.5,0.9,0.8c1.7,1.1,3.4,2.7,5.7,1.7c1.9-0.8,3.8-1.7,5.6-2.8c5.6-3.5,11.1-7.2,16.6-10.8
				c1.2-0.8,2.3-0.6,2.7,0.6c0.6-0.2,1.2-0.4,2.2-0.7c-0.5,0.8-0.8,1.2-1.1,1.6c0.1,0.1,0.1,0.2,0.2,0.3c0.6-0.2,1.5-0.3,1.7-0.8
				c0.6-1.3,1.2-0.8,1.9-0.2c0.3,0.3,0.7,0.5,1.1,0.8c0.2,0,0.3-0.1,0.5-0.1c-0.1-0.7-0.2-1.4-0.3-2.2c0.6,0,1.2,0,2.2,0
				c-0.9-0.7-1.5-1-2-1.5c-0.5-0.5-0.9-1.1-1.3-1.6c1-1,2,1.4,2.6-0.4c-1.3-1.2-2.5-2.4-3.8-3.6c0.1-0.1,0.2-0.3,0.4-0.4
				c0.4,0.1,0.8,0.2,1.1,0.4c2.9,2.6,6.7,3.3,10.3,3.9c2.1,0.4,3.5,1.3,4.8,2.7c0.6,0.6,1.2,1.3,1.8,2c2.1,2.7,4.2,5.4,6.4,8
				c1.4,1.6,3,3.1,4.6,4.6c0.3,0.3,0.9,0.4,1.4,0.4c0.1,0,0.3-0.6,0.3-0.9c0.1-3.6,1.2-6.9,3.6-9.5c2.2-2.3,3.6-5,4.4-8.1
				c1.4-5.3,3-10.6,6.4-15.1c0.2-0.3,0.2-0.8,0.3-1.2c0.3,0.2,0.5,0.4,0.8,0.6c-0.1,1.2-0.1,2.5-0.2,3.9c2.4-1.1,4.5-2.2,6.6-3.2
				c2.7-1.2,4.4-3.5,6.3-5.6c0.5-0.6,0.7-1.5,0.9-2.3c0.6-3.7,1.9-7.2,3.6-10.5c0.7-1.4,1-3.1,1.4-4.3c-1.8-1.2-3.3-1.9-4.5-2.9
				c-0.7-0.6-1.1-1.8-1.3-2.7c-0.5-2.7-0.9-5.4-1.3-8.1c-0.1-1,0-2.1,0.1-3c0.4-1.8,0.9-3.7,1.4-5.5c0.3-1.3,0.7-2.6,1.1-3.9
				c0.2-0.9,0.4-1.8,0.6-2.7c-0.2-0.1-0.4-0.1-0.6-0.2c-11.8,10.5-23.6,20.9-35.5,31.4c-0.1,0.3-0.3,0.5-0.4,0.8
				c1.1,0.6,2.1,1.2,3.2,1.7c-0.2,0.2-0.3,0.4-0.5,0.7c-0.7-0.2-1.4-0.5-2.2-0.6c-0.2-0.1-0.7,0.1-0.8,0.2c-0.1,0.3,0,0.8,0.2,0.9
				c0.5,0.2,1,0.3,1.6,0.4c0.3,0.1,0.8-0.1,0.9,0c0.8,1.2,1.8,0.7,2.7,0.2c0.3-0.2,0.7-0.2,1.1-0.2c0.1,0.1,0.1,0.2,0.2,0.3
				c-0.7,0.7-1.5,1.4-2.5,2.4c2.1-0.9,3.7-2.1,5.7-1.8c-1.4,1.1-3.1,1.8-4.4,2.9c-2.1,1.8-4.5,2.1-7.1,2c-3.7-0.1-7.4-0.4-11.2-0.6
				c-0.9,0-1.7-0.1-3-0.2c0.9,0.8,1.5,1.3,2.1,1.8c0.2,0.2,0.4,0.5,0.6,0.8c-0.3,0.2-0.5,0.5-0.9,0.6c-1.4,0.4-2.9,0.7-4.3,1
				c-2.1,0.5-3.8,0-5.4-1.4c-0.9-0.8-1.9-1.5-3-2c-3.6-2-7.3-3.9-11-5.9c-1.5-0.8-2.9-1.8-3.4-4c1,0.3,1.6,0.5,2.6,0.8
				c-0.8-1.6-1.5-2.9-2.2-4.3c0.2-0.1,0.4-0.2,0.6-0.4c1.1,1.7,2.2,3.4,3.3,5.1c0.5-1.4-0.4-2.7-1.3-3.9c-1.4-1.8-2.7-3.6-4.1-5.4
				c-0.3-0.3-0.6-0.6-1-0.9c-0.1,0.1-0.1,0.1-0.2,0.2c0.5,1,0.9,1.9,1.4,2.9c-0.1,0.1-0.2,0.1-0.3,0.2c-1.7-1.3-3.4-2.6-5.2-3.9
				c0.9-2-1.1-2.2-2.5-3.1c0.8-0.4,1.3-0.6,1.7-0.8c0.1-1.3,0-2.6,0.3-3.8c0.7-2.8,1.5-5.5,2.3-8.3c0.1-0.4,0.6-0.8,1-1.1
				c0.1,0.1,0.3,0.2,0.4,0.2c-0.6,2.3-1.2,4.7-1.8,7c0.2,0.1,0.3,0.2,0.5,0.4c0.3-0.3,0.9-0.5,1-0.9c1.1-3.4,1.8-7,3.2-10.3
				c1.5-3.5,1.8-7.1,2.2-10.7c0.2-1.7,0.1-3.4-0.9-4.8c-0.6-0.8-1.2-1.2-2.3-1.2c-1.2-0.1-2.5-0.6-3.6-1.1c-2.3-1-4.5-2.7-7-3.1
				c-3-0.5-5.6-1.5-8.1-3.1c-3.2-2-4.1-5-3.9-8.5c0.1-1.3,0.2-2.6,0.4-4.1c-2.1,2.1-1.8,4.5-2.1,6.9c-0.5-0.4-1-0.9-1-1.3
				c-0.1-1.2,0.1-2.5,0.2-3.8c0-1.1,1.5-2,0.2-3.5c-0.5-0.6,0.6-2.6,0.9-3.9c0-0.1-0.1-0.2-0.2-0.5c-0.5,1-1,1.8-1.4,2.6
				c-0.2-0.1-0.3-0.1-0.5-0.2c0.4-1.2,0.5-2.5,1.2-3.6c1.3-2.1,2.7-4.2,4.3-6c2.8-3.2,5.9-6,7.6-10.1c0.6-1.4,1.8-2.6,2.5-4
				c0.9-1.9,1.9-3.7,2.5-5.7c1.8-6.5,4.2-12.8,7.6-18.6c0.3-0.4,0.3-1.1,0.2-1.6c-0.5-2-1.1-4.1-1.5-6.1c-0.2-1,0-2.1,0-3.2
				c0.2,0,0.4,0,0.6,0c0.3,0.6,0.6,1.1,1,2c0.5-3.1,0.8-5.9-1.2-8.6c0.8,0.1,1.3,0.3,1.7,0.6c0.4,0.3,0.8,0.7,1.5,1.3
				c-0.6-2.3-1.9-3.3-3.7-3.7c-0.6-0.1-1.4-0.5-1.7-1c-1.5-2.4-2.4-5-2.7-7.8c-0.8-7.1-0.2-14.2,1.1-21.2c0.9-4.9,1.1-9.8-1.6-14.4
				c-0.1-0.2,0-0.5-0.1-0.7c0.1-0.1,0.2-0.2,0.3-0.3c1,0.9,1.9,1.7,2.9,2.6c-0.8-2.6-1.7-5-2.8-7.4c-0.8-1.8-1.3-3.5,0-5.3
				c0.3-0.5,0.4-1.2,0.5-1.8c0.9-5.3,0.5-10.7-0.2-16c-0.2-1.7-1-3.5-2.1-4.8c-1.2-1.4-2.9-2.4-4.4-3.5c-5-3.5-9.9-7.1-12.5-13
				c-0.8-1.8-2-3.4-4.3-3.5c-0.3,0-0.7-0.2-1-0.5c-1.3-1.1-2.2-0.9-3.2,0.5c-0.8,1.2-2.1,1.9-3.7,1.7c2.6-1.2,2.8-5.2,6.6-5.2
				c-1.5-1.1-3.1-2-4.7-2.6c-1.9-0.7-3.5-1.7-4.6-3.4c-0.5-0.8-0.9-1.9-0.8-2.7c0.7-4,2.5-7.2,6.1-9.5c2.6-1.7,5-3.7,7.5-5.5
				c0.4-0.3,0.7-0.7,1.1-1c-2.7-1.5-5.1-1.1-7.5,0.3c-1.4,0.8-2.8,1.5-4.3,2.3c0,0,0,0.1,0,0.1c1.6-0.4,3.2-0.9,4.8-1.3
				c0.2,2.9-1.6,4.5-4.2,3.9c-0.5-0.1-1-0.2-1.5-0.4c-1.2-0.4-2.1-0.2-2.9,0.8c-2.3,2.8-4.8,5.4-7.2,8.2c-0.4,0.4-0.8,1-0.8,1.5
				c-0.1,3.2-2,5.3-4.2,7.2c-0.4,0.4-0.9,0.7-1.3,1.1c0.1,0.1,0.3,0.3,0.4,0.4c1.1-0.7,2.2-1.5,3.4-2.2c0.1,0.1,0.2,0.2,0.3,0.4
				c-0.5,1.7-1.7,3-3.3,3.5c-3.3,1.2-4,4.6-6.5,6.7c0.6,0.1,0.9,0.1,1.1,0.2c0.5,0.2,1,0.5,1.4,0.7c-0.4,0.4-0.8,0.7-1.2,1.1
				c-0.2,0.2-0.6,0.3-0.9,0.4c0,0.1,0.1,0.3,0.1,0.4c0.7-0.1,1.6,0.1,2.2-0.3c2-1.3,3.9-0.5,5.9,0.2c2.3,0.8,3.6,0.6,5.2-1.3
				c0.8-1,1.4-2.1,2.4-3.5c0.2,1,0.3,1.7,0.4,2.3c0.2,2.9,1.2,3.8,4,4c0.7,0.1,1.4,0.5,2.1,0.9c-0.4,0.7-0.7,1.2-0.9,1.7
				c0.1,0.1,0.1,0.2,0.2,0.3c1.2-0.7,2.4-1.4,3.9-2.2c-0.1,0.6,0,0.8-0.1,0.9c-0.2,0.3-0.4,0.5-0.6,0.7c-1.7,1.5-2.4,3.4-2.2,5.7
				c0.5,4.4-0.4,8.5-2.2,12.6c-0.5,1.2-0.3,2.8-0.4,4.1c0,0.4,0,0.7,0,1.1c-0.1,0-0.3,0.1-0.4,0.1c-0.2-0.4-0.6-0.9-0.6-1.3
				c0-1.5,0-3.1,0.4-4.6c0.4-1.8,1.2-3.6,1.8-5.4c0.5-1.7,0.1-3.3-0.6-4.9c0.2,3.9-1.3,7.3-2.5,10.9c-0.3,0.8-0.6,1.7-0.6,2.6
				c0.2,3.9-0.6,7.5-2.9,10.7c-0.3,0.5-0.2,1.2-0.3,1.9c0.2,0.1,0.4,0.1,0.6,0.2c1.2-1.6,2.4-3.2,3.6-4.8c0.3,0.4,0.3,0.6,0.2,0.8
				c-1,2.9-2.2,5.8-4.5,8c-1,1-1.8,2.2-2.6,3.3c-0.2,0.3,0,0.9,0,1.3c0.4-0.2,0.9-0.3,1.2-0.7c1.2-1.4,2.2-2.8,3.4-4.2
				c0.3-0.4,0.8-0.6,1.3-0.8c0.1,0.1,0.2,0.2,0.3,0.4c-1.6,2.4-3.2,4.7-4.8,7.1c0.1,0.1,0.3,0.3,0.4,0.4c0.9-0.5,1.8-1.1,2.9-1.7
				c-0.1,0.5-0.2,0.8-0.3,1.1c-1.4,3.3-2.9,6.6-4.1,10c-1.4,3.8-2.1,7.9-4.5,11.3c-0.6,0.9-0.6,2.3-1,3.7c1.8-0.2,2.4,0.6,2.7,1.7
				c0.4,1.6,0.8,3.3,0.9,4.9c0.1,3.4-0.3,6.9-2.1,9.9c-0.7,1.2-1,2.2-0.8,3.5c0.7-0.5,1.3-0.9,1.9-1.3c0.1,0.1,0.1,0.2,0.2,0.2
				c-1.5,2.8-3.1,5.7-4.6,8.5c-0.1-0.1-0.3-0.1-0.4-0.2c0-0.5-0.1-1-0.1-1.5c-1.1,0.2-2,0.1-1.2-1.4c0.2-0.4,0.2-1,0.3-1.5
				c-1.8,3-3.6,6-5.5,9.1c-0.8-1.6,0-2.8,0.7-3.9c0.7-1.2,1.5-2.4,2.2-3.6c-0.2-0.1-0.4-0.2-0.5-0.3c-0.9,1.3-2,2.6-2.6,4.1
				c-0.7,1.5-0.9,3.1-1.4,5.2c-0.5-1.1-0.9-1.7-1.2-2.4c-1.6,0-1.6,0-1.2-2.8c-3.1,0-0.7-2.4-1.6-3.5c-1.3,0.6-2,0.4-1.6-1.2
				c-1.2,0.4-2.2,0.7-3.3,1c-0.1-0.1-0.1-0.2-0.2-0.3c0.2-0.3,0.4-0.6,0.7-1.1c-0.3,0.1-0.6,0-0.7,0.1c-4.8,2.3-9.7,4.6-12.8,9.4
				c-0.4,0.6-0.9,1.2-1.5,1.6c-1.8,1.6-3.7,2.2-6.1,1c-3.7-1.8-7.6-3.4-11.4-5c-0.4-0.2-0.9-0.3-1.5-0.5c0.5,4.2-0.8,7.6-2.8,10.8
				c-0.7,1.1-1.6,2.1-2.1,3.3c-1,2.3-1.7,4.7-2.5,7.1c-0.1,0.2,0.1,0.4,0.1,0.6c0,0.4,0,0.8-0.1,1.2c-0.4-0.2-1-0.4-1.1-0.7
				c-0.2-0.5-0.2-1.1-0.1-1.6c1.8-5.9,0.8-11.8-0.3-17.7c0,3.4-0.1,6.7,0,10.1c0.1,3,0,6-2,9c1.3,1,2.6,2.6,4.1,2.9
				c1.9,0.4,4.1,0.1,6.1-0.4c1.5-0.4,2.8-1.4,4-2.4c0.8-0.6,1.4-0.6,2,0c1.5,1.5,3.2,2.9,4.4,4.7c2.1,3.1,5.1,4.7,8.7,5
				c1.7,0.2,3.5,0,5.2,0.1c0.9,0,2.4-0.7,2.5,0.7c0.2,1.4-1.4,1.2-2.4,1.5c-2.5,0.8-5.1,1.3-7.5,2.3c-2.4,1-3.4,3.7-2.9,6.1
				c0.8-1.5,1.5-3.3,2.7-4.7c1.3-1.5,3.1-2.4,5.8-1.5c-2.1,1.3-3.8,2.4-5.8,3.7c0.9,0.1,1.3,0.2,1.9,0.3c-0.9,1-1.7,1.8-2.4,2.6
				c0.1,0.1,0.2,0.2,0.3,0.3c0.4-0.2,0.9-0.4,1.5-0.7c-0.2,0.6-0.2,0.9-0.4,1.2c-1.7,2.7-3.7,5.1-6.4,6.8c-0.6,0.4-1.1,1.4-1.2,2.1
				c-0.4,3.8-2.1,7-3.9,10.2c-0.3,0.5-1.1,0.7-1.7,1.1c0.1-0.6,0.2-1.2,0.2-1.8c0-0.1,0-0.3,0-0.5c-2.5,2-2.8,2.6-1.7,5.2
				c1.6-0.8,3.2-1.5,4.6-2.5c1.5-0.9,2.8-2.1,4.2-3.2c-0.1-0.1-0.1-0.2-0.2-0.3c-0.3,0.7-0.7,1.4-1.1,2.2c2.9,0.1,2.3-3.3,4.6-4.3
				c-1.4,3.6-2.7,6.8-3.9,10c0.3,0,0.8,0.1,1.5,0.1c-0.2,1.8-3,2.3-2,4.4c-0.8,0.4-1.5,0.7-2.2,1.1c0,0.2,0,0.3,0,0.5
				c2,0,1.7,1.3,1.5,2.5c0.2,0,0.4,0.1,0.6,0.1c0.6-1.5,1.3-2.9,1.9-4.4c0.1,0,0.3,0,0.4,0c0.1,4.9-0.9,10,2.1,14.5
				c2.7-1.8,4.5-4,4.8-7.3c0.2-2.3,1.1-4.4,1.8-6.6c0.6-1.9,1.2-3.8,1.9-5.6c0.1-0.4,0.3-0.7,0.4-1.1c0.1,0,0.3,0.1,0.4,0.1
				c0,1,0,2,0,3.4c0.7-0.5,1.2-0.8,1.9-1.3c-0.2,1.7-0.3,3.2-0.5,5.1c-0.9,0.9-1.4,3.1-1.1,5.7c1.8-0.5,1.2-2.8,2.7-3.5
				c1,2.3-0.7,5,1.4,7.2c0.2-1.5,0.4-2.7,0.5-3.9c0.2,0,0.4,0,0.6,0.1c0,0.9-0.3,1.8,0,2.5c1.3,3.2,1.6,6.6,1.4,10
				c-0.1,1.3,0.8,2.7,1,4c0.3,2.7,1.2,5.2,3,7.3c1.5,1.8,2.9,3.7,4.3,5.6c0.4,0.5,0.5,1.1,0.8,1.7c-0.2,0.1-0.3,0.2-0.5,0.3
				C77.9,270,77.2,269.2,76.4,268.1z M128,229.2c2.1,2.8,5,3.7,8,4.4c2.3,0.5,4.7,1.1,6.6,2.7c0.8,0.7,1.7,1.3,2.6,1.7
				c1,0.5,2.2,1,2.8-0.6c0.2-0.4,0.7-0.7,1-0.9c19.8-14.4,39.7-28.8,59.5-43.3c1.3-0.9,2.1-0.9,3.2,0.3c2.7,3.1,5.6,6.1,8.5,9.3
				c20.3-15.2,40.7-30.4,61.2-45.8c-1.4-0.6-2.5-1.1-3.5-1.6c-9.3-4.4-18.6-8.8-27.9-13.3c-1.4-0.7-2.3-0.6-3.5,0.3
				c-34.6,25.4-69.3,50.7-103.9,76C137.8,222,132.9,225.6,128,229.2z M55.4,164.5c1.2-0.9,2.3-1.5,3.1-2.4c1.6-1.9,3.1-3.7,5.2-5
				c1.9-1.1,3.7-2.5,5.1-4.1c2.1-2.2,4.5-3.7,7.2-4.9c0.5-0.2,1.2-0.2,1.8-0.2c1.5,0,2.9,0.1,4.4,0.3c1.3,0.1,1.9-0.5,2.3-1.6
				c0.9-2.5,1.9-5,3.2-7.4c1.8-3.3,1.9-6.3,0.4-9.8c-1.1-2.5-2.7-5.1-2.3-8.1c0.4-2.7,0.9-5.5,1.4-8.2c0.2-1.1,0.6-2.1,1.1-3.1
				c3.7-6.4,7.4-12.8,11.2-19.1c1.2-2,1.8-4.1,2-6.5c0.2-2.8,0.6-5.7,1.6-8.3c1.3-3.5,1.3-6.9,0.6-10.6c-0.5,0.1-0.9,0.2-1.4,0.3
				c-18,5-36,10.1-54.1,15.1c-1.3,0.4-1.6,0.9-1.5,2.2C49.8,110.1,52.6,137,55.4,164.5z M281.6,155.9c0.1-0.1,0.1-0.2,0.2-0.3
				c-0.3-0.4-0.5-0.8-0.8-1.2c-23.6-33.5-47.2-67.1-70.9-100.6c-8.5-12.1-17-24.1-25.6-36.2c-0.5-0.7-1.2-1.5-1.9-1.9
				c-9.2-4.2-18.5-8.4-27.7-12.6c-0.4-0.2-0.8-0.3-1.3-0.4c0.6,1.5,1.5,2.7,2.4,4c26.3,37.6,52.5,75.3,78.8,112.9
				c4.4,6.3,8.8,12.4,13.1,18.8c0.9,1.3,1.8,2.2,3.2,2.8c9.2,4.4,18.4,8.8,27.6,13.3C279.7,154.9,280.6,155.4,281.6,155.9z
				 M1.2,61.1c0.4,0.3,0.5,0.4,0.7,0.5c14.5,6.3,29,12.5,43.5,18.7c0.5,0.2,1.3,0.3,1.8,0.1c18.4-5.2,36.7-10.5,55.1-15.7
				c0.3-0.1,0.7-0.3,1.2-0.5c-0.8-1.4-1.5-2.7-2.2-4.1c-3.2,0.7-6.2-0.3-9.2-1.4c-0.8-0.3-1.7-0.6-2.4-0.3C86,60,82.9,58.9,79.9,57
				c-1.5-0.9-1.8-2.3-0.6-3.5c1.3-1.2,2.8-2.2,4.1-3.4c0.5-0.5,1.2-1,1.3-1.7c0.4-1.7,1.6-2.5,2.9-3.3c1.6-1,3.3-2,5-3.1
				c-2.3-1.2-4.4-2.2-6.4-3.4c-1.1-0.6-2.1-0.7-3.3-0.3c-25.2,7-50.4,14-75.6,21C5.4,59.8,3.4,60.5,1.2,61.1z M250.1,182.5
				c-0.2,0-0.4-0.1-0.6-0.1c-3.1,2.3-6.2,4.5-9.2,6.9c-0.8,0.7-1.1,2.1-1.4,3.2c-0.1,0.4,0.8,0.9,1.2,1.4c0.5,0.6,0.9,1.3,1.3,1.9
				c-0.1,0.1-0.2,0.2-0.3,0.4c-0.8-0.3-1.6-0.6-2.4-0.8c-0.3,2.3-0.8,2.6-3,2.6c-1.9,0-3.8,0.2-5.6,0.4c-0.3,0-0.5,0.5-0.8,0.7
				c0.3,0.2,0.6,0.4,0.9,0.5c0.7,0.1,1.4,0.1,2.1,0.2c0,0.2,0.1,0.4,0.1,0.6c-1.2,0.6-2.4,1.2-3.5,1.9c-0.5,0.3-1.2,1-1.1,1.1
				c0.7,1.3-0.5,1.5-1.1,2c-0.7,0.7-1.5,1.2-2.4,1.9c4,4.3,7.8,8.4,11.9,12.9c1.1-2.2,1.9-4.1,2.8-5.9c0.5-1,1.1-2,2-2.8
				c3.3-3.1,6.7-6.1,10-9c0-1.3-0.1-2.6,0-4c0.3-2.7,0.5-5.3-0.8-7.9c-0.5-0.9-0.4-2.2-0.4-3.3C249.9,185.7,250,184.1,250.1,182.5z
				 M63.7,231.4c-1.7,0-3.1,3-2.6,5.6c0.4-0.2,1-0.4,1-0.6c0.1-0.7,0-1.5,0-2.5C62.4,233.3,63,232.4,63.7,231.4z M91.8,113.1
				c0.2,0.1,0.3,0.2,0.5,0.3c1-1.5,2-2.9,3.1-4.4c-0.1-0.1-0.3-0.2-0.4-0.3C93.6,110,91.6,110.7,91.8,113.1z M96.1,110.2
				c1.8-0.3,2.6-1.4,2.9-3.4C97,107,97,108.9,96.1,110.2z M40,185.4c0.6,0.6,1.1,1.2,1.7,1.9c0.3-0.4,0.7-0.7,1-1.1
				C41.9,185,41.1,184.3,40,185.4z M46.8,225.7c2,0.4,2.4,0.1,2.6-2C48.5,224.4,47.6,225,46.8,225.7z M76.5,272.2
				c-1.2-1.2-2.9-1.5-4.2-0.6C73.5,271.8,74.8,272,76.5,272.2z M43.7,182.3c-0.2,0-0.3,0-0.5,0.1c0,0.5-0.1,1.2,0.1,1.5
				c0.5,0.5,1.1,1.4,2,0.4C44.8,183.5,44.2,182.9,43.7,182.3z M176,325.4c1.1,0.2,2.1,0.4,3.4,0.6C178,324.2,176.9,324.1,176,325.4z
				 M96.7,112.6c-0.1-0.1-0.3-0.2-0.4-0.3c-1.8,1-1.9,1.1-1.3,3C95.7,114.3,96.2,113.4,96.7,112.6z M39.8,235.3
				c0.1,0.2,0.3,0.4,0.4,0.6c0.6-0.6,1.2-1.2,1.8-1.9C40.2,233.1,40.5,234.8,39.8,235.3z M44.9,237.1c0.9,0.2,1.5,0.3,2.2,0.4
				c0.1-0.7,0.2-1.2,0.3-2.2C46.4,236,45.8,236.4,44.9,237.1z M70.6,268.3c-0.1,0.3-0.3,0.6-0.4,0.9c0.6,0.2,1.2,0.5,1.9,0.7
				c0.1-0.2,0.2-0.5,0.3-0.7C71.8,268.9,71.2,268.6,70.6,268.3z M68.6,265.1c0.1-0.1,0.3-0.3,0.4-0.4c-0.6-0.6-0.5-1.9-2.1-1.4
				C67.5,263.9,68,264.5,68.6,265.1z M65.9,259.1c0.2-1.3-0.3-1.7-1.5-1.3C64.1,259.2,64.8,259.4,65.9,259.1z M101.1,229.7
				c-0.2,1-0.3,1.8-0.4,2.5C102.3,231,102.3,231,101.1,229.7z"/>
			<path d="M120.9,175.4c1.1-0.8,1.6-1.4,1.2-2.8c-0.2-0.7,0.6-1.8,1.1-2.8c-1.9,0.4-2.2-0.4-2.2-2.1c0-5.1-0.3-10.3-0.7-15.4
				c-0.1-1.5-1-3-1.3-4.5c-0.2-1.1,0-2.2,0-3.3c0.2,0,0.4,0,0.6-0.1c1,2.4,2,4.8,3,7.3c0.2,0,0.3,0,0.5,0c0.1-0.5,0.4-1,0.4-1.6
				c0-0.6-0.2-1.3-0.4-1.8c-0.6-1.3-0.2-2.1,0.8-3c0.5-0.4,0.9-1.3,0.7-1.8c-0.7-3.4-1.6-6.8-2.5-10.1c-0.6,0.6-1.5,1.3-2.3,2.1
				c-1.5-2.5-0.9-5,0.5-6.1c1.5-1.1,2.2-2.6,2.6-4.3c0.2-0.7,0.7-1.4,1.1-2c0.2,0.1,0.5,0.1,0.7,0.2c-0.1,2.3-0.2,4.7-0.5,7
				c-0.4,3.4-0.3,6.7,0.9,10c0.5,1.4,1.3,2.8,2.4,3.8c3.6,3.2,4.9,7.4,5.1,12c0.1,2,0.3,3.9,1.6,5.6c1.2,1.7,1,2.9-0.4,4.7
				c-0.2,0.3-0.5,0.7-0.5,1.1c0,1.6-1.1,2.5-2.2,3.4c-2.2,1.7-4.4,3.5-6.6,5.4c-2.1,1.8-3.7,3.8-4.7,6.4c-0.9,2.3-2.4,4.1-4.7,5.3
				c-0.7,0.4-1.3,1.2-1.9,1.8c-0.5,0.6-1,1.3-1.5,1.9c-0.2-0.1-0.3-0.1-0.5-0.2c0.1-0.5,0.1-1.2,0.4-1.6c1.1-1.2,2.3-2.4,3.5-3.6
				c0.6-0.6,2-1,0.6-2.2c-0.1-0.1,0-0.6,0.1-0.9c1.1-2.6,2.3-5.2,3.5-7.7C119.5,174.2,120.3,173.9,120.9,175.4z M126,168.6
				c1.6,0.6,2.1,0,1.9-2.2C126.1,166.1,126.2,167.5,126,168.6z M125.2,155.7c0.2,0.1,0.4,0.2,0.6,0.2c1.6-0.5,0.8-1.7,0.9-2.7
				c-0.2-0.1-0.3-0.1-0.5-0.2C125.9,154,125.5,154.9,125.2,155.7z M127.8,162.2c-0.3-0.9-0.5-1.5-0.8-2.1c-1.6,0.2-1.2,1.3-1.1,2.2
				C126.5,162.3,127,162.3,127.8,162.2z"/>
			<path d="M117.6,280.6c-0.2-0.6-0.2-1.3-0.5-1.8c-0.6-1.3-1.5-2.4-2-3.7c-0.3-0.7-0.2-1.6-0.3-2.5c0.2,0,0.3-0.1,0.5-0.1
				c0.3,0.2,0.6,0.4,0.7,0.6c1.7,2.7,3.3,5.5,5.1,8.2c0.9,1.4,1.8,2.7,2.9,3.9c2,2.2,2.1,3.5,0,5.7c-0.8,0.8-1.5,1.6-2.3,2.4
				c-0.7,0.7-1.4,1.3-2,2c-0.6,0.7-0.9,1.5-1.8,2.2c0-0.5-0.1-1.1,0.1-1.6c0.6-1.5,1.2-2.9,2-4.3c1-2,0.9-3.9-0.6-5.8
				c0,0.4-0.1,0.9,0,1.3c0.6,1.7,0.5,3.1-0.4,4.8c-1,2-1.5,4.2-2.4,6.3c-1,2.2-2.1,4.4-3.2,6.6c-0.4,0.8-1.1,0.7-1.7,0.1
				c-1.3-1.3-2.7-2.6-4.1-3.8c-1.9-1.6-2.6-3.6-1.6-6.1c0.3,0.8,0.5,1.6,0.8,2.3c0.3,0.7,0.3,1.8,1.5,1.8c-0.2-1.3-0.4-2.5-0.7-3.7
				c0.1,0,0.2,0,0.4-0.1c0.7,1.1,1.5,2.1,2.5,3.5c0.4-2.1,0.1-3.9,1.7-5.3c0.2,1.4,0.3,2.6,0.4,3.8c0.2,0,0.3,0,0.5,0
				c0.4-1.3,0.7-2.7,1.1-4c0.2,0,0.3,0.1,0.5,0.1c0.1,0.9,0.3,1.8,0.5,2.8c0.9-2.1,1.8-4,2.7-5.9c-0.2-0.2-0.4-0.3-0.7-0.5
				c-0.5,0.8-0.9,1.5-1.4,2.3c-0.2-0.1-0.4-0.3-0.6-0.4c0.1-0.5,0.4-1,0.4-1.5c0-0.5-0.2-1.1-0.3-1.6c-0.1-0.5-0.2-1-0.1-1.4
				c0.2-0.5,0.6-0.9,0.9-1.5c-0.3-0.1-0.4-0.2-0.4-0.1c-0.7,0.1-1.4,0.2-2,0.3c0.1-0.6,0.1-1.3,0.2-1.9c0.2-1,0.4-2.1,0.7-3.1
				c0.2-0.6,0.6-1.1,0.9-1.7c0.4,0.4,0.8,0.8,1.2,1.2c0.1,0.1,0.2,0.3,0.3,0.4C117.2,280.7,117.4,280.7,117.6,280.6z"/>
			<path d="M160.9,314.9c-2.5-2.1-5.7-2.2-8.7-2.8c-0.8-0.2-1.7-0.7-2.4-1.2c-0.3-0.3-0.3-0.9-0.5-1.4c0.1-0.1,0.3-0.2,0.4-0.3
				c-0.7-0.5-1.6-0.9-2.1-1.5c-0.9-1.1,0-1.5,1.1-1.8c0-0.2-0.1-0.4-0.1-0.5c-0.4,0-0.8-0.1-1.3-0.1c-0.3,0-0.6,0.1-0.9-0.1
				c-1.5-0.8-3.3-5.6-2.6-7.3c0.1,0,0.2,0,0.3,0c2.4,2.7,5.2,4.8,8.3,6.6c0.5,0.3,1,1,1.3,1.6c1.2,2.5,3.1,4.3,5.3,5.9
				c0.9,0.6,1.6,1.5,2.3,2.3C161.2,314.5,161,314.7,160.9,314.9z"/>
			<path d="M78,172.9c-0.3-0.6-0.6-1.2-0.8-1.5c0.7-1.3,1.3-2.5,1.9-3.6c0.1,0,0.3,0.1,0.4,0.1c0,1.2,0,2.4,0,3.6c0.2,0,0.3,0,0.5,0
				c0.2-1.1,0.4-2.2,0.7-3.2c0.1,0,0.3,0,0.4,0c0.1,0.4,0.2,0.8,0.2,1.2c0.4,2.6,0.5,5.2,1.2,7.7c0.9,3.6,1.3,7.1,0.3,10.7
				c-0.3,1.1-0.6,2.2-2.2,2.9c0.3-0.9,0.7-1.4,0.7-1.9c0.2-1.7,0.5-3.2-0.9-4.8c-1-1.1-1.4-2.8-1.8-4.4c-0.5-1.8,0.7-4.4-1.9-5.4
				c0.2-0.4,0.4-0.8,0.6-1.2C77.6,172.9,77.8,172.9,78,172.9z"/>
			<path d="M77.7,200.6c-0.5,4.1-3.4,7-5.3,10.6c1.5-1.4,3-2.9,4.5-4.3c0.2,0.2,0.3,0.3,0.5,0.5c-1.3,1.5-2.5,3.1-4,4.5
				c-2.5,2.4-4.5,5.1-5.8,8.3c-0.2,0.4-0.4,0.8-0.7,1.3c-0.2-0.1-0.4-0.1-0.6-0.2c0.4-1.5,0.8-3.1,1.3-4.8c-2.5,1.4-2.6,4.4-4.1,6.4
				c-0.1,0-0.2-0.1-0.4-0.1c0-0.3-0.1-0.7-0.1-1c1.3-5.1,3.7-9.6,7.8-13c2.6-2.2,5-4.5,5.9-7.9c0-0.1,0.2-0.2,0.3-0.3
				C77.3,200.5,77.5,200.6,77.7,200.6z"/>
			<path d="M126,98.8c0.4,0.3,1,0.5,1.1,0.9c0.9,2.3,1.4,4.7,0.5,7.2c-0.2,0.7-0.2,1.8,0.1,2.3c2,2.7,0.3,5.1-0.6,7.5
				c-0.1,0.2-0.6,0.5-0.9,0.5c-0.2,0-0.6-0.5-0.6-0.8c-0.1-0.9-0.1-1.8-0.1-2.7c0.1-1.2-0.2-2.2-1.2-3.1c-0.8-0.7-1.1-1.5-0.5-2.5
				C126.1,104.2,126.2,103.7,126,98.8z"/>
			<path d="M100.8,209.3c-0.2-0.3-0.4-0.7-0.7-1.2c-1.1,1.9-2.1,3.7-3.3,5.8c-0.5-2,5.4-15.3,7.4-17.3
				C104.2,198.1,101.5,208.6,100.8,209.3z"/>
			<path d="M145.4,257.5c0.5-2.8,1-5.5,1.4-8.3c0.3-2.3,0.5-4.7,0.8-7c0-0.3,0.3-0.7,0.4-1c0.3,0.3,0.8,0.5,0.8,0.8
				c0.2,1.4,0.5,2.8,0.3,4.2c-0.5,3.1-1.2,6.3-2,9.4c-0.2,0.8-0.8,1.4-1.2,2.1C145.7,257.6,145.5,257.6,145.4,257.5z"/>
			<path d="M79.3,266.9c-3.8-2.8-7.6-8.3-6.4-11.3C75,259.4,77.1,263.2,79.3,266.9z"/>
			<path d="M112.4,274.1c2.5,1.6,1.8,9.7-1,11.9c0.4-2.1,0.8-4.1,1-6.1C112.5,278,112.4,276.1,112.4,274.1z"/>
			<path d="M121.3,136.5c0.7,2.3,1.4,4.7,1.9,7c0.1,0.4-0.5,1-0.8,1.5c-0.5-0.3-1.3-0.6-1.3-1c-0.1-2.5-0.1-5-0.1-7.6
				C121.1,136.5,121.2,136.5,121.3,136.5z"/>
			<path d="M88.8,252c0.3,3.4,0.6,7,0.9,10.6C87.3,260.9,86.9,254.5,88.8,252z"/>
			<path d="M102.3,34.3c-0.7,0.8-1.4,1.6-2.2,2.3c-1,0.9-1.7,1.9-1.8,3.3c-0.1,1.4-0.8,2.6-2.7,3.2C97.4,39.6,97.9,35.5,102.3,34.3z
				"/>
			<path d="M113.8,264c0.3,1.3,0.7,2.7,1,4c0.2,0.9,0.2,1.9,0.3,2.8c0,0.3-0.3,0.6-0.4,0.9c-0.3-0.2-0.6-0.3-0.9-0.5
				c0,0-0.1-0.1-0.1-0.1c-0.2-2.3-0.4-4.6-0.6-6.9C113.3,264.1,113.6,264.1,113.8,264z"/>
			<path d="M70.8,250.6c-0.1-2.8-0.3-5.5-0.4-8.3c0.2,0,0.3,0,0.5,0c0.7,2.7,1.3,5.5,0.4,8.4C71.1,250.6,70.9,250.6,70.8,250.6z"/>
			<path d="M80.3,200.2c0.3,2.1-0.8,4.3-2.6,5.1C78.6,203.5,79.4,202,80.3,200.2z"/>
		</g>
	</g>
</g>
<g id="mR4KWi">
	<g>
		<g>
			<path d="M383.1,247.4c1.9,0.9,3.9,0.6,5.8-0.1c3.1-1.1,6.1-2.7,9.6-2.5c1.5,0.1,3.2-0.5,4.7-1.1c1.9-0.8,3.7-2,5.5-3
				c4.7-2.5,9.5-2.4,14.2-0.3c5.3,2.3,10.6,5.1,16.4,5.9c3,0.4,6.1,0.3,9.1,0.1c2-0.1,3.6-1.4,4.3-3.3c0.4-1.1,1.2-1.6,2.4-1.8
				c5.6-1,10.9,0.2,16.2,1.9c5.1,1.7,10.3,3,15.4,4.7c5.2,1.7,10.3,3.7,15.4,5.8c1.6,0.7,3,2.2,4.3,3.5c3.1,3.3,6.4,6.4,9.1,10
				c2,2.7,3.4,5.8,4.9,8.9c0.9,1.9,1.6,3.9,2.2,5.9c0.6,1.9,1.9,3.1,3.6,3.7c2.6,0.9,4.7,2.3,6.7,4.1c0.7,0.6,1.9,1,2.9,1
				c4,0,8-0.2,12-0.5c2.8-0.2,5.4,0.6,7.7,2.2c0.7,0.5,1.3,1.3,1.7,2c2,3.9,4.9,6.9,8.9,8.5c4.4,1.8,6.9,4.9,8.6,9
				c1.4,3.2,2.1,6.4,2,10c-0.1,3.8,1.1,7.7,1.7,11.6c0.2,1.7,0.1,3.4,0.6,5c1.3,4.3-0.3,7.8-2.5,11.3c-0.3,0.4-0.7,1-0.5,1.4
				c0.7,1.9-0.5,2.7-1.7,3.6c-0.7,0.6-1.3,1.2-2,1.9c-1.7,1.6-1.5,4.3,0.1,6.3c0.3,0.4,0.5,1.3,0.4,1.8c-0.7,2.6-0.4,5,0.4,7.5
				c0.4,1.3-0.4,2.9-0.6,4.4c-0.2,1.4-0.6,2.9-0.4,4.3c0.2,1.8-0.6,3.2-1.9,4.1c-5.3,3.5-9.5,8.2-13.4,13.1
				c-3.8,4.8-6.5,10.2-7.4,16.2c-0.5,3.5-0.2,7.3,0.6,10.7c1.2,4.9-0.1,9.3-4,12.7c-3.7,3.3-8,3.9-12.5,4.5
				c-0.7,0.1-1.5-0.5-2.3-0.7c-1.1-0.3-2.3-1-3.4-0.9c-8.2,1-15.6,4.2-22.8,7.9c-4,2.1-7.9,4.3-11.9,6.6c-0.8,0.4-1.5,1.3-1.9,2.1
				c-1.7,3.2-4,5.1-7.8,5c-5.6-0.1-10.6,2-15.6,4.4c-7,3.4-13.9,7.2-20.3,11.7c-1.7,1.2-3.8,2-5.7,3c-0.2,0.1-0.7,0.3-0.8,0.2
				c-1.4-1-2.7,0.3-4,0.2c-1.5-0.1-2.4,0.7-3.3,1.6c-7.9,7.5-15.8,14.9-23.8,22.3c-2.5,2.3-4.3,4.8-5.1,8.2
				c-0.9,3.9-3.2,6.8-6.9,8.5c-0.5,0.2-0.9,0.9-1.1,1.4c-1.3,2.8-3,5-6.1,6c-1.6,0.5-3,1.7-4.6,2.3c-1.5,0.5-2.9,0-3.7-1.4
				c-1.7-3-3.5-5.9-4.9-9.1c-0.9-2.1-2.2-3.9-4.1-4.9c-3.7-2-5.8-4.9-6-9.1c-0.1-1.2-0.6-2.3-0.8-3.5c-0.2-0.9,0-1.9-0.2-2.8
				c-0.2-1-0.3-2.2-0.9-3c-0.8-1.2-1.8-2.4-3-3.2c-3-1.9-4-4.9-4.3-8.1c-0.5-5-1.6-9.7-4.2-14c-1.3-2.2-2.3-4.6-2.4-7.3
				c-0.1-3.8-1.3-7.2-4-10c-2.9-3-4.6-6.6-5.9-10.5c-0.6-1.9-1.9-3.6-3-5.3c-1.8-2.7-2.9-5.6-2.7-8.8c0-1,0.5-2.1,1-3
				c1.3-2.6,2.5-5.1,2-8.1c-0.1-0.4-0.2-0.9-0.5-1.2c-0.7-1-1.7-1.8-2.3-2.8c-1.3-2.3-2.6-4.6-3.8-7c-0.4-0.7-0.8-1.5-1.1-2.3
				c-0.7-2-0.5-2.6,1.3-3.8c0.3-0.2,0.5-0.6,0.7-1c0.4-0.9,0.6-1.9,1.1-2.6c1.2-1.5,0.6-2.6-0.5-3.8c-0.6-0.7-1-1.7-1.2-2.6
				c-0.4-1.7-0.4-3.4-0.7-5c-0.5-2.8-0.7-5.5,0.6-8.2c1.1-2.2,0.6-4.6-0.2-7.1c-2.7-8.6-3.9-17.5-1.5-26.3c1.4-5.1,3.9-9.9,7.4-14
				c1.6-1.9,2.5-4,2.7-6.4c0.3-3.1,1.4-4.1,4.4-4.6c4.5-0.7,6-3.7,3.6-7.4c-2.5-3.9-2.8-7.6-0.7-11.9c3.1-6.2,5.8-12.7,7.2-19.6
				c1.1-5.2,2.8-10.5,1.9-15.9c-0.4-2.7-1.1-5.3-1.9-7.9c-0.7-2.3-1.3-4.4-0.7-6.8c0.5-2.3,1.6-3.5,3.8-3c3.1,0.7,6,0.2,8.9-1.1
				c1.6-0.7,3.3-1,5-1.6C375.9,244.9,379.7,246,383.1,247.4z M354.1,405.6c-0.5,0-0.9,0-1.8,0.1c1.3-1.4,2.4-2.5,3.9-4
				c-1.5,0-2.4,0-3.6,0c1.2-1.3,2.3-2.4,3.3-3.5c-0.1-0.1-0.2-0.3-0.3-0.4c-0.8,0.6-1.7,1.1-2.8,1.8c0.2-0.8,0.3-1.2,0.6-2.2
				c-2.4,1-4.4,1.8-6.3,2.6c-0.1-0.1-0.1-0.2-0.2-0.3c0.7-1.1,1.3-2.3,2.3-3.9c-2.4,0.7-4.3,1.2-6.3,1.8c-0.1,0.1-0.1,0.3-0.2,0.4
				c0.5,0.3,0.9,0.6,1.4,0.7c0.6,0.1,1.2-0.1,1.8-0.1c0,0.2,0.1,0.3,0.1,0.5c-1.2,0.6-2.4,1.2-3.8,1.9c0.1,0.3,0.2,0.6,0.3,0.7
				c1.3,0.7,0.8,1.6,0,2.1c-1.2,0.7-0.9,1.4-0.5,2.4c0.2,0.6-0.1,1.4-0.1,2.1c-0.1,0.6-0.2,1.1-0.3,1.7c0.1,0,0.3,0.1,0.4,0.1
				c0.9-0.9,1.8-1.7,2.6-2.6c0.1,0.1,0.2,0.2,0.3,0.3c-0.6,1-1.1,2.1-1.7,3.1c-1.4,2.7-2.5,5.6-2.3,8.6c0.3,3.5-0.6,6.5-2.3,9.4
				c-1.3,2.3-1,5.8,0.9,8.2c0-1.5-0.1-2.7-0.1-3.9c1.4,0.9,0.9,3.4,3.4,2.7c-0.1,0.8-0.2,1.4-0.4,2.3c0.6-0.6,1.1-0.9,1.6-1.4
				c0.9,1.5-1.3,3.2,0.5,4.3c0.7-1,1.4-1.9,2.1-2.9c0.2,0.1,0.4,0.2,0.6,0.3c-0.1,0.5-0.2,0.9-0.2,1.4c0,0.4,0.1,0.8,0.3,1.4
				c0.7-1.1,1.3-1.9,1.8-2.7c0.2,0.1,0.3,0.2,0.5,0.2c0.3,1.9-1.6,3.7-0.3,6c0.5-2.1,0.7-4,2.7-5.3c-0.2,1.7-0.3,3.2-0.5,4.6
				c0.2,0,0.3,0,0.5,0c0.9-1.5,1.8-3.1,2.7-4.6c0.2,0.1,0.3,0.2,0.5,0.2c-0.1,1.1-0.1,2.3-0.2,3.4c1.5-1.1,2.5-2.2,3.4-3.4
				c1.1-1.5,1.6-3.2,1-5c-1-2.8,0-5.2,1-7.7c0.1-0.3,0.5-0.6,1.1-1.2c0,0.8,0,1.1-0.1,1.4c-0.9,2.7-1,5.4-0.5,8.2
				c0.4,2.4-0.6,4.5-2.2,6.3c-0.8,0.9-1.7,1.8-2,2.8c-1.3,4.2-2.4,8.6-3.5,12.8c1.9-1.3,2.4-3.1,2-5.1c-0.4-2.5,0.8-5.3,2.6-6.3
				c-0.3,1-0.6,1.8-0.8,2.6c-0.3,0.9-0.8,1.9-0.6,2.8c0.6,2.5,0,4.8-0.7,7.2c-0.7,2.4-1.4,4.7-0.7,7.2c0.2,0.8,0.8,1.5,1.3,2.2
				c0.1-0.1,0.2-0.1,0.3-0.2c-0.2-1.5-0.4-3-0.6-4.6c0.9,1.6,1.7,3.2,2.3,4.8c1,2.6,1.5,3.4,2.9,4c-0.4-1.4-0.8-2.7-1.2-4.1
				c0.2-0.1,0.3-0.1,0.5-0.2c0.3,0.4,0.6,0.7,0.8,1.2c0.8,2.7,1.9,5.4,2.3,8.2c0.9,5.3,1.6,10.6,4.1,15.5c0.1,0.2,0,0.6,0,1
				c-0.5-0.3-0.8-0.4-1.1-0.6c-0.1,0.1-0.3,0.2-0.4,0.2c1.1,2.4,2.3,4.8,3.4,7.2c-0.1,0.1-0.2,0.1-0.3,0.2c0-1.3,0.1-2.6,0.1-3.9
				c0.7,0.5,1.2,1.1,1.3,1.8c0.2,1.4,0.4,2.9,0.3,4.4c-0.1,1.6-0.1,3.3-0.6,4.9c-0.5,1.5-0.5,2,1.1,2.1c1.2,0.1,2.3,0.3,2.2,2
				c0.9-0.6,1.6-1.1,2.3-1.5c0.1,0.1,0.2,0.2,0.3,0.3c-0.5,0.7-0.9,1.4-1.4,2.1c0.1,0.1,0.2,0.3,0.3,0.4c0.8-0.6,1.7-1.1,2.5-1.7
				c0.1,0.1,0.2,0.2,0.3,0.3c-0.5,0.7-1,1.5-1.5,2.2c0.1,0.1,0.3,0.2,0.4,0.3c0.8-1,1.7-1.9,2.7-3.1c-0.1,1-0.2,1.6-0.3,2.2
				c0.1,0.1,0.2,0.1,0.4,0.2c1-1.4,2.1-2.8,3.1-4.2c0.2,0.1,0.4,0.2,0.5,0.3c-0.1,0.4-0.2,0.9-0.5,1.3c-1.8,2.9-2.7,6.1-3.1,9.5
				c-0.2,1.3,0.1,2.8,0.5,4.1c0.5,1.5,1.3,2.9,2,4.3c1,2,2.6,2.5,4.6,1.6c1.3-0.6,2.4-1.6,3.7-1.9c2.3-0.6,3.6-1.9,4.5-4
				c0.7-1.7,1.7-3.1,3.5-4c2.4-1.3,4.1-3.5,5-6c0.8-2.4,1-5.1,3.2-6.8c-1.4,0.2-2.6,0.4-3.8,0.8c-3.6,1-6.8-0.1-9-3.1
				c-0.5-0.7-1.1-1.3-1.8-1.7c-6.3-3.5-8.4-7.5-7.1-14.6c1.2-6.2,2.2-12.4,1.8-18.7c-0.1-1.3,0.2-2.7,0.3-4c0.3-3-0.7-5.6-2.5-7.9
				c-2.4-3.2-2.5-6.5-0.8-9.9c1.4-2.7,2.6-5.5,4.5-7.7c3.5-4.2,7.4-8.1,11.3-12c1.5-1.5,2.8-3,3-5.3c0.4-3.8,2-7.1,4.6-10.1
				c1.3-1.5,2.5-3.1,3.9-4.5c3.5-3.4,5.4-7.6,7.1-12c1.3-3.3,3.3-6,6.2-8.1c2.5-1.7,3.1-3.1,2.3-6.1c-0.8-2.9,0.2-5.3,2.4-7.1
				c2.7-2.3,5.6-4.4,8.5-6.5c6-4.1,12-8.1,18-12.2c1.4-0.9,2.6-2.3,2.4-4.2c-0.4-3.2,0.6-5.3,3.3-7c1.4-0.9,2.8-2,4.2-3
				c0.6-0.4,1.2-0.9,1.9-1.1c1.5-0.4,2.2-1.4,2.9-2.6c0.6-1,1.5-1.9,2.3-2.8c0.2,0.1,0.4,0.2,0.5,0.3c-0.6,3.5-2.9,6.7-2.2,10.5
				c0.5-0.8,1-1.6,1.1-2.5c0.3-3.1,0.7-4,2.2-5.2c-0.4,1.9-0.7,3.8-1.1,6.1c2-1.6,3.6-2.8,5.6-4.4c-0.1,0.8,0,0.9-0.1,1.1
				c-1.9,3.1-4.1,5.9-7.3,7.9c-1.5,0.9-3.2,2.2-3.8,3.7c-1.1,2.7-3.1,4.5-5,6.5c-0.9,0.9-1.7,1.8-2.5,2.8c-0.4,0.5-0.6,1.3-0.9,1.9
				c1.7-1.2,2.6-3.2,5.1-3.9c-1.4,2.3-2.5,4.1-3.8,6.4c1.8-0.4,2.1,0.5,1.9,1.3c-0.6,2.3-1.3,4.5-2.1,6.7c-0.6,1.4-1.7,2.3-3.4,2.5
				c-3.3,0.5-5.4,2.3-6.2,5.6c-0.1,0.6,0,1.2,0,2.3c1-1.5,1.7-2.6,2.4-3.7c0.1,0.1,0.1,0.1,0.2,0.2c-0.2,1.6-0.5,3.3-0.7,4.8
				c2.2,1.4,2-1.1,3-1.4c0.1,1.1,0.1,2,0.2,3c0.3,0,0.5,0,0.8,0c0-0.5,0.1-1.1,0.1-1.6c0-0.6-0.1-1.2-0.2-2.2c1.7,1.6,2.9,3,4.2,4.1
				c1.8,1.5,3,3.3,3.3,5.7c0.4,2.7,0.9,5.5,1.2,8.2c0.3,2.9,0.4,5.7,0.4,8.6c0.1,3.3,0,6.6,0,9.8c0,1.2-0.1,2.3-0.1,3.5
				c0.1,1.6,0.3,3.3,0.5,4.9c0.1,0,0.3,0,0.4,0c0.1-0.6,0.1-1.2,0.2-1.8c0.1,0,0.2,0,0.3,0c0.5,1.1,0.9,2.2,1.4,3.3
				c0.2,0,0.3-0.1,0.5-0.1c-0.1-1-0.2-2-0.3-3.1c0.4,0,0.7,0,1.1,0.1c-0.2-1-0.4-1.9-0.7-2.8c0.2-0.1,0.3-0.1,0.5-0.2
				c0.3,0.6,0.7,1.2,0.9,1.8c1,2.8,1.9,5.7,2.8,8.5c1.5,4.6,1.4,8.9-1.9,12.8c-0.8,0.9-1.8,1.7-2.7,2.5
				c-9.3,8.7-18.6,17.4-27.9,26.2c-0.3,0.3-0.6,0.7-1,1c2.4,1,4.4,0.5,6.5-0.9c5.7-3.6,11.5-7.1,17.5-10.1
				c6.5-3.3,13.1-6.8,20.8-6.5c2.5,0.1,4.2-1.6,5.4-3.8c0.7-1.1,1.6-2.2,2.7-2.9c3.3-2.1,6.7-3.9,10.2-5.9c7-3.9,14.4-6.7,22.1-8.7
				c2.6-0.7,5.3-0.9,7.6,1.2c0.3,0.3,1,0.4,1.4,0.3c3.9-0.6,7.7-1.3,11-3.9c3.8-3,5.3-6.9,3.8-11.6c-0.5-1.6-0.9-3.3-0.9-5
				c-0.4-9.1,3-17,8.6-23.9c3.8-4.7,8-8.9,13-12.4c0.8-0.6,1.9-2,1.7-2.7c-0.6-2.5,0.5-4.5,1.1-6.8c0.2-0.8,0.3-1.7,0-2.4
				c-0.8-2.3-1-4.6-0.3-7c0.2-0.5,0.1-1.2-0.1-1.7c-0.6-1.5-1.4-3-2.2-4.6c-0.3,0.1-0.8,0.3-1.3,0.5c-0.1-0.2-0.3-0.4-0.4-0.5
				c1.5-1.9,3.1-3.8,5.5-4.9c1.2-0.5,2.1-1,1.7-2.6c-0.2-0.6,0.2-1.5,0.5-2.1c0.8-1.4,1.8-2.8,2.5-4.2c0.4-0.8,0.5-1.8,0.5-2.7
				c0-0.9-0.2-1.8-0.3-2.7c-0.3-2.1-0.5-4.3-0.8-6.4c-0.5-3.6-1.4-7.2-1.5-10.9c-0.1-3.7-0.4-7.1-2.1-10.5c-1.7-3.5-3.7-6.5-7.7-7.6
				c-0.9-0.3-1.8-0.8-2.5-1.4c-2.4-2.3-5.1-4.4-7-7c-1.1-1.4-2.1-2.6-3.6-3.4c-2.9-1.5-5.8-1.1-8.7-0.7c0,0.2,0,0.3-0.1,0.5
				c1.9,0.3,3.8,0.6,5.8,0.9c0,0.2,0,0.4,0,0.6c-2.5,0.3-5,0.5-7.6,0.8c0.4,0.7,0.8,1.3,1.2,2c-0.1,0.1-0.3,0.2-0.4,0.3
				c-0.5-0.5-1-0.9-1.5-1.4c-0.5-0.4-1-0.7-1.5-1.1c-0.1,0.1-0.2,0.2-0.3,0.4c0.4,0.7,0.7,1.3,1.1,2c-0.9-0.1-1.4-0.5-2-0.9
				c-0.6-0.4-1.1-0.9-2-1.6c0.2,1,0.4,1.6,0.5,2.1c-0.1,0.1-0.2,0.1-0.3,0.2c-1.1-1.1-2.2-2.2-3.5-3.5c0.3,1.1,0.6,1.9,0.8,2.7
				c-0.1,0.1-0.3,0.1-0.4,0.2c-0.9-1.5-2.1-2.8-2.7-4.4c-0.8-2.1-2.2-3.3-4.2-4c-0.5-0.2-0.9-0.4-1.4-0.6c-2-0.9-3.6-2.3-4.5-4.4
				c-1-2.5-1.9-5.1-3-7.6c-1-2.2-2-4.8-3.7-6.4c-3.4-3.4-6.8-6.8-9.5-10.8c-0.9-1.3-2.3-2.7-3.8-3.2c-5.4-2.1-10.8-4-16.3-5.8
				c-4.8-1.6-9.7-2.9-14.6-4.3c-2.5-0.7-5-1.6-7.6-1.9c-2.7-0.3-5.4-0.1-8.1-0.1c0,0.3,0,0.6,0,0.8c0.6,0.1,1.2,0.3,1.7,0.2
				c3-0.3,5.9-0.2,8.7,1c0.6,0.2,1.1,0.6,1.7,1c-0.1,0.1-0.1,0.3-0.2,0.4c-0.5,0-1-0.1-1.4-0.1c-2.3-0.2-4.6-0.5-6.9-0.5
				c-1.6,0-2.8,0.6-4,1.9c-0.8,0.9-2.1,1.5-3.3,1.7c-6.7,0.9-13-0.9-19.3-3c-3.9-1.3-7.5-3.2-11.4-4.4c-1.9-0.7-4.1-0.6-6.2-0.9
				c0,0.2,0,0.4-0.1,0.6c1.2,0.2,2.3,0.3,3.4,0.5c-0.6,2.5-2.7,0.8-4.1,1.5c3,1.3,3,1.3,2.9,1.9c-1.6,0.4-3.2,0.7-4.7,1
				c0,0.2,0,0.4,0,0.6c1.9,0.3,3.7,0.5,5.6,0.8c0,0.2,0,0.4,0,0.6c-1.1,0.2-2.1,0.4-3.2,0.6c-3.1,0.6-6.2,1-9.4-0.3
				c-1.7-0.7-3.4-1.1-5.2-1.6c-3.5-1-6.6,0.6-9.7,2c26.9,6,53.8,12.1,80.7,18.1c0,0.1-0.1,0.3-0.1,0.4
				c-26.4-5.4-52.8-10.9-79.2-16.3c0.2,0.6,0.6,1,1,1.4c18.9,16.7,37.8,33.4,56.8,50c1.3,1.1,3,2,4.6,2.3
				c29.8,6.5,59.6,13,89.3,19.5c0.6,0.1,1.2,0.3,1.8,0.5c0,0.2-0.1,0.4-0.1,0.5c-0.7-0.1-1.5-0.1-2.2-0.2c-8.2-1.7-16.4-3.4-24.6-5
				c-21.7-4.4-43.4-8.9-65.1-13.4c-1.5-0.3-2.1,0.1-2.6,1.4c-0.6,1.5-1.2,2.9-2,4.3c-0.6,1.2-0.2,1.8,0.9,2.2c1.3,0.5,2.6,1,4,1.5
				c3.1,1.2,6.3,1.7,9.6,1.3c3.9-0.5,7.7-0.4,11.5,1.3c1.3,0.6,3.1,0.4,4.6,0.5c1.9,0.1,3.8-0.2,5.6,0.2c3.7,1,7.2,2.3,10.8,3.6
				c0.6,0.2,1.1,0.7,1.6,1c-0.1,0.1-0.1,0.3-0.2,0.4c-1.7-0.6-3.5-1.2-5.2-1.8c-4.4-1.8-8.8-3.2-13.7-2.1c-1,0.2-2.2,0-3.1-0.4
				c-3.6-1.8-7.3-1.9-11.1-1.5c-4.2,0.4-8.4-0.2-12.3-2c-2.7-1.2-5.3-2.5-8.4-1.3c-0.9,0.3-1.4-0.2-2.1-0.9c-2.1-2.4-4.1-5-6.6-7
				c-3-2.4-6.2-4.4-8.7-7.4c-1.5-1.8-3.3-3.4-5-5.1c-1.6-1.7-3.6-2.3-6-2.3c-1.9,0-3.8-0.2-5.7-0.5c-0.6-0.1-1.1-0.5-1.7-0.7
				c0-0.1,0.1-0.2,0.1-0.4c0.8,0,1.5,0,2.1,0c-0.7-0.5-1.6-1-2.4-1.5c0.1-0.1,0.2-0.3,0.2-0.4c0.5,0,1,0,1.4,0
				c-0.2-2.7-1.4-4.5-3.9-5.5c-1.2-0.5-2.2-1.4-3-2.4c-1.8-2.1-3.6-4.3-5.2-6.5c-1.9-2.6-3.7-5.1-6.5-6.8c-2.5-1.5-4.4-3.6-6-6.1
				c-2-3.1-4.2-6-6.4-8.9c-1.8-2.4-5.5-4.1-7.7-3.4c-3.4,1.2-6.7,2-10.3,0.9c-1.3-0.4-2,0.4-1.9,1.8c0.1,2.2,1.2,3.9,3.1,4.9
				c4.3,2.3,6.3,5.8,6.3,10.6c0,1.4,0.4,3,1,4.3c1.8,3.6,4.1,7,4.7,11c0.5,3.1,2.2,4.5,5,5.5c2.5,0.9,4.9,2,7.2,3.3
				c1.1,0.6,2.1,1.6,2.7,2.7c1.5,3,0.6,6.5-2,8.6c-1.3,1-2.8,1.7-4.2,2.5c-1.7,1.1-3.6,1.9-5.2,3.2c-5.9,5.1-12.8,7.8-20.3,9.4
				c-1,0.2-2.2,0.9-2.7,1.7c-1.7,2.7-4,4-7,3.9c-1.9-0.1-2.7,0.9-2.7,2.6c0,2.8-1.3,5.1-3,7.2c-0.7,0.9-1.5,1.9-2.1,2.9
				c-0.4,0.6-0.4,1.3-0.6,2c0.2,0.1,0.4,0.2,0.6,0.3c1.5-1.8,2.9-3.7,4.4-5.5c0.2,0.1,0.3,0.1,0.5,0.2c-0.1,0.5-0.1,1.1-0.4,1.6
				c-0.4,0.7-0.9,1.3-1.3,2c-1.3,2-2.5,4-3.8,6.1c0.2,0.2,0.4,0.4,0.7,0.6c0.7-0.7,1.5-1.4,2.2-2c0.2,0.1,0.3,0.1,0.5,0.2
				c-1.1,2.8-2.2,5.5-3.3,8.2c0.9,0.6,1.4,0.9,1.9,1.2c-0.7,0.4-1.2,0.8-1.8,1.1c0.5,0.3,1,0.6,1.5,0.8c0.7-1.5,1.2-2.7,1.8-3.9
				c0.4,0.3,0.5,0.6,0.5,0.8c-0.3,1.6-0.6,3.2-0.9,4.8c-0.2,0.9-0.2,1.7,0.9,2c1,0.2,1.5,0.6,1.2,1.9c-0.3,1.4,0.1,1.8,1.1,2
				c0.1-0.9,0.3-1.7,0.5-2.8c1.5,1.3-0.2,4.2,2.8,3.8c0.2-0.4,0.5-0.8,1-1.8c0,2.3,1.2,2.5,2.5,2.7c1.2,0.1,2.5,0.4,3.7,0.4
				c0.6,0,1.2-0.3,1.6-0.4c0.9,0.4,1.7,0.8,2.4,1.1c0.2,0.8,0.3,1.6,0.5,2.4c0.2,0,0.3,0,0.5,0c0.5-1.4,1-2.8,1.5-4.2
				c0.2,0,0.3,0,0.5,0.1c0,1.4,0,2.7,0,4.1c0.2,0.1,0.3,0.1,0.5,0.2c1.2-1.7,2.5-3.3,3.7-5c0.1,0.1,0.3,0.1,0.4,0.2
				c-0.1,0.6-0.1,1.2-0.3,1.7c-1.1,2-2.1,4-3.3,5.9c-0.7,1.1-1.4,2.2-2.3,3.1c-1.2,1.3-2.4,2.7-3.8,3.7c-1.6,1.1-3.4,1-5-0.5
				c-0.4-0.4-1-0.5-1.7-0.9c0,1.7,0.1,3,0.1,4.3c-2.4-0.3-2.7-0.1-2.2,1.8c0.7,0,1.4,0,2.1,0c-0.1,0.1-0.2,0.2-0.2,0.3
				c0.6,0.6,1.2,1.2,1.8,1.7c-0.5,0.3-1.2,0.7-1.8,1.1c0.1,0.2,0.2,0.5,0.3,0.7c1-0.3,2.1-0.6,3.3-0.9c0.8,0.8,3.2,0.6,4.4-0.7
				c0.9,1.5,1.6,1.5,2.6,0.2c0.7,0.3,1.3,0.5,1.8,0.7c0.3-1.2,0.4-2,0.6-3c0.7,0.6,1,1,1.6,1.5c0.3-1,0.5-1.8,0.8-2.7
				c1.5,0.3,3-1.6,4.8,0.1c1.5-2.6,2.9-5.3,4.3-7.9c0.1,0.1,0.3,0.1,0.4,0.2c0,0.7,0,1.3,0,2c0.8-0.4,1.5-0.7,2.6-1.2
				c-0.3,0.8-0.4,1.1-0.5,1.3c-3.4,5.1-4.1,10.9-4.4,16.8c-0.1,1.9-0.3,4.1-1.2,5.8c-3.9,7.4-9,13.7-17.5,16.2
				c-2.8,0.8-5.6,1.7-8.8,2.7c1.8-3,5.4-2,7.7-3.9c-1.2-0.2-2-0.4-2.8-0.6c1-0.5,2-0.7,3-0.9c1-0.2,2.2-0.4,1.2-1.9
				c-0.8,0.1-1.6,0.2-2.8,0.3C351.7,407.2,352.9,406.4,354.1,405.6c1.7-0.6,2.9-1.8,4.2-3.1c-0.1-0.2-0.3-0.3-0.4-0.5
				C356.6,403.2,355.3,404.4,354.1,405.6z M448,388.5c-0.3,0.7-0.5,1-0.6,1.3c-17.3,37.8-34.6,75.6-52,113.5
				c-0.6,1.4-0.1,2.4,0.8,2.9c1.8,1.1,3.7,2,5.9,1.5c1.1-0.3,2.3-0.3,3.3-0.7c1.2-0.4,2.5-0.8,3.4-1.7c11.9-11,23.6-22.2,35.4-33.3
				c7.6-7.1,15.1-14.2,22.7-21.3c1.1-1,1.4-1.8,0.5-3.2c-0.7-1.1-1.2-2.7-1.1-4c0.3-4.5-0.8-8.7-2.1-12.8c-1.3-4-2.6-8-6-10.8
				c-0.5-0.4-0.9-1.2-1.2-1.8c-1.9-4.9-3.9-9.8-4-15.2c0-1.3-0.3-2.6-0.7-3.8C450.9,395.7,449.5,392.3,448,388.5z M344.7,377.4
				c1.2,0.1,2.2,0.2,3.2,0.2c0-3.5-0.4-3.9-3.5-3.6c0.7,0.3,1.5,0.7,2.3,1.1c-0.7,0.1-1.3,0.3-2,0.4
				C344.7,376.1,344.7,376.7,344.7,377.4z M354.1,307.2c2.4-0.2,2.4-2,3.1-3.4C354.9,303.9,355.1,305.8,354.1,307.2z M355.2,308.4
				c-0.1-0.1-0.3-0.2-0.4-0.4c-0.6,0.5-1.4,0.9-1.8,1.5c-0.2,0.3,0.3,1,0.4,1.6c0.4-0.3,0.8-0.5,1-0.9
				C354.8,309.7,354.9,309,355.2,308.4z M361.7,304.3c2.3,0,2.8-1.1,2.7-2.5c-0.1-0.1-0.3-0.2-0.4-0.3
				C363.3,302.3,362.6,303.2,361.7,304.3z M457.1,392.2c1.7-0.8,1.7-1.2,0.4-3C455.6,390,456.9,391.1,457.1,392.2z M455.1,393.7
				c1.3-0.8,1.4-1.2,0.1-3C453.8,391.5,453.8,391.6,455.1,393.7z M460.9,410.6c-2.2,0.6-2.3,1.1-0.6,2.7
				C460.5,412.3,460.7,411.4,460.9,410.6z M459.2,401c-2,0.3-2.1,1.3-1.3,3.2C458.4,402.9,458.8,402,459.2,401z M361.4,485.6
				c-0.3,0.1-0.5,0.2-0.8,0.3c0.5,1.2,1,2.4,1.6,3.5c0.2-0.1,0.5-0.2,0.7-0.3C362.4,488,361.9,486.8,361.4,485.6z M358.8,305.4
				c0.2,0.1,0.4,0.2,0.6,0.3c0.5-0.9,1-1.8,1.7-3.1C358.9,303,359.2,304.4,358.8,305.4z M348.2,386.8c1.2-0.1,2.5,0.3,2.5-1.6
				C349.8,385.5,348.2,384.5,348.2,386.8z M335.6,361.5c0.5-1.5,0-2.2-1.6-2.2C334.3,360.3,333.8,361.6,335.6,361.5z M355,370.7
				c0.2-1.4-0.2-2.1-1.7-1.7C352.9,370.4,353.5,370.9,355,370.7z M342.6,374c0.1-0.2,0.1-0.5,0.2-0.7c-1.2-0.3-2.4-0.5-3.5-0.8
				c-0.1,0.3-0.1,0.5-0.2,0.8C340.2,373.6,341.4,373.8,342.6,374z M338.2,359.4c0.9-2,0-2.2-1.6-1.8
				C337.2,358.2,337.7,358.8,338.2,359.4z M336.1,358.1c-0.7-0.9-1.1-1.5-1.8-2.4C333.6,357.6,334.1,358.3,336.1,358.1z
				 M363.1,305.9c-0.1-0.2-0.3-0.4-0.4-0.6c-0.9,0.7-1.7,1.5-2.6,2.2c0.2,0.2,0.3,0.4,0.5,0.6C361.5,307.4,362.3,306.7,363.1,305.9z
				 M338,365.9c-0.5,1.6-0.3,2.5,1.9,2.1C339.1,367.1,338.6,366.5,338,365.9z M362,294.3c0.1,0.2,0.3,0.3,0.4,0.5
				c1-0.3,2.1-0.5,1.7-2.5C363.2,293.1,362.6,293.7,362,294.3z M348.2,368.3c-0.1,1.2,0,2.2,1.6,1.8
				C350.1,368.8,349.9,368,348.2,368.3z M366.2,287.1c-0.2-0.2-0.4-0.5-0.7-0.7c-0.6,0.6-1.2,1.1-1.8,1.7c0.2,0.2,0.4,0.4,0.6,0.7
				C365,288.2,365.6,287.6,366.2,287.1z M352,307.8c0.4-0.9,0.8-1.8,1.3-2.8C351,305.1,351.8,306.6,352,307.8z M412,244.4
				c-0.1-0.2-0.1-0.5-0.2-0.7c-1.1,0.2-2.2,0.4-3.3,0.6c0.1,0.3,0.1,0.5,0.2,0.8C409.8,244.8,410.9,244.6,412,244.4z M358.3,405.9
				c-0.1-0.2-0.1-0.5-0.2-0.7c-0.5,0.2-1.1,0.2-1.4,0.5c-0.3,0.3-0.3,0.9-0.4,1.3c0.2,0.1,0.3,0.1,0.5,0.2
				C357.3,406.8,357.8,406.3,358.3,405.9z M356.7,386.4c1.3,0.2,2.1,0.1,1.7-1.5C357.4,384.8,356.4,384.8,356.7,386.4z M458.1,409.3
				c0.2,0.1,0.4,0.2,0.6,0.2c1.1-0.5,1.6-1.2,0.4-2.7C458.6,407.9,458.4,408.6,458.1,409.3z M356.9,309.5c0.2,0.1,0.4,0.2,0.6,0.3
				c0.5-0.8,0.9-1.7,1.4-2.5c-0.2-0.1-0.4-0.3-0.7-0.4C357.8,307.8,357.4,308.7,356.9,309.5z M337.1,360.6c-0.3,1.4,0.4,1.7,1.7,1.6
				C338.7,360.7,338.7,360.7,337.1,360.6z M334.6,352.7c-0.3,0.1-0.5,0.3-0.8,0.4c0.3,0.5,0.6,1.1,1,1.5c0,0,0.6-0.3,0.9-0.4
				C335.3,353.8,335,353.3,334.6,352.7z M384.9,249.3c-1.5-1.1-2.4-1.2-3.2,0.4C382.6,249.6,383.5,249.5,384.9,249.3z"/>
			<path d="M526.5,392.7c-4.6,0.9-9.1,1.9-13.8,2.8c0.4,0.8,0.6,1.3,0.8,1.7c-0.1,0.1-0.2,0.3-0.3,0.4c-2.4-1.3-4.7-2.5-7.5-4
				c2.5-2.4,4.5-4.6,6.8-6.4c4.4-3.5,8.8-7,11.7-11.9c1.5-2.6,2.6-5.5,4.2-8.1c1.7-2.8,3.8-5.3,6-8.2c-0.2,4.3-3.5,6.7-5.1,9.7
				c1,0.2,1.9,0.5,2.8,0.7c-0.4,0.9-0.8,1.8-1.3,2.8c1,0.2,2,0.3,3.1,0.5c-2.5,2-1.1,4.6-2.1,6.9c0.8,0.1,1.3,0.2,2.1,0.3
				c-0.7,0.6-1.4,1.1-2,1.6c0.1,0.1,0.2,0.3,0.2,0.4c0.9,0,1.7-0.1,3-0.1c-0.8,0.6-1.3,0.9-1.9,1.3c0.4,0.3,0.8,0.5,1.1,0.7
				c-0.4,0.8-0.9,1.7-1.4,2.8c1.2,0,2,0,2.9,0c-6,3.8-13.2,3.5-19.4,6.6c3.4-0.4,6.7-0.8,10.1-1.2
				C526.4,392.3,526.5,392.5,526.5,392.7z M527.5,371.6c0.1,0.2,0.3,0.4,0.4,0.6c1.8,0.5,1.8-1.2,2.5-2.1c-0.1-0.2-0.2-0.3-0.4-0.5
				C529.2,370.3,528.3,370.9,527.5,371.6z"/>
			<path d="M465.5,365.3c2.1-1.3,4.2-2.6,6.3-4c0.1,0.2,0.3,0.4,0.4,0.6c-0.6,0.6-1.2,1.1-1.4,1.3c-0.3,1.6-0.5,2.8-0.7,4.3
				c0.6-0.6,1.1-1.1,1.6-1.6c0.1,0.1,0.2,0.1,0.3,0.2c-0.4,1.2-0.9,2.3-1.4,3.7c1.5-1.2,2.7-2.1,4-3.1c0.1,0.1,0.2,0.2,0.3,0.3
				c-0.2,0.3-0.3,0.6-0.5,0.9c-1.6,2.5-3.5,4.9-4.8,7.5c-1.3,2.5-3,4.5-5.3,6c-2.6,1.6-5.3,1.8-8.4,0.6c2.4-1.4,4.5-2.7,6.2-3.7
				c0.2-1.2,0.3-1.9,0.4-2.7c0.4-3.2,0.8-6.3,1.4-9.5c0.2-1.3,0.8-2.6,1.6-3.6c1.4-1.8,3.2-3.2,5.7-3.6c-2,2-3.9,4-5.8,6
				C465.3,365,465.4,365.2,465.5,365.3z"/>
			<path d="M403.5,337.3c-0.4,0.3-0.8,0.7-1.3,1.1c-0.1-2.3,0.3-2.6,2.8-1.5c-0.2-0.4-0.3-0.7-0.4-1c-0.6-1-0.8-1.8-0.1-3.1
				c0.9-1.6,1.1-3.7,1.7-5.7c2.1,0,0.3-1.7,0.4-2.3c1-0.5,1.8-0.8,2.8-1.2c-0.2,1.3-0.4,2.4-0.6,3.5c0.1,0,0.3,0.1,0.4,0.1
				c0.6-0.5,1.3-1,1.9-1.5c0.1,0.1,0.2,0.1,0.3,0.2c-0.6,1.1-1.1,2.1-1.7,3.2c0.1,0.1,0.2,0.1,0.3,0.2c1.4-1,2.9-1.9,4.3-2.9
				c0.2,0.2,0.3,0.3,0.5,0.5c-0.6,0.5-1.2,1.1-1.7,1.6c-0.6,0.6-1.5,1.3-1.6,2c-0.5,3-2.5,5-4.4,7.1c-0.7,0.7-1.3,1.6-1.9,2.4
				c-0.7,1-0.7,2.1-0.3,3.4c1.2,3.5,2.2,7.1,1.1,10.8c-0.3,1-0.9,1.9-1.3,2.9c-0.2-0.1-0.5-0.2-0.7-0.3c0.2-0.7,0.3-1.5,0.5-2.1
				c1.2-3.4,1-6.6-0.8-9.8c-1.2-1.9-0.9-3.9,0-5.8c0.2-0.5,0.2-1,0.4-1.5C403.8,337.4,403.7,337.4,403.5,337.3z"/>
			<path d="M386,402.7c0.4,0.6,0.7,1,1,1.4c1.3-2.4,2.5-4.6,3.8-6.9c0.2,0.1,0.4,0.2,0.6,0.3c-0.4,1.1-0.7,2.3-1.2,3.4
				c-0.9,2.5-1.5,5-1.1,7.6c0.6,4.1-0.8,7.7-3,11c-0.7,1.1-1.1,2.5-1.6,3.8c-0.3,0.6-0.6,1.2-0.8,1.8c-0.2-0.1-0.4-0.2-0.6-0.2
				c0.7-2.3,1.5-4.5,2.3-7c-0.7,0.9-1.4,1.8-2,2.6c-0.1-0.1-0.3-0.1-0.4-0.2c0.2-0.4,0.3-0.9,0.5-1.2c1.5-2.9,2.3-6,1.7-9.3
				C384.8,407.6,384.9,405.2,386,402.7z"/>
			<path d="M429.6,321.6c2.1-0.1,4.1-0.1,6.2-0.2c0-0.2,0-0.3,0-0.5c-0.8-0.2-1.5-0.3-2.3-0.5c0-0.2,0-0.3,0-0.5
				c1-0.3,1.9-0.5,3.3-0.9c-1.7-1-1-1.6,0-1.8c2.2-0.6,4.5-1.2,6.7-1.6c0.5-0.1,1.1,0.2,1.5,0.5c0.2,0.2-0.1,0.9-0.3,1.3
				c-2.1,3.6-9.3,6.5-13.3,5.3c-0.7-0.2-1.3-0.6-1.9-0.9C429.5,321.8,429.5,321.7,429.6,321.6z"/>
			<path d="M467.3,422.1c-0.2-1.3-0.6-2.7-0.6-4c0.2-5.8,0.5-11.6-0.3-17.4c-0.1-0.5,0.1-1.1,0.1-2c1.5,3.4,2.1,15.8,1.2,23.3
				C467.7,422,467.5,422.1,467.3,422.1z"/>
			<path d="M356.1,320.7c4.9-1.8,10.6-3.9,15.3-5.7C370.3,316.9,358,321.6,356.1,320.7z"/>
			<path d="M342.5,418.2c2.8,1.5,2.5,8.8-3.1,13.5c0.2-0.8,0.1-1.7,0.5-2.3c2.3-3.1,3.1-6.4,2.4-10.2
				C342.3,418.9,342.4,418.6,342.5,418.2z"/>
			<path d="M465.7,359.9c1.1-1.9,1.9-3.6,3-5.2c0.7-1,1.8-1.9,2.7-2.7c1.9-1.6,3.8-3.1,5.7-4.7c0.2,0.2,0.3,0.3,0.5,0.5
				c-1.2,1.3-2.4,2.8-3.8,3.9c-2.1,1.7-4.3,3.3-5.2,6C468.2,359,467.3,360.2,465.7,359.9z"/>
			<path d="M473.7,321.5c-4.6-0.5-8.9-0.9-13-1.3c0.8-1.2,2.8-1.7,6.1-1.4C469.2,319.1,471.7,319.4,473.7,321.5z"/>
			<path d="M350.4,325c-1,0.2-1.8,0.4-2.6,0.4c-1.6,0-2.5,0.7-2.6,2.4c-0.1,0.9-0.6,1.8-0.9,2.7c-0.2,0-0.4-0.1-0.6-0.1
				c0.1-1.6,0.2-3.3,0.3-4.9c0-0.3,0.3-0.6,0.6-0.8C345.6,323.8,348.8,323.9,350.4,325z"/>
			<path d="M357.7,432.8c-1.4-2.3,0.8-9,3.5-10.8C360.1,425.5,358.9,429.1,357.7,432.8z"/>
			<path d="M360,253.1c1,0.9,1.9,1.6,2.9,2.5c-2.1,0.8-5.1-1.3-4.7-3c0.1-0.6,1.3-1.5,1.8-1.4C361.9,251.5,360.4,252.4,360,253.1z"
				/>
			<path d="M458.5,246.9c3.2-1.4,6.1-0.1,9.1,0.4c0,0.2-0.1,0.5-0.1,0.7C464.5,247.6,461.5,247.2,458.5,246.9z"/>
			<path d="M533,366.6c1-2.2,1.9-4.2,2.9-6.3C536.4,362.9,535.1,365.7,533,366.6z"/>
			<path d="M403.7,348.5c1.1,1.8,0.7,5-1,6.3C403,352.9,403.3,350.9,403.7,348.5z"/>
			<path d="M357.7,434.4c1.4,1.6,0.8,4.3-1,4.8C357.1,437.7,357.4,436.1,357.7,434.4z"/>
			<path d="M368.5,372.9c-0.7,1.5-1.3,2.9-2.1,4.5C366,375.6,366.8,374,368.5,372.9z"/>
			<path d="M352.7,377.5c-0.1,1.1-0.2,2.2-0.2,3.3c-0.3,0-0.5,0-0.8,0c0-1.1,0-2.2,0.1-3.3C352.1,377.5,352.4,377.5,352.7,377.5z"/>
		</g>
	</g>
</g>
</svg>
