<?xml version="1.0" encoding="utf-8"?>
<!-- Generator: Adobe Illustrator 22.0.1, SVG Export Plug-In . SVG Version: 6.00 Build 0)  -->
<svg version="1.1" id="Layer_1" xmlns="http://www.w3.org/2000/svg" xmlns:xlink="http://www.w3.org/1999/xlink" x="0px" y="0px"
	 viewBox="0 0 750 107.2" style="enable-background:new 0 0 750 107.2;" xml:space="preserve">
<path d="M750,80.8v26.4H0V80.8h0.1V46.2l33.2-26.9c0,0,6.5,20.4,6.6,20.4s38.7-11.2,38.7-11.2l19.1,11.2l61.4-21.9l11,22.6
	l89.4-21.2l-5.3,18.2l85.3-27.7l5.3,24.7l34.3-23.9l26,19.8l54.1-11.1l23.9,14.4L530,14.2l7,14.3L603.6,0v28.5l58.7-24.1
	c0,0,14.2,21.8,17,24.1C682,30.7,721.9,0,721.9,0l7.3,22.5l20.7-12L750,80.8L750,80.8z"/>
</svg>
