<?xml version="1.0" encoding="utf-8"?>
<!-- Generator: Adobe Illustrator 22.0.1, SVG Export Plug-In . SVG Version: 6.00 Build 0)  -->
<svg version="1.1" id="Layer_1" xmlns="http://www.w3.org/2000/svg" xmlns:xlink="http://www.w3.org/1999/xlink" x="0px" y="0px"
	 viewBox="0 0 750 107.2" style="enable-background:new 0 0 750 107.2;" xml:space="preserve">
<path d="M750.4,82.2v26.5H-2V82.2h0.1V47.5l33.3-27c0,0,6.5,20.5,6.7,20.5s38.8-11.2,38.8-11.2L96,41l61.6-22l11.1,22.7l89.7-21.2
	l-5.3,18.2l85.5-27.8l5.3,24.8l34.4-24l26.1,19.8l54.3-11.1l24,14.5l46.9-19.5l7,14.3l66.8-28.6v28.6l58.9-24.1
	c0,0,14.3,21.9,17,24.1c2.7,2.2,42.8-28.6,42.8-28.6l7.3,22.5l20.8-12v70.5H750.4z"/>
</svg>
